<?xml version="1.0" encoding="UTF-8"?>
<svg id="Capa_2" data-name="Capa 2" xmlns="http://www.w3.org/2000/svg" viewBox="0 0 72.37 72.24">
  <defs>
    <style>
      .cls-1 {
        fill: #505253;
      }

      .cls-2 {
        fill: #4e5052;
      }

      .cls-3 {
        fill: #0b3755;
      }

      .cls-4 {
        stroke-dasharray: .33 .89;
      }

      .cls-4, .cls-5, .cls-6, .cls-7, .cls-8, .cls-9, .cls-10, .cls-11 {
        stroke-miterlimit: 10;
      }

      .cls-4, .cls-5, .cls-6, .cls-8, .cls-9 {
        stroke-linecap: round;
      }

      .cls-4, .cls-5, .cls-6, .cls-8, .cls-9, .cls-10 {
        fill: none;
      }

      .cls-4, .cls-5, .cls-8, .cls-9, .cls-10 {
        stroke: #585b5c;
      }

      .cls-4, .cls-5, .cls-9 {
        stroke-width: .44px;
      }

      .cls-12 {
        fill: #edeef2;
      }

      .cls-13 {
        fill: #434446;
      }

      .cls-14 {
        fill: #083854;
      }

      .cls-15 {
        fill: #093f61;
      }

      .cls-16 {
        fill: #525457;
      }

      .cls-17 {
        fill: #fefefe;
      }

      .cls-18 {
        fill: #57595a;
      }

      .cls-19 {
        fill: #edeff2;
      }

      .cls-20 {
        fill: #264d62;
      }

      .cls-21 {
        fill: #093957;
      }

      .cls-22 {
        fill: #fff;
      }

      .cls-23 {
        fill: #515354;
      }

      .cls-24 {
        fill: #fdfdfd;
      }

      .cls-25 {
        fill: #eeeff3;
      }

      .cls-26 {
        fill: #eff1f3;
      }

      .cls-27 {
        fill: #3d474d;
      }

      .cls-28 {
        fill: #093958;
      }

      .cls-6 {
        stroke: #254d62;
      }

      .cls-6, .cls-8 {
        stroke-width: 1.5px;
      }

      .cls-29 {
        fill: #073a58;
      }

      .cls-30 {
        fill: #444749;
      }

      .cls-31 {
        fill: #505052;
      }

      .cls-32 {
        fill: #4b4d4e;
      }

      .cls-33 {
        fill: #505153;
      }

      .cls-34 {
        fill: #545556;
      }

      .cls-35 {
        fill: #525455;
      }

      .cls-36 {
        fill: #053a56;
      }

      .cls-7 {
        stroke: #1d1d1b;
      }

      .cls-7, .cls-37, .cls-11 {
        fill: #585b5c;
      }

      .cls-7, .cls-11 {
        stroke-width: .1px;
      }

      .cls-38 {
        fill: #efeff0;
      }

      .cls-39 {
        fill: #eff1f4;
      }

      .cls-40 {
        fill: #ebecf0;
      }

      .cls-41 {
        fill: #f9f9f9;
      }

      .cls-42 {
        fill: #3d4950;
      }

      .cls-43 {
        fill: #0a3856;
      }

      .cls-44 {
        fill: #525456;
      }

      .cls-45 {
        fill: #f3f4f3;
      }

      .cls-46 {
        fill: #4f5153;
      }

      .cls-9 {
        stroke-dasharray: .35 .92;
      }

      .cls-10 {
        stroke-width: .84px;
      }

      .cls-47 {
        fill: #f0f2f4;
      }

      .cls-48 {
        fill: #373a3d;
      }

      .cls-49 {
        fill: #0a3855;
      }

      .cls-50 {
        fill: #083957;
      }

      .cls-11 {
        stroke: #fff;
      }
    </style>
  </defs>
  <g id="Capa_1-2" data-name="Capa 1">
    <g>
      <g>
        <rect class="cls-37" x="26.64" y="48.53" width="18.37" height="17.24" rx="1.92" ry="1.92"/>
        <g>
          <path class="cls-22" d="M36.98,65.33h-3.18c-.2,0-.37-.15-.37-.35v-1.29c0-.19.17-.35.37-.35h3.18c.2,0,.37.15.37.35v1.29c0,.19-.17.35-.37.35M33.81,63.63s-.07.03-.07.06v1.29s.03.06.07.06h3.18s.07-.03.07-.06v-1.29s-.03-.06-.07-.06h-3.18Z"/>
          <path class="cls-22" d="M40.2,63.63h-2.07c-.15,0-.27.11-.27.25v.91c0,.14.12.25.27.25h2.07c.15,0,.27-.11.27-.25v-.91c0-.14-.12-.25-.27-.25ZM39.18,64.32v-.59h.55v.59h-.55ZM39.74,64.36v.59h-.55v-.59h.55ZM39.13,63.73v.59h-.65v-.59h.65ZM38.12,63.73h.31v.59h-.48v-.43c0-.09.07-.16.17-.16ZM38.12,64.95c-.09,0-.17-.07-.17-.16v-.43h.48v.59h-.31ZM38.48,64.36h.65v.59h-.65v-.59ZM40.36,64.8c0,.09-.08.16-.17.16h-.41v-.59h.58v-.05h-.58v-.59h.41c.09,0,.17.07.17.16v.91Z"/>
          <path class="cls-22" d="M31.53,64.66c-.19,0-.34-.14-.34-.32s.15-.32.34-.32.34.14.34.32-.15.32-.34.32M31.53,64.09c-.15,0-.26.11-.26.25s.12.25.26.25.26-.11.26-.25-.12-.25-.26-.25"/>
          <path class="cls-22" d="M32.43,64.66c-.19,0-.34-.14-.34-.32s.15-.32.34-.32.34.14.34.32-.15.32-.34.32M32.43,64.09c-.15,0-.26.11-.26.25s.12.25.26.25.26-.11.26-.25-.12-.25-.26-.25"/>
        </g>
      </g>
      <rect class="cls-22" x="27.54" y="49.44" width="16.57" height="13.62" rx=".78" ry=".78"/>
      <path class="cls-7" d="M42.37,62.38h-13.32c-.3,0-.47-.31-.31-.54l1.69-2.34c.07-.1.18-.15.31-.15h9.94c.12,0,.24.06.31.15l1.69,2.34c.17.23,0,.54-.31.54Z"/>
      <path class="cls-10" d="M30.23,49.03c-.12,0-.22.05-.22.12v2.39c0,.07.1.12.22.12h10.95c.12,0,.22-.05.22-.12v-2.39c0-.07-.1-.12-.22-.12h-10.95Z"/>
      <g>
        <path class="cls-22" d="M32.6,56.43c0,.21.14.34.3.44.29.19.62.28.96.36.62.13,1.24.18,1.87.16.69-.02,1.38-.09,2.03-.35.17-.07.34-.16.47-.28.12-.1.18-.22.16-.38.1.08.05.19.06.28,0,.04,0,.09,0,.14-.17.33-.49.47-.83.58-.39.14-.8.2-1.22.24-.37.04-.75.05-1.12.04-.61-.02-1.21-.08-1.79-.25-.33-.1-.63-.23-.86-.48-.05-.01-.03-.06-.05-.09-.04-.15-.06-.29.02-.43Z"/>
        <path class="cls-20" d="M38.46,59.23c0-.81,0-1.62,0-2.43-.02,0-.04,0-.05.03-.16.24-.4.38-.68.48-.59.22-1.21.3-1.84.32-.66.03-1.32,0-1.97-.14-.44-.09-.87-.2-1.2-.52-.02-.02-.05-.05-.09-.03,0,0,0,0,0,0-.02-.03-.03-.06-.05-.09,0,.3,0,.6,0,.9,0,.83,0,1.67,0,2.5-.02.38.14.68.51.85.56.27,1.17.37,1.8.42.38.03.75.03,1.13,0,.52-.03,1.02-.11,1.51-.27.29-.09.55-.22.77-.42.1-.09.15-.2.15-.33,0-.43,0-.86,0-1.28Z"/>
        <path class="cls-20" d="M38.4,56.38c-.08-.15-.21-.25-.36-.33-.64-.3-1.34-.39-2.04-.43-.32,0-.63,0-.95,0-.42.01-.83.07-1.23.15-.32.07-.62.16-.9.32-.14.08-.26.18-.3.33-.04.13.01.23.1.32.23.23.53.34.83.43.6.18,1.22.22,1.84.25.42.01.84-.03,1.25-.08.4-.05.79-.14,1.16-.29.2-.08.39-.18.53-.35.09-.1.14-.21.07-.33Z"/>
      </g>
      <g>
        <path class="cls-11" d="M37.49,50.69h-3.51c-.12,0-.22.08-.25.19l-.42,1.43c-.08.27.13.55.42.55h4.14c.31,0,.52-.3.41-.58l-.55-1.42c-.04-.1-.14-.17-.25-.17"/>
        <path class="cls-11" d="M36.01,53.7h-.4c-.5,0-.9-.38-.9-.85h2.21c0,.47-.4.85-.9.85"/>
        <path class="cls-11" d="M36.11,53.7h-.6v.47c0,.16.13.28.3.28s.3-.13.3-.28v-.47Z"/>
      </g>
    </g>
    <g>
      <path class="cls-37" d="M21.23,36.37c-.48-1.92-.95-3.85-1.42-5.77-.06-.22-.06-.46-.21-.66-.14-.2-.35-.26-.58-.26-.79,0-1.59,0-2.38,0-3,0-6,0-9,0-.22,0-.43.03-.59.2-.1.06-.14.16-.17.26-.51,1.96-1.03,3.92-1.54,5.88-.06.25-.18.49-.14.75.07.43.15.85.24,1.28.04.2.15.34.36.42.14.06.29.04.43.04,4.05,0,8.1,0,12.14,0,.75,0,1.49,0,2.24,0,.31-.07.46-.25.5-.54.02-.2.07-.41.09-.61.04-.32.11-.63.03-.97Z"/>
      <path class="cls-22" d="M19.07,30.01c.16.06.22.17.26.34.29,1.22.59,2.43.88,3.65.2.83.4,1.67.61,2.5.03.11-.04.18-.09.25-.04.06-.11.08-.18.08-.04,0-.08,0-.12,0-4.78,0-9.56,0-14.34,0-.07,0-.14.02-.2-.02-.23-.14-.24-.17-.18-.43.52-2.03,1.03-4.06,1.55-6.1.04-.16.14-.23.28-.28.05-.04.11-.02.17-.02,3.74,0,7.47,0,11.21,0,.06,0,.12-.02.17.02Z"/>
      <g>
        <path class="cls-20" d="M19.18,36.32c-.25,0-.47-.05-.66-.21-.31-.28-.22-.67.18-.8.28-.09.56-.08.83.04.25.11.41.36.38.56-.04.22-.27.39-.57.41-.05,0-.11,0-.16,0Z"/>
        <path class="cls-20" d="M13.21,36.32c-.13.01-.26-.01-.38-.05-.21-.07-.36-.21-.38-.43-.02-.2.1-.39.32-.49.31-.13.62-.14.93,0,.17.08.29.2.3.4.02.22-.09.36-.27.46-.16.09-.33.13-.52.11Z"/>
        <path class="cls-20" d="M9.2,36.32c-.09,0-.2,0-.31-.04-.17-.06-.32-.15-.36-.33-.04-.19.03-.36.18-.49.27-.24.83-.28,1.14-.1.26.15.31.45.11.67-.19.22-.45.29-.77.28Z"/>
        <path class="cls-20" d="M11.2,36.32c-.11.01-.22-.01-.34-.05-.19-.07-.34-.18-.36-.38-.03-.21.08-.38.26-.49.31-.18.65-.19.98-.06.37.15.41.6.08.82-.17.12-.34.16-.62.16Z"/>
        <path class="cls-20" d="M17.2,36.32c-.24,0-.45-.04-.62-.18-.31-.24-.27-.63.08-.79.34-.16.7-.15,1.03.05.18.11.26.28.24.48-.02.19-.16.29-.32.36-.13.06-.28.09-.4.07Z"/>
        <path class="cls-20" d="M15.21,36.32c-.16,0-.31-.03-.46-.09-.2-.09-.32-.24-.32-.45,0-.21.13-.37.34-.44.32-.12.63-.11.94.04.19.1.29.25.27.46-.02.19-.13.31-.3.39-.14.07-.29.1-.46.09Z"/>
        <path class="cls-20" d="M7.24,36.32c-.1,0-.22,0-.34-.05-.31-.11-.41-.38-.25-.66.16-.26.53-.41.91-.36.02,0,.05.01.07.01.29.05.45.17.48.36.04.22-.07.43-.31.56-.16.09-.31.13-.57.13Z"/>
        <path class="cls-20" d="M9.45,34.94c-.09-.02-.21,0-.32-.04-.18-.06-.32-.15-.35-.33-.03-.18.05-.33.19-.44.25-.2.77-.25,1.06-.1.31.16.34.5.06.73-.18.14-.39.19-.64.19Z"/>
        <path class="cls-20" d="M7.74,33.94c.12,0,.25,0,.37.06.28.12.36.37.2.61-.06.09-.14.16-.24.21-.28.14-.57.15-.86.06-.34-.11-.42-.43-.18-.69.19-.2.43-.27.71-.25Z"/>
        <path class="cls-20" d="M15.16,34.93c-.16,0-.31-.02-.46-.09-.18-.09-.3-.22-.29-.43,0-.2.13-.32.31-.4.24-.1.5-.1.75-.03.28.08.45.3.42.52-.03.21-.25.39-.52.42-.07,0-.14,0-.21.01Z"/>
        <path class="cls-20" d="M13.29,33.94c.17-.01.34.02.49.1.3.17.32.53.04.74-.26.19-.83.2-1.09.02-.3-.2-.26-.57.08-.76.15-.08.31-.11.48-.1Z"/>
        <path class="cls-20" d="M18.95,34.93c-.18,0-.35-.03-.5-.11-.21-.11-.31-.29-.28-.49.03-.21.19-.31.39-.36.26-.06.52-.06.76.07.21.11.36.35.33.53-.04.19-.26.34-.53.36-.05,0-.1,0-.16,0Z"/>
        <path class="cls-20" d="M16.97,33.94c.22-.02.4.03.56.14.16.11.24.26.22.46-.02.18-.16.28-.32.34-.24.08-.49.08-.73,0-.26-.08-.44-.3-.42-.51.02-.21.25-.4.53-.43.06,0,.13,0,.17,0Z"/>
        <path class="cls-20" d="M11.57,32.67c.17.01.36.03.51.16.2.18.2.45-.01.62-.26.21-.82.24-1.1.05-.23-.15-.23-.48.01-.67.17-.13.36-.16.59-.17Z"/>
        <path class="cls-20" d="M9.78,32.67c.12,0,.24.02.36.07.34.14.4.51.1.73-.25.19-.76.22-1.04.06-.28-.16-.28-.49,0-.69.17-.13.38-.16.59-.17Z"/>
        <path class="cls-20" d="M13.34,32.67c.2,0,.4.04.55.18.21.19.19.49-.06.64-.32.19-.66.2-.99.03-.3-.15-.32-.48-.06-.69.16-.13.35-.16.56-.16Z"/>
        <path class="cls-20" d="M15.08,32.67c.17,0,.31.03.44.08.19.09.31.23.3.44,0,.21-.15.32-.34.38-.25.09-.5.08-.75-.01-.23-.08-.34-.25-.33-.46.01-.19.16-.35.38-.4.1-.02.2-.05.29-.04Z"/>
        <path class="cls-20" d="M17.61,33.2c0,.17-.1.28-.25.35-.32.13-.63.12-.93-.04-.16-.09-.25-.23-.24-.41.02-.19.13-.3.31-.36.29-.1.57-.09.84.05.18.09.27.25.27.42Z"/>
        <path class="cls-20" d="M8.09,32.4c-.1-.02-.21-.01-.32-.05-.29-.11-.37-.39-.17-.62.23-.27.86-.32,1.14-.1.2.16.16.45-.07.61-.17.12-.37.15-.58.15Z"/>
        <path class="cls-20" d="M9.97,31.51c.16-.01.3.02.43.1.22.13.26.36.1.55-.22.27-.83.33-1.12.12-.23-.17-.21-.46.04-.63.16-.11.35-.15.54-.14Z"/>
        <path class="cls-20" d="M11.67,31.51c.16-.01.32.02.45.1.26.16.27.46.03.64-.25.18-.76.2-1.02.04-.24-.15-.24-.47.02-.64.16-.11.33-.15.52-.14Z"/>
        <path class="cls-20" d="M15.11,32.4c-.2-.02-.38-.03-.54-.15-.23-.18-.23-.47.01-.63.25-.17.76-.16,1,.02.25.19.22.53-.07.67-.13.07-.28.07-.41.09Z"/>
        <path class="cls-20" d="M16.77,31.5c.15-.01.29.02.43.1.18.09.29.23.27.43-.02.2-.18.29-.36.34-.19.05-.39.05-.59-.01-.27-.08-.44-.27-.42-.46.02-.2.25-.37.52-.39.05,0,.09,0,.15,0Z"/>
        <path class="cls-20" d="M10.14,30.37c.12,0,.23.02.34.06.14.05.24.14.26.28.02.16-.05.29-.18.37-.3.19-.61.2-.93.06-.27-.12-.29-.4-.06-.6.16-.14.36-.17.57-.18Z"/>
        <path class="cls-20" d="M8.32,31.24c-.06,0-.16-.01-.25-.04-.15-.04-.28-.11-.31-.28-.03-.18.05-.32.2-.41.27-.16.57-.19.86-.07.3.12.33.44.08.64-.12.1-.36.17-.58.16Z"/>
        <path class="cls-20" d="M11.69,31.24c-.08-.01-.18-.02-.27-.05-.18-.04-.31-.14-.33-.32-.02-.17.07-.3.22-.39.28-.15.58-.17.88-.02.24.12.28.4.08.59-.16.15-.36.17-.58.19Z"/>
        <path class="cls-20" d="M13.42,30.37c.15,0,.3.03.43.1.25.14.26.46.03.63-.24.17-.71.18-.96.03-.27-.16-.23-.5.06-.66.13-.07.28-.1.43-.1Z"/>
        <path class="cls-20" d="M15.05,30.37c.19,0,.37.04.51.17.2.19.17.48-.08.6-.3.14-.61.14-.9-.03-.27-.16-.24-.49.05-.65.13-.07.27-.09.42-.09Z"/>
        <path class="cls-20" d="M8.35,32.74c-.28-.1-.56-.09-.84.04h0s0,0,0,0c-.11.04-.18.11-.24.2-.14.2-.11.39.08.53.27.2.92.14,1.15-.13.21-.24.15-.53-.16-.65Z"/>
        <path class="cls-20" d="M18.89,30.64h0c-.16-.24-.41-.27-.66-.27-.19,0-.38.03-.49.21-.11.19-.07.39.13.51.25.15.53.17.8.08.3-.09.37-.28.21-.54Z"/>
        <path class="cls-20" d="M12.06,34.18h0c-.26-.35-.99-.34-1.29.01-.19.22-.14.48.12.62.27.16.56.14.85.05.32-.1.52-.43.32-.68Z"/>
        <path class="cls-20" d="M19.01,31.69s0,0,0,0c-.25-.24-.55-.22-.86-.15-.17.04-.31.14-.33.32-.03.2.07.34.26.42.24.14.5.14.76.08.38-.09.45-.39.17-.66Z"/>
        <path class="cls-20" d="M19.37,33.12c-.09-.29-.32-.39-.6-.43-.36-.05-.71.06-.78.3-.06.22.02.4.21.52.32.18.65.19.99.02h0s0,0,0,0c.18-.11.23-.22.17-.4ZM18.03,33.17c.02.06.04.12.06.16,0,0,0,0,0,0-.04-.05-.05-.1-.06-.15Z"/>
        <path class="cls-20" d="M17.22,30.59s0,0,0,0c0,0,0,0,0,0-.22-.24-.5-.25-.79-.19-.24.05-.38.18-.4.35-.02.16.1.31.32.41.24.08.48.09.71.01.3-.11.36-.35.16-.59Z"/>
        <path class="cls-20" d="M13.68,31.55c-.24-.07-.47-.06-.7.03-.27.11-.36.32-.25.56,0,.02.01.04.03.06.26.26.58.25.9.17.25-.06.37-.2.37-.4,0-.2-.1-.32-.36-.41Z"/>
      </g>
    </g>
    <g>
      <path class="cls-1" d="M44.93,18.94h-18.17c-.49,0-.77-.44-.77-.89V5.25c0-.52.43-.83.92-.83h17.92c.45,0,.85.31.85.78v13.03c0,.38-.35.64-.74.7Z"/>
      <path class="cls-23" d="M40.12,22.25l-8.57.02c-.24,0-.3-.36-.26-.5.04-.17.19-.36.44-.37l5.49-.02h2.57c.25,0,.4.13.51.29.09.13.08.58-.17.58Z"/>
      <polygon class="cls-1" points="38.17 21.14 33.45 21.15 33.74 19.29 37.84 19.28 38.17 21.14"/>
      <rect class="cls-17" x="29.74" y="1.94" width="12.18" height="18.44" transform="translate(24.67 46.99) rotate(-89.99)"/>
      <polygon class="cls-43" points="35.65 15.82 32.38 14.18 32.38 10.56 35.66 12.2 35.65 15.82"/>
      <polygon class="cls-43" points="39.33 14.16 36.06 15.84 36.04 12.2 39.31 10.57 39.33 14.16"/>
      <polygon class="cls-18" points="35.86 11.88 32.64 10.26 35.84 8.67 39.02 10.25 35.86 11.88"/>
      <path class="cls-35" d="M29.76,15.2l-.48.27c.16.05.25.07.34.11.07.04.08.26-.04.27-.4.05-.81-.08-1.23-.15l.58-1.03c.06-.11.23-.07.27.01.06.1.04.23-.06.37.26-.01.42-.24.59-.1.04.04.14.19.04.24Z"/>
      <path class="cls-32" d="M42.4,15.48l-.48-.29c-.09-.05-.04-.16.01-.21.19-.2.38.09.66.12l-.12-.3c-.02-.05.04-.14.13-.17.08-.02.18.04.24.14l.5.9c-.51.16-1.23.28-1.33.13-.03-.05-.02-.15.03-.19.05-.04.11-.07.35-.13Z"/>
      <path class="cls-46" d="M36,6.54c.02.15,0,.21-.03.28-.03.08-.23.16-.25.04l-.08-.44c-.09.09-.16.14-.23.17-.07.03-.21-.1-.15-.18l.56-.7.53.61c.05.05.07.13.05.19-.02.05-.08.11-.17.09-.05,0-.11-.08-.15-.16-.09-.06-.15.03-.09.11Z"/>
      <circle class="cls-48" cx="41.16" cy="14.65" r=".23"/>
      <circle class="cls-30" cx="30.5" cy="14.64" r=".23"/>
      <circle class="cls-33" cx="40.18" cy="14.17" r=".22"/>
      <circle class="cls-16" cx="31.5" cy="14.17" r=".21"/>
      <circle class="cls-31" cx="35.84" cy="7.41" r=".18"/>
      <circle class="cls-13" cx="35.83" cy="8.08" r=".17"/>
    </g>
    <g>
      <path class="cls-2" d="M59.28,44.35c-.33,0-.57-.13-.6-.44-.03-.33-.06-.71.02-1.04.11-.48.57-.71,1.07-.69v-2.13c0-.33.1-.62.32-.8.25-.21.55-.3.95-.25l.02-1.44c-.06-.72.19-1.38.7-1.88l1.67-3.9c-.01-.87.49-1.61,1.19-1.93.8-.35,1.7-.2,2.28.36.64.63.78,1.48.5,2.33l-1.59,4.7-.04,1.77c.59-.1,1.24.18,1.25.78l.04,2.41c.61-.07,1.12.33,1.12.93v.68c0,.23-.18.54-.46.54h-8.43Z"/>
      <path class="cls-34" d="M52.66,30.69s-.07-.08-.05-.19c-.1.73.22,1.24.9,1.51.03.3-.49.56-.49.19-.06.1-.08.22-.06.37h-.09c.01-.13.03-.27,0-.43-.51-.37-.73-.94-.67-1.58.07-.54.45-1.08,1.05-1.29l3.02-3.59c.03-.99.74-1.75,1.68-1.86s1.76.45,2.07,1.37l4.76,3.92c-1.01.27-1.65,1.02-1.82,2.03l-4.23-3.48c-.21-.13-.42.03-.58.2l-2.18,2.47c-.13-.16-.16-.3-.21-.47l1.98-2.25c-.69-.18-1.19-.65-1.37-1.29l-2.41,2.83c.66.08,1.26.47,1.41,1.13-.04.14-.27.29-.42.31-.13-.6-.63-.96-1.21-.92-.54.03-.95.46-1.05,1.01Z"/>
      <path class="cls-44" d="M55.06,41.92c0,.71-.61,1.15-1.24,1.17-.59.02-1.29-.38-1.3-1.08l-.04-5.3c-.26-.1-.38-.28-.38-.51s.15-.5.43-.5h2.46c.28,0,.45.19.48.43s-.11.47-.39.57l-.02,5.22Z"/>
      <path class="cls-42" d="M52.66,30.69c-.11.59.34,1.11.91,1.23.62.13,1.17-.26,1.33-.89.17.05.29.05.47,0,0,.49-.3.82-.64,1.15-.09.09-.03.37.05.46.05.2-.28.45-.46.48-.12.02-.8-.1-.95-.13-.45.25-.56-.43-.36-.78.08.07.14.03.2.02.08-.02.21-.17.16-.21-.66-.29-.96-.87-.77-1.58.06.08.05.16.06.25Z"/>
      <path class="cls-36" d="M53.37,32.99c.12.03.13.08,0,.1.07.02.07.04,0,.08l-.64.83.36,1.07c.05.16,0,.3-.13.36-.08.04-.27.04-.33-.06l-.67-1.1c-.07-.12-.09-.43-.01-.56.27-.43.57-.8.9-1.13.17-.17-.02-.37.16-.37-.08.3.02.7.36.78Z"/>
      <path class="cls-14" d="M54.79,32.64l.66.78c.27.32.3.67.09,1.02l-.55.92c-.08.14-.3.11-.41,0-.09-.09-.11-.22-.05-.39l.35-.94-.71-.89c-.28-.01-.54-.03-.8-.05v-.1c.26.06.63.04.92-.01.22-.04.32-.27.5-.34Z"/>
      <circle class="cls-15" cx="53.8" cy="30.81" r=".48"/>
      <path class="cls-42" d="M54.17,33.15l-.8.02v-.08c.26.01.55-.07.8.05Z"/>
      <path class="cls-17" d="M65.26,37.82c-.06.46-.4.99-.85,1.13l-1.56.02c-.19,0-.46-.05-.59-.18-.19.14-.62-.31-.5-.5-.2-.2-.18-.52-.2-.81-.05-.84.42-1.53,1.22-1.79l1.25-3.19c-.12-.24-.14-.52-.12-.81.08-.96.9-1.66,1.83-1.5s1.53,1.12,1.21,2.06l-1.45,4.26c-.15.44-.27.83-.25,1.31Z"/>
      <path class="cls-24" d="M66.56,42.17h-6.3s0-2.2,0-2.2c0-.26.18-.46.44-.48h5.34c.3-.03.53.18.53.48v2.2Z"/>
      <path class="cls-24" d="M67.67,43.85h-8.51c-.1-.65-.06-1.16.45-1.16h7.53c.31,0,.57.13.55.46l-.03.71Z"/>
      <circle class="cls-41" cx="58.15" cy="25.75" r="1.42"/>
      <path class="cls-17" d="M54.64,41.92c0,.5-.48.75-.86.74-.41,0-.85-.31-.86-.78l-.02-5.37c-.13-.16-.39-.17-.39-.3,0-.04.07-.13.14-.13h2.26c.11,0,.16.06.16.13,0,.18-.41.15-.41.36l-.02,5.36Z"/>
      <circle class="cls-21" cx="63.43" cy="37.33" r="1.25"/>
      <circle class="cls-49" cx="65.51" cy="31.74" r="1.05"/>
      <path class="cls-45" d="M65.25,38.96l-.53-.05c.24-.21.4-.39.48-.65l.05.7Z"/>
      <circle class="cls-44" cx="58.15" cy="25.75" r=".93"/>
      <path class="cls-29" d="M54.42,41.84c-.05.35-.3.53-.57.56s-.65-.14-.65-.48v-2.65s1.21.02,1.21.02v2.56Z"/>
    </g>
    <g>
      <path class="cls-3" d="M33.98,39.84c-1.08.08-2.01-.68-2.22-1.76-.57-.05-1.02-.35-1.33-.75-.38-.48-.34-1.09-.23-1.58-.51-.37-.75-.9-.75-1.5s.5-.99.79-1.41c.03-.48-.23-1.16.19-1.7.3-.38.71-.81,1.34-.86.07-1.28,1.23-2.21,2.47-1.92.76.18,1.36.8,1.37,1.57v2.54s1.21,0,1.21,0c.19,0,.37-.14.37-.34v-1.58c-.38-.12-.56-.44-.55-.79s.26-.7.64-.77c.43-.08.82.19.93.57.12.41-.12.82-.57.99l-.03,1.73c0,.28-.36.63-.63.63l-1.37.03v.39s2.74-.04,2.74-.04c.28,0,.3-.49.27-.69-.06-.48.05-.86.5-1.08-.13-.39.02-.77.29-.96.37-.27.8-.14,1.04.09.33.33.28.81.05,1.08-.33.39-.71.27-1.1.18-.31-.05-.39.49-.35.74.1.5-.15,1.08-.67,1.09l-2.74.05c-.04.09-.05.29.02.35h4.92c.22-.32.47-.63.84-.6.43.04.73.35.76.69.05.47-.22.79-.58.89-.46.13-.78-.12-1-.5l-4.96-.03c-.08.12-.06.29-.04.4h2.69c.48,0,.81.49.74.94-.03.2.08.29.17.37.16.13.27.05.45-.02.49-.17.97.24,1,.72s-.4.9-.91.85-.76-.56-.67-1.09c-.25-.23-.57-.47-.48-.9.06-.26-.24-.41-.45-.41h-2.54c-.02.14-.02.25.02.39h1.14c.41,0,.83.28.84.7v1.11c.42.14.66.47.62.88-.03.38-.36.72-.78.74-.37.01-.72-.25-.8-.62-.09-.41.11-.81.53-.97v-1.07c-.01-.18-.23-.34-.41-.33l-1.15.02-.02,2c0,.84-.78,1.47-1.62,1.53"/>
      <path class="cls-17" d="M32.39,37.98c.81-.34,1.21-1.2.91-1.99-.06-.16-.2-.26-.31-.28-.16-.02-.29.07-.36.17-.13.17,0,.31.07.47.17.49-.19.99-.69,1.05-.4.05-.75-.1-.98-.37-.22-.25-.39-.77-.16-1.06.22-.04.65-.02.65-.39,0-.29-.3-.3-.53-.29-.5.02-.82-.41-.88-.85-.05-.36.21-.98.64-.99.65.36,1.37.43,1.39-.03,0-.1-.06-.31-.22-.31-.49.02-.92-.22-1.06-.71-.11-.37,0-.74.24-1.05.53-.67,1.37-.24,1.31-.75-.08-.75.38-1.45,1.14-1.61s1.44.4,1.44,1.17v.6c-.47-.2-.98-.2-1.42.1-.34.24-.63.74-.56,1.21.03.2.27.28.39.24.19-.06.27-.2.26-.42-.01-.33.3-.57.6-.62.22-.03.68.14.71.41.04.4.05.77,0,1.17-.04.36-.48.69-.81.68-.22,0-.34.06-.43.21-.08.14,0,.38.2.42.38.09.69-.06,1.05-.3v4.33c0,.66-.74,1.08-1.35.97-.66-.12-1.09-.59-1.24-1.2Z"/>
      <circle class="cls-26" cx="39.88" cy="37.06" r=".37"/>
      <circle class="cls-19" cx="39.87" cy="31.22" r=".37"/>
      <circle class="cls-25" cx="37.43" cy="38.47" r=".36"/>
      <circle class="cls-39" cx="37.43" cy="29.78" r=".36"/>
      <circle class="cls-47" cx="41.4" cy="34.37" r=".37"/>
    </g>
    <g>
      <path class="cls-27" d="M16.1,51.69c0,.35-.58.57-.92.67-1.55.45-3.18.47-4.73.04-.36-.1-.91-.28-1.05-.63-.17-.61-.01-1.25-.05-1.87,1.34,1.05,3.96,1,5.58.6.46-.11.83-.29,1.22-.6l-.04,1.79Z"/>
      <path class="cls-50" d="M16.09,54.16c0,.33-.56.56-.87.65-1.57.46-3.23.48-4.82.04-.35-.1-.91-.3-1-.65-.17-.6,0-1.21-.05-1.83.36.29.7.47,1.14.58,1.55.38,3.18.38,4.71-.06.36-.1.61-.26.94-.52l-.05,1.79Z"/>
      <path class="cls-43" d="M16.09,49.25c-.09.36-.67.56-1.01.66-1.58.44-3.24.44-4.81-.04-.3-.09-.78-.29-.87-.58-.17-.59,0-1.2-.05-1.82.36.27.68.45,1.11.55,1.52.38,3.11.4,4.62-.01.4-.11.7-.28,1.07-.56-.05.58.1,1.17-.05,1.8Z"/>
      <path class="cls-43" d="M14.91,47.58c-1.47.37-2.95.35-4.38-.01-.55-.14-1.17-.44-1.18-.86,0-.17.09-.34.25-.46,1.79-1.25,6.37-.75,6.55.41.07.43-.61.77-1.24.93Z"/>
      <circle class="cls-38" cx="14.56" cy="51.55" r=".31"/>
      <circle class="cls-12" cx="14.56" cy="54.01" r=".3"/>
      <circle class="cls-40" cx="14.56" cy="49.08" r=".3"/>
    </g>
    <g>
      <path class="cls-35" d="M55.86,61.16l-1.55.02-.13-.95c-.42-.11-.79-.25-1.18-.49l-.77.58-1.1-1.08.56-.75c-.22-.39-.38-.78-.49-1.21l-.9-.15v-1.52s.91-.14.91-.14c.09-.44.28-.81.48-1.19-.23-.27-.42-.47-.55-.76l1.09-1.07.76.58c.38-.19.74-.36,1.17-.47l.14-.93c.53-.05,1.05-.06,1.56,0l.09.89,1.19.5.76-.57,1.11,1.06-.56.78c.21.37.38.74.49,1.15l.9.14v1.55s-.9.15-.9.15c-.12.41-.25.79-.48,1.17l.55.76-.84.88c-.1.11-.26.25-.4.13l-.6-.49c-.37.25-.77.37-1.19.5l-.11.92Z"/>
      <circle class="cls-17" cx="55.08" cy="56.39" r="2.77"/>
      <path class="cls-28" d="M54.68,57.71c-.12.12-.3.17-.45.02l-.86-.86c-.15-.15-.18-.31-.09-.45s.3-.26.45-.12l.73.7,1.79-1.82c.16-.16.38-.16.52.02"/>
    </g>
    <g>
      <path class="cls-6" d="M34.45,71.49C15.69,70.57.75,54.89.75,36.1c0-18.52,14.52-34.08,33-35.35"/>
      <path class="cls-8" d="M37.91.75c18.76.92,33.7,16.6,33.7,35.39s-14.52,34.08-33,35.35"/>
    </g>
    <g>
      <line class="cls-5" x1="21.27" y1="34.09" x2="21.43" y2="34.09"/>
      <line class="cls-4" x1="22.32" y1="34.09" x2="27.98" y2="34.09"/>
      <line class="cls-5" x1="28.42" y1="34.09" x2="28.58" y2="34.09"/>
    </g>
    <g>
      <line class="cls-5" x1="43.66" y1="34.37" x2="43.83" y2="34.37"/>
      <line class="cls-4" x1="44.72" y1="34.37" x2="50.37" y2="34.37"/>
      <line class="cls-5" x1="50.81" y1="34.37" x2="50.98" y2="34.37"/>
    </g>
    <g>
      <line class="cls-5" x1="12.75" y1="46.33" x2="12.75" y2="46.17"/>
      <line class="cls-4" x1="12.75" y1="45.28" x2="12.75" y2="39.63"/>
      <line class="cls-5" x1="12.75" y1="39.18" x2="12.75" y2="39.02"/>
    </g>
    <g>
      <line class="cls-5" x1="35.84" y1="28.15" x2="35.84" y2="27.98"/>
      <line class="cls-9" x1="35.84" y1="27.06" x2="35.84" y2="22.46"/>
      <line class="cls-5" x1="35.84" y1="22" x2="35.84" y2="21.83"/>
    </g>
    <g>
      <line class="cls-5" x1="35.81" y1="47.85" x2="35.81" y2="47.68"/>
      <line class="cls-9" x1="35.81" y1="46.76" x2="35.81" y2="42.16"/>
      <line class="cls-5" x1="35.81" y1="41.7" x2="35.81" y2="41.53"/>
    </g>
    <g>
      <line class="cls-5" x1="44.55" y1="56.53" x2="44.71" y2="56.53"/>
      <line class="cls-4" x1="45.6" y1="56.53" x2="51.25" y2="56.53"/>
      <line class="cls-5" x1="51.7" y1="56.53" x2="51.86" y2="56.53"/>
    </g>
  </g>
</svg>