<?xml version="1.0" encoding="UTF-8"?>
<svg id="Capa_2" data-name="Capa 2" xmlns="http://www.w3.org/2000/svg" viewBox="0 0 72.37 72.24">
  <defs>
    <style>
      .cls-1 {
        stroke-dasharray: .33 .89;
      }

      .cls-1, .cls-2, .cls-3, .cls-4, .cls-5, .cls-6, .cls-7, .cls-8, .cls-9, .cls-10, .cls-11, .cls-12, .cls-13, .cls-14, .cls-15, .cls-16 {
        stroke-miterlimit: 10;
      }

      .cls-1, .cls-2, .cls-3, .cls-4, .cls-5, .cls-7, .cls-8, .cls-10, .cls-11, .cls-12, .cls-13, .cls-15 {
        fill: none;
      }

      .cls-1, .cls-2, .cls-3, .cls-4, .cls-5, .cls-7, .cls-8, .cls-10, .cls-11, .cls-12, .cls-15 {
        stroke-linecap: round;
      }

      .cls-1, .cls-3, .cls-4, .cls-6, .cls-8, .cls-9, .cls-10, .cls-12, .cls-13, .cls-14, .cls-15, .cls-16 {
        stroke: #585b5c;
      }

      .cls-1, .cls-4, .cls-8 {
        stroke-width: .44px;
      }

      .cls-17 {
        fill: #555658;
      }

      .cls-2, .cls-5 {
        stroke: #274d62;
      }

      .cls-2, .cls-11 {
        stroke-width: .74px;
      }

      .cls-18 {
        fill: #565859;
      }

      .cls-19, .cls-16 {
        fill: #fefefe;
      }

      .cls-3, .cls-10 {
        stroke-width: .33px;
      }

      .cls-20 {
        fill: #264d62;
      }

      .cls-5 {
        stroke-width: .33px;
      }

      .cls-21, .cls-9 {
        fill: #fff;
      }

      .cls-22 {
        fill: #565759;
      }

      .cls-23 {
        fill: #131429;
      }

      .cls-24 {
        fill: #182743;
      }

      .cls-25 {
        fill: #f2f3f5;
      }

      .cls-6 {
        stroke-width: .13px;
      }

      .cls-6, .cls-14, .cls-26 {
        fill: #585b5c;
      }

      .cls-7 {
        stroke: #254d62;
      }

      .cls-7, .cls-15 {
        stroke-width: 1.5px;
      }

      .cls-8 {
        stroke-dasharray: .32 .85;
      }

      .cls-27 {
        fill: #274d62;
      }

      .cls-9, .cls-12, .cls-13, .cls-14 {
        stroke-width: .22px;
      }

      .cls-10 {
        stroke-dasharray: .33 .87;
      }

      .cls-11 {
        stroke: #264d62;
      }

      .cls-28 {
        fill: #e8eaee;
      }

      .cls-29 {
        fill: #57595b;
      }

      .cls-30 {
        fill: #3a424b;
      }

      .cls-31 {
        fill: #3b4045;
      }

      .cls-16 {
        stroke-width: .11px;
      }

      .cls-32 {
        fill: #545658;
      }
    </style>
  </defs>
  <g id="Capa_1-2" data-name="Capa 1">
    <g>
      <g>
        <g>
          <path class="cls-20" d="M31.86,26.78c.08.06.04-.06,0-.13.13-.75.87-1.25,1.61-1.17s1.36.68,1.36,1.48v8.86c0,.48.37.82.81.83.36,0,.83-.28.83-.74l.04-9.09c0-.85.83-1.4,1.57-1.35s1.42.66,1.42,1.49v8.8c0,.51.34.89.82.9.41,0,.84-.32.84-.82l.02-9.01c0-.3.14-.48.26-.67h.06c.58-.54,1.2-.94,1.99-.38.4.28.07.41-.28.41-.21-.07-.68-.21-.73-.02-.06.15-.18.29-.37.43l-.09.32-.03,9.12c-.46,2.03-3.07,1.96-3.33-.27v-8.9c-.21-.8-1.23-.73-1.35.09v8.95c-.28,2.1-3.04,2.12-3.31.02l-.02-8.96c-.1-.86-1.23-.89-1.35,0l-.02,8.96c-.25,2.07-3,2.11-3.3-.01l-.02-9.04c-.17-.75-1.17-.74-1.33,0l-.03,8.43c-.17,1.46-1.28,1.59-2.52,1.54-.12,1.25.19,2.19,1.57,2.37h17.33c1.38-.19,1.75-1.08,1.62-2.36-.84.11-1.55-.06-2.13-.51l.03-.21c-.15-.32-.23-.65-.24-.98v-8.15c0-.22-.09-.43-.25-.58.33-.27.61-.31.7.18l.03,8.09c-.13.1-.14.21-.04.35.05.46.08.54.11.26.11.46.45.71.96.71h3.57c.19,0,.25.24.23.36-.03.19-.17.3-.39.3h-1.74s0,.98,0,.98c0,1.14-.97,2.37-2.27,2.37l-17.53.02c-1.37,0-2.37-1.24-2.38-2.47v-.87s-1.39,0-1.39,0c-.21,0-.39-.1-.43-.25-.03-.12,0-.41.2-.41l3.39-.03c.43,0,.75-.34.76-.78l.03-8.37c0-.86.82-1.4,1.56-1.36.84.04,1.44.7,1.44,1.57v8.78c0,.44.31.73.67.81.32.07.94-.12.94-.57l.03-9.03c0-.13,0-.2.07-.27Z"/>
          <path class="cls-17" d="M51.05,36.98h-1.87s0-10.42,0-10.42l.96-.04.02-1.26c0-.44.45-.49.83-.48.33,0,.73.01.74.42l.03,1.49c.53.33.9.88.9,1.57v7.04c0,.91-.72,1.7-1.61,1.7Z"/>
          <path class="cls-20" d="M43.7,23.55l-15.93.04c-1.1,0-1.94.93-2.14,1.88s.23,1.94-.61,1.94h-1.89c-.23.01-.37-.14-.38-.33,0-.2.15-.35.38-.35h1.76s.03-1.04.03-1.04c.14-1.43,1.3-2.79,2.88-2.79h15.91c1.63,0,2.81,1.48,2.86,2.96l.03.88h1.92c.22,0,.37.09.4.28s-.09.4-.33.4h-2.18c-.28,0-.5-.25-.5-.52v-.87c0-1.28-.89-2.28-2.21-2.46Z"/>
          <path class="cls-32" d="M22.52,36.94l-1.7.05c-.96.03-1.79-.7-1.79-1.72v-7.02c0-.94.7-1.68,1.6-1.72l.03-1.29c.01-.44.44-.46.8-.46s.79.02.8.46l.02,1.18c0,.1.17.18.23.25v10.28Z"/>
          <path class="cls-24" d="M44.16,35.29c0,.07.06.18-.06.26-.05-.58-.62-.72-.08-.92l-.03-8.25-.55.06c.18.19.25.41.25.7v8.39c0,.19.36.49.16.61-.07.01-.14.03-.2,0-.15-.09-.29-.76-.28-.97l-.02-8.34c-.09-.33-.39-.5-.72-.49l-.14-.13c-.09,0-.15.02-.23-.04.37-.27.8.06,1.35-.19-.67-.57-1.59-.41-2.05.23,0,.08-.1.08-.11-.02.32-.52.96-.8,1.59-.65.51.13,1.12.57,1.12,1.22l.02,7.36v1.19Z"/>
          <path class="cls-23" d="M31.86,26.78v-.13s.09.03.09.09v9.35s-.08-.02-.08-.05v-9.27Z"/>
          <path class="cls-19" d="M42.48,26.18c.4-.12,1.03.2,1.03.71v7.84c0,.53,0,.98.34,1.39.29.35.7.53,1.18.54l1.08.02v.83c.02,1.16-.9,1.86-2.04,1.86h-16.95c-.99-.01-1.83-.76-1.84-1.68v-1.02s1.04-.02,1.04-.02c.75-.01,1.47-.55,1.47-1.37l.03-8.39c0-.46.44-.74.83-.74.35,0,.82.3.82.74l.02,8.95c0,.84.68,1.46,1.47,1.48.75.01,1.51-.56,1.51-1.4v-8.88c.01-.52.38-.9.85-.89s.83.38.83.89v8.87c.01.85.8,1.43,1.54,1.4.79-.03,1.46-.64,1.46-1.49v-8.79c0-.5.31-.84.79-.89.38-.04.87.27.87.75v8.86c.01.89.64,1.54,1.51,1.56.73.02,1.52-.56,1.52-1.42l.02-8.94c0-.41.22-.66.62-.79Z"/>
          <path class="cls-19" d="M51.99,35.24c0,.55-.39,1.05-.85,1.06h-.96s0-9.09,0-9.09l1.04.03c.44.01.78.55.78,1.03v6.98Z"/>
          <path class="cls-19" d="M20.56,36.29c-.51-.01-.88-.53-.88-1.05v-7.03c0-.46.37-.89.76-.98s.72-.03,1.07-.03v9.11s-.96-.02-.96-.02Z"/>
        </g>
        <g>
          <line class="cls-3" x1="50.91" y1="24.43" x2="50.91" y2="24.27"/>
          <path class="cls-10" d="M50.91,23.4v-5.77c0-1.22-.98-2.22-2.18-2.22h-25.03c-1.21,0-2.18.99-2.18,2.22v6.2"/>
          <line class="cls-3" x1="21.52" y1="24.27" x2="21.52" y2="24.43"/>
        </g>
        <g>
          <path class="cls-29" d="M35.84,10.4c2.68,0,4.86,2.17,4.86,4.86s-2.17,4.86-4.86,4.86-4.86-2.17-4.86-4.86,2.17-4.86,4.86-4.86"/>
          <circle class="cls-16" cx="35.84" cy="15.25" r="4.07"/>
          <path class="cls-20" d="M36.57,15.06c-.19.2-.05.6-.3.74s-.51.21-.78.06c-.36-.21-.37-.57-.28-.91.12-.43.62-.25.84-.44l1.86-1.62c.15-.13.28-.14.38-.02.13.16.05.27-.07.41l-1.66,1.79Z"/>
          <line class="cls-12" x1="38.61" y1="15.25" x2="39.44" y2="15.25"/>
          <line class="cls-12" x1="32.26" y1="15.25" x2="33.1" y2="15.25"/>
          <line class="cls-12" x1="33.93" y1="13.24" x2="33.34" y2="12.65"/>
          <line class="cls-12" x1="33.93" y1="17.13" x2="33.34" y2="17.72"/>
          <line class="cls-12" x1="35.83" y1="12.61" x2="35.83" y2="11.78"/>
          <line class="cls-12" x1="38.28" y1="17.72" x2="37.69" y2="17.13"/>
        </g>
        <g>
          <path class="cls-22" d="M10.65,38.79l-6.07.04c-.65,0-1.23-.4-1.53-.85-.35-.52-.5-1.22-.23-1.82l2.78-6.24.03-3.55c-.37-.21-.67-.48-.58-.93.07-.36.35-.69.8-.69h3.33c.44,0,.75.26.84.63.11.45-.17.77-.56.98l.02,3.59,2.77,6.17c.5,1.13-.27,2.66-1.59,2.67Z"/>
          <path class="cls-19" d="M10.61,38.21h-6.01c-.49.01-.9-.31-1.09-.61-.3-.46-.29-.92-.08-1.38l2.74-6.11.05-4.1c0-.19-.63-.07-.63-.41,0-.19.12-.27.33-.27h3.25c.19,0,.31.11.31.27,0,.37-.66.19-.65.45l.07,4.02,2.69,6.07c.27.43.25.88.05,1.35-.17.3-.52.72-1.04.72Z"/>
          <path class="cls-20" d="M10.25,37.53h-5.59c-.51-.01-.82-.65-.62-1.09l1.46-3.23c1.36-.37,2.51.41,4.07-.06l1.48,3.3c.11.24.03.53-.1.74-.12.19-.36.34-.7.34Z"/>
          <circle class="cls-25" cx="6.73" cy="35.74" r=".43"/>
          <circle class="cls-28" cx="8.12" cy="34.59" r=".3"/>
        </g>
        <g>
          <line class="cls-11" x1="11.31" y1="31.37" x2="15.32" y2="31.37"/>
          <polygon class="cls-20" points="17.91 31.37 14.26 32.87 15.12 31.37 14.26 29.88 17.91 31.37"/>
        </g>
        <g>
          <line class="cls-2" x1="53.9" y1="31.37" x2="57.91" y2="31.37"/>
          <polygon class="cls-27" points="60.5 31.37 56.85 32.87 57.71 31.37 56.85 29.88 60.5 31.37"/>
        </g>
        <g>
          <line class="cls-4" x1="35.77" y1="49.33" x2="35.77" y2="49.17"/>
          <line class="cls-8" x1="35.77" y1="48.32" x2="35.77" y2="40.6"/>
          <line class="cls-4" x1="35.77" y1="40.18" x2="35.77" y2="40.02"/>
        </g>
        <g>
          <line class="cls-4" x1="23.67" y1="53.02" x2="23.84" y2="53.02"/>
          <line class="cls-1" x1="24.72" y1="53.02" x2="30.38" y2="53.02"/>
          <line class="cls-4" x1="30.82" y1="53.02" x2="30.99" y2="53.02"/>
        </g>
        <g>
          <line class="cls-4" x1="40.52" y1="52.83" x2="40.68" y2="52.83"/>
          <line class="cls-1" x1="41.57" y1="52.83" x2="47.22" y2="52.83"/>
          <line class="cls-4" x1="47.67" y1="52.83" x2="47.83" y2="52.83"/>
        </g>
        <path class="cls-20" d="M40.75,52.16c-.35-.04-.7-.1-1.05-.14-.12-.01-.19-.07-.23-.17-.07-.19-.15-.38-.23-.57-.04-.09-.03-.16.02-.24.21-.31.41-.62.6-.94-.37-.39-.74-.8-1.14-1.17-.32.21-.65.39-.98.6-.11.07-.22.08-.34.02-.17-.09-.35-.17-.54-.23-.08-.03-.13-.08-.14-.17-.05-.38-.14-.76-.18-1.15-.43,0-.87-.03-1.3-.03-.27,0-.42.12-.47.38-.05.26-.09.53-.13.8-.01.09-.05.14-.13.17-.23.09-.46.18-.68.26-.1.04-.19.02-.28-.04-.31-.2-.61-.39-.92-.57-.4.38-.78.77-1.17,1.16.21.29.41.6.61.9.07.09.07.19.02.29-.09.19-.18.39-.27.59-.05.11-.14.13-.24.15-.22.04-.43.08-.65.11-.17.02-.3.1-.35.27-.04.39,0,.77,0,1.16.04.27.1.35.36.41.21.05.42.08.63.12.15.02.25.09.29.23.05.16.12.31.19.46.06.11.05.21-.02.32-.19.29-.37.58-.56.87.31.45.73.81,1.13,1.18.35-.23.73-.42,1.08-.66.27.1.53.23.81.3.11.03.13.12.14.21.06.36.11.71.19,1.07.57.01,1.13.01,1.7,0,.06-.35.12-.71.16-1.07.02-.14.08-.22.22-.27.19-.06.38-.13.57-.21.11-.04.2-.03.29.02.32.2.63.39.96.58.4-.35.78-.73,1.14-1.12-.2-.32-.39-.64-.6-.95-.06-.1-.07-.19-.02-.29.08-.17.16-.34.23-.51.04-.1.11-.16.23-.18.34-.06.68-.13,1.01-.22.14-.57.03-1.15.03-1.72ZM34.19,54.97c-1.94-2.11-.19-4.25,1.44-4.19,1.46-.02,2.4,1.19,2.39,2.31-.02,1.53-1.72,2.97-3.83,1.88Z"/>
        <g>
          <path class="cls-18" d="M16.02,50.49l.73,1.31c.66-.21,1.28-.1,1.76.37l.97-.75c.22-.03.44.27.31.47l-.96.73c.29.63.22,1.28-.19,1.84l1.1,1.18c.29.35-.03.62-.38.39l-1.13-1.21c-.79.46-1.71.25-2.24-.45l-.89.43c-.26-.06-.2-.5.01-.62l.66-.34c-.19-.69.01-1.32.52-1.77l-.82-1.44c-.04-.34.32-.41.55-.14Z"/>
          <path class="cls-20" d="M19.37,56.03c.13-.05.26-.05.36-.14.05-.04,0-.19.02-.25l.75.75c.5-.29,1.01-.32,1.51-.09.42.19.77.58.87,1.1.15.75-.21,1.46-.86,1.78s-1.41.13-1.86-.39c-.48-.56-.52-1.32-.1-1.97l-.69-.79Z"/>
          <path class="cls-20" d="M19.8,51.88c-.12-.15-.23-.29-.31-.47l.9-.68c-.28-.68-.05-1.39.5-1.74s1.33-.2,1.72.3c.43.54.38,1.3-.07,1.77s-1.23.54-1.81.11l-.94.7Z"/>
          <path class="cls-20" d="M15.11,54.18v.62s-1.26.6-1.26.6c.13.66-.24,1.28-.8,1.49-.59.22-1.26,0-1.57-.55-.35-.62-.16-1.39.39-1.75s1.27-.27,1.75.28l1.49-.7Z"/>
          <path class="cls-20" d="M16.02,50.49c-.03.07-.09.02-.22-.05l-.33.2-.62-1.12c-.76.17-1.47-.26-1.65-.98s.24-1.41.96-1.59c.62-.15,1.21.18,1.46.69.26.54.15,1.16-.31,1.58l.7,1.27Z"/>
        </g>
        <g>
          <g>
            <path class="cls-26" d="M59.1,59.33c-.1-.06-.21-.1-.32-.12-.17-.03-.35,0-.52-.02-.28-.02-.54-.11-.59-.44-.04-.28-.1-.55-.15-.82,0-.05,0-.1-.07-.12-.01,0-.03,0-.04,0-1.11,0-2.22,0-3.32,0-.03,0-.07-.01-.09.02h0c-.05.04-.04.1-.05.15-.05.28-.1.56-.16.83-.04.21-.19.33-.42.37-.17.03-.35.01-.52.02-.19,0-.37.06-.52.18-.14.11-.11.25-.11.39,0,.08.03.13.12.15.03,0,.07,0,.1,0,2.2,0,4.4,0,6.61,0,.05,0,.1,0,.15,0,.04,0,.07-.04.09-.07.08-.15,0-.43-.17-.52Z"/>
            <path class="cls-26" d="M62.56,49.11c-.05-.3-.24-.5-.54-.62-.14-.05-.29-.06-.44-.06-3.87,0-7.74,0-11.61,0-.11,0-.23,0-.34.02-.4.07-.7.36-.73.7,0,.04,0,.09,0,.13,0,2.06,0,4.12,0,6.18,0,.42,0,.84,0,1.26.04.37.34.65.75.7.09,0,.17,0,.26,0,3.89,0,7.79,0,11.68,0,.08,0,.17,0,.25,0,.4-.07.68-.33.73-.68,0-.1,0-.21,0-.31,0-1.91,0-3.81,0-5.72,0-.54.01-1.08,0-1.62ZM62.08,55.5c0,.27-.22.48-.48.48h-11.47c-.27,0-.48-.22-.48-.48v-5.89c0-.27.22-.48.48-.48h11.47c.27,0,.48.22.48.48v5.89Z"/>
          </g>
          <rect x="55.75" y="44.11" width=".22" height="11.13" transform="translate(6.18 105.53) rotate(-89.99)"/>
          <path d="M56.8,55.66l-5.92.02c-.13,0-.27.06-.36,0-.12-.09-.06-.26-.06-.41l.03-4.68h.14s0,4.93,0,4.93h6.03c.06,0,.14.05.13.15Z"/>
          <circle class="cls-21" cx="55.84" cy="56.79" r=".23"/>
          <circle class="cls-31" cx="56.65" cy="56.79" r=".22"/>
          <circle class="cls-30" cx="55.04" cy="56.8" r=".22"/>
          <g>
            <line class="cls-13" x1="59.66" y1="55.29" x2="59.66" y2="50.5"/>
            <circle class="cls-14" cx="59.66" cy="50.5" r=".41"/>
            <circle class="cls-14" cx="59.66" cy="55.29" r=".41"/>
            <line class="cls-12" x1="59.68" y1="55.29" x2="58.38" y2="55.29"/>
            <circle class="cls-6" cx="58.29" cy="55.26" r=".25"/>
            <rect class="cls-9" x="58.17" y="51.9" width="2.98" height="1.98" rx=".32" ry=".32"/>
          </g>
          <g>
            <polyline class="cls-5" points="51.64 54.45 53.04 53.31 54.24 53.88 55.95 51.87"/>
            <polygon class="cls-27" points="56.55 51.16 56.11 52.51 55.9 51.92 55.3 51.81 56.55 51.16"/>
          </g>
        </g>
        <g>
          <g>
            <circle class="cls-20" cx="65.98" cy="22.61" r=".77"/>
            <circle class="cls-20" cx="64.59" cy="20.3" r=".74"/>
            <circle class="cls-20" cx="64.26" cy="24.18" r=".73"/>
          </g>
          <g>
            <path class="cls-22" d="M66.97,39.26l-6.07.04c-.65,0-1.23-.4-1.53-.85-.35-.52-.5-1.22-.23-1.82l2.78-6.24.03-3.55c-.37-.21-.67-.48-.58-.93.07-.36.35-.69.8-.69h3.33c.44,0,.75.26.84.63.11.45-.17.77-.56.98l.02,3.59,2.77,6.17c.5,1.13-.27,2.66-1.59,2.67Z"/>
            <path class="cls-19" d="M66.92,38.68h-6.01c-.49.01-.9-.31-1.09-.61-.3-.46-.29-.92-.08-1.38l2.74-6.11.05-4.1c0-.19-.63-.07-.63-.41,0-.19.12-.27.33-.27h3.25c.19,0,.31.11.31.27,0,.37-.66.19-.65.45l.07,4.02,2.69,6.07c.27.43.25.88.05,1.35-.17.3-.52.72-1.04.72Z"/>
            <path class="cls-20" d="M66.56,38.01h-5.59c-.51-.01-.82-.65-.62-1.09l1.46-3.23c1.36-.37,2.51.41,4.07-.06l1.48,3.3c.11.24.03.53-.1.74-.12.19-.36.34-.7.34Z"/>
          </g>
        </g>
      </g>
      <g>
        <path class="cls-7" d="M34.45,71.49C15.69,70.57.75,54.89.75,36.1c0-18.52,14.52-34.08,33-35.35"/>
        <path class="cls-15" d="M37.91.75c18.76.92,33.7,16.6,33.7,35.39s-14.52,34.08-33,35.35"/>
      </g>
    </g>
  </g>
</svg>