<?xml version="1.0" encoding="UTF-8"?>
<svg id="Capa_2" data-name="Capa 2" xmlns="http://www.w3.org/2000/svg" viewBox="0 0 72.37 72.24">
  <defs>
    <style>
      .cls-1 {
        font-family: Calibri-Bold, Calibri;
        font-size: 5.26px;
        font-weight: 700;
      }

      .cls-1, .cls-2 {
        fill: #fff;
      }

      .cls-3 {
        fill: #264d62;
      }

      .cls-4 {
        fill: #254d62;
      }

      .cls-5, .cls-6, .cls-7, .cls-8, .cls-9, .cls-10, .cls-11, .cls-12, .cls-2, .cls-13, .cls-14, .cls-15, .cls-16, .cls-17 {
        stroke-miterlimit: 10;
      }

      .cls-5, .cls-7, .cls-8, .cls-11, .cls-18, .cls-19, .cls-15, .cls-16 {
        stroke-width: .25px;
      }

      .cls-5, .cls-12, .cls-16 {
        stroke: #fff;
      }

      .cls-5, .cls-20 {
        fill: #575756;
      }

      .cls-6, .cls-7, .cls-9, .cls-10, .cls-21, .cls-11, .cls-18, .cls-22, .cls-19, .cls-23, .cls-13, .cls-14, .cls-15, .cls-17 {
        fill: none;
      }

      .cls-6, .cls-7, .cls-9, .cls-21, .cls-11, .cls-18, .cls-22, .cls-19, .cls-23, .cls-13, .cls-14, .cls-15 {
        stroke-linecap: round;
      }

      .cls-6, .cls-13 {
        stroke-width: 1.5px;
      }

      .cls-6, .cls-15 {
        stroke: #254d62;
      }

      .cls-7, .cls-21, .cls-11, .cls-18, .cls-2, .cls-22, .cls-19, .cls-23, .cls-14, .cls-17 {
        stroke: #575756;
      }

      .cls-8 {
        fill: #5a5f5f;
        stroke: #8f8f94;
      }

      .cls-9 {
        stroke: #274d62;
      }

      .cls-9, .cls-10, .cls-2, .cls-14, .cls-17 {
        stroke-width: .5px;
      }

      .cls-10, .cls-13 {
        stroke: #585b5c;
      }

      .cls-24, .cls-12, .cls-16 {
        fill: #274d62;
      }

      .cls-21, .cls-18, .cls-22, .cls-19, .cls-23 {
        stroke-miterlimit: 2;
      }

      .cls-21, .cls-22, .cls-23 {
        stroke-width: .4px;
      }

      .cls-11 {
        stroke-dasharray: .6 .6;
      }

      .cls-18 {
        stroke-dasharray: .58 .58;
      }

      .cls-12 {
        stroke-width: .3px;
      }

      .cls-22 {
        stroke-dasharray: .57 .57;
      }

      .cls-23 {
        stroke-dasharray: .54 .54;
      }
    </style>
  </defs>
  <g id="Capa_1-2" data-name="Capa 1">
    <g>
      <g>
        <g>
          <circle class="cls-24" cx="17.49" cy="20.51" r="4.34"/>
          <g>
            <line class="cls-14" x1="17.49" y1="15.18" x2="17.49" y2="11.96"/>
            <line class="cls-14" x1="11.4" y1="26.6" x2="13.68" y2="24.32"/>
            <line class="cls-14" x1="13.68" y1="16.65" x2="11.4" y2="14.37"/>
            <line class="cls-14" x1="23.6" y1="26.6" x2="21.32" y2="24.32"/>
            <line class="cls-14" x1="17.49" y1="29.07" x2="17.49" y2="25.84"/>
            <line class="cls-14" x1="12.06" y1="20.51" x2="8.84" y2="20.51"/>
            <line class="cls-14" x1="22.91" y1="20.51" x2="26.14" y2="20.51"/>
            <line class="cls-14" x1="21.32" y1="16.65" x2="23.6" y2="14.37"/>
            <line class="cls-9" x1="22.27" y1="18.37" x2="23.19" y2="17.99"/>
            <line class="cls-9" x1="11.78" y1="23.11" x2="12.71" y2="22.73"/>
            <line class="cls-9" x1="15.3" y1="15.57" x2="14.92" y2="14.64"/>
            <line class="cls-9" x1="19.92" y1="14.64" x2="19.53" y2="15.57"/>
            <line class="cls-9" x1="19.92" y1="26.24" x2="19.53" y2="25.31"/>
            <line class="cls-9" x1="14.92" y1="26.24" x2="15.3" y2="25.31"/>
            <line class="cls-9" x1="11.78" y1="17.99" x2="12.71" y2="18.37"/>
            <line class="cls-9" x1="22.27" y1="22.73" x2="23.19" y2="23.11"/>
          </g>
        </g>
        <g>
          <line class="cls-7" x1="20.46" y1="29.29" x2="20.67" y2="29.5"/>
          <line class="cls-11" x1="21.09" y1="29.93" x2="26.81" y2="35.64"/>
          <line class="cls-7" x1="27.02" y1="35.85" x2="27.23" y2="36.07"/>
          <polygon class="cls-20" points="27.86 36.69 26.62 36.17 27.19 36.02 27.34 35.45 27.86 36.69"/>
        </g>
        <g>
          <line class="cls-19" x1="23.79" y1="27.97" x2="24" y2="28.18"/>
          <line class="cls-18" x1="24.41" y1="28.59" x2="27.48" y2="31.66"/>
          <line class="cls-19" x1="27.69" y1="31.87" x2="27.9" y2="32.08"/>
          <polygon class="cls-20" points="28.52 32.7 27.28 32.18 27.85 32.03 28 31.47 28.52 32.7"/>
        </g>
        <g id="iNDUSTRIALiNNOVATION">
          <path class="cls-15" d="M36.94,43.34v-1.24s0-.03,0-.05l1.38-5.12c-.17.08-.42.19-.71.18-.51,0-.68-.32-1.17-.32-.5,0-.75.33-1.23.32-.47,0-.6-.31-1.12-.32-.32,0-.64.11-.86.21l1.42,5.05s0,.03,0,.05v1.24"/>
          <g>
            <path class="cls-10" d="M35.13,44.42c-.52-.01-1.03.03-1.55-.02-.55-.06-.98-.45-1.05-.97-.03-.26-.02-.52-.02-.78-.01-1.45-.57-2.71-1.61-3.78-.73-.76-1.32-1.59-1.65-2.57-.01-.04-.02-.07-.04-.11-.36-1.15-.36-2.37-.02-3.52l.18-.6-.02.08c.64-1.34,1.56-2.56,2.96-3.29,4.19-2.17,8.26-.06,9.7,2.75.02.04.04.07.05.11.34.7.51,1.45.54,2.21v.13c.07,1.72-.56,3.41-1.8,4.68-.03.03-.06.06-.09.09-.79.79-1.34,1.7-1.58,2.77-.11.51-.12,1.03-.12,1.54,0,.14,0,.27-.05.41-.14.53-.59.85-1.2.87-.46,0-.92,0-1.39,0"/>
            <g>
              <path class="cls-12" d="M35.77,47.06c-1.01,0-2.02,0-3.02,0-.26,0-.49-.15-.58-.39-.09-.22-.03-.49.17-.66.11-.1.25-.16.41-.16,1.23,0,2.45,0,3.68,0,.79,0,1.58,0,2.37,0,.27,0,.48.1.61.35.1.2.05.52-.11.68-.12.12-.28.19-.46.19-1.02,0-2.04,0-3.06,0Z"/>
              <path class="cls-8" d="M35.8,47.24c.98,0,1.97,0,2.95,0,.12,0,.24.02.35.06.24.08.37.35.33.66-.03.24-.24.44-.49.46-.24.01-.47.01-.71,0-.13,0-.2.04-.24.17-.17.64-.58,1.06-1.17,1.32-.18.08-.37.14-.57.16-.72.07-1.41.02-2.01-.46-.31-.25-.54-.55-.63-.95-.03-.15-.11-.25-.29-.24-.22.01-.44,0-.66,0-.3,0-.51-.23-.54-.53-.03-.29.16-.54.45-.61.11-.03.21-.03.32-.03.97,0,1.93,0,2.9,0Z"/>
              <path class="cls-8" d="M35.85,45.6c-1,0-2.01,0-3.01,0-.18,0-.34-.04-.48-.17-.19-.18-.22-.4-.14-.63.07-.2.22-.36.43-.36.26,0,.44-.14.65-.24.74-.37,1.54-.81,2.38-1.33.09-.06.15-.06.26,0,.88.54,1.79,1.02,2.71,1.49.07.04.15.07.24.07.38,0,.6.22.6.57,0,.37-.23.6-.62.6-.91,0-1.81,0-2.72,0-.1,0-.21,0-.31,0Z"/>
            </g>
          </g>
          <g>
            <path class="cls-3" d="M34.06,33.11c.31-.28.64-.48,1.06-.51.5-.03.7.14.7.62,0,.43-.18.83-.26,1.25-.02.12-.06.24-.08.37-.02.13.03.19.17.18.05,0,.09,0,.14-.01.06,0,.09.03.12.08.03.05-.01.08-.04.12-.13.16-.65.32-.85.26-.14-.04-.22-.14-.2-.28.03-.34.15-.66.22-.99.06-.27.15-.54.14-.82,0-.3-.23-.46-.52-.33-.39.18-.71.41-.78.87-.07.45-.18.9-.28,1.35-.03.15-.26.26-.46.21-.17-.04-.15-.17-.12-.29.23-1.12.46-2.23.69-3.35.05-.23.03-.25-.2-.27-.08,0-.14-.02-.15-.11,0-.09.04-.14.12-.15.22-.05.45-.09.67-.12.17-.02.26.07.23.24-.1.56-.21,1.11-.32,1.69Z"/>
            <path class="cls-3" d="M37.42,34.88c.38-.5.75-.96.9-1.54.04-.14.04-.29-.03-.42-.05-.08-.12-.17-.01-.25.1-.08.21-.11.35-.06.2.09.29.31.23.57-.08.28-.23.53-.39.78-.29.46-.6.9-.95,1.32-.04.05-.09.1-.13.14-.08.07-.18.08-.27.05-.09-.04-.14-.1-.15-.2-.03-.47-.07-.93-.11-1.4-.02-.23-.05-.45-.09-.67-.02-.15-.1-.24-.28-.22-.11.02-.21-.02-.21-.14,0-.12.11-.12.2-.13.21-.02.42-.04.63-.06.14-.01.21.04.23.17.06.68.1,1.36.1,2.08Z"/>
          </g>
        </g>
        <g>
          <line class="cls-14" x1="42.92" y1="38.68" x2="47.6" y2="36.08"/>
          <polygon class="cls-20" points="49.14 35.22 47.46 37.32 47.48 36.14 46.47 35.54 49.14 35.22"/>
        </g>
        <g>
          <line class="cls-21" x1="30.49" y1="55.06" x2="30.49" y2="54.76"/>
          <line class="cls-22" x1="30.49" y1="54.19" x2="30.49" y2="51.06"/>
          <line class="cls-21" x1="30.49" y1="50.78" x2="30.49" y2="50.48"/>
          <polygon class="cls-20" points="30.49 49.07 31.3 51.06 30.49 50.59 29.67 51.06 30.49 49.07"/>
        </g>
        <g>
          <line class="cls-21" x1="41.74" y1="54.88" x2="41.74" y2="54.58"/>
          <line class="cls-23" x1="41.74" y1="54.04" x2="41.74" y2="51.05"/>
          <line class="cls-21" x1="41.74" y1="50.78" x2="41.74" y2="50.48"/>
          <polygon class="cls-20" points="41.74 49.07 42.56 51.06 41.74 50.59 40.93 51.06 41.74 49.07"/>
        </g>
        <g>
          <g>
            <path class="cls-2" d="M44.73,56.08h-17.89c-.35,0-.65.24-.73.57l-1.82,7.33c-.12.47.24.93.73.93h21.53c.49,0,.85-.46.73-.93l-1.82-7.33c-.08-.34-.38-.57-.73-.57Z"/>
            <g>
              <path class="cls-24" d="M35.32,63.93h-3.94c-.18,0-.32-.16-.3-.34l.16-1.31c.02-.15.15-.27.3-.27h3.84c.17,0,.31.14.3.32l-.06,1.31c0,.16-.14.29-.3.29Z"/>
              <path class="cls-24" d="M35.39,61.41h-3.75c-.17,0-.31-.15-.29-.32l.15-1.24c.02-.14.14-.25.29-.25h3.65c.16,0,.3.14.29.3l-.06,1.24c0,.15-.13.28-.29.28Z"/>
              <path class="cls-24" d="M35.51,58.97h-3.55c-.16,0-.29-.14-.27-.31l.15-1.17c.02-.14.13-.24.27-.24h3.46c.16,0,.28.13.27.29l-.05,1.17c0,.15-.13.26-.27.26Z"/>
              <path class="cls-24" d="M30.02,63.93h-4.01c-.17,0-.29-.16-.25-.32l.34-1.4c.03-.11.13-.2.25-.2h3.86c.16,0,.28.14.25.29l-.2,1.4c-.02.13-.13.22-.25.22Z"/>
              <path class="cls-24" d="M30.42,61.41h-3.81c-.16,0-.27-.15-.24-.3l.33-1.33c.03-.11.12-.19.24-.19h3.67c.15,0,.26.13.24.28l-.19,1.33c-.02.12-.12.21-.24.21Z"/>
              <path class="cls-24" d="M30.77,58.97h-3.61c-.15,0-.26-.14-.22-.29l.17-.71c.1-.43.49-.72.92-.72h2.91c.14,0,.25.12.23.26l-.18,1.26c-.02.11-.11.2-.23.2Z"/>
              <path class="cls-24" d="M36.86,63.84h3.94c.18,0,.32-.16.3-.34l-.16-1.31c-.02-.15-.15-.27-.3-.27h-3.84c-.17,0-.31.14-.3.32l.06,1.31c0,.16.14.29.3.29Z"/>
              <path class="cls-24" d="M36.78,61.32h3.75c.17,0,.31-.15.29-.32l-.15-1.24c-.02-.14-.14-.25-.29-.25h-3.65c-.16,0-.3.14-.29.3l.06,1.24c0,.15.13.28.29.28Z"/>
              <path class="cls-24" d="M36.67,58.88h3.55c.16,0,.29-.14.27-.31l-.15-1.17c-.02-.14-.13-.24-.27-.24h-3.46c-.16,0-.28.13-.27.29l.05,1.17c0,.15.13.26.27.26Z"/>
              <path class="cls-24" d="M42.16,63.84h4.01c.17,0,.29-.16.25-.32l-.34-1.4c-.03-.11-.13-.2-.25-.2h-3.86c-.16,0-.28.14-.25.29l.2,1.4c.02.13.13.22.25.22Z"/>
              <path class="cls-24" d="M41.75,61.32h3.81c.16,0,.27-.15.24-.3l-.33-1.33c-.03-.11-.12-.19-.24-.19h-3.67c-.15,0-.26.13-.24.28l.19,1.33c.02.12.12.21.24.21Z"/>
              <path class="cls-24" d="M41.4,58.88h3.61c.15,0,.26-.14.22-.29l-.17-.71c-.1-.43-.49-.72-.92-.72h-2.91c-.14,0-.25.12-.23.26l.18,1.26c.02.11.11.2.23.2Z"/>
            </g>
          </g>
          <path class="cls-20" d="M39.66,67.18h-.71c-.52,0-.95-.43-.95-.95v-1.25h-3.85v1.25c0,.52-.43.95-.95.95h-.71c-.31,0-.55.25-.55.55v.55h8.28v-.55c0-.31-.25-.55-.55-.55Z"/>
        </g>
        <g>
          <polygon class="cls-17" points="49.14 31.86 49.24 25.33 54.94 22.15 60.55 25.5 60.46 32.03 54.75 35.21 49.14 31.86"/>
          <line class="cls-17" x1="54.85" y1="35.21" x2="54.85" y2="39.06"/>
          <circle class="cls-16" cx="54.85" cy="38.26" r="1.47"/>
          <line class="cls-17" x1="54.85" y1="17.2" x2="54.85" y2="22.15"/>
          <circle class="cls-16" cx="54.85" cy="22.15" r="1.47"/>
          <circle class="cls-16" cx="49.14" cy="31.97" r="1.47"/>
          <line class="cls-14" x1="60.55" y1="25.39" x2="62.76" y2="24.12"/>
          <line class="cls-17" x1="45.87" y1="23.35" x2="49.21" y2="25.28"/>
          <line class="cls-17" x1="60.36" y1="32.06" x2="63.7" y2="33.98"/>
          <circle class="cls-5" cx="60.36" cy="31.97" r="1.47"/>
          <circle class="cls-5" cx="46.61" cy="23.76" r="1.47"/>
          <circle class="cls-5" cx="54.85" cy="17.2" r="1.47"/>
          <g>
            <circle class="cls-4" cx="54.85" cy="28.68" r="3.29"/>
            <text class="cls-1" transform="translate(52.55 30.45)"><tspan x="0" y="0">M</tspan></text>
          </g>
          <circle class="cls-5" cx="64.06" cy="34.19" r="1.47"/>
        </g>
      </g>
      <g>
        <path class="cls-6" d="M34.45,71.49C15.69,70.57.75,54.89.75,36.1c0-18.52,14.52-34.08,33-35.35"/>
        <path class="cls-13" d="M37.91.75c18.76.92,33.7,16.6,33.7,35.39s-14.52,34.08-33,35.35"/>
      </g>
    </g>
  </g>
</svg>