<?xml version="1.0" encoding="UTF-8"?>
<svg id="Capa_2" data-name="Capa 2" xmlns="http://www.w3.org/2000/svg" viewBox="0 0 72.37 72.24">
  <defs>
    <style>
      .cls-1, .cls-2, .cls-3, .cls-4, .cls-5, .cls-6, .cls-7, .cls-8, .cls-9, .cls-10 {
        stroke-miterlimit: 10;
      }

      .cls-1, .cls-3, .cls-9 {
        stroke: #fff;
      }

      .cls-1, .cls-5, .cls-6, .cls-10, .cls-11 {
        fill: none;
      }

      .cls-1, .cls-11 {
        stroke-width: .34px;
      }

      .cls-12 {
        fill: #0c334e;
      }

      .cls-2 {
        stroke: rgba(1, 1, 1, 0);
      }

      .cls-2, .cls-13, .cls-7, .cls-8 {
        fill: #fff;
      }

      .cls-2, .cls-8 {
        stroke-width: .04px;
      }

      .cls-14 {
        fill: #f2f3f6;
      }

      .cls-15 {
        fill: #0b344f;
      }

      .cls-16 {
        fill: #fefefe;
      }

      .cls-3, .cls-9 {
        stroke-width: .5px;
      }

      .cls-3, .cls-17 {
        fill: #585b5c;
      }

      .cls-4 {
        stroke-width: .9px;
      }

      .cls-4, .cls-18 {
        fill: #575756;
      }

      .cls-4, .cls-11 {
        stroke: #274d62;
      }

      .cls-5, .cls-7 {
        stroke-width: .45px;
      }

      .cls-5, .cls-10 {
        stroke: #585b5c;
      }

      .cls-19 {
        fill: #eff0f3;
      }

      .cls-20 {
        fill: #254d62;
      }

      .cls-6 {
        stroke: #254d62;
      }

      .cls-6, .cls-10 {
        stroke-width: 1.5px;
      }

      .cls-6, .cls-10, .cls-11 {
        stroke-linecap: round;
      }

      .cls-7 {
        stroke: #575756;
      }

      .cls-8 {
        stroke: rgba(88, 91, 92, 0);
      }

      .cls-9 {
        fill: #274d62;
      }

      .cls-21 {
        fill: #555657;
      }

      .cls-11 {
        stroke-dasharray: .9 .9;
        stroke-miterlimit: 5;
      }

      .cls-22 {
        fill: #4c4d4f;
      }
    </style>
  </defs>
  <g id="Capa_1-2" data-name="Capa 1">
    <g>
      <g>
        <g>
          <g>
            <ellipse class="cls-18" cx="36.12" cy="44.57" rx="7.89" ry="1.64"/>
            <path class="cls-18" d="M44.01,45.1c0,.91-3.53,1.64-7.89,1.64s-7.89-.74-7.89-1.64v1.5c0,.91,3.53,1.64,7.89,1.64s7.89-.74,7.89-1.64"/>
          </g>
          <g>
            <g>
              <polygon class="cls-4" points="37.64 38.69 34.59 38.69 33.07 36.05 34.6 33.41 37.65 33.41 39.17 36.05 37.64 38.69"/>
              <polygon class="cls-1" points="37.49 38.43 34.75 38.43 33.38 36.05 34.75 33.67 37.49 33.67 38.86 36.05 37.49 38.43"/>
            </g>
            <g>
              <polygon class="cls-4" points="37.64 44.49 34.59 44.49 33.07 41.85 34.6 39.21 37.65 39.21 39.17 41.86 37.64 44.49"/>
              <polygon class="cls-1" points="37.49 44.23 34.75 44.23 33.38 41.85 34.75 39.47 37.49 39.48 38.86 41.85 37.49 44.23"/>
            </g>
            <g>
              <polygon class="cls-4" points="37.64 32.89 34.59 32.89 33.07 30.25 34.6 27.61 37.65 27.61 39.17 30.25 37.64 32.89"/>
              <polygon class="cls-1" points="37.49 32.63 34.75 32.62 33.38 30.25 34.75 27.87 37.49 27.87 38.86 30.25 37.49 32.63"/>
            </g>
            <g>
              <polygon class="cls-4" points="32.68 35.93 29.63 35.93 28.11 33.28 29.63 30.64 32.68 30.65 34.21 33.29 32.68 35.93"/>
              <polygon class="cls-1" points="32.53 35.66 29.78 35.66 28.41 33.28 29.79 30.91 32.53 30.91 33.9 33.29 32.53 35.66"/>
            </g>
            <g>
              <polygon class="cls-4" points="32.68 41.55 29.63 41.55 28.11 38.9 29.63 36.26 32.68 36.27 34.21 38.91 32.68 41.55"/>
              <polygon class="cls-1" points="32.53 41.28 29.78 41.28 28.41 38.9 29.79 36.53 32.53 36.53 33.9 38.91 32.53 41.28"/>
            </g>
            <g>
              <polygon class="cls-4" points="42.61 35.93 39.56 35.93 38.04 33.28 39.56 30.64 42.61 30.65 44.14 33.29 42.61 35.93"/>
              <polygon class="cls-1" points="42.46 35.66 39.71 35.66 38.34 33.28 39.72 30.91 42.46 30.91 43.83 33.29 42.46 35.66"/>
            </g>
            <g>
              <polygon class="cls-4" points="42.61 41.55 39.56 41.55 38.04 38.9 39.56 36.26 42.61 36.27 44.14 38.91 42.61 41.55"/>
              <polygon class="cls-1" points="42.46 41.28 39.71 41.28 38.34 38.9 39.72 36.53 42.46 36.53 43.83 38.91 42.46 41.28"/>
            </g>
          </g>
          <path class="cls-11" d="M26.7,43.37c-1.31-1.86-2.01-4.07-2.01-6.34,0-6.04,4.97-11.02,11.02-11.02s11.02,4.97,11.02,11.02c0,2.2-.66,4.35-1.89,6.17"/>
        </g>
        <g>
          <g>
            <path class="cls-7" d="M40.02,22.14c-.38-.95-.79-1.88-1.16-2.83-.44-1.12-.98-2.21-1.33-3.38,0-.73,0-1.46,0-2.2.3-.04.37-.13.37-.39,0-.23-.1-.33-.34-.36-1.03,0-2.06,0-3.09,0-.23.06-.31.16-.31.39,0,.22.1.31.39.37-.02.82.06,1.63-.06,2.45-.29.7-.57,1.4-.86,2.1-.54,1.3-1.08,2.61-1.61,3.91-.45,1.12.26,2.26,1.4,2.26,1.73,0,3.45,0,5.18,0,1.17,0,1.88-1.16,1.41-2.31Z"/>
            <path class="cls-20" d="M39.09,22.45c-.44-1.06-.87-2.12-1.3-3.19-.04-.11-.11-.12-.2-.12-1.05,0-2.11,0-3.16,0-.1,0-.15.04-.18.13-.21.52-.42,1.04-.64,1.56-.23.57-.47,1.14-.7,1.71-.16.41.01.75.41.85,1.04,0,2.08,0,3.12,0,.75,0,1.5,0,2.25,0,.26-.05.44-.21.47-.44.03-.18-.01-.34-.08-.51Z"/>
            <path class="cls-13" d="M36.04,22.01c0,.26-.21.48-.45.47-.23,0-.43-.23-.42-.48,0-.25.2-.47.43-.47.24,0,.44.21.44.48Z"/>
            <path class="cls-13" d="M37.18,20.89c0,.21-.15.38-.34.38-.2,0-.36-.16-.36-.37,0-.21.15-.38.34-.39.19,0,.36.16.36.37Z"/>
          </g>
          <path class="cls-20" d="M36.45,17.12c0,.26-.21.48-.45.47-.23,0-.43-.23-.42-.48,0-.25.2-.47.43-.47.24,0,.44.21.44.48Z"/>
          <g>
            <path class="cls-21" d="M36.94,10.61c-.24,0-.23-.05-.03-.17.17-.02.25-.14.34-.31.9-1.7,2.29-2.91,3.8-4.12-1.95.81-3.45,2.2-4.58,4.02-.62-2.07.25-4.28,2.05-5.47,1.04-.69,2.23-1,3.47-1.14h2.59s-.41,1.73-.41,1.73c-.19.81-.45,1.56-.8,2.3-.97,2.03-2.93,3.2-5.18,3.16l-1.25-.02Z"/>
            <path class="cls-15" d="M35.29,9.06c0,.46.03.9.11,1.31l.53,1.17.57-1.34c.13,0,.29.1.41.23.03.03.05.14.03.17-.4.82-.63,1.68-.69,2.57-.12.09-.39.09-.48,0-.1-.08-.04-.27-.05-.42-.02-.76-.35-1.44-.73-2.07l-1.08.04c-1.42.06-2.59-.8-3.13-2.1l-.62-2.13c2.45-.28,4.38.2,5.14,2.56Z"/>
            <path class="cls-19" d="M35.29,9.06c.13.41.05.85.11,1.31-.2-.07-.33.03-.47.24-.63-1.07-1.51-1.81-2.52-2.56,1.19.41,2.07,1.24,2.84,2.18l.05-1.17Z"/>
          </g>
        </g>
        <g>
          <circle class="cls-12" cx="36.07" cy="56.48" r="6.66"/>
          <path class="cls-22" d="M46.06,60.78c-.85,1.2-1.79,2.24-2.89,3.15-.12.1-.35-.03-.4-.1-.06-.09-.09-.29.05-.41,1-.88,1.87-1.86,2.68-2.92.18-.23.18-.53,0-.72s-.54-.23-.79-.05c-.86.62-1.38,1.84-2.82,2.46s-2.59,1.93-2.77,3.55l-.28,2.58c-.02.2-.18.28-.35.26-.18-.02-.3-.18-.28-.4l.26-2.45c.2-1.86,1.41-3.36,3.09-4.12.53-.24.94-.53,1.33-.95l1.05-1.14c.38-.42.9-.59,1.46-.52l.95-3.26c.14-.49.58-.86,1.06-.96.37-.08.72.02.96.25s.36.57.31.94l-.59,4.2-.6,2.24c-.19.73-.54,1.34-1.11,1.83l-2.75,2.36c-1.17,1-.72,1.95-1.06,2.17-.12.08-.29.07-.38,0-.14-.1-.09-.29-.08-.42.04-.95.42-1.65,1.11-2.24l2.66-2.29c.51-.44.81-.98.98-1.63l.6-2.24.59-4.14c.03-.18-.09-.32-.18-.37-.13-.08-.31-.1-.46-.02-.27.14-.44.41-.53.7l-.94,3.2c.38.4.44,1,.1,1.46Z"/>
          <path class="cls-22" d="M29.15,63.92c-1.1-.88-1.96-1.93-2.8-3.01-.39-.5-.41-1.11.01-1.61l-.96-3.22c-.16-.54-.61-.85-.94-.66-.1.06-.25.2-.23.38l.62,4.16.7,2.63c.12.44.41.83.75,1.12l2.76,2.36c.71.61,1.11,1.32,1.15,2.28,0,.14.06.3-.09.41-.08.06-.25.09-.37.02-.33-.2.11-1.17-1.05-2.17l-2.8-2.4c-.58-.49-.89-1.11-1.09-1.85l-.61-2.31-.57-4c-.06-.41.03-.78.32-1.04.27-.24.69-.34,1.1-.2.47.16.82.58.96,1.07l.91,3.12c.6-.11,1.1.13,1.52.56l1.47,1.54,1.51.87c1.31.75,2.27,2.13,2.42,3.65l.26,2.54c.02.18-.04.33-.13.39-.16.1-.44.05-.46-.14l-.29-2.65c-.18-1.58-1.22-2.87-2.65-3.5-.7-.31-1.22-.74-1.73-1.29l-1.14-1.21c-.16-.17-.41-.17-.64-.12-.16.04-.38.23-.36.49.03.34.31.58.51.84.7.89,1.42,1.7,2.29,2.43.15.12.16.29.12.39-.05.13-.28.3-.45.15Z"/>
          <path class="cls-16" d="M30.18,54.85c.63.41.18,1.22.88,1.42.38.11.66.34.88.67.08.03.24.04.29.09.08.08.09.28.02.36-.47.59.07,1.34.71,1.87l.28,1.51.25.65c.1.26.34.52.69.45-.69-1.04.19-.99.57-2.14.74-.24.37-.75.75-1.2.08-.1.11-.22.09-.32-.04-.25-.66-.45-1.18-.56.03-.41-.3-.47-.54-.62-.49-.31-1.09-.64-1.5-.24-.06.06-.24,0-.3-.05-.08-.07,0-.34-.1-.41l-.25-.18.07-.35c-.1-.17-.33.06-.42.14-.26,0-.27-.43-.18-.61.2-.41.81-.35.85-.31.1.08.12.58.27.37.02-.03.06-.12.04-.15-.12-.34.15-.43.28-.62.25-.36.46-.77.96-.86.12-.02.38-.04.36-.23-.08-.06-.32-.13-.26-.31.29-.03.55-.04.79-.22-.12-.2-.23-.35-.3-.59-.39-.05-.49-.26-.57-.26-.29-.04-.29.59-.71.92.05-.29-.27-.4-.36-.53.02-.6.88-.41.97-.94l-.49-.14c-.15.17-.36.26-.55.09.68-.44,1.33-.75,2.1-.98l-.09.31c.19-.03.38,0,.45.1.2.32-.09.61,0,.97.03.13.27.39.42.23.27-.27.51-.56.91-.66.43-.1.69-.72.5-1.1,1.1.13,2.16.53,3.08,1.22.06.04.09.07.1.11.02.05,0,.09-.05.1-.11.04-.69-.73-1.16-.3-.17.15-.33.42-.44.58-.15.22.18.29.29.36.13.07.19.21.33.16.3-.11-.18-.65.29-.76-.04.1-.07.22-.03.31s.15.13.34.16c-.08.13-.18.34-.36.45-.18.06-.51-.06-.7.1-.21.17-.36.39-.63.49l.2.38c-.17.07-.32.04-.49.06-.11.21-.1.51.1.61.55.25.7-.91,1.19-.57.13.09.21.34.44.2-.13-.15-.28-.19-.26-.42.38.15.49.44.69.81.08-.2.06-.33.27-.37.03.22.07.32.13.37.1.09.28.07.44.1.09.02.06.23,0,.28-.07.07-.18.15-.32.1l-.42-.14c-.19.17-.35.12-.53.08-.22-.06-.25-.26-.39-.4-.2-.21-.6.07-.81.09-.42.03-.51.27-.72.53-.26.33-.44.55-.44.99,0,.32,0,.53.24.8s.46.48.88.31c.24-.1.74-.12.85.21.05.15-.06.41.09.57.31.33.08.67.01,1-.09.47.14.96.16,1.46.39.05.69-.16.93-.42l.5-.88c.17-.3.45-.44.37-.86-.12-.6.79-.86.8-1.69-.28.11-.52.08-.63-.16-.18-.4-.43-.75-.54-1.21.44.33.52.81.77,1.26.34-.06.55-.31.8-.66.26,2.45-.95,4.8-3.16,5.97-1.72.91-3.78.97-5.54.11-2.63-1.29-3.95-4.26-3.21-7.08Z"/>
          <path class="cls-14" d="M40.73,54.15c-.33-.03-.56-.08-.8,0,.04-.21.06-.33.14-.43.31,0,.58.05.66.43Z"/>
          <path class="cls-16" d="M42.06,55.56c.06.04.03.16,0,.18.01,0-.68-.26-.68-.6l.67.43Z"/>
          <path class="cls-12" d="M34.38,51.62c.04.19-.32.52-.41.47s-.21-.11-.23-.17c-.03-.09.06-.2.18-.29l-.38-.21c.03-.22.16-.24.32-.24.25,0,.51.33.53.45Z"/>
          <path class="cls-12" d="M37.73,53.12c0-.1-.06-.18-.19-.23l.03-.17.06-.22s.13-.08.16-.02l.3.54c.04.07-.1.18-.17.19-.07.01-.16,0-.19-.08Z"/>
          <path class="cls-12" d="M37.73,53.12s-.08-.15-.12-.17c-.04-.02-.13.18-.17.15-.2-.17.1-.28.13-.38.17.07.19.25.16.41Z"/>
        </g>
        <g>
          <path class="cls-17" d="M19.9,40.65l.38.22v-5.08l-.38.22v4.64Z"/>
          <path class="cls-17" d="M18.94,40.21h.38v-3.75h-.38v3.75Z"/>
          <path class="cls-17" d="M15.88,42.97v.44l4.4-2.54-.38-.22-4.02,2.32Z"/>
          <path class="cls-17" d="M11.86,40.65l-.38.22,4.4,2.54v-.44l-4.02-2.32Z"/>
          <path class="cls-17" d="M12.72,40.04l-.19.33,3.25,1.88.19-.33-3.25-1.88Z"/>
          <path class="cls-17" d="M11.86,36.01l-.19-.11-.19.11v4.86l.38-.22v-4.64Z"/>
          <path class="cls-17" d="M15.88,33.69v-.44l-4.21,2.43v.22s.19.11.19.11l4.02-2.32Z"/>
          <path class="cls-17" d="M15.97,34.74l-.19-.33-3.25,1.88.19.33,3.25-1.88Z"/>
          <path class="cls-17" d="M19.9,36.01l.38-.22-4.4-2.54v.44l4.02,2.32Z"/>
          <path class="cls-17" d="M9.32,34.22l-.38.21,2.54,1.57.19-.11v-.22s-2.35-1.46-2.35-1.46Z"/>
          <path class="cls-17" d="M9.38,29.47h-.38s-.06,4.96-.06,4.96l.38-.21.06-4.75Z"/>
          <path class="cls-8" d="M11.27,29.7c0,1.15-.94,2.09-2.09,2.09s-2.09-.94-2.09-2.09.94-2.09,2.09-2.09,2.09.94,2.09,2.09Z"/>
          <path class="cls-3" d="M11.27,29.7c0,1.15-.94,2.09-2.09,2.09s-2.09-.94-2.09-2.09.94-2.09,2.09-2.09,2.09.94,2.09,2.09Z"/>
        </g>
        <g>
          <path class="cls-17" d="M50,41.01l-.38.22v-5.08l.38.22v4.64Z"/>
          <path class="cls-17" d="M50.96,40.56h-.38v-3.75h.38v3.75Z"/>
          <path class="cls-17" d="M54.02,43.33v.44l-4.4-2.54.38-.22,4.02,2.32Z"/>
          <path class="cls-17" d="M58.03,41.01l.38.22-4.4,2.54v-.44l4.02-2.32Z"/>
          <path class="cls-17" d="M57.17,40.4l.19.33-3.25,1.88-.19-.33,3.25-1.88Z"/>
          <path class="cls-17" d="M58.03,36.37l.19-.11.19.11v4.86l-.38-.22v-4.64Z"/>
          <path class="cls-17" d="M54.02,34.05v-.44l4.21,2.43v.22l-.19.11-4.02-2.32Z"/>
          <path class="cls-17" d="M53.92,35.1l.19-.33,3.25,1.88-.19.33-3.25-1.88Z"/>
          <path class="cls-17" d="M50,36.37l-.38-.22,4.4-2.54v.44l-4.02,2.32Z"/>
          <path class="cls-17" d="M62.24,33.72l.19.11v.22l-4.02,2.32-.19-.11v-.22l4.02-2.32Z"/>
          <path class="cls-17" d="M66.74,36.09l-.19.33-4.11-2.37v-.22l.19-.11,4.11,2.38Z"/>
          <path class="cls-17" d="M62.24,28.86l.38.22v4.64l-.19.11-.19-.11v-4.86Z"/>
          <path class="cls-17" d="M63.2,29.52h.38v3.75h-.38v-3.75Z"/>
          <path class="cls-17" d="M66.55,26.37l.19.33-4.11,2.37-.38-.22,4.3-2.48Z"/>
          <path class="cls-2" d="M64.55,26.54c0,1.15.94,2.09,2.09,2.09s2.09-.94,2.09-2.09-.94-2.09-2.09-2.09-2.09.94-2.09,2.09Z"/>
          <path class="cls-9" d="M64.55,26.54c0,1.15.94,2.09,2.09,2.09s2.09-.94,2.09-2.09-.94-2.09-2.09-2.09-2.09.94-2.09,2.09Z"/>
        </g>
        <g>
          <path class="cls-5" d="M43.11,22.91c2.31.81,4.42,1.97,6.2,3.42,1.33,1.08,2.47,2.3,3.38,3.64"/>
          <polygon class="cls-17" points="50.56 29.76 52.36 29.52 53.43 28.07 54.01 32.31 50.56 29.76"/>
        </g>
        <g>
          <path class="cls-5" d="M29,53.63c-2.31-.81-4.42-1.97-6.2-3.42-1.33-1.08-2.47-2.3-3.38-3.64"/>
          <polygon class="cls-17" points="21.55 46.78 19.75 47.02 18.68 48.48 18.1 44.23 21.55 46.78"/>
        </g>
        <path class="cls-5" d="M43.11,53.63c2.03-.64,3.88-1.56,5.45-2.7,1.83-1.33,3.23-2.94,4.13-4.72"/>
        <g>
          <path class="cls-5" d="M26.09,24.18c-1.18.62-2.29,1.34-3.29,2.16-2.08,1.69-3.68,3.73-4.7,5.98"/>
          <polygon class="cls-17" points="29 22.91 24.17 23.06 25.88 24.3 25.66 26.41 29 22.91"/>
        </g>
      </g>
      <g>
        <path class="cls-6" d="M34.45,71.49C15.69,70.57.75,54.89.75,36.1c0-18.52,14.52-34.08,33-35.35"/>
        <path class="cls-10" d="M37.91.75c18.76.92,33.7,16.6,33.7,35.39s-14.52,34.08-33,35.35"/>
      </g>
    </g>
  </g>
</svg>