<?xml version="1.0" encoding="UTF-8"?>
<svg id="Capa_2" data-name="Capa 2" xmlns="http://www.w3.org/2000/svg" viewBox="0 0 83 83.04">
  <defs>
    <style>
      .cls-1, .cls-2, .cls-3, .cls-4, .cls-5, .cls-6 {
        stroke-miterlimit: 10;
      }

      .cls-1, .cls-4 {
        fill: none;
      }

      .cls-1, .cls-5 {
        stroke: #254d62;
        stroke-width: 3px;
      }

      .cls-2, .cls-3 {
        stroke: #1d1d1b;
        stroke-width: 2px;
      }

      .cls-2, .cls-3, .cls-5 {
        fill: #fff;
      }

      .cls-7 {
        fill: #264d62;
      }

      .cls-3, .cls-4 {
        stroke-linecap: round;
      }

      .cls-4, .cls-6 {
        stroke: #000;
      }

      .cls-6 {
        font-family: FootlightMTLight, 'Footlight MT Light';
        font-size: 8.7px;
        stroke-width: .25px;
      }

      .cls-8 {
        font-family: FreestyleScript-Regular, 'Freestyle Script';
        font-size: 3.48px;
        letter-spacing: .01em;
      }
    </style>
  </defs>
  <g id="Home">
    <g id="CV_Smail">
      <g>
        <circle class="cls-5" cx="41.5" cy="41.54" r="40"/>
        <g>
          <path class="cls-2" d="M23.39,17.94h42.17c1.42,0,2.58,1.16,2.58,2.58v49.95c0,1.42-1.16,2.58-2.58,2.58H25.97c-1.42,0-2.58-1.16-2.58-2.58V17.94h0Z"/>
          <g>
            <path class="cls-2" d="M63.6,52.21V14.48c0-.79-.64-1.43-1.43-1.43H20.29c-.79,0-1.43.64-1.43,1.43v52.25c0,.79.64,1.43,1.43,1.43h26.95c.15,0,.27-.12.27-.27v-13.57c0-.54.43-.97.97-.97h13.98c.63,0,1.13-.51,1.13-1.13Z"/>
            <line class="cls-3" x1="63.35" y1="52.92" x2="47.4" y2="68.11"/>
          </g>
          <g id="Membership">
            <g id="Membership-2" data-name="Membership">
              <g>
                <path class="cls-7" d="M30.5,24.5h0c4.55,0,8.24,3.69,8.24,8.24v1.74h-16.61v-1.61c0-4.62,3.75-8.38,8.38-8.38Z"/>
                <circle class="cls-7" cx="30.44" cy="19.61" r="3.82"/>
              </g>
              <text class="cls-8" transform="translate(40.77 27.83) scale(2.22 1)"><tspan x="0" y="0">Miguel </tspan><tspan x="0" y="2.79">Claros</tspan><tspan x="0" y="5.57">Casielles</tspan></text>
            </g>
          </g>
          <text class="cls-6" transform="translate(49.72 22.61)"><tspan x="0" y="0">CV</tspan></text>
          <line class="cls-4" x1="22.21" y1="39.1" x2="59.33" y2="39.1"/>
          <line class="cls-4" x1="22.21" y1="44.37" x2="59.33" y2="44.37"/>
          <line class="cls-4" x1="22.21" y1="49.64" x2="59.33" y2="49.64"/>
          <line class="cls-4" x1="22.21" y1="54.94" x2="42.35" y2="54.94"/>
          <line class="cls-4" x1="22.21" y1="60.23" x2="42.35" y2="60.23"/>
        </g>
        <circle class="cls-1" cx="41.5" cy="41.5" r="40"/>
      </g>
    </g>
  </g>
</svg>