<?xml version="1.0" encoding="UTF-8"?>
<svg id="Capa_2" data-name="Capa 2" xmlns="http://www.w3.org/2000/svg" viewBox="0 0 83 83.04">
  <defs>
    <style>
      .cls-1, .cls-2, .cls-3, .cls-4, .cls-5, .cls-6, .cls-7, .cls-8, .cls-9, .cls-10, .cls-11, .cls-12, .cls-13, .cls-14, .cls-15, .cls-16, .cls-17, .cls-18, .cls-19, .cls-20 {
        stroke-miterlimit: 10;
      }

      .cls-1, .cls-2, .cls-3, .cls-4, .cls-5, .cls-9, .cls-10, .cls-11, .cls-16, .cls-17, .cls-18, .cls-20 {
        fill: none;
      }

      .cls-1, .cls-13 {
        stroke: #254d62;
        stroke-width: 3px;
      }

      .cls-2 {
        stroke-dasharray: 1.16 1.16;
      }

      .cls-2, .cls-3, .cls-5, .cls-7, .cls-11, .cls-15, .cls-16, .cls-17, .cls-18, .cls-20 {
        stroke-width: .75px;
      }

      .cls-2, .cls-4, .cls-5, .cls-9, .cls-11, .cls-12, .cls-14, .cls-16, .cls-17, .cls-18, .cls-20 {
        stroke: #575b5c;
      }

      .cls-2, .cls-5, .cls-8, .cls-9, .cls-10, .cls-14, .cls-16, .cls-17, .cls-18, .cls-20 {
        stroke-linecap: round;
      }

      .cls-3, .cls-6, .cls-7, .cls-10, .cls-15 {
        stroke: #000;
      }

      .cls-21, .cls-6, .cls-12, .cls-13, .cls-14 {
        fill: #fff;
      }

      .cls-22, .cls-7, .cls-8, .cls-15, .cls-19 {
        fill: #264d62;
      }

      .cls-23 {
        fill: #575b5c;
      }

      .cls-5 {
        stroke-dasharray: 1.62 1.62;
      }

      .cls-6 {
        stroke-width: .5px;
      }

      .cls-8, .cls-19 {
        stroke: #fff;
      }

      .cls-9, .cls-14 {
        stroke-width: 1.5px;
      }

      .cls-15 {
        opacity: .5;
      }

      .cls-16 {
        stroke-dasharray: 2.02 2.02;
      }

      .cls-17 {
        stroke-dasharray: 2.04 2.04;
      }

      .cls-18 {
        stroke-dasharray: 2.01 2.01;
      }

      .cls-19 {
        stroke-width: .25px;
      }
    </style>
  </defs>
  <g id="Home">
    <g id="Projects_Small">
      <g>
        <circle class="cls-13" cx="41.5" cy="41.54" r="40"/>
        <g>
          <g>
            <path class="cls-23" d="M73.94,36.69c-2.36.73-4.34.86-5.89.37-.48-.15-.83-.33-1.2-.53-.52-.27-1.06-.56-1.92-.7-2.23-.37-4.15.21-5.35.75-.21.09-.4.18-.56.27v4.48c0,3.16,2.27,5.74,5.05,5.74h5.38c2.79,0,5.05-2.57,5.05-5.74v-4.84c-.19.06-.38.13-.56.19Z"/>
            <path class="cls-3" d="M69.45,47.18h-5.38c-2.64,0-4.77-2.43-4.77-5.42,0-.1,0-5.8,0-5.9s0-5.74,0-5.84c0-.36.03-2.28,1.4-3.83.86-.98,2.06-1.59,3.38-1.59h5.38c2.64,0,4.77,2.43,4.77,5.42v11.74c0,2.99-2.14,5.42-4.77,5.42Z"/>
            <path class="cls-6" d="M64.47,47.18h4.57v.66c0,.44-.36.8-.8.8h-2.98c-.44,0-.8-.36-.8-.8v-.66h0Z"/>
            <rect class="cls-3" x="64.47" y="21.62" width="4.57" height="2.98" rx=".8" ry=".8"/>
            <line class="cls-10" x1="72.04" y1="29.82" x2="74.09" y2="29.82"/>
            <line class="cls-10" x1="72.04" y1="32.72" x2="74.09" y2="32.72"/>
            <line class="cls-10" x1="72.04" y1="35.61" x2="74.09" y2="35.61"/>
            <line class="cls-10" x1="72.04" y1="38.51" x2="74.09" y2="38.51"/>
            <line class="cls-10" x1="72.04" y1="41.4" x2="74.09" y2="41.4"/>
          </g>
          <g>
            <rect class="cls-4" x="47.91" y="53.62" width="14.9" height="15.61" rx="3.75" ry="3.75"/>
            <g>
              <g>
                <line class="cls-14" x1="51.62" y1="56.62" x2="51.66" y2="66.23"/>
                <circle class="cls-12" cx="51.64" cy="58.4" r="1.43"/>
              </g>
              <g>
                <line class="cls-9" x1="55.37" y1="56.62" x2="55.4" y2="66.23"/>
                <circle class="cls-12" cx="55.39" cy="64.38" r="1.43"/>
              </g>
              <g>
                <line class="cls-9" x1="59.06" y1="56.62" x2="59.1" y2="66.23"/>
                <circle class="cls-12" cx="59.08" cy="60.69" r="1.43"/>
              </g>
            </g>
          </g>
          <g>
            <line class="cls-20" x1="42.51" y1="46.52" x2="42.51" y2="47.52"/>
            <line class="cls-5" x1="42.49" y1="49.14" x2="42.45" y2="54.81"/>
            <polyline class="cls-20" points="42.44 55.62 42.43 56.62 43.43 56.62"/>
            <line class="cls-2" x1="44.59" y1="56.62" x2="46.33" y2="56.62"/>
            <line class="cls-20" x1="46.91" y1="56.62" x2="47.91" y2="56.62"/>
          </g>
          <g>
            <line class="cls-20" x1="19.45" y1="65.74" x2="20.45" y2="65.74"/>
            <line class="cls-16" x1="22.47" y1="65.76" x2="45.68" y2="65.95"/>
            <line class="cls-20" x1="46.69" y1="65.96" x2="47.69" y2="65.96"/>
          </g>
          <g>
            <line class="cls-20" x1="66.76" y1="48.63" x2="66.76" y2="49.63"/>
            <line class="cls-18" x1="66.76" y1="51.64" x2="66.76" y2="58.66"/>
            <polyline class="cls-20" points="66.76 59.66 66.76 60.66 65.76 60.66"/>
            <line class="cls-20" x1="63.81" y1="60.66" x2="62.81" y2="60.66"/>
          </g>
          <g>
            <line class="cls-20" x1="42.31" y1="18.39" x2="43.31" y2="18.39"/>
            <line class="cls-17" x1="45.35" y1="18.39" x2="64.74" y2="18.39"/>
            <polyline class="cls-20" points="65.76 18.39 66.76 18.39 66.76 19.39"/>
            <line class="cls-20" x1="66.76" y1="20.62" x2="66.76" y2="21.62"/>
          </g>
          <g>
            <g>
              <g>
                <path class="cls-23" d="M33.29,57.81c0-.39,0-.78,0-1.17,0-.12-.04-.18-.14-.25-2.21-1.48-4.47-2.86-6.72-4.29-.04-.03-.08-.06-.13-.09,1.29-1.17,1.55-1.41,1.7-2.66.21.14.4.27.6.4,1.9,1.31,3.83,2.56,5.7,3.9.29.21.58.42.78.71.46.67.28,1.56-.44,1.98-.18.11-.23.21-.22.4.02.35,0,.7.01,1.05-.05.06-.12.07-.18.07-.32,0-.63.02-.95,0-.03-.02-.04-.04-.02-.07Z"/>
                <path class="cls-23" d="M17.65,54.22c1.21-.19,2.16.25,2.88,1.21,1.67,2.2,3.36,4.39,5.09,6.55.13.16.26.31.37.48.15.25.28.52.43.81-.25-.06-.48-.12-.71-.11-.1,0-.14-.08-.19-.14-.62-.74-1.4-1.24-2.36-1.44-.01,0-.02-.02-.04-.03h0c-.65-.08-1.3-.08-1.95.04-.96.26-1.68.88-2.37,1.54-.05.05-.11.1-.18.17-.44-.77-.87-1.54-1.31-2.31-.53-.95-1.07-1.9-1.6-2.85-.89-1.59.12-3.64,1.94-3.93Z"/>
                <path class="cls-23" d="M31.62,57.87c.15-.08.31-.07.46-.07.41,0,.81,0,1.22,0,0,.02,0,.03,0,.05.29-.08.59-.02.89-.04.09,0,.18,0,.27,0,0,0-.01,0-.01,0,.43,0,.86,0,1.29,0,.1,0,.21,0,.31.06.27.16.41.47.3.78-.15.44-.32.87-.53,1.28-.08.09-.18.04-.27.04-.37,0-.73,0-1.1,0-.01.23-.03.45-.04.68,0,.33,0,.66,0,1,0,.1,0,.19-.08.26h0s0,0,0,0c0,0,0,0,0,0-.19.29-.47.35-.79.17-.18-.11-.23-.28-.23-.47,0-.49,0-.98,0-1.47,0-.09-.02-.13-.08-.15-.03,0-.07,0-.1,0-.3,0-.59,0-.89,0q-.36,0-.48-.36c-.17-.42-.43-.8-.41-1.28,0-.21.08-.38.28-.47ZM34.44,57.81h0s0,0,0,0c0,0,0,0,0,0Z"/>
                <path class="cls-23" d="M18.62,52.67c1.11-1.01,2.22-2.02,3.33-3.03.66-.6,1.29-1.22,1.97-1.8,1.23-1.03,3.09-.4,3.39,1.13.04.24.04.48,0,.71,0,.04,0,.08-.03.1-.02.17-.09.32-.19.47-.09.25-.29.43-.48.61-.93.85-1.86,1.7-2.79,2.55-.75.69-1.51,1.37-2.26,2.06-.12.11-.16.09-.24-.03-.4-.54-.84-1.06-1.45-1.4-.75-.41-1.53-.53-2.36-.31-.01,0-.02,0-.05-.02.39-.35.78-.69,1.16-1.04Z"/>
                <path class="cls-19" d="M18.15,58.04c-.66.05-1.2-.56-1.18-1.16.02-.64.51-1.1,1.19-1.12.68-.02,1.22.58,1.19,1.18-.03.59-.58,1.15-1.2,1.1Z"/>
                <path class="cls-19" d="M25.31,50.14c-.5,0-.88-.31-.89-.83-.01-.51.41-.86.91-.87.46-.01.85.4.85.87,0,.44-.41.83-.87.83Z"/>
                <path class="cls-19" d="M33.2,55.17c0-.34.3-.64.63-.63.35,0,.61.27.61.62,0,.34-.29.63-.63.63-.27,0-.63-.21-.6-.62Z"/>
              </g>
              <path class="cls-22" d="M25.49,65.29c0-.05,0-.1,0-.15.01-1.82-1.61-3.21-3.17-3.16-2.02-.03-3.33,1.65-3.31,3.2,0,.04,0,.07,0,.11h0c-1.57,0-2.84,1.27-2.84,2.84v1.34h12.16v-1.34c0-1.57-1.27-2.84-2.84-2.84h0Z"/>
            </g>
            <g>
              <rect class="cls-11" x="24.16" y="20.39" width="4.74" height="4.74"/>
              <rect class="cls-11" x="24.16" y="29.35" width="4.74" height="4.74" transform="translate(-14.66 28.05) rotate(-45)"/>
              <circle class="cls-11" cx="26.53" cy="40.61" r="2.29"/>
              <line class="cls-11" x1="26.53" y1="25.12" x2="26.53" y2="28.36"/>
              <line class="cls-11" x1="26.53" y1="35.06" x2="26.53" y2="38.31"/>
            </g>
            <g>
              <path class="cls-15" d="M20.44,41.71c-.12-4.14-5.82-4.13-5.94,0,.12,4.14,5.82,4.13,5.94,0Z"/>
              <path class="cls-3" d="M20.44,41.71c-.12-4.14-5.82-4.13-5.94,0,.06,2.07,1.52,3.1,2.97,3.1"/>
              <polyline class="cls-3" points="17.47 44.82 20.53 44.82 42.31 44.82 42.31 16.61 20.53 16.61"/>
            </g>
          </g>
          <g>
            <ellipse class="cls-21" cx="42.31" cy="41.88" rx="4.5" ry="4.39"/>
            <path class="cls-8" d="M52.05,40.77c-.02-.34-.28-.59-.62-.64-.47-.07-.94-.14-1.41-.18-.23-.02-.36-.13-.44-.33-.14-.37-.29-.73-.45-1.09-.07-.17-.06-.31.05-.46.27-.4.54-.81.8-1.23.26-.41.22-.71-.11-1.07-.37-.39-.73-.78-1.11-1.16-.46-.46-.77-.49-1.34-.15-.38.23-.77.46-1.15.7-.22.14-.42.15-.65.03-.33-.17-.67-.33-1.03-.44-.15-.05-.25-.15-.28-.33-.06-.5-.16-1-.24-1.5-.07-.47-.35-.71-.83-.72-.59-.02-1.18-.04-1.77-.05-.52,0-.81.24-.89.73-.09.51-.18,1.02-.25,1.53-.02.16-.09.27-.25.33-.44.17-.88.34-1.32.5-.19.07-.37.03-.54-.07-.38-.24-.76-.48-1.14-.72-.46-.29-.77-.25-1.16.12-.4.39-.79.78-1.18,1.17-.38.39-.41.72-.11,1.16.25.37.49.75.75,1.11.13.18.14.36.05.55-.17.37-.35.75-.51,1.13-.09.2-.26.25-.45.28-.41.07-.82.15-1.24.21-.33.05-.57.19-.67.52-.08.74,0,1.49,0,2.23.07.51.2.67.7.78.4.09.8.16,1.2.22.29.04.47.16.57.45.1.3.23.6.37.88.11.22.09.41-.05.61-.26.38-.5.77-.74,1.15-.25.39-.25.67.04,1.02.43.52.92.97,1.42,1.42.25.23.58.22.88.04.41-.25.83-.48,1.24-.73.23-.14.45-.18.71-.07.39.16.77.32,1.18.43.2.05.24.23.27.41.08.49.15.98.25,1.47.08.39.33.59.73.59.65,0,1.31,0,1.96,0,.45,0,.73-.23.8-.67.07-.46.15-.92.2-1.38.03-.27.15-.43.42-.51.37-.12.73-.25,1.09-.4.21-.08.38-.07.56.05.41.25.82.51,1.23.75.42.25.75.23,1.12-.1.42-.38.82-.78,1.21-1.19.35-.36.37-.67.1-1.1-.26-.41-.51-.83-.79-1.23-.12-.19-.14-.36-.04-.55.15-.33.3-.66.45-.99.09-.19.22-.31.44-.35.49-.09.99-.19,1.48-.31.39-.09.52-.27.56-.65.09-.74.01-1.47-.02-2.21ZM42.19,46.37c-2.4-.02-4.39-2.01-4.41-4.4-.02-2.53,2.24-4.46,4.41-4.38,2.81-.05,4.62,2.29,4.6,4.44-.03,2.23-1.91,4.36-4.6,4.34Z"/>
          </g>
          <path class="cls-7" d="M17.47,13.57c-1.64,0-2.97,1.4-2.97,3.13h0v24.78h.03c.33-3.81,5.55-3.81,5.88,0h.03v-24.78c0-1.73-1.33-3.13-2.97-3.13Z"/>
        </g>
        <circle class="cls-1" cx="41.5" cy="41.5" r="40"/>
      </g>
    </g>
  </g>
</svg>