<?xml version="1.0" encoding="UTF-8"?>
<svg id="Capa_2" data-name="Capa 2" xmlns="http://www.w3.org/2000/svg" viewBox="0 0 83 83">
  <defs>
    <style>
      .cls-1 {
        fill: #5c6161;
      }

      .cls-2 {
        fill: #5c6061;
        stroke-width: .5px;
      }

      .cls-2, .cls-3 {
        stroke: #fff;
      }

      .cls-2, .cls-3, .cls-4 {
        stroke-miterlimit: 10;
      }

      .cls-5 {
        fill: #254d62;
      }

      .cls-3 {
        fill: #5b5f60;
        stroke-width: .25px;
      }

      .cls-4 {
        fill: #fff;
        stroke: #254d62;
        stroke-width: 3px;
      }
    </style>
  </defs>
  <g id="Home">
    <g id="Publications_Small">
      <g id="Publications">
        <circle class="cls-4" cx="41.5" cy="41.5" r="40"/>
        <g>
          <path class="cls-5" d="M41.57,59.46c-5.02-.25-10.05-.77-15.07-.67-4.2.08-8.39.86-13.4,1.42-1.72-7.17-3.53-14.68-5.39-22.43,3.24-.79,3.4-.83,7.46-.85.4,0,.76.23.93.59,1.13,2.48,2.56,7.2,3.8,9.3.58.97,1.88,1.23,3.08,1.34,6.6.62,13.83,5.17,18.59,11.3Z"/>
          <path class="cls-5" d="M31.05,35.98c2.51-6.25,4.66-12.5,7.07-18.53,2.03,1.29,3.87,2.91,5.8,4.41,1.8,1.4,3.2,3.14,4.53,5.04.71,1.02,1.32,2.1,2.07,3.08,2.24,2.91,4.02,5.58,2.63,9.27-2.27,5.99-5.04,13.03-7.96,19.1"/>
          <path class="cls-3" d="M44.17,61.27c-4.76-6.13-13.12-12.33-21.19-13.11-1.04-.1-2.31-1.18-2.88-2.16-1.34-2.27-2.33-4.76-3.46-7.16-1.28-4.76-2.57-9.53-4.09-15.16,6.25,4.47,11.99,8.58,17.73,12.68,4.42,6,4.72,5.72,8.76,11.65,1.85,2.7,3.94,7.71,3.97,7.82.44,1.29,1.23,4.45,1.15,5.45-.04.49,0,0,0,0Z"/>
          <path class="cls-5" d="M62.91,31.21c3.13-1.34,5.3-2.01,6.39,2.82,1.6,7.07,4.36,13.89,6.71,21.09-9.94-2.36-19.26-3.16-27.59,3.48.22-.95.22-2.04.71-2.83,3.95-6.31,8.06-12.6,14.52-16.62,3.14-1.95,3.04-3.61.88-5.98-.57-.63-1.09-1.31-1.63-1.96Z"/>
          <path class="cls-2" d="M62.91,31.21c.54.66,1.05,1.34,1.63,1.96,2.16,2.37,2.26,4.03-.88,5.98-6.46,4.02-10.57,10.3-14.52,16.62-.49.78-.48,1.88-.71,2.83-.74.33-1.48.66-2.4,1.06-.07-.94-.13-1.74-.19-2.55,2.5-5.9,5.17-11.74,7.44-17.74,1.4-3.69-.51-6.77-2.75-9.68-1.51-1.96-2.68-4.17-4.01-6.26,1.61-2.07,3.22-4.14,4.93-6.33,4.06,4.99,7.76,9.55,11.46,14.11Z"/>
          <path class="cls-1" d="M74.03,57.2c-5.01.74-10.54,1.13-15.81,2.49-3.23.83-5.99,3.33-9.12,4.73-1.85.83-4.39,1.94-5.96,1.3-7.91-3.25-15.91-3.34-24.12-1.97-.95.16-1.95.02-4.18.02,9.99-4.35,18.99-4.58,28.07-1.58,2.1.69,3.24.52,5.18-.83,8.06-5.6,16.79-8.33,25.93-4.15Z"/>
        </g>
      </g>
    </g>
  </g>
</svg>