<?xml version="1.0" encoding="UTF-8"?>
<svg id="Capa_2" data-name="Capa 2" xmlns="http://www.w3.org/2000/svg" viewBox="0 0 93.1 92.17">
  <defs>
    <style>
      .cls-1 {
        fill: #fefefe;
      }

      .cls-1, .cls-2, .cls-3, .cls-4, .cls-5, .cls-6, .cls-7, .cls-8, .cls-9, .cls-10 {
        stroke-miterlimit: 10;
      }

      .cls-1, .cls-3, .cls-5, .cls-6, .cls-7, .cls-9 {
        stroke-width: .22px;
      }

      .cls-1, .cls-3, .cls-5, .cls-6, .cls-7, .cls-9, .cls-10 {
        stroke: #fff;
      }

      .cls-2, .cls-4 {
        stroke: #1d1d1b;
        stroke-width: .25px;
      }

      .cls-2, .cls-10 {
        fill: #264d62;
      }

      .cls-3 {
        fill: #fdfdfd;
      }

      .cls-4 {
        fill: #575b5c;
      }

      .cls-5 {
        fill: #656565;
      }

      .cls-6 {
        fill: #666;
      }

      .cls-7 {
        fill: #434845;
      }

      .cls-8 {
        fill: #fff;
        stroke: #254d62;
        stroke-width: 3px;
      }

      .cls-9 {
        fill: #aeaeae;
      }

      .cls-10 {
        stroke-width: 2px;
      }
    </style>
  </defs>
  <g id="Home">
    <g id="Research_Small">
      <g>
        <circle class="cls-8" cx="41.47" cy="41.47" r="39.97"/>
        <g>
          <path class="cls-7" d="M56.92,62.84c-.75-1.73,8.74-7.82,7.98-9.55-1.18-2.67-2.36-5.35-3.53-8.03-.31-.7-.64-1.39-.89-2.12-.3-.87-.46-1.77-.46-2.69,0-2.21,0-4.41,0-6.62,0-.27.07-.44.35-.56.47-.2.67-.66.56-1.14-.1-.43-.53-.76-1.04-.76-1.72,0-3.44,0-5.17,0-.43,0-.86-.02-1.29,0-.87.05-1.23.82-.89,1.49.11.21.3.36.53.44.2.07.28.19.28.39,0,2.33.02,4.67-.01,7-.01,1.06-.27,2.09-.7,3.07-.53,1.21-1.07,2.42-1.6,3.63-.05.11-.06.29-.19.28-.15,0-.15-.19-.2-.3-.19-.47-.25-.96-.26-1.45,0-5.47,0-10.95,0-16.42,0-.22.07-.39.25-.54.48-.4.45-1.1-.04-1.49-.13-.1-.29-.09-.44-.14h-4.34c-.19.06-.4.05-.56.21-.39.39-.42,1,0,1.36.27.23.34.48.34.81,0,4.93,0,9.85,0,14.78,0,.09.06.23-.05.27-.1.04-.18-.08-.25-.15-.87-.77-1.64-1.62-2.13-2.65-.24-.51-.41-1.04-.43-1.6-.1-2.13-.02-4.25-.04-6.38,0-.11,0-.21,0-.32,0-.18.08-.29.26-.36.43-.17.69-.47.71-.93.01-.52-.44-.98-.99-1.01-.11,0-.21,0-.32,0-.22-.01-.28-.08-.27-.29.02-.37.04-.73.05-1.1.01-.48-.26-.73-.76-.73-1.33,0-2.66,0-3.98,0-.51,0-.77.25-.77.73,0,.36.05.72.05,1.08,0,.25-.04.31-.31.31-.34,0-.66.04-.92.28-.55.51-.43,1.33.27,1.63.28.12.36.28.36.55,0,1.92-.03,3.84,0,5.76.02,1.49-.49,2.77-1.47,3.9-.13.15-.27.29-.4.44-.42.48-1.08.4-1.38-.16-.13-.24-.23-.49-.35-.73-.46-.99-.92-1.98-1.39-2.96-.11-.22-.12-.41-.02-.65.27-.66-.22-1.33-.97-1.34-.05,0-.1,0-.15,0-.35.06-.38,0-.51-.32-.03-.07-.06-.15-.09-.22-.18-.41-.54-.56-.98-.38-.41.17-.81.34-1.21.51-.21.09-.42.18-.64.27-.45.19-.57.51-.37.93.06.13.13.25.19.38.07.14.05.25-.08.35-.15.12-.32.23-.36.42-.06.3-.09.61.02.9.09.23.3.39.55.46.23.07.36.2.45.41.8,1.73,1.63,3.45,2.43,5.19.31.68.31,1.4.19,2.12-.09.52-.28,1.02-.4,1.53-.53,2.15-.36,4.26.58,6.28,1.18,2.55,3.17,4.33,5.89,5.37.65.25,1.31.45,2.02.49.22.01.4.14.62.14.02,0,.05,0,.07,0,.1,0,.19,0,.29,0,.5,0,1.01,0,1.51,0,.1,0,.21,0,.31,0,.03,0,.07,0,.1,0,.09,0,.18-.02.26-.07.09-.05.19-.07.3-.07.45-.02.88-.13,1.31-.25.18-.05.34-.04.51.04.2.11.4.18.63.2.17.01.28.17.47.14.14.01.28,0,.42,0"/>
          <path class="cls-1" d="M41.96,61.8c-.18-.16-.36-.31-.54-.47-.06-.06-.13-.02-.2-.01-3.35.59-6.2-.31-8.52-2.66-1.24-1.26-1.96-2.78-2.23-4.49-.04-.28-.04-.28.27-.28,3.37,0,6.75,0,10.12,0,.19,0,.28-.05.37-.22.82-1.64,1.91-3.12,3.11-4.53.51-.6.99-1.23,1.21-2,.08-.29.12-.59.15-.89.02-.17-.04-.28-.18-.39-.87-.68-1.68-1.42-2.34-2.29-.86-1.12-1.32-2.36-1.31-3.76.02-2.21,0-4.41,0-6.62,0-.15,0-.26-.22-.24-.17.01-.15.12-.15.21-.04.77-.07,1.53-.12,2.3-.03.47.02.38-.42.38-1.11,0-2.22,0-3.33,0-.21,0-.26-.06-.27-.25-.03-.69-.07-1.38-.1-2.08,0-.15-.02-.29-.03-.44,0-.14-.11-.13-.21-.13-.1,0-.16.03-.15.14,0,.06,0,.12,0,.18,0,2.11-.04,4.23.01,6.34.04,1.78-.64,3.26-1.82,4.58-.17.19-.34.39-.55.55-.8.6-1.98.3-2.44-.63-.29-.59-.56-1.19-.84-1.79-.37-.79-.74-1.58-1.12-2.37-.04-.08-.03-.24-.22-.17-.19.07-.07.19-.03.28.1.26.21.52.32.78.05.12.04.19-.1.25-.56.23-1.12.47-1.67.71-.12.05-.19.04-.25-.08-.12-.25-.25-.49-.39-.73-.06-.1-.06-.3-.28-.19-.2.1-.03.21.01.3.8,1.73,1.59,3.46,2.43,5.17.6,1.22.63,2.45.26,3.7-.28.94-.5,1.89-.51,2.87-.06,4.51,3.28,8.38,7.95,9.2,1.37.24,2.73.19,4.08-.12.06-.01.12-.03.18-.05.01,0,.02-.02.08-.06Z"/>
          <path class="cls-1" d="M46.41,37.72c0,2.67-.02,5.33.01,8,.02,1.33-.39,2.49-1.25,3.52-.8.96-1.6,1.91-2.27,2.96-.81,1.28-1.53,2.59-1.91,4.05-.35,1.36-.26,2.69.46,3.94.42.73,1.05,1.28,1.8,1.7.33.18.7.28,1.09.28.86.01,1.73.01,2.59.01,1.34,0,2.69-.05,4.03.01,1.45.06,2.46-.59,3.26-1.62.79-1.02,1.01-2.2.89-3.44-.14-1.4-.74-2.66-1.42-3.89-.69-1.26-1.55-2.41-2.49-3.51-.4-.47-.78-.95-1.07-1.48-.4-.72-.56-1.49-.56-2.3,0-1.37,0-2.75,0-4.12,0-4.24,0-8.48,0-12.72q0-.29-.3-.29c-.87,0-1.74,0-2.61,0-.21,0-.26.06-.26.25,0,2.88,0,5.76,0,8.64Z"/>
          <path class="cls-1" d="M63.97,53.25c-1.35-3.07-2.71-6.13-4.05-9.2-.49-1.12-.74-2.29-.74-3.51,0-2.43,0-4.85,0-7.28q0-.3-.3-.3c-1.48,0-2.95,0-4.43,0-.28,0-.28,0-.28.26,0,2.33-.01,4.65,0,6.98,0,1.44-.28,2.82-.87,4.14-.64,1.42-1.25,2.84-1.88,4.26-.06.13-.06.23.04.34.12.13.22.27.36.44.41-.97.81-1.9,1.2-2.83.18-.42.18-.42.65-.42,2.05,0,4.1,0,6.16,0,.19,0,.28.06.35.23"/>
          <path class="cls-3" d="M39.38,32.61c1.01,0,2.02,0,3.03,0,.06,0,.11,0,.17,0,.14,0,.23-.08.23-.21,0-.13-.09-.2-.22-.22-.06,0-.11,0-.17,0-2.04,0-4.07,0-6.11,0-.04,0-.07,0-.11,0-.16,0-.29.06-.28.23,0,.17.14.21.3.21,1.05,0,2.11,0,3.16,0Z"/>
          <path class="cls-3" d="M56.68,32.17c-1.01,0-2.02,0-3.04,0-.07,0-.14,0-.21,0-.13.02-.2.09-.2.22,0,.13.08.19.21.2.06,0,.13,0,.19,0,2.02,0,4.05,0,6.07,0,.04,0,.07,0,.11,0,.16,0,.29-.03.3-.2,0-.19-.13-.23-.3-.23-.91,0-1.83,0-2.74,0-.13,0-.27,0-.4,0Z"/>
          <path class="cls-1" d="M47.97,28.49c.63,0,1.26,0,1.9,0,.21,0,.33-.13.28-.28-.04-.12-.14-.16-.26-.16-1.28,0-2.56,0-3.84,0-.15,0-.27.07-.27.22,0,.15.11.22.27.22.64,0,1.28,0,1.92,0Z"/>
          <path class="cls-1" d="M30.04,38.89s-.08.02-.13.04c-1.04.44-2.07.88-3.11,1.31-.13.06-.23.13-.19.29.04.15.19.19.38.11.7-.29,1.4-.59,2.09-.88.35-.15.7-.3,1.06-.45.12-.05.19-.14.15-.27-.03-.1-.11-.15-.25-.15Z"/>
          <path class="cls-9" d="M38.31,62.81c.07.08.16.03.25.03-.08-.04-.16-.03-.25-.03Z"/>
          <path class="cls-9" d="M40.17,62.84c.08,0,.16,0,.24,0-.08-.06-.16-.04-.24,0Z"/>
          <path class="cls-5" d="M39.34,43.45c-.86.01-1.71.11-2.54.32-.06.02-.12.03-.18.05-.1.03-.18.1-.14.21.03.12.13.15.25.12.35-.09.71-.17,1.07-.22,1.38-.21,2.74-.15,4.09.19.03,0,.07.01.1.03.13.04.23.01.27-.11.03-.12-.05-.18-.17-.21-.36-.1-.73-.18-1.11-.23-.54-.08-1.09-.12-1.63-.12Z"/>
          <path class="cls-6" d="M31.13,47.58c0,.06.02.12.09.15.06.03.13.03.18,0,.04-.03.08-.08.11-.12.47-.61,1.01-1.16,1.62-1.65.03-.03.07-.05.09-.08.06-.07.07-.15.01-.22-.07-.08-.15-.09-.24-.03-.03.02-.06.04-.08.06-.64.51-1.2,1.08-1.69,1.72-.04.05-.09.11-.09.18Z"/>
          <path class="cls-6" d="M47.96,61.5c1.05,0,2.11-.03,3.16,0,1.01.04,1.72-.43,2.32-1.1.83-.93,1.06-2.03.95-3.2-.12-1.21-.62-2.3-1.19-3.37-.63-1.17-1.39-2.26-2.24-3.28-.08-.1-.17-.14-.3-.14-1.78,0-3.57,0-5.35,0-.11,0-.2.01-.27.11-1.23,1.48-2.28,3.06-3,4.82-.42,1.03-.65,2.08-.44,3.19.22,1.19.87,2.11,1.96,2.74.28.16.58.23.91.23,1.17,0,2.33,0,3.5,0,0,0,0,0,0,0Z"/>
        </g>
        <g>
          <path class="cls-10" d="M87.45,77.44l3.74,3.2c.88.75,1.01,2.08.85,3.22-.49,3.44-3.89,6.84-7.32,7.26-1.06.13-2.44.02-3.18-.86l-17.63-20.8c2.31-.68,4.69-3.21,5.93-5.14.27-.42.41-.81.5-1.38l16.04,13.58,1.08.91Z"/>
          <path class="cls-2" d="M69.13,56.12c2.41-4.46,3.77-9.56,3.77-14.98,0-17.44-14.14-31.59-31.59-31.59s-31.59,14.14-31.59,31.59,14.14,31.59,31.59,31.59c5.74,0,11.11-1.54,15.75-4.21.12.21.24.43.41.6,1.89,1.89,6.2.63,9.64-2.81,3.44-3.44,4.7-7.75,2.81-9.64-.23-.23-.5-.41-.8-.55ZM16.6,41.14c0-14,11.35-25.35,25.35-25.35s25.35,11.35,25.35,25.35-11.35,25.35-25.35,25.35-25.35-11.35-25.35-25.35Z"/>
          <path class="cls-4" d="M39.18,21.95c-7.45,3-13.43,8.93-16.51,16.28-1.5,3.57-2.02,7.19-1.69,11.15-3.39-8.27-1.44-17.74,4.78-24.02s15.66-8.39,24.04-4.98c-3.72-.22-7.13.17-10.61,1.57Z"/>
        </g>
      </g>
    </g>
  </g>
</svg>