<?xml version="1.0" encoding="UTF-8"?>
<svg id="Capa_2" data-name="Capa 2" xmlns="http://www.w3.org/2000/svg" viewBox="0 0 96.18 96.14">
  <defs>
    <style>
      .cls-1 {
        fill: #e5e5ec;
      }

      .cls-2 {
        fill: #e5e5e8;
      }

      .cls-3 {
        fill: #c3c3d8;
      }

      .cls-4 {
        fill: #d6d6db;
      }

      .cls-5 {
        stroke-width: .75px;
      }

      .cls-5, .cls-6, .cls-7, .cls-8, .cls-9, .cls-10 {
        stroke-miterlimit: 10;
      }

      .cls-5, .cls-11 {
        fill: #264d62;
      }

      .cls-5, .cls-7, .cls-8, .cls-10 {
        stroke: #fff;
      }

      .cls-12 {
        fill: #c5c5d9;
      }

      .cls-13 {
        fill: #5d6162;
      }

      .cls-6 {
        stroke: #254d62;
      }

      .cls-6, .cls-9 {
        fill: none;
        stroke-width: 3px;
      }

      .cls-14 {
        fill: #e4e4e7;
      }

      .cls-15 {
        fill: #afb0c5;
      }

      .cls-16 {
        fill: #edecef;
      }

      .cls-17 {
        fill: #5b5f60;
      }

      .cls-18 {
        fill: #d4d4da;
      }

      .cls-19, .cls-7 {
        fill: #3b3f3e;
      }

      .cls-7 {
        stroke-width: .1px;
      }

      .cls-20 {
        fill: #f1f0f6;
      }

      .cls-21 {
        fill: #eeeef5;
      }

      .cls-22 {
        fill: #d3d2dd;
      }

      .cls-23 {
        fill: #ececf2;
      }

      .cls-24 {
        fill: #d3d2de;
      }

      .cls-8 {
        stroke-width: .37px;
      }

      .cls-8, .cls-25, .cls-10 {
        fill: #5a5f5f;
      }

      .cls-26 {
        fill: #d1d1db;
      }

      .cls-9 {
        stroke: #575756;
      }

      .cls-27 {
        fill: #bbbbc9;
      }

      .cls-28 {
        fill: #575756;
      }

      .cls-29 {
        fill: #5a5f60;
      }

      .cls-30 {
        fill: #d8d8de;
      }

      .cls-31 {
        fill: #21211f;
      }

      .cls-32 {
        fill: #d7d6df;
      }

      .cls-33 {
        fill: #d8d7d9;
      }

      .cls-34 {
        fill: #1e1d1c;
      }

      .cls-10 {
        stroke-width: .99px;
      }

      .cls-35 {
        fill: #dadadf;
      }
    </style>
  </defs>
  <g id="Logos">
    <g>
      <g>
        <g id="Conferences">
          <g>
            <path class="cls-28" d="M21.87,69.25h6.95c3.86,0,6.99,3.13,6.99,6.99v5.92H14.33v-5.36c0-4.16,3.38-7.54,7.54-7.54Z"/>
            <circle class="cls-11" cx="25.07" cy="62.93" r="4.94"/>
          </g>
        </g>
        <g id="Conferences-2" data-name="Conferences">
          <g>
            <path class="cls-28" d="M44.87,74.25h6.95c3.86,0,6.99,3.13,6.99,6.99v5.92h-21.47v-5.36c0-4.16,3.38-7.54,7.54-7.54Z"/>
            <circle class="cls-11" cx="48.06" cy="67.93" r="4.94"/>
          </g>
        </g>
        <g id="Conferences-3" data-name="Conferences">
          <g>
            <path class="cls-28" d="M67.92,69.25h6.95c3.86,0,6.99,3.13,6.99,6.99v5.92h-21.47v-5.36c0-4.16,3.38-7.54,7.54-7.54Z"/>
            <circle class="cls-11" cx="71.11" cy="62.93" r="4.94"/>
          </g>
        </g>
      </g>
      <g>
        <path class="cls-9" d="M50.77,1.5c11.21.65,21.81,5.33,29.85,13.16,8.04,7.84,12.99,18.32,13.93,29.5"/>
        <path class="cls-6" d="M94.68,49.75c-.42,11.58-5.13,22.6-13.22,30.9s-18.99,13.29-30.56,14"/>
        <path class="cls-9" d="M45.25,94.65c-11.33-.68-22.04-5.48-30.09-13.49C7.11,73.15,2.25,62.48,1.5,51.15"/>
        <path class="cls-6" d="M1.5,45.09c.72-11.27,5.51-21.89,13.47-29.9C22.92,7.18,33.52,2.33,44.78,1.53"/>
      </g>
      <g>
        <g id="iNDUSTRIALiNNOVATION">
          <g>
            <path class="cls-28" d="M30.29,31.22c-.71-.01-1.43.05-2.14-.03-.76-.08-1.36-.63-1.45-1.33-.05-.36-.03-.72-.03-1.08-.02-2.01-.78-3.74-2.22-5.22-1.02-1.04-1.83-2.2-2.28-3.55-.02-.05-.03-.1-.05-.15-.5-1.59-.49-3.27-.02-4.87l.25-.83h0c.89-1.85,2.12-3.43,4.07-4.43,5.79-2.99,11.42-.08,13.39,3.8.03.05.05.1.07.15.47.96.71,2,.75,3.06v.18c.1,2.38-.78,4.7-2.49,6.47-.04.04-.08.08-.12.12-1.09,1.09-1.85,2.35-2.18,3.82-.16.71-.17,1.42-.16,2.13,0,.19-.01.38-.06.56-.19.73-.81,1.18-1.66,1.2-.64.01-1.28,0-1.92,0"/>
            <g>
              <path class="cls-5" d="M31.3,35.03c1.36,0,2.72,0,4.08,0,.17,0,.33.03.49.09.34.11.51.48.45.91-.05.34-.33.61-.67.63-.33.01-.65.02-.98,0-.18,0-.28.05-.33.23-.23.88-.8,1.47-1.62,1.82-.25.11-.51.19-.79.22-1,.1-1.95.02-2.78-.63-.43-.34-.74-.76-.87-1.31-.05-.21-.15-.34-.4-.33-.3.02-.6,0-.91,0-.41-.01-.71-.31-.74-.74-.03-.41.23-.75.62-.84.15-.04.3-.05.45-.05,1.33,0,2.67,0,4,0Z"/>
              <path class="cls-5" d="M31.29,32.85c-1.39,0-2.77,0-4.16,0-.25,0-.47-.06-.66-.24-.26-.25-.3-.55-.2-.87.09-.28.31-.5.6-.5.36,0,.61-.19.9-.33,1.13-.56,2.22-1.18,3.29-1.84.13-.08.21-.08.35,0,1.21.75,2.47,1.41,3.74,2.05.1.05.21.09.33.09.53,0,.83.3.83.79,0,.51-.32.83-.85.83-1.25,0-2.5,0-3.75,0-.14,0-.29,0-.43,0Z"/>
              <path class="cls-5" d="M31.26,34.78c-1.39,0-2.78,0-4.18,0-.36,0-.68-.21-.81-.54-.12-.31-.04-.68.23-.91.16-.14.35-.22.57-.22,1.69,0,3.39,0,5.08,0,1.09,0,2.18,0,3.27,0,.38,0,.67.14.84.48.14.28.07.72-.15.94-.17.17-.38.26-.63.26-1.41,0-2.82,0-4.23,0Z"/>
            </g>
          </g>
        </g>
        <g id="iNDUSTRIALiNNOVATION-2" data-name="iNDUSTRIALiNNOVATION">
          <g>
            <path class="cls-11" d="M66.03,33.72c-.71-.01-1.43.05-2.14-.03-.76-.08-1.36-.63-1.45-1.33-.05-.36-.03-.72-.03-1.08-.02-2.01-.78-3.74-2.22-5.22-1.02-1.04-1.83-2.2-2.28-3.55-.02-.05-.03-.1-.05-.15-.5-1.59-.49-3.27-.02-4.87l.25-.83h0c.89-1.85,2.12-3.43,4.07-4.43,5.79-2.99,11.42-.08,13.39,3.8.03.05.05.1.07.15.47.96.71,2,.75,3.06v.18c.1,2.38-.78,4.7-2.49,6.47-.04.04-.08.08-.12.12-1.09,1.09-1.85,2.35-2.18,3.82-.16.71-.17,1.42-.16,2.13,0,.19-.01.38-.06.56-.19.73-.81,1.18-1.66,1.2-.64.01-1.28,0-1.92,0"/>
            <g>
              <path class="cls-10" d="M67.04,37.53c1.36,0,2.72,0,4.08,0,.17,0,.33.03.49.09.34.11.51.48.45.91-.05.34-.33.61-.67.63-.33.01-.65.02-.98,0-.18,0-.28.05-.33.23-.23.88-.8,1.47-1.62,1.82-.25.11-.51.19-.79.22-1,.1-1.95.02-2.78-.63-.43-.34-.74-.76-.87-1.31-.05-.21-.15-.34-.4-.33-.3.02-.6,0-.91,0-.41-.01-.71-.31-.74-.74-.03-.41.23-.75.62-.84.15-.04.3-.05.45-.05,1.33,0,2.67,0,4,0Z"/>
              <path class="cls-10" d="M67.03,35.35c-1.39,0-2.77,0-4.16,0-.25,0-.47-.06-.66-.24-.26-.25-.3-.55-.2-.87.09-.28.31-.5.6-.5.36,0,.61-.19.9-.33,1.13-.56,2.22-1.18,3.29-1.84.13-.08.21-.08.35,0,1.21.75,2.47,1.41,3.74,2.05.1.05.21.09.33.09.53,0,.83.3.83.79,0,.51-.32.83-.85.83-1.25,0-2.5,0-3.75,0-.14,0-.29,0-.43,0Z"/>
              <path class="cls-8" d="M67,37.28c-1.39,0-2.78,0-4.18,0-.36,0-.68-.21-.81-.54-.12-.31-.04-.68.23-.91.16-.14.35-.22.57-.22,1.69,0,3.39,0,5.08,0,1.09,0,2.18,0,3.27,0,.38,0,.67.14.84.48.14.28.07.72-.15.94-.17.17-.38.26-.63.26-1.41,0-2.82,0-4.23,0Z"/>
            </g>
          </g>
        </g>
        <g>
          <g>
            <path class="cls-7" d="M37.71,9.76c-1.82,0-3.3,1.48-3.3,3.3s1.48,3.3,3.3,3.3,3.3-1.48,3.3-3.3-1.48-3.3-3.3-3.3ZM37.71,13.99c-.51,0-.93-.42-.93-.93s.42-.93.93-.93.93.42.93.93-.42.93-.93.93Z"/>
            <path class="cls-7" d="M42.94,13.3v-.42l-.89-.15c-.01-.16-.03-.31-.06-.46l.82-.37-.11-.41-.89.12c-.05-.14-.1-.27-.16-.4l.72-.54-.21-.37-.84.32c-.09-.13-.18-.25-.28-.37l.52-.73-.3-.3-.71.55c-.11-.09-.22-.18-.34-.26l.35-.82-.37-.21-.57.69c-.14-.07-.29-.13-.44-.18l.09-.89-.41-.11-.33.82c-.15-.03-.3-.05-.45-.06l-.15-.87h-.42l-.11.87c-.15.01-.29.03-.44.05l-.33-.81-.41.11.08.87c-.15.05-.3.11-.45.18l-.56-.67-.37.21.34.8c-.12.08-.24.17-.35.27l-.68-.53-.3.3.51.71c-.11.12-.21.25-.3.38l-.81-.3-.21.37.69.52c-.06.13-.12.27-.17.41l-.85-.12-.11.41.79.36c-.03.16-.05.32-.06.48l-.85.14v.42s.86.11.86.11c.01.15.03.3.06.44l-.8.32.11.41.86-.08c.05.15.12.3.19.45l-.67.55.21.37.8-.34c.08.12.18.24.27.35l-.53.69.3.3.71-.51c.12.1.25.2.38.29l-.31.82.37.21.53-.7c.13.06.27.12.41.17l-.12.87.41.11.37-.8c.15.03.3.05.45.06l.11.88h.42l.15-.88c.16-.01.31-.03.47-.06l.37.81.41-.11-.12-.88c.14-.05.27-.11.4-.17l.54.71.37-.21-.32-.84c.13-.09.25-.18.37-.29l.73.52.3-.3-.55-.71c.09-.11.18-.22.26-.34l.83.35.21-.37-.7-.57c.07-.14.13-.28.18-.43l.9.09.11-.41-.84-.34c.03-.14.04-.28.06-.42l.9-.11ZM41.43,13.06c0,2.05-1.67,3.72-3.72,3.72s-3.72-1.67-3.72-3.72,1.67-3.72,3.72-3.72,3.72,1.67,3.72,3.72Z"/>
          </g>
          <path class="cls-19" d="M46.68,17.8v-.24s-.41-.04-.41-.04c0-.08-.02-.15-.03-.22l.39-.15-.06-.23-.42.05c-.03-.08-.06-.15-.09-.22l.33-.26-.12-.21-.39.18c-.04-.06-.09-.12-.14-.17l.27-.33-.17-.17-.35.26c-.06-.05-.12-.1-.19-.14l.16-.4-.21-.12-.25.36c-.06-.03-.13-.06-.2-.08l.07-.43-.23-.06-.17.41c-.07-.01-.15-.02-.22-.03l-.04-.44h-.24l-.06.44c-.08,0-.15.02-.23.03l-.17-.41-.23.06.07.44c-.07.02-.13.05-.19.08l-.26-.37-.21.12.17.42c-.06.04-.12.09-.18.14l-.36-.27-.17.17.29.35c-.05.05-.09.11-.13.17l-.41-.19-.12.21.35.27c-.03.07-.06.14-.09.21l-.44-.06-.06.23.41.15c-.01.07-.02.14-.03.21l-.44.04v.24l.44.06c0,.08.01.16.03.23l-.4.17.06.23.43-.07c.02.07.05.14.08.2l-.35.25.12.21.4-.16c.04.07.09.13.14.19l-.26.34.17.17.32-.27c.06.05.12.1.18.14l-.17.38.21.12.25-.33c.07.04.15.07.23.1l-.05.41.23.06.14-.38c.08.01.16.03.24.03l.06.41h.24l.04-.4c.08,0,.15-.02.23-.03l.14.38.23-.06-.05-.4c.08-.03.16-.06.23-.1l.25.32.21-.12-.17-.37c.06-.04.12-.09.18-.14l.31.26.17-.17-.24-.32c.05-.06.11-.13.15-.2l.37.15.12-.21-.33-.24c.03-.07.06-.14.09-.21l.4.07.06-.23-.38-.16c.01-.08.02-.16.03-.24l.41-.06ZM44.09,18.23c-.29,0-.52-.23-.52-.52s.23-.52.52-.52.52.23.52.52-.23.52-.52.52Z"/>
          <path class="cls-19" d="M52.2,23.04v-.26l-.67-.13c0-.1-.02-.2-.04-.29l.61-.3-.07-.25-.68.03c-.03-.1-.07-.19-.12-.28l.51-.46-.13-.22-.65.22c-.06-.08-.12-.16-.18-.23l.38-.57-.18-.18-.57.37c-.08-.07-.16-.13-.24-.19l.21-.65-.22-.13-.45.51c-.09-.04-.18-.08-.27-.11l.04-.68-.25-.07-.31.6c-.1-.02-.2-.03-.3-.04l-.13-.67h-.26l-.14.66c-.1,0-.2.02-.3.04l-.31-.6-.25.07.04.67c-.09.03-.19.07-.28.11l-.45-.51-.22.13.21.65c-.08.06-.17.12-.24.19l-.57-.37-.18.18.38.56c-.06.08-.12.15-.18.24l-.64-.22-.13.22.5.46c-.04.09-.08.19-.12.28l-.68-.03-.07.25.61.3c-.02.1-.03.2-.04.29l-.67.13v.26l.67.15c0,.1.02.2.04.3l-.6.31.07.25.68-.04c.03.09.07.18.11.27l-.51.45.13.22.65-.21c.06.08.12.16.19.24l-.37.57.18.18.57-.38c.08.06.15.12.23.18l-.22.65.22.13.46-.51c.09.04.19.08.28.12l-.03.68.25.07.3-.61c.1.02.2.03.3.04l.15.67h.26l.13-.67c.1,0,.2-.02.29-.04l.3.61.25-.07-.03-.68c.1-.03.19-.07.28-.12l.46.51.22-.13-.22-.65c.08-.06.16-.12.23-.18l.57.38.18-.18-.37-.58c.07-.08.13-.16.18-.24l.65.21.13-.22-.51-.45c.04-.09.08-.18.11-.27l.68.04.07-.25-.61-.31c.02-.1.03-.2.04-.3l.67-.15ZM46.37,24.72c0-.11.09-.2.2-.2s.2.09.2.2-.09.2-.2.2-.2-.09-.2-.2ZM46.77,21.13c0,.11-.09.2-.2.2s-.2-.09-.2-.2.09-.2.2-.2.2.09.2.2ZM46.43,22.91c0-1.05.86-1.91,1.91-1.91s1.91.86,1.91,1.91-.86,1.91-1.91,1.91-1.91-.86-1.91-1.91ZM50.35,21.13c0,.11-.09.2-.2.2s-.2-.09-.2-.2.09-.2.2-.2.2.09.2.2ZM49.94,24.72c0-.11.09-.2.2-.2s.2.09.2.2-.09.2-.2.2-.2-.09-.2-.2Z"/>
          <path class="cls-19" d="M57.51,23.01v-.24s-.41-.04-.41-.04c0-.08-.02-.15-.03-.22l.39-.15-.06-.23-.42.05c-.03-.08-.06-.15-.09-.22l.33-.26-.12-.21-.39.18c-.04-.06-.09-.12-.14-.17l.27-.33-.17-.17-.35.26c-.06-.05-.12-.1-.19-.14l.16-.4-.21-.12-.25.36c-.06-.03-.13-.06-.2-.08l.07-.43-.23-.06-.17.41c-.07-.01-.15-.02-.22-.03l-.04-.44h-.24l-.06.44c-.08,0-.15.02-.23.03l-.17-.41-.23.06.07.44c-.07.02-.13.05-.19.08l-.26-.37-.21.12.17.42c-.06.04-.12.09-.18.14l-.36-.27-.17.17.29.35c-.05.05-.09.11-.13.17l-.41-.19-.12.21.35.27c-.03.07-.06.14-.09.21l-.44-.06-.06.23.41.15c-.01.07-.02.14-.03.21l-.44.04v.24l.44.06c0,.08.01.16.03.23l-.4.17.06.23.43-.07c.02.07.05.14.08.2l-.35.25.12.21.4-.16c.04.07.09.13.14.19l-.26.34.17.17.32-.27c.06.05.12.1.18.14l-.17.38.21.12.25-.33c.07.04.15.07.23.1l-.05.41.23.06.14-.38c.08.01.16.03.24.03l.06.41h.24l.04-.4c.08,0,.15-.02.23-.03l.14.38.23-.06-.05-.4c.08-.03.16-.06.23-.1l.25.32.21-.12-.17-.37c.06-.04.12-.09.18-.14l.31.26.17-.17-.24-.32c.05-.06.11-.13.15-.2l.37.15.12-.21-.33-.24c.03-.07.06-.14.09-.21l.4.07.06-.23-.38-.16c.01-.08.02-.16.03-.24l.41-.06ZM54.92,23.43c-.29,0-.52-.23-.52-.52s.23-.52.52-.52.52.23.52.52-.23.52-.52.52Z"/>
          <g>
            <path class="cls-19" d="M60.64,16.99c-1.26,0-2.29,1.02-2.29,2.29s1.02,2.29,2.29,2.29,2.29-1.02,2.29-2.29-1.02-2.29-2.29-2.29ZM60.63,21.85c-1.42,0-2.57-1.15-2.57-2.57s1.15-2.57,2.57-2.57,2.57,1.15,2.57,2.57-1.15,2.57-2.57,2.57Z"/>
            <path class="cls-7" d="M64.87,19.48v-.34l-.67-.14c0-.13-.03-.25-.05-.37l.61-.31-.09-.33-.67.08c-.04-.11-.08-.22-.13-.33l.53-.41-.17-.29-.64.21c-.07-.1-.15-.2-.23-.3l.37-.57-.24-.24-.53.4c-.09-.08-.18-.15-.28-.22l.25-.62-.29-.17-.44.5c-.11-.06-.23-.11-.35-.15l.04-.66-.33-.09-.25.6c-.12-.02-.25-.04-.37-.05l-.13-.64h-.34l-.09.64c-.12,0-.25.02-.36.05l-.25-.59-.33.09.04.65c-.13.04-.25.09-.37.15l-.43-.48-.29.17.24.59c-.1.07-.2.15-.3.23l-.5-.38-.24.24.35.53c-.09.1-.17.21-.25.32l-.6-.2-.17.29.49.38c-.05.11-.1.23-.15.35l-.62-.08-.09.33.56.28c-.03.13-.04.27-.05.4l-.62.13v.34l.62.09c0,.13.03.25.05.38l-.57.24.09.33.63-.04c.05.13.1.25.16.38l-.47.42.17.29.58-.24c.07.1.15.2.23.3l-.38.5.24.24.53-.35c.1.09.21.17.32.24l-.2.61.29.17.39-.5c.11.05.23.1.34.14l-.08.63.33.09.29-.58c.12.02.25.04.38.05l.09.64h.34l.13-.64c.13-.01.26-.03.38-.05l.3.59.33-.09-.08-.65c.11-.04.22-.09.33-.14l.4.52.29-.17-.21-.64c.1-.07.2-.15.3-.23l.56.37.24-.24-.4-.53c.08-.09.15-.18.22-.28l.62.25.17-.29-.51-.45c.05-.11.1-.23.14-.35l.68.04.09-.33-.62-.26c.02-.11.04-.23.05-.35l.67-.09ZM63.19,19.28c0,1.41-1.14,2.55-2.55,2.55s-2.55-1.14-2.55-2.55,1.14-2.55,2.55-2.55,2.55,1.14,2.55,2.55Z"/>
          </g>
        </g>
      </g>
      <g>
        <path class="cls-11" d="M52.52,57.31c-.56,1.21-1.27,1.48-2.9,1.07-.7-.17-1.3-.54-1.93-.87-.29-.19-.51-.46-.84-.58.23.19.5.33.74.52.48.29.98.55,1.49.77.21.09.59.12.39.53-.72.55-1.46.98-2.39.48-.11-.42,0-.94-.54-1.16-.13-.07-.26-.13-.39-.19-.64-.1-.79-.76-1.24-1.08-.26-.14-.53-.25-.83-.25-.56,0-.9-.27-.96-.85-.1-.37-.37-.62-.71-.69-.55-.12-.82-.45-.97-.95-.23-.51-.81-.56-1.16-.91-1.4.16-2.65-.12-3.9-.88-1.21-.73-1.35-.64-1.15-2.09.24-1.7.72-3.33,1.28-4.94.29-.84.47-.93,1.29-.59.61.25,1.24.4,1.88.29,2.08-.39,3.93-1.42,5.92-2.07h.97c.6.36,1.32.5,2.02,1.27-1.94-.77-2.87.21-3.72,1.46-.46.69-1.09,1.24-1.86,1.61-.37.18-.83.28-.81.86.02.55.28.89.78,1.08,1.19.18,2.34.17,3.33-.67.2-.17.48-.22.74-.3.29-.07.58-.07.87-.01.96.21,1.8.65,2.54,1.28.44.4.97.65,1.47.95.26.14.52.26.78.4.39.27.79.55,1.22.75.07.04.13.08.19.12.95.77,1.92,1.48,3.23,1.47.43,0,.34.34.34.58-.01.93-.66,1.59-1.62,1.65-.32.02-.64,0-.96-.02-1.27-.06-2.32-.7-3.39-1.28-.32-.09-.49-.44-.97-.6.29.39.62.39.86.56.99.64,2.12.98,3.17,1.49.46.33.16.68-.02.96-.5.75-1.25.82-2.06.63-1.05-.2-2.03-.55-2.93-1.13-.32-.19-.47-.6-1.01-.69.17.45.56.45.81.61.78.42,1.56.86,2.44,1.06.2.05.41.11.51.33Z"/>
        <path class="cls-31" d="M34.32,42.88c.05.18.24.2.37.27,1.32.67,1.38.75,1.03,2.23-.45,1.92-1.07,3.8-1.2,5.78-.02.31-.12.4-.45.31-.64-.18-1.3-.34-1.96-.43-.44-.06-.49-.21-.41-.62.46-2.34,1.17-4.6,2.08-6.8.1-.23.32-.44.22-.74h.32Z"/>
        <path class="cls-34" d="M63.48,52.18c-.78,0-1.72.28-2.28-.07-.61-.37-.2-1.41-.34-2.15-.26-1.39-.48-2.78-.69-4.18-.13-.86-.21-1.71.72-2.26.47-.28.74-.33.97.3.72,1.93,1.21,3.91,1.44,5.96.02.17-.07.39.18.47v1.92Z"/>
        <path class="cls-25" d="M43.17,48.99c-.79-.86-.77-1.04.22-1.57.85-.45,1.5-1.12,2-1.92.64-1.01,1.51-1.43,2.72-1.24,2.19.35,4.39.67,6.62.62,1.21-.03,2.41-.13,3.57-.46.56-.16.8.04.97.51.74,2.08,1.05,4.24,1.21,6.42.04.59-.34.88-.92.84-.86-.06-1.56.29-2.2.81-.44.44-.9.19-1.32,0-.74-.36-1.44-.79-2.08-1.3h.01c-.45-.33-1.01-.52-1.33-1.02.2-.29.54-.21.81-.34.42-.2.84-.34,1.31-.2.08.02.2.13.26-.03.02-.05,0-.11-.02-.16-.06-.22-.2-.11-.31-.06-.41.19-.87.25-1.28.45-.42.09-.83.32-1.28.19-.57-.27-1.13-.57-1.62-.97-.75-.63-1.63-1.02-2.54-1.36-.14-.2,0-.38.03-.56-.31.3-.91.15-1.1.66-.48.17-.86.51-1.31.73-.8.39-1.63.63-2.43-.03Z"/>
        <path class="cls-29" d="M38.83,56.31c-1.15.24-1.69-.13-1.93-1.26-.13-.64-.04-1.25.15-2.08.72,1.17,1.58.79,2.43.49.76-.15,1.5-.25,2,.54.13.32.16.66-.12.89-.75.63-1.5,1.28-2.54,1.42Z"/>
        <path class="cls-17" d="M40.57,57.92c-1.16-.03-1.57-.36-1.74-1.41.83-.62,1.77-1.07,2.63-1.66.47-.33,1.35.16,1.77.85.13.61-.17,1.02-.62,1.37-.67.31-1.21.91-2.04.85Z"/>
        <path class="cls-29" d="M43.5,59.1c-1.1.5-1.98.22-2.59-.83-.02-.48.44-.45.68-.65.35-.28.77-.44,1.12-.73.78-.71,1.6-.47,2.42-.1.46.62.3,1.14-.26,1.59-.41.33-.81.7-1.38.72Z"/>
        <path class="cls-13" d="M46.27,57.79c.14,0,.26.03.32.17.44.35.75.72.29,1.28-.37.43-.85.72-1.37.93-.84.34-1.57.06-1.98-.72.85-.66,1.42-1.77,2.74-1.65Z"/>
        <path class="cls-4" d="M43.17,55.72c-.74-.92-1.34-1-2.31-.35-.64.43-1.3.85-2.03,1.13,0-.07,0-.13,0-.2.71-.44,1.41-.88,2.13-1.31.35-.21.54-.48.48-.9.02-.08.07-.13.14-.17.15.47.37.83.93.93.36.06.66.32.8.69-.02.08-.07.13-.14.17Z"/>
        <path class="cls-35" d="M46.27,57.79c-1.15.16-1.8,1.13-2.74,1.65-.01-.11-.03-.23-.04-.34.41-.37.95-.54,1.35-.94.4-.39.55-.77.24-1.26-.07-.07-.07-.14.02-.2.37.38.57.95,1.16,1.09Z"/>
        <path class="cls-24" d="M43.17,48.99c1.03.46,1.97.27,2.87-.37.26-.18.57-.28.86-.42.07.03.16.04.17.14-1,.43-1.81,1.33-3.05,1.13-.36-.06-.74-.05-1.03-.32.06-.06.12-.11.19-.17Z"/>
        <path class="cls-12" d="M51.71,53.95c1.07.63,2.2,1.11,3.4,1.42-.11.06-.22.11-.33.17-1.19-.24-2.22-.85-3.27-1.4.01-.12.12-.14.21-.19Z"/>
        <path class="cls-26" d="M53.97,51.69c.72.21,1.22.8,1.9,1.08.48.2.95.49,1.5.22,0,.05,0,.11,0,.16-.22.29-.55.25-.81.15-.97-.35-1.92-.77-2.59-1.61Z"/>
        <path class="cls-3" d="M52.52,57.31c-1.06-.34-2.11-.71-3.07-1.28.07-.14.2-.17.34-.18.87.65,1.94.85,2.91,1.28-.06.06-.12.12-.18.18Z"/>
        <path class="cls-33" d="M42.71,56.99c-.51.56-1.32.7-1.81,1.28-.11-.12-.22-.24-.33-.35.63-.32,1.26-.63,1.89-.95.09-.06.17-.05.24.02Z"/>
        <path class="cls-15" d="M49.47,58.75c-.12-.52-.66-.42-.98-.64-.32-.22-.66-.41-1-.61.09-.1.18-.11.29-.04.61.31,1.23.61,1.84.92.01.15.03.3-.15.37Z"/>
        <path class="cls-30" d="M41.58,53.93c-.05.06-.09.11-.14.17-.46-.78-1.25-.6-1.96-.64.2-.28.59-.03.79-.29.55.07,1.05.21,1.31.77Z"/>
        <path class="cls-32" d="M46.89,59.23c.25-.5,0-.9-.29-1.28.79.19.72.7.49,1.28-.06,0-.13,0-.19,0Z"/>
        <path class="cls-14" d="M42.71,56.99c-.08,0-.16-.01-.24-.02.36-.35.76-.67.7-1.25.05-.06.09-.11.14-.17.02.57.29.83.88.79.35-.02.67.11.92.36,0,.07-.01.13-.02.2-.82-.48-1.61-.38-2.39.09Z"/>
        <path class="cls-16" d="M47.07,48.34c-.06-.05-.12-.1-.17-.14.24-.19-.07-.4.04-.63.46.25.89.29,1.14-.32.24.38-.09.62-.05.91.05.07.05.13-.01.19-.31,0-.63,0-.94-.01Z"/>
        <path class="cls-20" d="M49.79,55.85c-.06.17-.21.15-.34.18-.36-.14-.72-.28-1.11-.43q.6-.68,1.45.25Z"/>
        <path class="cls-22" d="M48.01,48.35c0-.06,0-.13.01-.19.99.18,1.8.71,2.56,1.32.01.12,0,.2-.16.14-.74-.54-1.54-.97-2.41-1.27Z"/>
        <path class="cls-21" d="M51.71,53.95c-.07.06-.14.13-.21.19-.36-.09-.71-.19-1.02-.44.67-1.12.82.15,1.22.25Z"/>
        <path class="cls-1" d="M47.79,57.46c-.1.01-.19.03-.29.04-.24-.11-.49-.22-.73-.33-.12-.05-.29-.13-.25-.26.05-.13.19-.25.33-.33.15-.09.23.07.31.16.21.24.42.48.63.72Z"/>
        <path class="cls-27" d="M50.42,49.62c.05-.05.11-.09.16-.14.5.3,1,.59,1.5.89,0,.12-.11.14-.19.18-.54-.23-1.04-.53-1.47-.93Z"/>
        <path class="cls-23" d="M51.89,50.55c.06-.06.13-.12.19-.18.48.1.94-.08,1.4-.14.04.04.05.07.04.11-.01.04-.02.06-.04.06-.26.1-.52.2-.78.3.06.09.05.18-.04.25-.26-.13-.52-.26-.79-.38Z"/>
        <path class="cls-18" d="M52.68,50.93c.01-.08.02-.16.04-.25.38.4.97.52,1.27,1.01-.53-.09-.93-.4-1.3-.77Z"/>
        <path class="cls-2" d="M53.49,50.39c0-.05,0-.11,0-.16.52-.32,1.09-.5,1.81-.75-.32.43-.07.68.25,1.07-.79-.26-1.42-.41-2.06-.16Z"/>
      </g>
    </g>
  </g>
</svg>