<?xml version="1.0" encoding="UTF-8"?>
<svg id="Capa_2" data-name="Capa 2" xmlns="http://www.w3.org/2000/svg" xmlns:xlink="http://www.w3.org/1999/xlink" viewBox="0 0 341.17 270.19">
  <defs>
    <style>
      .cls-1 {
        mask: url(#mask-1);
      }

      .cls-2 {
        fill: #1d1d1b;
      }

      .cls-3 {
        fill: url(#Degradado_sin_nombre_7-3);
      }

      .cls-4 {
        mask: url(#mask);
      }

      .cls-5 {
        stroke: #259db9;
      }

      .cls-5, .cls-6, .cls-7, .cls-8, .cls-9, .cls-10, .cls-11, .cls-12 {
        fill: none;
      }

      .cls-5, .cls-7 {
        stroke-width: 4px;
      }

      .cls-5, .cls-7, .cls-8, .cls-9, .cls-10, .cls-11, .cls-12 {
        stroke-miterlimit: 10;
      }

      .cls-7 {
        stroke: #fff;
      }

      .cls-7, .cls-8, .cls-11 {
        stroke-linecap: round;
      }

      .cls-13 {
        mask: url(#mask-2);
      }

      .cls-8, .cls-9 {
        stroke-width: 6px;
      }

      .cls-8, .cls-9, .cls-10, .cls-11, .cls-12 {
        stroke: #1d1d1b;
      }

      .cls-14 {
        clip-path: url(#clippath-1);
      }

      .cls-15 {
        fill: url(#Degradado_sin_nombre_8-4);
      }

      .cls-16 {
        fill: url(#Degradado_sin_nombre_7-4);
      }

      .cls-10 {
        stroke-width: 2px;
      }

      .cls-17 {
        fill: url(#Degradado_sin_nombre_8-3);
      }

      .cls-18 {
        clip-path: url(#clippath-3);
      }

      .cls-19 {
        fill: url(#Degradado_sin_nombre_7);
      }

      .cls-20 {
        fill: #259db9;
      }

      .cls-21 {
        fill: url(#Degradado_sin_nombre_8-2);
      }

      .cls-22 {
        clip-path: url(#clippath-2);
      }

      .cls-23 {
        fill: url(#Degradado_sin_nombre_7-2);
      }

      .cls-24 {
        fill: url(#Degradado_sin_nombre_8);
      }

      .cls-25 {
        clip-path: url(#clippath);
      }

      .cls-11 {
        stroke-width: 7px;
      }

      .cls-26 {
        mask: url(#mask-3);
      }
    </style>
    <clipPath id="clippath">
      <path class="cls-6" d="M174.55,221.53h-2.05c-.69,0-1.4.03-2.12.07-2.4.14-4.71.59-6.94,1.33-2.23.74-4.06,2.14-5.5,4.2-1.15,1.63-1.93,3.41-2.34,5.35-.4,1.94-.63,3.89-.68,5.86-.05.72-.07,1.43-.07,2.12v7.58c-.05.53-.07,1.07-.07,1.62v1.69c0,7.95,1.74,13.07,5.21,15.34,3.47,2.28,8.83,3.41,16.06,3.41,1.58,0,3.16-.02,4.74-.07,1.58-.05,3.16-.14,4.74-.29,4.98-.58,8.09-2.41,9.31-5.5,1.22-3.09,1.83-6.77,1.83-11.03l-.15-7.62v-1.29h-21.13v6.9h12.08v.32c0,.12.02.23.07.32v.72c0,4.5-.81,7.27-2.44,8.3-1.63,1.03-4.65,1.54-9.05,1.54-4.74,0-7.9-.59-9.45-1.76-1.56-1.17-2.36-4.25-2.41-9.24l-.07-6.18v-2.37c.1-5.7.67-9.4,1.73-11.1,1.05-1.7,4.53-2.55,10.42-2.55.86,0,1.73.01,2.59.04.86.02,1.72.06,2.59.11,2.25.1,3.8.74,4.64,1.94.84,1.2,1.26,2.85,1.26,4.96l9.2.07c-.1-6.56-1.57-10.67-4.41-12.32-2.85-1.65-7.3-2.5-13.33-2.55l-4.24.07Z"/>
    </clipPath>
    <linearGradient id="Degradado_sin_nombre_8" data-name="Degradado sin nombre 8" x1="-1943.67" y1="391.01" x2="-1942.67" y2="391.01" gradientTransform="translate(12064.64 -58832.2) rotate(-90) scale(30.41 -30.41)" gradientUnits="userSpaceOnUse">
      <stop offset="0" stop-color="#000"/>
      <stop offset=".15" stop-color="#030303"/>
      <stop offset=".28" stop-color="#0d0d0d"/>
      <stop offset=".39" stop-color="#1f1f1f"/>
      <stop offset=".5" stop-color="#373737"/>
      <stop offset=".61" stop-color="#575757"/>
      <stop offset=".72" stop-color="#7d7d7d"/>
      <stop offset=".78" stop-color="#999"/>
      <stop offset="1" stop-color="#999"/>
    </linearGradient>
    <mask id="mask" x="154.78" y="221.46" width="41.9" height="48.66" maskUnits="userSpaceOnUse">
      <rect class="cls-24" x="154.78" y="221.46" width="41.9" height="48.66"/>
    </mask>
    <linearGradient id="Degradado_sin_nombre_7" data-name="Degradado sin nombre 7" x1="-1943.67" y1="391.01" x2="-1942.67" y2="391.01" gradientTransform="translate(12064.64 -58832.2) rotate(-90) scale(30.41 -30.41)" gradientUnits="userSpaceOnUse">
      <stop offset="0" stop-color="#1d1d1b"/>
      <stop offset=".72" stop-color="#1d1d1b"/>
      <stop offset=".78" stop-color="#1d1d1b"/>
      <stop offset="1" stop-color="#1d1d1b"/>
    </linearGradient>
    <clipPath id="clippath-1">
      <polygon class="cls-6" points="201.79 221.82 201.79 269.76 234.56 269.76 234.56 262.21 210.7 262.21 210.7 248.63 233.19 248.63 233.19 241.94 210.7 241.94 210.7 229.44 234.35 229.44 234.35 221.82 201.79 221.82"/>
    </clipPath>
    <linearGradient id="Degradado_sin_nombre_8-2" data-name="Degradado sin nombre 8" x1="-1943.67" y1="391.01" x2="-1942.67" y2="391.01" gradientTransform="translate(12107.55 -58834.22) rotate(-90) scale(30.41 -30.41)" xlink:href="#Degradado_sin_nombre_8"/>
    <mask id="mask-1" x="201.79" y="221.82" width="32.77" height="47.94" maskUnits="userSpaceOnUse">
      <rect class="cls-21" x="201.79" y="221.82" width="32.77" height="47.94"/>
    </mask>
    <linearGradient id="Degradado_sin_nombre_7-2" data-name="Degradado sin nombre 7" x1="-1943.67" y1="391.01" x2="-1942.67" y2="391.01" gradientTransform="translate(12107.55 -58834.22) rotate(-90) scale(30.41 -30.41)" xlink:href="#Degradado_sin_nombre_7"/>
    <clipPath id="clippath-2">
      <path class="cls-6" d="M251.7,259.48c-.98-1.87-1.47-5.24-1.47-10.13v-9.27c0-4.98.87-8.01,2.62-9.09,1.75-1.08,4.92-1.62,9.52-1.62h.72c.24,0,.48-.02.72-.07h1.51c3.26,0,5.5.71,6.72,2.12,1.22,1.41,1.88,3.68,1.98,6.79.05.57.08,1.15.11,1.73.02.57.04,1.13.04,1.65.05.57.07,1.15.07,1.72v4.6c-.05.53-.07,1.03-.07,1.51v1.44c0,.57-.01,1.15-.04,1.73-.02.57-.08,1.13-.18,1.65l-10.21-7.05-3.81,5.46,11.71,7.69c-1.05.81-2.23,1.34-3.52,1.58-1.29.24-2.61.36-3.95.36h-.43c-.14,0-.29-.03-.43-.07l-1.22.07c-5.94,0-9.4-.94-10.38-2.8M248.65,223.54c-4.17,1.3-6.64,4.98-7.4,11.07-.1.67-.17,1.35-.22,2.05-.05.69-.07,1.38-.07,2.05-.05.72-.07,1.43-.07,2.12v5.86c-.05.63-.07,1.26-.07,1.91v1.9c0,8.53,1.8,13.91,5.39,16.14,3.6,2.23,9.23,3.34,16.89,3.34h2.01c.67,0,1.34-.02,2.01-.07,2.21-.1,4.39-.42,6.54-.97,2.16-.55,4.03-1.67,5.61-3.34l4.17,3.09,3.74-5.39-4.6-3.09c.29-.86.49-1.75.61-2.66.12-.91.2-1.82.25-2.73.05-.57.07-1.14.07-1.69v-11.82c-.14-8.24-1.71-13.58-4.71-16.03-2.99-2.44-8.42-3.67-16.28-3.67-5.08,0-9.7.65-13.87,1.94"/>
    </clipPath>
    <linearGradient id="Degradado_sin_nombre_8-3" data-name="Degradado sin nombre 8" x1="-1943.67" y1="391.01" x2="-1942.67" y2="391.01" gradientTransform="translate(12152.61 -58830.99) rotate(-90) scale(30.4 -30.4)" xlink:href="#Degradado_sin_nombre_8"/>
    <mask id="mask-2" x="240.81" y="221.6" width="46.36" height="48.37" maskUnits="userSpaceOnUse">
      <rect class="cls-17" x="240.81" y="221.6" width="46.36" height="48.37"/>
    </mask>
    <linearGradient id="Degradado_sin_nombre_7-3" data-name="Degradado sin nombre 7" x1="-1943.67" y1="391.01" x2="-1942.67" y2="391.01" gradientTransform="translate(12152.61 -58830.99) rotate(-90) scale(30.4 -30.4)" xlink:href="#Degradado_sin_nombre_7"/>
    <clipPath id="clippath-3">
      <path class="cls-6" d="M299.17,246.18v.07-.07ZM299.17,244.35c0-.6.02-1.16.07-1.69v-.65c0-4.98.51-8.35,1.54-10.1,1.03-1.75,4.63-2.63,10.82-2.63,4.55,0,7.37.82,8.45,2.44,1.08,1.63,1.62,4.67,1.62,9.13v5.79c0,1.94-.05,3.89-.14,5.86-.14,4.46-1.13,7.22-2.95,8.3-1.82,1.08-4.84,1.62-9.05,1.62-3.21,0-5.64-.38-7.29-1.15-1.65-.77-2.62-2.94-2.91-6.54-.05-.72-.09-1.42-.11-2.12-.02-.7-.04-1.4-.04-2.12v-6.14ZM292.53,228c-1.8,4.31-2.69,10.45-2.69,18.4v2.38c-.05.43-.08.86-.08,1.29v1.3c0,7.67,1.51,12.72,4.53,15.16,3.02,2.45,8.14,3.67,15.38,3.67,10.3,0,16.42-1.85,18.36-5.56,1.94-3.71,2.91-10,2.91-18.9v-3.15c0-1.1-.01-2.17-.04-3.23-.03-1.05-.09-2.1-.18-3.16-.34-6.84-2.65-10.99-6.94-12.46-4.29-1.47-9.21-2.21-14.77-2.21-9.2,0-14.7,2.16-16.49,6.47"/>
    </clipPath>
    <linearGradient id="Degradado_sin_nombre_8-4" data-name="Degradado sin nombre 8" x1="-1943.67" y1="391.01" x2="-1942.67" y2="391.01" gradientTransform="translate(12199.8 -58834.56) rotate(-90) scale(30.41 -30.41)" xlink:href="#Degradado_sin_nombre_8"/>
    <mask id="mask-3" x="289.76" y="221.53" width="41.19" height="48.66" maskUnits="userSpaceOnUse">
      <rect class="cls-15" x="289.76" y="221.53" width="41.19" height="48.66"/>
    </mask>
    <linearGradient id="Degradado_sin_nombre_7-4" data-name="Degradado sin nombre 7" x1="-1943.67" y1="391.01" x2="-1942.67" y2="391.01" gradientTransform="translate(12199.8 -58834.57) rotate(-90) scale(30.41 -30.41)" xlink:href="#Degradado_sin_nombre_7"/>
  </defs>
  <g id="Logos">
    <g id="GECO">
      <line class="cls-12" x1="40.05" y1="218.19" x2="330.79" y2="218.19"/>
      <line class="cls-8" x1="124.75" y1="87.42" x2="112.83" y2="3"/>
      <rect class="cls-20" x="175.41" y="125.82" width="107.19" height="13.37"/>
      <rect class="cls-10" x="175.41" y="125.82" width="107.19" height="13.37"/>
      <line class="cls-8" x1="159.87" y1="98.85" x2="197.49" y2="68.35"/>
      <line class="cls-8" x1="87.79" y1="128.71" x2="3" y2="128.71"/>
      <g>
        <path class="cls-20" d="M173.64,130.35c0,23.71-19.22,42.93-42.92,42.93s-42.92-19.22-42.92-42.93,19.22-42.92,42.92-42.92,42.92,19.22,42.92,42.92"/>
        <path class="cls-9" d="M173.64,130.35c0,23.71-19.22,42.93-42.92,42.93s-42.92-19.22-42.92-42.93,19.22-42.92,42.92-42.92,42.92,19.22,42.92,42.92Z"/>
        <path class="cls-2" d="M339.17,133.34c0,16.12-13.06,29.18-29.18,29.18s-29.18-13.07-29.18-29.18,13.06-29.18,29.18-29.18,29.18,13.06,29.18,29.18"/>
        <path class="cls-5" d="M339.17,133.34c0,16.12-13.06,29.18-29.18,29.18s-29.18-13.07-29.18-29.18,13.06-29.18,29.18-29.18,29.18,13.06,29.18,29.18Z"/>
        <line class="cls-8" x1="135.6" y1="175.08" x2="146.68" y2="243.41"/>
      </g>
      <g>
        <path class="cls-2" d="M41.9,215.22v-20.99h10.35c2.57,0,4.35.45,5.32,1.34.97.89,1.46,2.51,1.46,4.84,0,2.12-.24,3.57-.73,4.35-.49.78-1.48,1.32-2.99,1.62v.14c2.33.14,3.49,1.5,3.49,4.08v4.63h-3.98v-3.83c0-2.16-1.07-3.24-3.2-3.24h-5.74v7.07h-3.98ZM45.88,204.8h5.72c1.36,0,2.27-.24,2.71-.73s.67-1.46.67-2.93-.19-2.46-.58-2.9-1.23-.65-2.53-.65h-6v7.21Z"/>
        <path class="cls-2" d="M77.78,200.35h-3.89c-.02-.19-.03-.34-.03-.43-.09-1.18-.35-1.92-.78-2.22-.43-.3-1.45-.45-3.04-.45-1.89,0-3.12.17-3.7.52s-.87,1.08-.87,2.2c0,1.32.24,2.12.71,2.38.47.27,2.03.47,4.67.62,3.13.17,5.15.62,6.07,1.34.92.72,1.38,2.21,1.38,4.47,0,2.79-.54,4.59-1.61,5.41-1.08.82-3.45,1.22-7.12,1.22-3.3,0-5.49-.4-6.57-1.2-1.08-.8-1.62-2.42-1.62-4.86l-.02-.77h3.88l.02.45c0,1.47.26,2.36.77,2.69s1.91.49,4.2.49c1.78,0,2.92-.19,3.41-.57.49-.38.74-1.26.74-2.63,0-1.01-.19-1.69-.56-2.02-.37-.33-1.18-.54-2.42-.61l-2.2-.14c-3.32-.19-5.44-.66-6.37-1.38-.92-.73-1.38-2.29-1.38-4.69s.56-4.08,1.67-4.9c1.11-.82,3.33-1.22,6.67-1.22,3.16,0,5.28.37,6.38,1.12,1.1.75,1.65,2.21,1.65,4.38v.8Z"/>
        <path class="cls-2" d="M84.62,197.58v5.41h9.84v2.94h-9.84v5.94h10.47v3.35h-14.46v-20.99h14.36v3.35h-10.38Z"/>
        <path class="cls-2" d="M117.57,212.41l-1.65,2.4-2-1.38c-1.3,1.32-3.78,1.98-7.44,1.98-4.01,0-6.58-.6-7.72-1.81-1.14-1.21-1.71-3.93-1.71-8.19,0-4.95.54-8.08,1.62-9.4,1.08-1.31,3.66-1.97,7.74-1.97s6.58.62,7.7,1.85,1.67,4.08,1.67,8.54c0,3.17-.14,5.32-.42,6.46l2.2,1.51ZM105.62,207.75l1.66-2.4,4.34,2.94c.08-.76.12-1.27.12-1.52v-4.72c0-1.96-.32-3.21-.95-3.76-.64-.55-2.08-.82-4.32-.82-2.68,0-4.24.34-4.69,1.03-.45.69-.68,3.07-.68,7.13,0,3.08.27,4.91.82,5.49.55.58,2.26.88,5.14.88,1.47,0,2.61-.31,3.44-.94l-4.89-3.31Z"/>
      </g>
      <g>
        <line class="cls-11" x1="113.01" y1="146.41" x2="121.39" y2="111.02"/>
        <line class="cls-11" x1="121.39" y1="111.02" x2="129.81" y2="146.41"/>
        <line class="cls-11" x1="129.81" y1="146.41" x2="140.89" y2="111.02"/>
        <line class="cls-11" x1="142.17" y1="110.75" x2="148.43" y2="146.68"/>
        <path class="cls-7" d="M318.22,118.73s-19.52,1.69-19.52,22.24c5.67,13.51,18.97,3.36,19.52,2.81"/>
        <line class="cls-7" x1="318.22" y1="118.73" x2="318.22" y2="124.84"/>
      </g>
      <g>
        <path class="cls-2" d="M174.75,190.53h21.09l.14,9.51c0,6.93-1.3,11.39-3.91,13.39-2.61,2-8.43,3-17.46,3-8.28,0-13.77-1.33-16.46-4-2.69-2.67-4.04-8.11-4.04-16.32,0-10.48.54-17.1,1.61-19.86,1.33-3.37,3.36-5.64,6.07-6.81,2.71-1.17,7.32-1.75,13.83-1.75,8.52,0,14.01.91,16.5,2.72,2.48,1.81,3.72,5.83,3.72,12.06h-9.19c-.16-3.14-.85-5.08-2.05-5.84-1.21-.76-4.23-1.14-9.07-1.14-5.26,0-8.6.66-10.02,1.97-1.42,1.31-2.12,4.39-2.12,9.23l-.04,4.81.07,6.14c0,4.75.7,7.77,2.11,9.07s4.66,1.95,9.76,1.95,8.11-.55,9.46-1.65c1.35-1.1,2.02-3.7,2.02-7.79l.03-1.96h-12.04v-6.7Z"/>
        <path class="cls-2" d="M210.52,175.76v12.35h22.46v6.7h-22.46v13.55h23.9v7.65h-32.99v-47.9h32.78v7.65h-23.69Z"/>
        <path class="cls-2" d="M285.72,209.59l-3.75,5.47-4.56-3.16c-2.97,3.02-8.63,4.53-16.99,4.53-9.15,0-15.02-1.37-17.62-4.12-2.6-2.75-3.89-8.98-3.89-18.69,0-11.3,1.23-18.45,3.7-21.44,2.47-2.99,8.36-4.49,17.67-4.49s15.03,1.41,17.56,4.23c2.54,2.82,3.81,9.32,3.81,19.49,0,7.23-.32,12.14-.95,14.74l5.02,3.44ZM258.45,198.95l3.79-5.47,9.9,6.7c.19-1.73.28-2.89.28-3.47v-10.77c0-4.47-.73-7.33-2.18-8.58-1.45-1.25-4.74-1.88-9.86-1.88-6.11,0-9.67.78-10.7,2.35-1.03,1.57-1.54,7-1.54,16.28,0,7.02.62,11.19,1.88,12.53s5.17,2,11.74,2c3.35,0,5.97-.71,7.86-2.14l-11.16-7.54Z"/>
        <path class="cls-2" d="M309.16,167.69c8.7,0,14.31,1.44,16.81,4.33,2.5,2.89,3.75,9.35,3.75,19.39,0,10.97-1.26,17.89-3.77,20.74-2.52,2.85-8.6,4.28-18.27,4.28-8.7,0-14.33-1.41-16.88-4.23-2.55-2.82-3.83-9.02-3.83-18.62,0-11.42,1.25-18.59,3.75-21.51,2.5-2.92,8.64-4.39,18.42-4.39ZM308.46,175.48c-6.11,0-9.67.78-10.7,2.35-1.03,1.57-1.54,7-1.54,16.28,0,6.88.6,11.02,1.81,12.42,1.2,1.4,4.75,2.11,10.65,2.11s9.02-.79,10.14-2.37c1.12-1.58,1.68-6.37,1.68-14.37s-.53-12.77-1.6-14.23c-1.07-1.46-4.54-2.19-10.44-2.19Z"/>
      </g>
      <g class="cls-25">
        <g class="cls-4">
          <rect class="cls-19" x="154.78" y="221.46" width="41.9" height="48.66"/>
        </g>
      </g>
      <g class="cls-14">
        <g class="cls-1">
          <rect class="cls-23" x="201.79" y="221.82" width="32.77" height="47.94"/>
        </g>
      </g>
      <g class="cls-22">
        <g class="cls-13">
          <rect class="cls-3" x="240.81" y="221.6" width="46.36" height="48.37"/>
        </g>
      </g>
      <g class="cls-18">
        <g class="cls-26">
          <rect class="cls-16" x="289.76" y="221.53" width="41.19" height="48.66"/>
        </g>
      </g>
    </g>
  </g>
</svg>