<?xml version="1.0" encoding="UTF-8"?>
<svg id="Capa_2" data-name="Capa 2" xmlns="http://www.w3.org/2000/svg" viewBox="0 0 283.46 245.06">
  <defs>
    <style>
      .cls-1, .cls-2 {
        fill: #006685;
      }

      .cls-3 {
        fill: #fff;
      }

      .cls-4 {
        fill: #ff6900;
      }

      .cls-2 {
        fill-rule: evenodd;
      }
    </style>
  </defs>
  <g id="Escudos">
    <g>
      <g>
        <g>
          <path class="cls-4" d="M246.56,143.93v37.37h20.99l-.02.18c-.18,2.72-1.07,5.08-2.66,7.08-1.62,2-4.54,4-8.8,6.01l8.59,9.98c6.85-3.03,11.7-6.53,14.53-10.55,2.82-3.97,4.23-9.37,4.27-16.19v-33.88h-36.9Z"/>
          <path class="cls-3" d="M262.14,161.27v-4.71h1.58c2.51,0,3.61.69,3.61,2.33s-1.19,2.38-3.51,2.38h-1.69ZM255.15,174.63h6.99v-8.19h1.01c2.64,0,3.25.7,3.72,4.24.29,2.22.42,2.91.73,3.96h7.3c-.52-1.55-.67-2.36-.83-3.55l-.3-2.32c-.51-3.95-1.75-5.24-5.1-5.37,3.57-.57,5.4-2.59,5.4-5.92,0-2.16-.82-3.97-2.39-5.2-1.52-1.21-3.31-1.66-6.59-1.66h-9.93v24.02Z"/>
        </g>
        <path class="cls-2" d="M224.34,77.87l-19.28-3.88-2.73-19.64,15.28-14.74c1.58-1.52,1.64-4.05.13-5.66-1.51-1.6-4.01-1.66-5.6-.14l-14.8,14.32-18.38-7.52-2.16-19.42c-.24-2.19-2.19-3.77-4.37-3.53-2.16.25-3.72,2.24-3.48,4.41l2.17,19.59-16.02,12.69-19.84-7.1-2.78-18.08,10.51-8.84c1.68-1.4,1.92-3.93.52-5.63-1.39-1.7-3.89-1.94-5.56-.53l-10.64,8.95-18.6-3.02-5.22-17.29c-.64-2.12-2.84-3.3-4.93-2.66-2.08.65-3.25,2.89-2.62,5l5.49,18.14-8.48,17.05-20.98,2.39h0l-8.72-16.25c-1.03-1.93-3.44-2.66-5.36-1.6-1.92,1.05-2.62,3.48-1.58,5.42l8.94,16.63-8.86,14.93s-.08.03-.11.04l.03-.04-17.57.52-11.7-10.68c-1.63-1.48-4.11-1.33-5.57.31-1.46,1.64-1.33,4.16.29,5.63l10.65,9.72-10.55,18.48-17.77-.57c-2.19-.06-4,1.67-4.07,3.88-.07,2.21,1.66,4.04,3.83,4.11l16.69.53,1.15,11.35c.23,2.2,2.17,3.8,4.34,3.57,2.18-.23,3.74-2.19,3.53-4.39l-1.41-13.54h0l11.69-20.43h0l16.07-.48,8.6,11.32c1.33,1.75,3.8,2.07,5.53.73,1.72-1.35,2.06-3.86.72-5.62l-7.76-10.2,9.18-15.34,21.35-2.43,14.19,14.53-1.63,12.9c-.28,2.19,1.25,4.21,3.42,4.48,2.14.28,4.12-1.27,4.41-3.45l1.72-13.52,16.56-8.65,20.13,7.22,2.82,20.21-12.01,10.72c-1.63,1.46-1.8,3.99-.35,5.64,1.44,1.66,3.93,1.83,5.58.36l11.9-10.61,18.55,7.58,5.45,17.47h0c.67,2.09,2.89,3.26,4.96,2.59,2.07-.66,3.24-2.91,2.57-5.01l-5.14-16.47,16.02-12.69,20.13,4.07c2.14.43,4.22-.99,4.65-3.14.43-2.17-.96-4.27-3.11-4.71ZM181.51,88.24l-18.58-7.6-2.81-20.12,15.81-12.51,18.58,7.61,2.8,20.13-15.81,12.49ZM112.55,55.91c-.18-.01-.35-.01-.55-.01l-11.88-12.17,7.77-15.64,16.83,2.74,2.68,17.32-14.86,7.76Z"/>
      </g>
      <g>
        <rect class="cls-1" x="4.61" y="147.89" width="7.76" height="87.67"/>
        <path class="cls-2" d="M88.64,201.98h7.65c-.57,7.05-2.35,13.31-5.36,18.76-3.02,5.43-7.03,9.62-12.04,12.53-5.02,2.9-10.71,4.35-17.06,4.35-5.47,0-10.45-1.07-14.89-3.2-4.47-2.14-8.33-5.23-11.58-9.27-3.27-4.03-5.75-8.91-7.49-14.59-1.76-5.7-2.64-11.85-2.64-18.46s.9-13.02,2.67-18.73c1.79-5.71,4.32-10.61,7.6-14.72,3.27-4.1,7.2-7.26,11.79-9.48,4.59-2.22,9.66-3.33,15.2-3.33,10.93,0,19.49,3.85,25.71,11.54,4.09,5.05,6.46,10.67,7.08,16.86h-7.65c-.8-4.2-2.39-7.92-4.74-11.15-2.34-3.21-5.27-5.72-8.79-7.44-3.52-1.75-7.43-2.62-11.75-2.62s-8.44.91-12.02,2.73c-3.59,1.83-6.67,4.47-9.28,7.93-2.6,3.47-4.6,7.62-5.96,12.43-1.39,4.81-2.08,10.15-2.08,16.02s.69,10.73,2.08,15.45c1.36,4.71,3.36,8.81,5.96,12.27,2.61,3.47,5.67,6.1,9.21,7.9,3.54,1.81,7.45,2.71,11.77,2.71,4.99,0,9.35-1.11,13.11-3.33,3.75-2.22,6.79-5.44,9.07-9.66,2.3-4.21,3.77-9.39,4.44-15.48Z"/>
        <rect class="cls-1" x="106.78" y="147.89" width="26.41" height="87.67"/>
        <path class="cls-2" d="M193.08,196l7.31,7.77c.94-2.73,1.39-6.76,1.39-12.12,0-7.72-1.4-13.67-4.21-17.82-2.81-4.13-6.86-6.21-12.13-6.21-3.51,0-6.52.95-9.05,2.82-2.53,1.89-4.47,4.61-5.82,8.15-1.37,3.55-2.04,7.82-2.04,12.81,0,7.49,1.47,13.54,4.4,18.14,2.94,4.6,6.81,6.91,11.6,6.91,1.72,0,3.24-.34,4.58-.95l-7.69-7.69,11.65-11.82ZM228.85,232.99l-11.77,12.07-12.24-12.66c-2.78,1.64-5.81,2.85-9.11,3.65-3.29.82-6.9,1.22-10.84,1.22-14.67,0-25.82-5.12-33.48-15.34-3.18-4.28-5.52-8.89-7.07-13.83-1.54-4.93-2.32-10.51-2.32-16.73,0-8.87,1.83-16.79,5.5-23.75,3.67-6.95,8.81-12.35,15.46-16.17,6.64-3.82,14.17-5.73,22.57-5.73,6.22,0,11.96,1.11,17.2,3.36,5.24,2.24,9.77,5.41,13.61,9.52,3.83,4.1,6.77,8.95,8.84,14.55,2.08,5.59,3.1,11.72,3.1,18.37,0,4.06-.41,8-1.26,11.84-.84,3.85-2.02,7.35-3.56,10.49-1.54,3.17-3.36,5.78-5.44,7.89l10.82,11.26Z"/>
      </g>
    </g>
  </g>
</svg>