<?xml version="1.0" encoding="UTF-8"?>
<svg id="Capa_2" data-name="Capa 2" xmlns="http://www.w3.org/2000/svg" viewBox="0 0 633.99 391.62">
  <defs>
    <style>
      .cls-1 {
        fill: #4ca734;
      }

      .cls-2 {
        fill: #f4a296;
      }

      .cls-3 {
        fill: #4ea933;
      }

      .cls-4 {
        fill: #f2937c;
      }

      .cls-5 {
        fill: #f7c1c7;
      }

      .cls-6 {
        fill: #506c28;
      }

      .cls-7 {
        fill: #f18969;
      }

      .cls-8 {
        fill: #722e0e;
      }

      .cls-9 {
        fill: #b5d7a6;
      }

      .cls-10 {
        fill: #98c983;
      }

      .cls-11 {
        fill: #f49f90;
      }

      .cls-12 {
        fill: #f8cad8;
      }

      .cls-13 {
        fill: #51a433;
      }

      .cls-14 {
        fill: #4caa33;
      }

      .cls-15 {
        fill: #f4a59a;
      }

      .cls-16 {
        fill: #a14216;
      }

      .cls-17 {
        fill: #f6b3b2;
      }

      .cls-18 {
        fill: #539633;
      }

      .cls-19 {
        fill: #4d6727;
      }

      .cls-20 {
        fill: #702e0e;
      }

      .cls-21 {
        fill: #99be86;
      }

      .cls-22 {
        fill: #f28d6f;
      }

      .cls-23 {
        fill: #010102;
      }

      .cls-24 {
        fill: #f6b3b1;
      }

      .cls-25 {
        fill: #0077be;
      }

      .cls-26 {
        fill: #f9cfe1;
      }

      .cls-27 {
        fill: #f4a398;
      }

      .cls-28 {
        fill: #b2d5a2;
      }

      .cls-29 {
        fill: #0c1221;
      }

      .cls-30 {
        fill: #9ec48a;
      }

      .cls-31 {
        fill: #9c3f15;
      }

      .cls-32 {
        fill: #4aa034;
      }

      .cls-33 {
        fill: #e35f1c;
      }

      .cls-34 {
        fill: #f2937d;
      }

      .cls-35 {
        fill: #7c3110;
      }

      .cls-36 {
        fill: #496c2a;
      }

      .cls-37 {
        fill: #f2947e;
      }

      .cls-38 {
        fill: #f5a79b;
      }

      .cls-39 {
        fill: #4d6d29;
      }

      .cls-40 {
        fill: #97bd87;
      }

      .cls-41 {
        fill: #f39a87;
      }

      .cls-42 {
        fill: #f49d8d;
      }

      .cls-43 {
        fill: #f29276;
      }

      .cls-44 {
        fill: #f8c6d1;
      }

      .cls-45 {
        fill: #e96221;
      }

      .cls-46 {
        fill: #f7c0c8;
      }

      .cls-47 {
        fill: #f7bfc4;
      }

      .cls-48 {
        fill: #f2927c;
      }

      .cls-49 {
        fill: #c05117;
      }

      .cls-50 {
        fill: #f7c2c8;
      }

      .cls-51 {
        fill: #005195;
      }

      .cls-52 {
        fill: #4f702a;
      }

      .cls-53 {
        fill: #192e4e;
      }

      .cls-54 {
        fill: #f2947a;
      }

      .cls-55 {
        fill: #aace97;
      }

      .cls-56 {
        fill: #f6b1ae;
      }

      .cls-57 {
        fill: #91b97d;
      }

      .cls-58 {
        fill: #93b980;
      }

      .cls-59 {
        fill: #010101;
      }

      .cls-60 {
        fill: #a1c48e;
      }

      .cls-61 {
        fill: #f5a8a4;
      }

      .cls-62 {
        fill: #010202;
      }

      .cls-63 {
        fill: #e56221;
      }

      .cls-64 {
        fill: #f5aea9;
      }

      .cls-65 {
        fill: #0078be;
      }

      .cls-66 {
        fill: #020304;
      }

      .cls-67 {
        fill: #f39885;
      }

      .cls-68 {
        fill: #ec6625;
      }

      .cls-69 {
        fill: #f7c3cb;
      }

      .cls-70 {
        fill: #06467d;
      }

      .cls-71 {
        fill: #ec6418;
      }

      .cls-72 {
        fill: #c95516;
      }

      .cls-73 {
        fill: #0077bd;
      }
    </style>
  </defs>
  <g id="Logos">
    <g>
      <path class="cls-59" d="M566.19,120.37c-3.42-3.31-6.49-5.89-6.67-10.21-4.82,3.89-8.85,6.28-14.95,7.28,4.57,4.68,3.04,9.96,2.43,15.73s.7,11.18-3.71,16.43c6.33,1.93,11.46,4.67,15.46,9.53,12.61,15.36,8.61,38.31-7.9,47.78-17.43,10-39.08,2.82-46.31-17.37-6.2,27.21-19.68,50.91-40.46,69.02-26.6,23.83-61.37,34.77-96.97,31.18-59.52-6-107.4-54.44-112.89-113.8v-25.5c5.42-59.47,53.19-107.36,112.86-114l25.61.03c15.24,1.24,28.89,6.08,43.59,12.02-7.85-13.69-5.49-29.83,5.31-39.95s27.17-11.46,39.27-3.1c11.93,8.24,17.64,23.44,11.53,38.21,6.72,1.85,11.49,6.06,17.05,9.86,3.53,2.41,6.81,4.55,7.73,8.67,12.42-10.72,29.57-10.47,41.99.41,1.56-4.54,4.63-7.13,8.45-9.67l12.54-8.35c1.54-1.02,3.66-.38,5.65-.49-3.58-11.9,2.78-23.34,13.19-28.39,10.7-5.2,24.08-.97,30.42,8.5,7.07,10.56,5.18,23.57-3.66,31.67-8.96,8.22-22.94,9.03-32.57.36-.94,2.92-2.56,5.08-5.34,7.06l-8.15,5.78c-3.7,2.62-6.82,5.27-12.34,5.32,3.5,8.77,3.37,17.26-.55,25.79,3.85-.83,7.74-.07,10.25,2.75,6.28,7.03,14.08,9.89,15.25,17.64,11.65-7.78,27.31-5.01,35.9,6.17s7.45,25.85-1.64,35.55-23.59,11.5-34.57,4.17-15.65-21.47-9.79-34.64c-3.03-1.11-5.86-1.64-8.17-3.87l-7.84-7.57ZM457.8,5.82c-15.19,3.15-23.62,18-20.23,32.06,3.3,13.71,17.05,22.5,30.93,19.6,14.17-2.97,23.39-16.93,20.49-31.01s-16.17-23.77-31.19-20.65ZM602.91,19.89c-10.66,3.7-15.11,15.19-11.76,24.53,3.62,10.08,14.45,15.04,24.22,11.74,9.91-3.35,15.01-14.12,12.24-23.48-3.09-10.47-13.89-16.55-24.7-12.8ZM392.21,278.83c57.25-5.92,100.77-52.79,103.66-109.55,3.14-61.68-41.88-115.19-103.52-121.73l-24.17.02c-54.86,5.91-97.48,49.15-103,103.97v23.31c5.49,54.75,48.2,98.13,102.97,103.96h24.06ZM572.77,67.64l13.55-9.94c2.19-1.61,2.15-5,.42-6.85-1.51-1.61-4.32-2.02-6.62-.37l-13.98,10.05c-2.19,1.58-2.25,5.12-.35,7.07,1.46,1.49,4.37,1.97,6.99.04ZM510.08,60.38l-13.86-9.61c-2.42-1.67-5.6-.79-6.84,1.46-.98,1.78-.91,4.73,1.18,6.18l14.75,10.26c2.27,1.58,5.29.34,6.55-1.82,1.06-1.81.84-4.65-1.79-6.47ZM526.95,137.65c-.43-7.43-.3-14.21,3.05-20.33-18.33-4.24-29.32-25.39-21.59-42.69-3.72-.32-5.94-1.49-8.65-3.38l-10.59-7.36c-2.81-1.96-4.79-3.85-5.53-7.97-7,5.55-14.85,7.83-23.98,7.32,1.76,1.95,3.34,4.29,5.42,5.58,4.22,2.61,6.37,5.94,9.63,9.56,21.2,23.48,32.69,53.85,32.26,85.88,4.78-8.21,12.6-14.01,22.23-15.56-2.58-3.6-2.85-6.79-2.25-11.05ZM536.79,59.73c-15.75.66-26.49,13.97-25.5,28.61.97,14.33,13.39,25.52,27.93,24.76s26.1-13.15,25.32-28.23c-.72-13.81-12.45-25.78-27.75-25.14ZM585,117.5l-12.25-11.23c-2.16-1.98-5.35-1.61-7,.37-1.38,1.66-1.61,4.6.26,6.34l12.43,11.58c2.29,2.13,5.44,2.03,7.29.02,1.74-1.89,1.57-4.96-.74-7.07ZM541.17,142l1.12-17.64c.18-2.86-2.63-4.92-4.84-4.75-2.34.19-4.51,1.85-4.68,4.59l-1.06,17.02c-.2,3.15,1.97,5.11,4.61,5.18,2.04.06,4.65-1.32,4.85-4.41ZM603.8,121.74c-13.02,1.87-20.75,13.8-18.66,25.65s12.92,19.75,25.04,17.92c11.7-1.77,20.25-12.79,18.35-25.24-1.68-10.99-12.12-20.15-24.73-18.34ZM530.76,153.73c-15.22,2.35-24.49,16.4-21.97,30.79,2.41,13.77,15.8,23.66,30.15,21.33s23.97-15.46,21.8-30c-2.04-13.64-14.77-24.47-29.98-22.11Z"/>
      <path class="cls-59" d="M138.67,245.68c1.63,2.27,1.71,4.96,1.39,7.64-.93,2.89-.19,6.75-.2,9.84.72,3.28.72,6.74-.04,10.03l.07,5.97,8.84.05.07,6.57c.72,1.7.85,3.71,0,5.4v22.94s-8.85.15-8.85.15l-2.03,15.85c-.85,6.63-2.43,14.16-7.66,14.2-7.1.06-6.33-11.07-6.43-18.7-.74-1.73-.89-3.76-.07-5.5-.02-1.52.96-4.96-.9-5.89-.94-.45-3.54.25-4.49-.1s-.47-3.07-.6-4.04c-1.2-1.7-4.66-1.21-6.66-.56-10.81,26.29-26.35,49.27-51.58,63.49-17.93,10.41-37.72,15.89-59.5,18.59l-.04-43.81c17.72-1.56,33.55-7.82,45.34-19.91,4.48-5.2,7.98-10,11.33-16.4-3.89-2.11-7.5.93-10.82-1.31.12,1.65.2,4.3-.65,5.08-4.61,4.21-8.89,1.03-13.07-1.18-4.47-2.37-10.33-.48-15.27-.89v-31.21c15.06,4.79,15.05-3.92,20.07-4.74,4.75-.78,8.41,1.47,9.21,6.09,1.45-1.78,2.89-2.28,4.25-2.24s1.88,2.15,1.46,3.88c2.65.47,4.4.47,6.97-.04l-.02-248.74h53.03s-.02,246.58-.02,246.58c1.75.75,3.12.56,4.56.5,1.09-.04,2.02-1.87,1.53-3.98l7.05-.11c-.62-4.57.27-8.43,1.1-12.74l3.89-20.14c.38-1.96,2.58-3.93,4.13-3.92,2.02.02,3.4,2.38,4.61,3.3ZM100.82,283V47.24s-31.02,0-31.02,0v235.94s31.02-.17,31.02-.17ZM132.04,257.83l-2.56,14.81c-.69,3.98-1.58,8.7.02,12.28.62,1.38,2.19,2.01,3.05,2.06,4.94.27,2.79-20.41,2.77-32.58l-.95-7.31-2.33,10.75ZM30.91,287.32c-3.16.24-6.13.13-9.11-.12-.5-.1-.96.34-.96,1.05l-.04,17.94-.02,1.93c-.03,2.45,8.94-1.22,13.54,1.64,1.72,1.07,5.36,4.98,7.15,2.38l-.15-29.07c0-.58-.88-1.43-1.36-1.56-.55-.16-1.82-.27-2.57.36l-6.48,5.46ZM122.01,292.37c0,.54-.31,1.56-.01,2.08l-.02,15.64,22.59-.02.24-23.98c.02-2.53-.67-3.2-3.46-2.91-2.32.24-2.19,1.79-2.65,3.76s-2.99,3.62-4.57,4.08c-2.33.68-4.41-.65-6.2-1.37-1.62-1.7-2.61-3.75-3.07-6.28l-2.92.06.06,8.93ZM45.84,300.19c-.04,2.16-.38,4.35.38,7.19,2.09-2.32,2.09-5.99,1.93-9.06l-.63-12.14h-1.44s-.23,14.01-.23,14.01ZM115.82,305.38c1.48-.25,1.97-.23,2.08-1.73.1-1.37.11-2.88-1.07-3.47.86-4.14,1.49-8.17.87-12.89h-5.83s-.15,6.91-.15,6.91h-52.68s-.3-5.02-.3-5.02c-2.27,1.27-4.2,1.12-6.93,1l-.02,13.2c0,2.45,2.86,2.75,4.52,2.94,2.27.25,3.45-.68,4.45-3.25l50.87.34c1.28,0,2.89,2.2,4.19,1.98ZM69.79,352.69c12.08-11.17,20.27-23.98,27.49-38.43l-30.15-.02c-10.2,23.63-31.03,38.79-56.28,43l.13,21.67c21.9-4.23,41.62-12.18,58.82-26.21ZM128.74,335.33c-.05,1.57.3,3.32,1.88,4.24,3.28-4.08,2.73-8.33,3.17-12.42l1.06-9.78h-6.81s-.31,15.91-.31,15.91c-.02,1.02.5,1.79,1.01,2.05Z"/>
      <path class="cls-59" d="M225.83,294.1l-58.03.13V98.3c-3.94-.23-8.38.01-10.98-3.26-1.57-1.98-1.83-7.98-.17-9.86,2.79-3.15,7.73-2.45,12.01-3.79l-12.33-3.82c-.61-2.75-1.31-7.28,0-10.03,2.05-4.29,7.52-3.18,11.99-3.67-4.15-4.49-13.12-.7-12.65-9.71.12-2.29-.24-4.53,1.56-6.01,4.38-3.61,8.84-.41,10.63-3.6-2.39-1.27-4.61-1.29-6.74-1.55-4.55-.57-5.66-3.76-5.54-7.87.08-2.84.84-5.59,4.32-6.1l27.63-4.07c-1.56-6.51-.39-12.37-.73-18.74h15.07c0,3.76-.52,6.96.43,10.6l29.7,3c4.27.43,5.22,3.8,5.04,7.34-.42,8.34-6.79,7.66-16.35,8.41l12.09,2.5c3.29.68,4.45,2.72,4.17,6.21-.17,2.2.24,4.52-1.56,5.97-4.37,3.53-10.08.26-9.57,5.11,4.27-.9,8.68.59,10.36,3.97s1.2,8.71-2.79,10.44c-2.47,1.07-5.96-.1-8.22,3,4.24.63,8.53.6,10.86,4.23,1.47,2.28,1.39,6.87-.36,8.95-2.43,2.89-6.13,2.76-9.87,3.44l.02,204.72ZM192.79,22.28c1,2.37,3.67,2.36,6.02,2.05l10.59-1.4c-2.51-2.49-5.25-1.49-7.57-1.64-1.93-.12-3.49-.8-4.86-2.19l-.22-7.84-4.86.05c.03,3.92-.87,7.67.9,10.97ZM205.82,28.18c-5.94-.38-11.63,1.23-18.13,1.96-1.42.16-3.29-.33-3.93,1.09-2.61.29-5.83-.76-7.97.97-2.91.02-5.96-.57-8.39,1.41-1.41-.45-4.77-1.42-6.43.12-1.48,1.36,1.38,4.91,3.85,4.56l26.01-4.03,22.04-2.67,18.09-2.12c.74-.09,1.47-.03,1.82-.77s-.14-1.22-.95-1.6l-4-1.91c-7.22,0-15.51,1.24-22.02,2.99ZM187.23,40.24c-1.18-.14-2.08-.23-3.54.24.58.87,1.64,1.1,2.77.45,1.52,1.48,3.07,1.3,4.93,1.38,4.2.19,7.85-1.13,11.93-1.12h3.13c.81,0,1.47.04,1.86-.03.58-.1.97-1.33.22-1.74-.85-.46-2.24-.22-3.28-.23l-2.17-.02c-3.75-.04-7.08-.41-10.95-.1-1.99-.07-4.16-.27-4.91,1.17ZM218.82,44.22c-4.82.21-10.64.31-14,1.98-2.4-.1-4.86-.02-7.62.37l-17.42,2.41-12.97,2.25c-1.61.13-3.95-.69-6,.36-.73.76.24,3.03,1.57,3.6,1.07.45,1.98.86,3.86.53l15.48-2.68c5.13.82,10.24-.81,15.15-1.48l23.06-3.14c2.62-.36,5.76.65,8.1-1.08.95-.7,2.06-1.1,3.79-1.32-.69-1.59-2.07-2.03-2.92-2.89-1.27-1.29-6.35-.3-10.08,1.1ZM204.47,59.32l4.44-.48c-2.26-1.85-4.72-1.45-7.18-1.74-6.44-.78-13-.55-19.44,1.65,7.94,2.46,14.8,1.38,22.17.58ZM190.84,66.19c-3.52-.42-10.53.67-14.02,1.92l-9.95,1.13c-2.08.24-4.53-.69-6.33.86-1.03-.02-.67.96-.41,1.32.58.81.99,1.35,1.53,1.82,2.49,2.16,5.65.67,8.2.22l12.98-2.28c2.68.15,5.48.12,8.59-.36l14.44-2.22,24.16-3.06c1.15-.15,1.92-.92,1.81-1.71-.06-.39-.51-.69-.97-.64.11-1.91-1.86-2.51-4.08-2.22l-35.96,5.22ZM188.26,76.18l-3.48.04c-1.31.02-3.15-.82-4.56,1.28,2.58,1.24,4.52.55,6.6.67l4.51.27c1.77.11,2.73.16,4.26,0,4.71-.49,9.23.01,13.59-1.88-4.34-1.61-7.87-1.38-11.39-1.48l-2.95-.09c-2.38.21-5.2-.35-6.58,1.19ZM222.82,80.22l-2.07-.31-47.92,6.39h-2.39c-.59,0-1,1.14-.61,1.62-.2.39-.7.4-1.01.4-.22-2.24-4.76-1.81-8.95.2.98,3.16,2.56,3.75,4.48,3.84,2.14.1,4.53.58,5.29-1.42,2.46.65,10.35-.41,14.37-1.76l21.74-3.15,1.11.14c2.6.33,5.77.71,7.95-.97l1.04-.03c1.98-.06,4.47.54,5.93-.94l1.03-.03,6.05-.19c.75.04,1.94-.63,2.56-.96.52-.27.64-1.87.36-2.34-.43-.75-1.56-.55-2.05-.65-1.62-1.34-5.34-1.77-6.92.16ZM178.82,99.4v183.79s36.01,0,36.01,0V91.46c-3.18-.73-6.05-.48-8.93.99l-.17,18.62-13.86.04-.48-10.68-12.57-1.04ZM190.81,93.18c-2.39.28-4.93-.11-6.99,1.66,3.48,1.77,6.77,1.33,10.3,1.12,4.82,3.76-.23,11.89,6.3,10.21.86-2.59.36-5.78.56-9.04.19-3.02-1.92-4.91-4.89-4.56l-5.28.61Z"/>
      <path class="cls-59" d="M429.37,375.1c-22.44,1.52-42.34-5.17-59.85-17.5-9.25-6.51-19.03-11.35-29.66-14.58-5.11.33-8.41,3.09-12.38,5.99-7.93,7.86-13.6,17.51-17.7,28.21l-35.15-19.69c11.82-24.78,38.12-58.17,67.13-55.24,26.83,2.71,43.86,21.19,67.13,29.71,9.8,4.58,20.08,2.42,26.69-6.16,5.23-5.69,7.97-12.93,10.68-20.88l39.89,16.38c-9.78,25.49-28.83,48.8-56.79,53.75ZM429.56,363.79c17.64-2.29,34.79-21.5,41.89-36.48l-18.86-7.7c-3.22,7.12-7.7,12.21-12.97,17.42-13.19,13.03-31.51,8.78-47.36-.27l-28.61-16.32c-22.26-12.7-40.4-7.9-57.52,9.98-6.63,6.93-11.5,14.5-16.68,22.35l15.2,8.85c7.54-13.83,21.59-30.61,36.1-29.1,10.51,1.1,19.9,6.57,28.71,11.99l19.79,12.18c12.7,5.62,26.45,8.89,40.32,7.09Z"/>
      <path class="cls-9" d="M139.82,273.19l.04-10.03c1.45,2.88,1.45,7.17-.04,10.03Z"/>
      <path class="cls-40" d="M140.07,253.32l-1.39-7.64c3.14,2.39,2.3,4.83,1.39,7.64Z"/>
      <path class="cls-28" d="M148.81,291.19v-5.4c1.53,1.41,1.53,4.39,0,5.4Z"/>
      <path class="cls-6" d="M123.85,325.64c-1.57-1.46-1.57-4.43-.07-5.5l.07,5.5Z"/>
      <path class="cls-73" d="M536.79,59.73c15.3-.64,27.03,11.34,27.75,25.14.79,15.09-10.75,27.47-25.32,28.23s-26.97-10.44-27.93-24.76c-.99-14.65,9.75-27.96,25.5-28.61Z"/>
      <path class="cls-73" d="M457.8,5.82c15.02-3.12,28.31,6.7,31.19,20.65s-6.32,28.04-20.49,31.01c-13.88,2.9-27.63-5.89-30.93-19.6-3.39-14.06,5.04-28.91,20.23-32.06Z"/>
      <path class="cls-73" d="M530.76,153.73c15.21-2.35,27.94,8.47,29.98,22.11,2.17,14.54-7.89,27.73-21.8,30s-27.74-7.56-30.15-21.33c-2.52-14.39,6.75-28.44,21.97-30.79Z"/>
      <path class="cls-73" d="M603.8,121.74c12.61-1.81,23.04,7.34,24.73,18.34,1.91,12.44-6.65,23.47-18.35,25.24-12.12,1.83-22.96-6.21-25.04-17.92s5.64-23.79,18.66-25.65Z"/>
      <path class="cls-73" d="M602.91,19.89c10.82-3.75,21.61,2.33,24.7,12.8,2.76,9.36-2.33,20.13-12.24,23.48-9.77,3.3-20.6-1.67-24.22-11.74-3.35-9.34,1.1-20.83,11.76-24.53Z"/>
      <path class="cls-73" d="M572.77,67.64c-2.62,1.92-5.53,1.45-6.99-.04-1.9-1.94-1.84-5.49.35-7.07l13.98-10.05c2.3-1.65,5.11-1.24,6.62.37,1.73,1.85,1.77,5.24-.42,6.85l-13.55,9.94Z"/>
      <path class="cls-65" d="M510.08,60.38c2.63,1.82,2.85,4.66,1.79,6.47-1.26,2.15-4.29,3.4-6.55,1.82l-14.75-10.26c-2.09-1.45-2.17-4.4-1.18-6.18,1.23-2.25,4.42-3.13,6.84-1.46l13.86,9.61Z"/>
      <path class="cls-25" d="M585,117.5c2.31,2.11,2.47,5.18.74,7.07-1.85,2.01-4.99,2.12-7.29-.02l-12.43-11.58c-1.87-1.74-1.64-4.68-.26-6.34,1.65-1.98,4.84-2.35,7-.37l12.25,11.23Z"/>
      <path class="cls-25" d="M541.17,142c-.2,3.09-2.81,4.47-4.85,4.41-2.64-.07-4.81-2.03-4.61-5.18l1.06-17.02c.17-2.75,2.34-4.41,4.68-4.59,2.21-.18,5.03,1.89,4.84,4.75l-1.12,17.64Z"/>
      <path class="cls-14" d="M143.83,286.8c.27.16.48.31.48.47.03,2.57.18,18.98-.22,19.9-.24.54-.46,1.04-.84,1.31-1.72,1.23-20.89.31-20.95-4.92.32-3.05.23-6.08-.29-9.11-.3-.52.02-1.54.01-2.08.43-2.83,3.64-4.93,5.92-2.71,1.78.72,3.86,2.05,6.2,1.37,1.58-.46,4.13-2.16,4.57-4.08.88-2.43,4.4-2.88,5.13-.14Z"/>
      <path class="cls-3" d="M41.32,283.07l-.32,28.31h-1.46c-5.01-3.79-11.26-4.88-18.75-3.25l.02-1.93c.36-1.26,1.11-2.25,2.25-2.99-.33-.25-.59-.5-.57-.72.43-4.72,4.3-13.08,8.42-15.16l6.48-5.46c.75-.63,2.01-.51,2.57-.36.48.14,1.36.98,1.36,1.56Z"/>
      <path class="cls-52" d="M121.99,294.46c1.39,2.44.94,5.38.58,8.92,6.61,3.16,13.53,5.03,21,3.32l.25-19.89c-1.28-1.47-.64-1.93.97-.7l-.24,23.98-22.59.02.02-15.64Z"/>
      <path class="cls-13" d="M129.5,284.91c-.12-2.64.25-4.85,1.1-6.65-.3-5.66.52-11.98,2.42-16.95-.39-3.74.37-6.04,2.29-6.93.03,12.17,2.17,32.85-2.77,32.58-.86-.05-2.43-.67-3.05-2.06Z"/>
      <path class="cls-36" d="M20.78,308.12c7.81-1.5,12.88-4.51,19.88,2.32l.65-27.38.15,29.07c-1.79,2.61-5.43-1.3-7.15-2.38-4.6-2.86-13.57.81-13.54-1.64Z"/>
      <path class="cls-55" d="M30.91,287.32c-2.51,7.33-7.78,13.45-7.85,15.87,0,1.16-1.08,1.88-1.45,1.21-1.1-1.99-.11-14.25.2-17.2,2.98.25,5.95.36,9.11.12Z"/>
      <path class="cls-19" d="M133.79,327.15c-.13,1.94-.96,2.29-2.66,2.19.27,3.28-.53,5.27-2.39,5.99-.51-.26-1.03-1.04-1.01-2.05l.31-15.92h6.81s-1.06,9.79-1.06,9.79Z"/>
      <path class="cls-32" d="M133.79,327.15c-.44,4.09.11,8.34-3.17,12.42-1.58-.92-1.93-2.67-1.88-4.24l.25-7.85,4.8-.33Z"/>
      <path class="cls-60" d="M127.93,289.66c-1.7.62-3.87,2.44-5.92,2.71l-.06-8.93,2.92-.06c.46,2.53,1.45,4.58,3.07,6.28Z"/>
      <path class="cls-30" d="M133.03,261.31c.08,3.63-.02,7.35-1.94,11.03.67,2.15.8,4.24-.48,5.91-1.37-.92-1.74-2.79-1.13-5.62l2.56-14.81c1.4-.32,1.73.85.99,3.49Z"/>
      <path class="cls-1" d="M48.15,298.32c-.24,2.53-.66,4.78-2.3,1.87l.23-14.01h1.44s.63,12.14.63,12.14Z"/>
      <path class="cls-58" d="M135.32,254.39l-2.29,6.93c-.03-1.21-.05-2.42-.99-3.49l2.33-10.75.95,7.31Z"/>
      <path class="cls-21" d="M144.8,286.1l-.97.7-5.13.14c.45-1.97.33-3.52,2.65-3.76,2.78-.29,3.48.38,3.46,2.91Z"/>
      <path class="cls-10" d="M23.05,303.2c-.02.71-.06,1.45-.41,2.33-.22.56-1.06.94-1.84.67l.04-17.94c0-.7.46-1.15.96-1.05l.04,14.98c0,.77.74,1.17,1.22,1.02Z"/>
      <path class="cls-57" d="M130.61,278.26c.66,2.12.44,5.19-1.1,6.65-1.6-3.57-.71-8.3-.02-12.28-.15,2.34.6,3.92,1.13,5.62Z"/>
      <path class="cls-39" d="M45.84,300.19c.35.08.97.07,1.38-.16.57-.33.78-1.19.93-1.71.16,3.07.16,6.74-1.93,9.06-.76-2.84-.41-5.03-.38-7.19Z"/>
      <path class="cls-18" d="M115.82,305.38l1-5.19c1.18.59,1.17,2.09,1.07,3.47-.11,1.49-.6,1.47-2.08,1.73Z"/>
      <path class="cls-5" d="M211.78,67.03c-1.25.74-4.54,1.21-5.95.22-7.16,2.13-14.83,3.44-22.99,3.93l-12.98,2.28c-2.6.59-4.98.49-7.14-.31-.8-1.49.97-2.75,2.41-2.93l1.74-.97,9.95-1.13c5.31-1.12,10.62-1.5,15.94-1.12,4.51-1.71,11-2.42,16.12-2.57,2.22.78,3.18,1.65,2.9,2.61Z"/>
      <path class="cls-47" d="M210.82,30.19c-.13.46-.27.82-.48.86-7.08,1.27-14.37,2.22-21.57,3.09-9.12,2.31-18.08,2.94-26.87,1.9-1.14-1.98.69-2.79,5.5-2.43,2.42-1.98,5.48-1.39,8.39-1.41,3.12-.25,6.14-.61,9.06-1.09,7.62-1.36,15.26-2.03,22.94-1.99.58-1.16,1.92-1.5,3.04-.87,2.65.34,2.53,1.21-.02,1.93Z"/>
      <path class="cls-69" d="M205.87,84.18c2.31-.7,7.61-1.47,7.9,1.04-2.21.47-4.52.78-6.91.94l-1.11-.14c-7.31.7-14.55,1.75-21.74,3.15-4.02,1.35-11.91,2.41-14.37,1.76-7.69,3.15-9.04-5.82-.82-2.62.31,0,.82-.01,1.01-.4l.38-.78c11.65-1.32,23.31-2.68,34.99-4.09l.67,1.14Z"/>
      <path class="cls-27" d="M229.74,80.06c3.55,3.15-3.48,3.23-6.27,2.61-.3-.07,5.71-.5,5.39,1.34l-6.05.19c-5.45-.63-11.51-.74-16.94-.01-3.61-.41-7.05.52-10.99.95l-25.05,2.78c-.38-.48.03-1.63.61-1.63h2.39s47.92-6.38,47.92-6.38c1.12.75,3.63,1.36,2.07.31,1.58-1.93,5.29-1.5,6.92-.16Z"/>
      <path class="cls-46" d="M191.79,49.15l3.03,1.18c-3.69,1.82-8.06,2.72-13.1,2.7l-15.48,2.68c-1.88.33-2.79-.08-3.86-.53-1.33-.56-2.3-2.84-1.57-3.6,2.05-1.05,4.39-.24,6-.36,4.5-.88,8.83-1.22,12.98-1.01,2.8-1.26,7.78-1.78,11.28-1.9.23,0,.47.36.71.83Z"/>
      <path class="cls-15" d="M226.89,44.17c.48,1.05.12,2.07-1.08,3.05-.96,1.01-4.49.83-5.97.08-1.46,1.01-4.33,1.48-6.03.94-3.97-.44-8.06-.16-12.27.83l-.72-.85c-.49,1.16-1.74,1.33-3.74.52l-2.24.46c-.21,1.09-2.06.53-3.04-.04l-11.99,1.06c-1.94.21-1.95-.6-.02-1.24l17.42-2.41c2.76-.38,5.21-.46,7.62-.37,4.98-1.02,10-1.63,15.07-1.8,2.08-.71,5.56-1.71,7-.23Z"/>
      <path class="cls-4" d="M194.12,95.96c-3.12-.32-4.22-1.24-3.31-2.78l5.28-.61c2.97-.35,5.08,1.54,4.89,4.56-.2,3.26.3,6.46-.56,9.04-6.53,1.68-1.48-6.45-6.3-10.21Z"/>
      <path class="cls-45" d="M201.74,57.09c2.26.41,3.17,1.15,2.73,2.23-7.37.8-14.24,1.88-22.17-.58,6.44-2.2,12.99-2.43,19.44-1.65Z"/>
      <path class="cls-67" d="M230.88,63.19l.37.81c-2.95-.14-6.12-.47-9.5-.99-.57,1.44-4.23,1.28-5.83.29-.88,2.55-5.1,2.78-7.03,1.11l-16.12,2.57-1.93-.79,35.96-5.22c2.22-.29,4.18.31,4.08,2.22Z"/>
      <path class="cls-42" d="M231.84,27.1c.81.38,1.31.85.95,1.6s-1.08.68-1.82.77l-18.09,2.12c-1.93.05-1.94-.71-.08-1.41-1.01-2.46,2.13-1.71,4.01-1.03-.4-1.61,3.57-1.46,5.02-.9l.39-1.07,9.63-.09Z"/>
      <path class="cls-22" d="M167.41,33.61c-1.38,1.12-3.57.23-5.86,1.53l10.32.96,16.91-1.96,2.07.12-26.01,4.03c-2.48.35-5.33-3.2-3.85-4.56,1.66-1.53,5.02-.57,6.43-.12Z"/>
      <path class="cls-71" d="M203.09,39.17c1.7.07,2.13,1.61.24,2.02-4.09-.01-7.73,1.31-11.93,1.12l-4.93-1.38c-1.14.65-2.19.42-2.77-.45,1.46-.47,2.36-.39,3.54-.24l4.91-1.17c3.86-.31,7.2.06,10.95.1Z"/>
      <path class="cls-15" d="M210.82,30.19c.14-1.56,1.76-1.73,1.99,0l.08,1.41-22.04,2.67-2.07-.12,15.24-2.73c2.5-.39,4.61-1.21,6.8-1.22Z"/>
      <path class="cls-34" d="M195.62,19.19c-.03-1.86.7-1.91,1.35-.09,1.38,1.38,2.94,2.07,4.86,2.19,3.99.78,2.98,1.79-3.02,3.04-2.36.31-5.03.32-6.02-2.05.65-1.4.89-3.07.72-5.01,1.24-1.27,1.94-.63,2.11,1.92Z"/>
      <path class="cls-15" d="M205.82,28.18c1.85-.4,2.51-.08,1.97.94l-11.05,1.24c-4.01.45-8.24,1.42-11.89.74-.29.5-.65.52-1.09.12.65-1.42,2.51-.93,3.93-1.09,6.5-.72,12.18-2.34,18.13-1.96Z"/>
      <path class="cls-68" d="M197.79,75.08c9.4,1.06,8.67,2.18-2.2,3.37-1.52.16-2.49.1-4.26,0-1.5-.55-2.99-.96-4.48-1.23-1.19.94-2.76.64-2.07-1l3.48-.04,6.58-1.19,2.95.09Z"/>
      <path class="cls-41" d="M168.82,88.31l-3.79-.05c.05,3.74,2.92,2.23,4.61,2.68-.76,2-3.15,1.51-5.29,1.42-1.93-.09-3.51-.68-4.48-3.84,4.19-2.01,8.73-2.44,8.95-.2Z"/>
      <path class="cls-11" d="M219.83,47.29c.9.24.92.62.1,1.11l-23.06,3.14c-1.92.04-1.93-.7-.06-1.36.22-.66.88-.66,2,0-.04-1.45,1.53-1.44,1.99-.07,2.52-2.12,9.17-2.53,12.99-1.88,2.07-.3,3.98-.92,6.03-.94Z"/>
      <path class="cls-38" d="M205.83,67.25c1.92-.02,1.93.71.05,1.35l-14.44,2.22c-3.11.48-5.92.51-8.59.36l22.99-3.93Z"/>
      <path class="cls-2" d="M230.88,63.19c.47-.05.92.24.97.64.11.79-.66,1.56-1.81,1.71l-24.16,3.06-.05-1.35,5.95-.22c.54-2.22,2.88-2.74,7-1.58,3.8-.35,4.81-.73,3.03-1.13-1.95.2-1.98-.63-.07-1.31,5.13-2.48,9.36,1.9,9.14.18Z"/>
      <path class="cls-49" d="M195.58,78.45c2.22-1.94,5.24-.65,8.25-1.7-2.17-1.16-4.86,0-6.05-1.67,3.53.11,7.05-.12,11.39,1.48-4.37,1.9-8.89,1.39-13.59,1.88Z"/>
      <path class="cls-31" d="M190.81,93.18l3.31,2.78c-3.53.21-6.82.65-10.3-1.12,2.06-1.77,4.6-1.38,6.99-1.66Z"/>
      <path class="cls-43" d="M196.97,19.1l-1.35.09c-1.35-1.61-2.29-.59-2.83,3.08-1.77-3.3-.87-7.05-.9-10.97l4.86-.05.22,7.84Z"/>
      <path class="cls-20" d="M198.81,24.33c.74-1.07,2.05-1.4,4.1-1.25l-1.08-1.79c2.32.15,5.06-.86,7.57,1.64l-10.59,1.4Z"/>
      <path class="cls-17" d="M222.81,84.19l-1.03.03-5.93.94-1.04.03-1.04.03c-2.11-1.92-5.33-.75-7.9-1.04.05-.65.8-1.04,1.87-1.04h13.15c1.07,0,1.82.39,1.93,1.06Z"/>
      <path class="cls-15" d="M196.81,50.19l.06,1.36c-4.9.67-10.02,2.3-15.15,1.48l13.1-2.7c.54-.88,1.26-.92,1.99-.14Z"/>
      <path class="cls-15" d="M231.84,27.1c.14.75-.37.97-.69.94-3.46-.39-3.22-.87-9.33.22-1.03-.1-1.7-.46-2.01-1.06l-.3-.84c2.76-.4,5.54-.79,8.34-1.16l4,1.91Z"/>
      <path class="cls-11" d="M228.9,43.12c.85.86,2.22,1.3,2.92,2.89-1.74.22-2.85.62-3.79,1.32-1.04.48-1.78.45-2.22-.11-.66-.51-1.25-1.55-.43-1.95.65-.32,1.12-.67,1.51-1.09-.65-1.29.73-1.29,2.02-1.05Z"/>
      <path class="cls-38" d="M190.84,66.19c.8.09,1.64.03,1.93.79-3.1.5-6.47.02-10.09,1.03-1.93.54-4.31-.08-5.85.09,3.49-1.25,10.5-2.34,14.02-1.92Z"/>
      <path class="cls-11" d="M218.82,44.22l1.07.18c-4.89.16-10.04,2.01-15.07,1.8,3.36-1.67,9.18-1.77,14-1.98Z"/>
      <path class="cls-61" d="M228.86,84c-1.57-.89-3.71-.81-6.11-1.17,1.91-1.23,4.64-.47,6.74-.75.07-.68-.08-1.6.24-2.02.49.1,1.61-.1,2.05.65.27.47.16,2.06-.36,2.34-.62.33-1.81,1-2.56.96Z"/>
      <path class="cls-37" d="M228.9,43.12c-.77.06-1.51.77-2.02,1.05l-7,.23-1.07-.18c3.74-1.41,8.81-2.39,10.08-1.1Z"/>
      <path class="cls-48" d="M165.13,70.21c.16,1.5-1.05,2.51-2.41,2.93l-1.06.1c-.54-.46-.95-1.01-1.53-1.82-.26-.36-.62-1.34.41-1.32,1.43-.39,3.37-.89,4.59.11Z"/>
      <path class="cls-8" d="M184.78,76.22c.29.77,1.23,1.11,2.07,1,.87.24.84.57-.03.96-2.08-.12-4.02.57-6.6-.67,1.42-2.1,3.25-1.26,4.56-1.28Z"/>
      <path class="cls-16" d="M204.47,59.32l-2.73-2.23c2.45.29,4.91-.11,7.18,1.74l-4.44.48Z"/>
      <path class="cls-24" d="M183.77,31.23l1.09-.12c0,.51-.38,1.01-1.07,1.02l-7.99.07c2.13-1.73,5.35-.68,7.97-.97Z"/>
      <path class="cls-42" d="M227.84,25.19c-2.64,2.17-6.65-.11-8.03,2-.75,1.76-4.12.77-5.98.11.62,1.58-2.11,2.48-2.99.96-1.03.33-1.93.74-3.04.87-.31-.86-1.15-.89-1.97-.94,6.51-1.75,14.8-2.99,22.02-2.99Z"/>
      <path class="cls-7" d="M169.86,73.46c-2.56.45-5.71,1.94-8.2-.22l1.06-.1,7.14.31Z"/>
      <path class="cls-37" d="M225.8,47.21l2.22.11c-2.34,1.73-5.48.72-8.1,1.08l-.1-1.11,5.97-.08Z"/>
      <path class="cls-27" d="M213.77,85.22l1.04-.03c-2.18,1.68-5.36,1.3-7.95.97,1.79-1.57,4.6-.86,6.91-.94Z"/>
      <path class="cls-17" d="M205.75,86.02l-21.74,3.15c6.76-2.28,14.54-2.27,21.74-3.15Z"/>
      <polygon class="cls-54" points="179.78 48.97 179.8 50.21 166.82 51.22 179.78 48.97"/>
      <path class="cls-63" d="M194.84,74.99c-1.57,1.72-4.07,1.16-6.58,1.19,1.38-1.54,4.2-.98,6.58-1.19Z"/>
      <path class="cls-27" d="M221.78,84.22c-1.46,1.47-3.95.88-5.93.94,1.46-1.47,3.95-.89,5.93-.94Z"/>
      <path class="cls-35" d="M206.46,41.2c-2.18-.45-2.58-1.12-1.2-2.01,1.03.01,2.42-.23,3.28.23.75.41.37,1.63-.22,1.74-.39.07-1.05.04-1.86.04Z"/>
      <path class="cls-7" d="M166.87,69.24c-.35.68-1,.99-1.74.97l-4.59-.11c1.8-1.55,4.25-.63,6.33-.86Z"/>
      <path class="cls-61" d="M222.82,80.22c.74.11,1.73-.48,3.13.36-1.52,1.16-4.22,1.07-5.2-.67l2.07.31Z"/>
      <path class="cls-33" d="M191.39,42.32c-1.86-.08-3.41.1-4.93-1.38,2.05.06,4.3-.18,4.93,1.38Z"/>
      <path class="cls-33" d="M192.14,39.07c-1.4,1.07-2.97,1.4-4.91,1.17.75-1.44,2.92-1.24,4.91-1.17Z"/>
      <path class="cls-63" d="M191.33,78.45l-4.51-.27.03-.96c1.68-.23,4.09-.55,4.48,1.23Z"/>
      <polygon class="cls-72" points="205.26 39.2 206.46 41.2 203.33 41.2 203.09 39.17 205.26 39.2"/>
      <path class="cls-59" d="M460.86,156.61c3.49,47.49-33.65,86.51-79.55,86.8s-83.79-39.11-80.6-86.31c2.85-42.27,37.84-74.91,79.62-75.15,41.57-.23,77.37,31.7,80.53,74.66ZM413.62,224.16c18.41-10.17,31.11-28.12,34.81-46.52,4.62-22.93-1.15-44.79-15.66-61.06-14.64-16.43-34.06-24.7-56.11-23.44-34.85,2-62.76,30.04-64.89,64.97-1.17,19.1,4.72,36.96,17.19,50.85,22.16,24.68,57.22,30.37,84.66,15.21Z"/>
      <path class="cls-62" d="M533.85,63.71c2.65-.26,3.52.24,2.59,1.5-7.45.43-13.11,6.03-15.95,11.47-3.82,7.33-2.64,14.12.39,21.68-6.33-5.67-6.72-14.56-3.36-22.51,2.59-6.15,8.89-10.67,16.33-12.14Z"/>
      <path class="cls-53" d="M536.44,65.21c-.24-1.1-1.61-1.27-2.59-1.5,2.97-.59,5.41-.99,8.11,1.18l-5.52.32Z"/>
      <path class="cls-59" d="M465.58,10.81c-7.24.8-14.08,4.27-17.65,10.27-4.32,7.25-3.3,14.56.32,22.92-6.98-5.01-8.34-15.1-4.76-22.65,3.66-7.72,12.25-13.39,22.1-10.55Z"/>
      <path class="cls-23" d="M518.05,187.98c.79,1.99.09,2.41-1.49.91-4.95-6.78-4.35-15.82.17-22.36,4.74-6.86,13.13-9.94,21.31-7.74-7.87.97-14.24,3.98-17.94,9.47-4.13,6.13-4.31,13.09-2.05,19.72Z"/>
      <path class="cls-29" d="M516.56,188.89c.78-.1,1.13-.49,1.49-.91.55,1.63,2.92,2.49,2.71,5.32-1.92-1.07-2.96-2.71-4.2-4.41Z"/>
      <path class="cls-66" d="M606.69,125.25c1.47.67.97,1.31-1.5,1.94-5.71.19-10.18,5.34-11.97,9.21-2.83,6.15-1.23,10.98.75,17.08-6.09-4.87-6.44-12.94-3.11-19.5,2.85-5.62,9.17-8.83,15.83-8.74Z"/>
      <path class="cls-51" d="M605.19,127.19l1.5-1.94c1.82.03,3.51.24,5.26,1.71l-6.76.23Z"/>
      <path class="cls-66" d="M605.81,22.74c2.78-.32,3.65.16,2.61,1.47-4.95.3-8.5,4.29-10.2,7.27-2.89,5.08-1.76,9.75-.46,15.25-4.7-3.71-4.88-9.96-2.66-15.37,1.69-4.11,5.75-7.24,10.7-8.62Z"/>
      <path class="cls-70" d="M608.42,24.2c-.21-1.1-1.6-1.26-2.61-1.47,3-.83,5.47-.87,8.15,1.13l-5.53.34Z"/>
      <path class="cls-64" d="M221.81,64.32c1.8-.44,4.25-.4,6.06.43l-16.1,2.28c-.76-.42-1.38-1.07-3.64-1.12.02-.52.41-1.3.74-1.5,2.35-.38,4.63-.99,7.03-1.11,2,.53,3.97.87,5.9,1.02Z"/>
      <path class="cls-24" d="M216.81,29.15c-1.39.25-2.91-.04-4.01,1.03h-1.99s.02-1.92.02-1.92l2.99-.96c2.18.16,3.18.77,2.98,1.85Z"/>
      <path class="cls-12" d="M194.83,49.19c1.62-.64,4.66-1.04,3.98,1h-2c-.62,0-1.38.02-1.99.14-1.11.09-2.46-.07-3.03-1.18l3.04.04Z"/>
      <path class="cls-44" d="M213.8,48.23l-12.99,1.88c-1.97-.04-2.03-1.53,0-1.9l9.05-1.16c1.61-.21,3.32-.04,3.94,1.18Z"/>
      <path class="cls-46" d="M200.8,48.21v1.9s-1.99.07-1.99.07c-.84-1.3-2.61-.99-3.98-1,1.49-1.58,4-.72,5.98-.98Z"/>
      <path class="cls-26" d="M198.17,105.28c-.67-2.22-.35-4.44-.33-6.58.22-.34.52-.51.57-.52.64,2.54.8,5.85-.25,7.11Z"/>
      <path class="cls-38" d="M221.74,63.01l.07,1.31c-2.25.55-4.57,1.27-5.9-1.02l5.83-.29Z"/>
      <path class="cls-56" d="M219.81,27.19c.85-.01,1.69.12,2.01,1.06l-5.02.9-2.98-1.85,5.98-.11Z"/>
      <path class="cls-50" d="M195.62,19.19c-1.03-1.36-2.17-.69-1.69.85.54,1.31-.19,2.21-1.14,2.24l.03-9.95c1.14-.23,1.84-.23,2.98-.02l-.18,6.89Z"/>
    </g>
  </g>
</svg>