<?xml version="1.0" encoding="UTF-8"?>
<svg id="Capa_2" data-name="Capa 2" xmlns="http://www.w3.org/2000/svg" viewBox="0 0 1021 290.44">
  <defs>
    <style>
      .cls-1 {
        fill: #1c75a6;
      }

      .cls-2 {
        fill: #3182af;
      }

      .cls-3 {
        fill: #267baa;
      }

      .cls-4 {
        fill: #267bab;
      }

      .cls-5 {
        fill: #1f77a7;
      }

      .cls-6 {
        fill: #2f81ae;
      }

      .cls-7 {
        fill: #e5142d;
      }

      .cls-8 {
        fill: #1974a5;
      }

      .cls-9 {
        fill: #919c35;
      }

      .cls-10 {
        fill: #1d76a7;
      }

      .cls-11 {
        fill: #2178a8;
      }

      .cls-12 {
        fill: #1b74a5;
      }

      .cls-13 {
        fill: #1b74a6;
      }

      .cls-14 {
        fill: #1e76a7;
      }

      .cls-15 {
        fill: #2279a9;
      }

      .cls-16 {
        fill: #247aa9;
      }

      .cls-17 {
        fill: #1973a5;
      }

      .cls-18 {
        fill: #f28d38;
      }

      .cls-19 {
        fill: #1c74a6;
      }

      .cls-20 {
        fill: #1a74a5;
      }

      .cls-21 {
        fill: #1d75a6;
      }
    </style>
  </defs>
  <g id="Dots">
    <g>
      <path class="cls-18" d="M0,207.67v-8.67c1.87-.25,2.06-2.43,3.23-3.65,22.65-23.47,59.76-23.25,81.76.67,3.06,3.33,4.83,8.38,2.23,12.22-3.2,4.72-8.51,7.45-14.16,8.96-18.98,5.08-39.14,5.1-58.08.06-6.26-1.67-11.37-4.66-14.97-9.58Z"/>
      <path class="cls-17" d="M789,0c6.22,3.05,10.59,9.04,9.19,16.41-1.2,6.32-7.14,11.53-14.32,11.16-6.46-.33-12.5-5.07-13.51-12.24-.93-6.54,3.18-12.81,9.75-15.33h8.88Z"/>
      <polygon class="cls-17" points="624.72 145.86 566.06 145.93 566.07 200.25 631.87 200.29 631.85 216.79 546.2 216.77 546.2 64.86 628.44 64.83 628.58 81.31 566.07 81.4 566.07 129.66 624.53 129.65 624.72 145.86"/>
      <path class="cls-17" d="M451.38,216.03c-20.65,6.46-42.45,3.63-61.4-6.02l5.19-16.9c13.66,8.29,29.78,11.93,45.46,8.69,10.68-2.21,18.45-9.85,20.41-19.47,2.21-10.85-1.97-20.95-11.29-27.11-14.4-9.51-32.95-11.07-47.28-26.75-8.66-9.48-11.43-22.01-8.18-35.25,7.85-31.88,52.42-38.46,80.95-23.4l-5.38,15.68c-20.27-11.18-52.43-10.34-56.61,11.45-3.5,18.21,11.62,26.74,28.61,33.21,21.15,8.06,38.41,18.95,39.49,42.82.9,19.81-10.3,36.89-29.98,43.05Z"/>
      <path class="cls-17" d="M60.08,110.44c-10.15,8.57-23.56,7.94-33.12-.52-8.73-7.72-14.81-18.25-17.14-29.71-2.63-12.91,4-24.82,16.36-29.13,11.28-3.94,23.57-4,34.9-.2,12.1,4.07,19.2,15.42,17.01,28.24-2.06,12.05-8.4,23.21-18,31.32Z"/>
      <path class="cls-7" d="M157.94,217.5c-12.04,4.67-24.97,4.51-36.59.25-12.04-4.41-18.66-16.03-16.12-28.65,2.5-12.4,9.21-23.89,19.19-31.51,9.87-7.53,22.43-6.65,31.71,1.43,8.73,7.61,14.79,18.17,17.2,29.61,2.59,12.25-3.28,24.16-15.4,28.86Z"/>
      <path class="cls-9" d="M181.22,71.97c-21.97,25.5-61.55,25.37-83.47.38-4.17-4.75-3.95-10.92.93-14.74,16.23-12.71,63.72-12.82,81.01-.29,4.58,3.32,5.91,9.56,1.52,14.65Z"/>
      <path class="cls-9" d="M145.55,129.98c-4.54,3.13-9.86,2.36-13.71-.88-4.17-3.51-6.96-8.62-7.73-14.16-.73-5.21,2.13-10.03,6.89-11.89,5.69-2.22,12.02-2.23,17.53.44,4.26,2.06,6.71,6.55,6.08,11.28-.81,5.97-3.82,11.6-9.06,15.21Z"/>
      <path class="cls-18" d="M58.04,160.37c-3.85,9.21-22.56,9.69-27.91,1.01-5.55-9.01,4.69-25.67,14.99-24.1,9.45,1.43,16.73,13.98,12.91,23.09Z"/>
      <path class="cls-17" d="M866.65,22.74c2.08,5.93-.29,11.67-4.27,15.06s-9.78,4.1-14.94,1.76c-5.39-2.45-8.7-7.47-8.55-13.06s3.31-10.69,8.94-12.68c7.37-2.6,16.05,1,18.82,8.91Z"/>
      <path class="cls-17" d="M752.38,30.11c-9.07,2.33-16.89-4.07-17.63-11.74-.87-9.11,6.2-15.86,15.27-15.48,7.05.29,12.22,5.45,13.05,11.69.94,7.02-3.08,13.57-10.7,15.53Z"/>
      <path class="cls-17" d="M711.83,39.72c-5.92-1.49-9.52-6.04-10.42-10.61-1.16-5.89,1.2-11.35,6.2-14.38,5.63-3.42,12.02-2.89,16.55.77,5.19,4.19,6.58,11.01,3.7,16.89-2.67,5.46-9.17,9.06-16.03,7.33Z"/>
      <path class="cls-17" d="M828.35,27.85c-7.48,5.84-17.39,2.53-21.22-4.69-4.16-7.84.17-17.94,8.93-19.74,6.68-1.37,12.93,1.58,15.87,7.09,2.86,5.37,2.08,12.92-3.58,17.34Z"/>
      <path class="cls-1" d="M732.95,278.95c-.03,1.03-3.2,1.13-4.45.37l-.13-16.36c-.03-3.39-1.77-6.3-4.94-6.69-2.82-.34-6.76,1.71-6.85,5.43l-.44,17.38c-.62.98-3.73.98-4.45-.03l-.41-25.67c.49-.67,2.53-.8,3.16-.56.79.3,1.42,1.42,1.97,3.3,2.09-2.5,4.83-3.98,8.07-3.98,3.03,0,5.64,1.77,7.88,5.09,2.29-3.7,5.91-5.55,9.88-4.95s7.37,4.24,7.41,8.95l.15,18.4-4.68-.05-.2-17.5c-.04-3.39-2.4-5.79-5.44-5.83-2.5-.03-6.01,1.97-6.09,5.13l-.45,17.58Z"/>
      <path class="cls-14" d="M358.09,262.13l-14.02.17.02,13.12,15.86.15c.47,1.89.3,3-.04,4.15l-20.59-.13-.05-37.41h19.57c.74.59.87,3.12.18,3.97l-14.99.18.02,11.77,13.88.29c.93.02,1.04,3.44.14,3.74Z"/>
      <path class="cls-19" d="M128.81,279.35c-5.2,1.79-10.52.93-15.03-1.11.04-1.88.26-3.04.97-4.25,7.45,3.69,14.86,2.85,16.1-2.72.69-3.1-.64-5.89-3.79-7.39l-7.4-3.52c-3.08-1.47-4.85-4.4-5.29-7.21-.53-3.37.62-7.03,3.66-9.13,4.7-3.24,10.71-3.44,15.96-.73.75.39-.32,3.49-1.16,3.35-2.93-.48-5.61-1.54-8.84-.91-2.73.53-4.6,2.48-4.84,4.83s.87,4.85,3.34,5.98l7.48,3.43c4.04,1.85,6.09,5.49,6.03,9.53s-2.37,8.19-7.19,9.84Z"/>
      <path class="cls-10" d="M685.82,253.39c.89-.75,3.06-.79,4.7-.48l.3,26.54c-1.44.39-2.95.46-3.76-.05-.75-.47-.94-2.01-1.3-3.44-2.86,3.56-6.76,5.06-11.12,4.05-3.57-.82-6.46-4.62-6.48-9.07l-.07-17.85c1.69-.4,3.15-.39,4.73,0l.16,16.88c.03,3.5,2.38,6.17,5.53,6.32,2.55.12,6.66-1.71,6.76-4.98l.54-17.9Z"/>
      <path class="cls-10" d="M452.01,261.61l-.48,17.74c-1.53.56-3.64.64-4.72-.2l-.13-25.87c.88-.69,3.2-.7,3.63-.19s.82,1.59,1.17,3.29c2.65-3.09,6.43-4.82,10.7-4.01,3.84.73,7.23,4.53,7.26,9.22l.11,17.8c-1.8.5-3.38.47-4.81-.07l-.06-16.13c-.01-3.57-2.01-6.64-5.3-6.95-2.72-.26-7.28,1.46-7.38,5.37Z"/>
      <path class="cls-21" d="M377.31,279.37c-3.92,1.52-9.16,1.42-12.39-1.14-.54-.43.47-2.72.99-2.86,1.21-.31,10.85,4.18,11.6-2.61.6-5.45-11.67-4.58-12.09-12.42-.18-3.23,1.87-6.43,5.43-7.52s7.34-.82,10.14.96c-.05,5.88-4.36.57-8.95,2.6-1.13.5-2.61,2.31-1.66,4.3,1.93,4.03,11.34,3.41,11.81,10.87.21,3.34-1.29,6.43-4.88,7.82Z"/>
      <path class="cls-21" d="M180.06,257.46c-5.37,3.33-5.95,12.35-1.47,16.54,4.83,4.51,11.97.84,12.27,1.56.34.8.86,2.33.8,2.98-.1,1.08-9.61,3.72-15.8-.7-6.97-4.98-6.71-17.62-.08-22.6,4.97-3.74,13.09-3.59,15.52-2.02.61.4.22,1.78-.01,2.47-1.03,2.96-5.87-1.54-11.23,1.78Z"/>
      <path class="cls-21" d="M778.18,257.59c-4.92,2.97-6.07,12.89-.24,17.12,5.85,4.24,12.04-1.99,12.03,2.92,0,2.9-10.33,4.28-15.92.03-6.48-4.92-6.68-16.83-.08-22.27,6.1-5.02,18.18-3.9,15.59.62-1.26,2.2-5.91-1.74-11.39,1.57Z"/>
      <path class="cls-16" d="M95.28,278.8c-.98,1.37-3.12,1.21-4.81.54l-.03-38.81c1.57-.5,2.83-.53,4.7-.29l.14,38.56Z"/>
      <path class="cls-8" d="M512.48,278.77c-1.21,1.44-3.38,1.27-4.83.4l.2-38.31c0-1.11,3.98-1.2,4.49-.07l.13,37.99Z"/>
      <path class="cls-11" d="M202.89,279.41c-1.67.46-3,.35-4.79.18v-26.49c1.67-.42,3.15-.4,4.74-.02l.05,26.33Z"/>
      <path class="cls-3" d="M762.57,279.2c-1.65.82-3.45.69-4.85.08l.06-26.22,4.72-.21.07,26.35Z"/>
      <path class="cls-15" d="M703.69,279.25c-1.61.63-2.87.55-4.75.35l-.02-26.54c1.85-.41,3.33-.31,4.75.02v26.17Z"/>
      <path class="cls-2" d="M464.43,242.52c1.13,1.96-.15,3.83-.89,4.47-3.31,2.84-7.14-4.12-10.74,1.23-2.43-.4-1.34-3.23-.52-4.39,2.79-3.97,6.08,1.37,9.23.49.34-1.36,2.2-3.04,2.93-1.79Z"/>
      <path class="cls-6" d="M703.35,247.93c-.87,1.06-1.64,1.36-2.8,1.48-.61.06-1.81-.46-1.19-1.38l1.43-2.1c2.22-3.27,3.77-5.55,7.63-4.18l-5.08,6.19Z"/>
      <path class="cls-4" d="M759.33,242.31c1.55-.48,3.08.59,3.51,1.5.73,1.54-.03,3.61-1.48,4.2-1.59.64-3.46.05-4.1-1.7-.48-1.32.12-3.4,2.07-4Z"/>
      <path class="cls-5" d="M199.39,242.37c1.6-.79,3.08.18,3.65,1.23.88,1.63.29,3.38-1.46,4.44-1.04.63-3.11-.04-3.99-1.8-.53-1.07,0-2.97,1.8-3.86Z"/>
      <path class="cls-17" d="M1012.35,246.49c-21.94,7.39-44.77,7.99-67.63,3.8-20.17-4.17-38.89-10.49-57.29-19.79l-52.89-26.76c29.7-21.02,43.55-55.33,37.69-90.89-9.21-55.87-64.74-77.62-115.99-65.71-52.6,12.23-78.95,68.56-59.24,119.84,18.86,49.05,71.92,63.14,120.13,48.12l47.54,27.18c14.98,8.56,29.95,15.06,46.81,19.31,37.32,8.78,75.66,3.05,109.52-13.59v-3.79c-2.89-.11-5.51,1.23-8.65,2.28ZM807.21,206.63c-23.9,7.72-48.83-.72-64.97-18.85-9.06-10.19-14.7-22.01-17.7-35.42-6.95-31.12-3.27-75.73,26.58-91.16,21.4-11.06,46.93-7.06,65,8.74,11.29,9.88,18.73,22.76,22.37,37.61,8.05,32.91,4.26,87.6-31.28,99.09Z"/>
      <path class="cls-17" d="M315.05,187.99c-4.2-18.42-7.06-36.46-25.52-43.69,20.67-6.88,31.47-25.49,28.29-46.14-2.23-14.47-11.34-25.9-25.52-30.47-20.73-6.71-45.57-4.25-67.24-.98l.02,150.05,19.69.02.04-65.49,22.56.3c10.31.14,18.12,6.7,22.14,16.02,5.82,13.48,6.99,33.41,13.75,49.23l20.19-.12c-3.63-9.42-6.03-18.78-8.39-28.72ZM270.02,136.01l-25.22.3-.05-55.93c17.07-2.65,40.68-3.42,49.74,11.14,5.9,9.48,5.96,22.24-.59,31.82-5.57,8.15-14.58,12.55-23.88,12.67Z"/>
      <path class="cls-20" d="M661.71,281.22l-9.91-2.63c7.68-3.55,10.61-11.25,10.24-19.58-.43-9.86-7.08-17.47-16.62-17.54-9.31-.07-16.38,6.77-17.31,16.71-.74,8,1.49,18.1,10.06,20.58l21.93,6.32c.97.28,2.54-3.6,1.61-3.84ZM635.39,270.52c-3.24-6-3.09-13.8.33-19.68,2.23-3.83,5.87-5.38,9.76-5.33,4.02.04,7.56,2.34,9.55,6.57,2.5,5.29,2.65,11.73.05,17.49-1.99,4.43-5.83,6.64-9.61,6.76-4.09.13-7.92-1.77-10.09-5.8Z"/>
      <path class="cls-19" d="M582.06,240.24l-4.67-.04-.32,15.17c-3.49-2.83-6.9-3.81-10.83-2.76-7.86,2.11-11.19,12.27-7.68,20.77,1.69,4.1,5.36,6.51,9.01,6.86,4.2.4,7.46-1.27,9.95-4.33.35,2.29.69,3.45,1.23,3.69.57.25,1.99.22,3.45-.09l-.14-39.27ZM574.37,274.92c-2.56,1.86-7.05,2.09-9.55-.74-3.3-3.74-3.55-9.37-1.44-13.69,1.81-3.71,5.49-5.22,8.84-4.14,7.21,2.32,6.49,15.43,2.15,18.57Z"/>
      <path class="cls-19" d="M261.12,240.24c-1.85-.27-3.12-.22-4.66.24l-.37,14.86c-3.52-2.82-6.94-3.81-10.85-2.71-8.59,2.43-11.45,14.09-6.95,22.03,2.06,3.63,5.69,5.59,9.22,5.65,3.76.06,6.73-1.54,9.01-4.41.4,2.29.69,3.44,1.23,3.7.56.27,2.01.23,3.49-.08l-.13-39.26ZM253.38,274.93c-2.54,1.84-7.06,2.1-9.55-.77-3.41-3.92-3.56-9.94-1.08-14.28,1.93-3.38,5.38-4.47,8.47-3.54,7.26,2.2,6.58,15.4,2.16,18.59Z"/>
      <path class="cls-12" d="M27.02,268.98c-.79-3.09-2.3-5.22-5.1-7.49,4.86-1.49,7.21-6.01,6.61-10.55-1.21-9.17-11.53-9.96-22.74-7.91v36.06c.83.96,3.73.95,4.44-.02l.3-15.14c4.16-.92,8.78-.54,10.57,2.84,2.07,3.93,2.2,8.39,3.57,12.67l5.12.31-2.76-10.78ZM10.36,259.88l.1-13.39c3.45-1.02,7.19-1.01,10.33.7,2.73,1.48,3.44,4.33,2.92,7.01-1.02,5.27-6.64,6.33-13.35,5.68Z"/>
      <path class="cls-20" d="M319.2,240.84c0-1.11-4.33-1.15-4.36-.05l-.42,14.67c-6.01-5.28-13.92-3.91-17.7,2.32-3.16,5.21-3.12,12.22.02,17.36,2.08,3.41,5.53,5.04,8.77,5.17,3.76.15,6.79-1.45,9.02-4.4.67,2.15.95,3.26,1.43,3.58.48.32,1.81.38,3.43.02l-.2-38.67ZM311.42,275.05c-2.76,1.84-7.15,1.83-9.5-.97-3.62-4.31-3.48-10.89-.19-15.31,2.2-2.96,6.02-3.37,8.91-1.95,5.52,2.7,5.46,15.11.78,18.23Z"/>
      <path class="cls-20" d="M411.31,256.76c-2.14-3.24-5.66-4.59-8.83-4.57-3.62.03-6.77,1.57-9.03,4.23-.46-1.68-.87-2.75-1.38-3.2-.55-.5-1.84-.63-3.7-.24l.31,37.02c1.23.72,3.92.52,4.35-.19l.49-13.11c5.85,5.52,13.73,4.57,17.78-1.44,3.72-5.52,3.66-12.97.01-18.49ZM409.05,267.38c-.34,5.79-3.9,9.38-8.55,9.1-5.21-.31-7.67-5.1-7.31-10.47.23-3.31.78-6.24,3.21-8.18,2.43-1.95,6.08-2.45,9.06-.26,2.86,2.11,3.82,5.87,3.59,9.81Z"/>
      <path class="cls-19" d="M488.54,252.16c-7.08.21-12.25,5.31-12.88,12.8-.7,8.35,4.47,15.31,12.75,15.4,7.55.08,13.76-6.01,13.41-14.81-.34-8.31-6.02-13.61-13.27-13.39ZM495.51,271.96c-1.35,2.92-3.82,4.43-6.16,4.63-2.74.22-5.56-1.15-7.08-3.89-2.13-3.86-2.22-8.71-.23-12.63,1.39-2.75,3.97-4.08,6.49-4.18,2.73-.11,5.2,1.19,6.68,3.94,1.95,3.61,2.21,8,.3,12.13Z"/>
      <path class="cls-19" d="M153.54,252.16c-7.05.2-12.22,5.31-12.87,12.81-.73,8.32,4.53,15.32,12.73,15.38,7.61.06,13.79-5.95,13.44-14.81-.33-8.3-6.02-13.58-13.3-13.38ZM160.53,271.96c-1.32,2.94-3.89,4.36-6.26,4.64-2.65.32-5.46-1.21-6.99-3.93-2.16-3.83-2.2-8.69-.23-12.6,1.37-2.73,3.98-4.08,6.49-4.18,2.65-.11,5.26,1.18,6.71,3.91,1.92,3.59,2.13,8.06.28,12.17Z"/>
      <path class="cls-21" d="M814.56,262.21c-.08-4.22-2.12-8.26-6.38-9.45-4.04-1.13-9.36-.6-12.25,1.99-.92.82.89,3.25,1.6,2.68,1.91-1.52,7.16-2.41,10.02-.55,1.4.92,2.54,3.44,2.25,5.99-7.46,0-14.89,2.09-15.87,7.81-.49,2.89-.04,6.15,2.83,8.07,4.4,2.94,9.75,1.6,12.84-1.85,1.08,2.55,2.74,3.39,5.31,2.61l-.35-17.31ZM804.65,276.57c-2.52.63-4.97-.65-5.63-2.3-1.12-2.76-.15-5.56,2.57-6.72,2.65-1.13,5.37-1.47,8.14-1.15,1.31,5.21-.69,9.08-5.07,10.17Z"/>
      <path class="cls-21" d="M438.68,261.22c-.11-5.03-3.74-8.75-8.78-8.97-3.3-.15-6.86.28-9.51,2.09-1.03.7.02,3.34,1.1,2.98l2.87-.95c2.51-.83,5.1-.93,7.32.39,1.64.98,2.68,3.54,2.26,6.07-8.05.05-15.44,2.52-15.95,8.74-.22,2.78.46,5.72,3.47,7.47,4.36,2.53,9.11,1.17,12.57-2.25.7,1.32,1.15,2.4,1.83,2.69.74.33,1.85.36,3.22.04l-.4-18.3ZM431.83,275.18c-1.75,1.38-4.95,2.38-7.52.54-1.57-1.13-1.79-3.23-1.26-4.98,1.04-3.48,6.05-5.08,10.47-4.02,1.79,3.05.51,6.73-1.69,8.46Z"/>
      <path class="cls-21" d="M539.65,261.23c-.1-4.63-3.2-8.34-7.88-8.86-3.66-.4-8.22-.03-10.62,2.37-.77.77.76,3.27,1.33,2.97l2.08-1.09c2.53-1.32,5.59-1.25,8.1.17,1.63.93,2.66,3.53,2.27,6.04-8.07.09-15.44,2.45-15.97,8.74-.26,3.08.75,6.08,3.79,7.67,4.15,2.19,8.78,1.02,12.28-2.46.69,1.36,1.16,2.41,1.85,2.72.6.28,1.89.34,3.18.02l-.41-18.3ZM533.32,274.69c-1.46,1.54-4.64,2.79-7.4,1.44-1.88-.92-2.3-2.79-2.13-4.58.38-4.03,5.34-5.61,11.15-5.12.65,3.52.41,6.11-1.62,8.26Z"/>
      <path class="cls-1" d="M227.04,253.62c-4.15-2.15-9.89-2.11-13.87,1.78-5.44,5.31-5.99,15.35-.79,21.12,5.46,6.05,18.42,3.74,18.36,1.19-.02-.67-.55-2.55-1.19-2.37l-3.06.84c-3.78,1.03-7.33.47-10.06-1.84-1.61-1.36-2.88-4.14-3.01-7.18l18.44-.62c1.83-3.87-.87-10.85-4.82-12.91ZM213.71,263.47c.29-4.63,3.2-7.45,6.8-7.75,3.88-.32,7.34,2.45,7.19,7.78l-13.98-.04Z"/>
      <path class="cls-19" d="M606.88,253.67c-3.99-2.33-9.81-2.12-13.75,1.65-5.77,5.53-6.38,16.14-.3,21.79,4.99,4.64,12.53,3.54,17.81,1.52-.1-1.36-.45-3.14-1.12-3.31-.77-.19-8.02,3.31-13.22-.88-1.63-1.31-2.95-4.09-3.05-7.41l18.73-.03c.74-5.29-.71-10.78-5.1-13.35ZM593.33,263.52c.43-4.39,3.4-7.73,7.2-7.84,4.25-.12,7.12,3.28,7.06,7.85h-14.26Z"/>
      <path class="cls-13" d="M51.89,253.66c-3.96-2.33-9.83-2.1-13.74,1.66-5.81,5.58-6.25,16.08-.35,21.77,5.44,5.24,17.87,3.16,17.81.63-.14-5.46-7.64,2.13-14.28-3.29-1.6-1.3-2.96-4.05-3.03-7.4l18.72-.02c.79-5.29-.71-10.76-5.12-13.35ZM38.35,263.51c.4-4.1,3.18-7.33,6.27-7.73,4.77-.62,7.89,2.37,8.07,7.73h-14.35Z"/>
      <path class="cls-1" d="M76.9,253.07c-4.21-1.54-9.99-1.13-13.07,1.66-.95.86.91,3.27,1.68,2.63,1.85-1.54,7.19-2.3,9.96-.5,1.38.9,2.35,3.38,2.19,6-7.44.08-14.74,1.84-15.84,7.81-.54,2.93,0,6.28,2.88,8.13,4.48,2.89,9.81,1.44,12.83-1.86,1,2.69,2.82,3.35,5.27,2.55-1.34-10.97,2.29-23.43-5.9-26.42ZM72.67,276.56c-2.75.73-5.06-.4-5.97-2.77-.74-1.95-.17-4.59,2.24-5.91,2.71-1.48,5.79-1.8,8.69-1.47,1.18,5.1-.77,9.02-4.96,10.14Z"/>
      <path class="cls-1" d="M288.3,261.94c-.06-3.73-1.85-7.53-5.36-8.85-4.59-1.73-9.61-.84-13.5,1.41l.91,3.37c3.23-1.88,7.38-3.09,10.89-1.07,1.9,1.09,2.48,3.81,2.38,6.03-7.48.31-13.99,1.35-15.84,7.64-.68,2.31-.35,5.87,2.34,7.95,4.42,3.42,10.2,1.94,13.37-1.49.73,1.65,1.45,2.33,2.22,2.75.67.36,2.89.04,2.88-.7l-.27-17.04ZM278.66,276.55c-2.39.65-4.64-.18-5.73-1.97-1.09-1.77-.79-4.77,1.37-6.35,2.65-1.94,6.25-2.05,9.26-1.84,1.19,5.13-.73,9.03-4.9,10.16Z"/>
    </g>
  </g>
</svg>