<?xml version="1.0" encoding="UTF-8"?>
<svg id="Capa_2" data-name="Capa 2" xmlns="http://www.w3.org/2000/svg" viewBox="0 0 424.78 283.46">
  <defs>
    <style>
      .cls-1 {
        fill: #f6c2bf;
      }

      .cls-2 {
        fill: #f2a500;
      }

      .cls-3 {
        fill: #f19f00;
      }

      .cls-4 {
        fill: #e22b39;
      }

      .cls-5 {
        fill: #f5b000;
      }

      .cls-6 {
        fill: #00827b;
      }

      .cls-7 {
        fill: #e22c37;
      }

      .cls-8 {
        fill: #f4b3ac;
      }

      .cls-9 {
        fill: #f9d2d6;
      }

      .cls-10 {
        fill: #a5a3a1;
      }

      .cls-11 {
        fill: #00817b;
      }

      .cls-12 {
        fill: #f6c5c7;
      }

      .cls-13 {
        fill: #f6c6c7;
      }

      .cls-14 {
        fill: #f6c2c5;
      }

      .cls-15 {
        fill: #f6c5c4;
      }

      .cls-16 {
        fill: #e22e37;
      }

      .cls-17 {
        fill: #e43945;
      }

      .cls-18 {
        fill: #fff;
      }

      .cls-19 {
        fill: #f9d2d5;
      }

      .cls-20 {
        fill: #f1a000;
      }

      .cls-21 {
        fill: #f3a600;
      }

      .cls-22 {
        fill: #f3a500;
      }

      .cls-23 {
        fill: #f5b6b0;
      }

      .cls-24 {
        fill: #f5ab27;
      }

      .cls-25 {
        fill: #f3a800;
      }

      .cls-26 {
        fill: #f3a6a5;
      }

      .cls-27 {
        fill: #a5a2a1;
      }

      .cls-28 {
        fill: #f2a200;
      }

      .cls-29 {
        fill: #f6c2c3;
      }

      .cls-30 {
        fill: #e43a48;
      }

      .cls-31 {
        fill: #e33542;
      }

      .cls-32 {
        fill: #f7c6ca;
      }

      .cls-33 {
        fill: #008782;
      }

      .cls-34 {
        fill: #f3a200;
      }

      .cls-35 {
        fill: #f3a900;
      }

      .cls-36 {
        fill: #e33844;
      }

      .cls-37 {
        fill: #e2333c;
      }

      .cls-38 {
        fill: #f6c1b4;
      }

      .cls-39 {
        fill: #f6c4b7;
      }

      .cls-40 {
        fill: #f6c5c6;
      }

      .cls-41 {
        fill: #f2a400;
      }

      .cls-42 {
        fill: #f19b00;
      }

      .cls-43 {
        fill: #f4ab00;
      }

      .cls-44 {
        fill: #f3aa00;
      }

      .cls-45 {
        fill: #e22b38;
      }

      .cls-46 {
        fill: #f6c2c4;
      }

      .cls-47 {
        fill: #209dd9;
      }

      .cls-48 {
        fill: #e33742;
      }

      .cls-49 {
        fill: #f3ac00;
      }

      .cls-50 {
        fill: #f9ccc5;
      }

      .cls-51 {
        fill: #f5b9b6;
      }

      .cls-52 {
        fill: #f4a700;
      }

      .cls-53 {
        fill: #00837c;
      }

      .cls-54 {
        fill: #f6b9b5;
      }

      .cls-55 {
        fill: #a6a3a1;
      }

      .cls-56 {
        fill: #f6c3bb;
      }

      .cls-57 {
        fill: #a6a3a2;
      }

      .cls-58 {
        fill: #f5babd;
      }

      .cls-59 {
        fill: #f3afb7;
      }

      .cls-60 {
        fill: #f5b8af;
      }

      .cls-61 {
        fill: #e33740;
      }

      .cls-62 {
        fill: #00857f;
      }

      .cls-63 {
        fill: #e22b3a;
      }

      .cls-64 {
        fill: #f6c1c2;
      }

      .cls-65 {
        fill: #e22e36;
      }

      .cls-66 {
        fill: #fdd590;
      }

      .cls-67 {
        fill: #e33845;
      }

      .cls-68 {
        fill: #f4afa7;
      }

      .cls-69 {
        fill: #f3ae00;
      }

      .cls-70 {
        fill: #f3a700;
      }

      .cls-71 {
        fill: #f3ada8;
      }

      .cls-72 {
        fill: #f6c3c1;
      }
    </style>
  </defs>
  <g id="Escudos">
    <g>
      <path class="cls-66" d="M227.2,57.88c1.24.02,4.46.27,5.7.64,3.69,1.13,8.67,8.52,10.77,11.78.55.86,3.05,5.64,3.33,5.83.2.14,1.29.23,1.88.51,2.07.99,2.21,3.07,5.38,1.52.18-.23-1.44-1.06-1.7-1.34-2.46-2.69-.95-7.45,2.71-7.93,3.21-.43,4.15,1.18,5.76,3.49,1.74,2.49,6.59,9.93,7.57,12.44.84,2.15.28,3.41-1.09,5.05-.82.99-8.3,7.91-8.89,8.02-1.26.23-2.34-.34-3.25,1.26-1.21,2.13.55,4.81,3.05,4.2,1.33-.32,3.79-2.75,5.45-3.59,6.13-3.08,18.27-2.53,19.13,6.17.28,2.85.3,9.01.02,11.85-.16,1.57-1.62,4.16-2.96,4.93-1.11.64-6.32.25-7.77-.15s-3.08-2.19-4.08.14c-1.03,2.41-.95,6.12,1.95,7.06,2.51.81,2.04-.48,3.46-.8s6.26-.27,6.79,1.55c.4,1.38-.19,3.42-.17,4.73.04,2.67,1.14,8.33-1.48,10.13-1.31.91-6.95,1.54-3.91,3.94,2.11,1.66,4.51,1.86,6.3,4.41,3.11,4.43.9,13.94,1.55,19.27-.4,2.55-5.09,2.9-7.14,2.66-3.55-.42-5.28-3.97-9.38-4.18-9.07-.47-13.18,12.61-9.11,19.42l.99-2.8c1.52-1.91,5.17-1.36,5.71,1.03.84,3.73-1.48,8.19-4.3,10.52-5.73,4.71-13.19,3.42-17.9-1.98.14,8.37-8.26,13.85-15.78,9.58-.92,3.16-3.44,5.52-6.12,7.27-2.73,1.79-5.75,2.15-7.27,5.4-1.53-2.81-4.07-3.3-6.53-4.74-2.97-1.73-6.45-4.42-7.14-7.94-7.48,4.29-16.08-1.14-15.78-9.58-3.7,4.03-8.3,5.89-13.75,4.31-4.68-1.36-8.53-6.05-8.77-10.97-.18-3.72,3.23-5.41,6.02-2.91l.99,2.81c3.56-6.76.57-18.71-8.16-19.32-5.1-.35-6.5,3.68-10.58,4.1-2.24.23-6.58-.14-6.91-2.95-.31-2.69-.35-13.78.2-16.16,1.23-5.29,5.17-4.83,7.96-7.54,2.17-2.1-2.53-2.67-3.85-3.45-.69-.4-1.16-.87-1.51-1.59-1.44-3-.49-7.37-.54-10.74-.02-1.16-.79-2.48.44-3.48,1.16-.95,4.74-1.13,6.16-.86,1.3.24,1.11,1.43,3.27.99,2.88-.59,3.07-3.09,2.73-5.58-.69-5-3.16-1.71-6.02-1.37-1.64.2-5.67.34-6.88-.66-3.09-2.56-2.2-7.42-2.23-11.01-.03-2.56-.55-4.03.23-6.8,2.12-7.52,13.51-7.54,19.21-4.47,1.65.89,4.41,3.69,6.03,3.53,2.6-.26,3.66-4.71.31-5.66-.82-.23-1.35.14-1.98-.23-1.36-.81-7.67-6.81-8.73-8.19-1.11-1.45-1.35-2.91-.67-4.63.99-2.5,6.01-10.44,7.75-12.83,1.4-1.93,2.4-3.31,5.04-3.12,3.24.23,5.06,3.11,4.24,6.21-.36,1.37-1.8,2.13-2.68,3.09,2.18.78,4.95.71,6.61-1.14,1.61-1.8,3.59-6.3,5.17-8.64,1.71-2.53,6.64-9.27,9.57-9.88,1.83-.38,4.97,0,7-.05.36,0,.65-.29.68-.29,1.76-.8,3.59-.8,5.36,0,1.67.02,3.92.56,5.79.29l8.58-.58.73-.46c2.28.13,4.56.1,6.84-.1l.61.57Z"/>
      <path class="cls-11" d="M359.95,180.2h-6.48c-.16-1.37.06-2.25.72-3.4-3.86-7.57-6.83-15.61-10.63-23.2-.21-.42-.89-2.02-1.21-2.07-.25-.04-2.77.53-2.72,1.16l-7.82,25.45c-.06.55.65.58.93.95.42.56.73,2.8.02,2.8h-5.92c-.43,0-.47-1.16-.44-1.55.08-1,.85-1.34.66-2.02l-12.76-22.64-6.46,24.11c1.55.56,1.06,1.88,1.1,3.22h-6.48c-.32-1.46.44-2.21.81-3.45l-9.57-22.03c-.65-.9-2.97-.25-4.04-.46l-2.71,22.42c-.09,2.14.84.95,1.23,1.9.31.75.16,1.68.19,2.47h-6.48c.05-.76-.17-1.99.26-2.63.28-.43,1.09-.32,1.44-.6.43-.35.46-3.92.56-4.79.79-6.5,1.78-13.03,2.21-19.55-.93-.29-3.11-1.58-3-2.68.03-.32,1.65-2.92,1.97-3.66.39-.92,1.8-5.38,2.21-5.68.71-.52,5.3-.57,6.35-.44.54.06.59.03.94.47.95,1.21,1.96,4.1,2.8,5.65,1.14,2.12,3.1,2.81.76,4.89-.69.61-1.96.86-1.73,1.69l8.91,20,5.64-21.56c-1.39.1-6.28-2.01-5.88-3.6.13-.52,1.19-1.77,1.51-2.47,1.04-2.27,1.63-4.75,2.73-7l6.94-.27c1.2,1.79,1.82,3.89,2.83,5.77.37.68,2.2,3.11,2.25,3.39.21,1.28-2.99,3.35-4.17,3.48l11.69,21.41,7.43-23.31c.06-.93-2.29-.69-2.51-1.92l1.19-10.51,6.06-2.25c.86-.05,4.85,4.65,5.86,5.59,1.75,1.63,3.23,1.3,1.23,4.32-.66,1-2.86,2.23-2.73,3.08l11.82,25.97c.39.71,1.31.28,1.95.58.9.42.48,2.14.56,2.96Z"/>
      <path class="cls-11" d="M65,180.2c-.83-.26-.42-2.58.42-2.96.54-.25,1.44.05,1.72-.31l12.05-26.52c.05-.59-4.45-3.06-3.59-5.53.14-.41,1.74-1.3,2.22-1.74.92-.85,4.82-5.45,5.44-5.45.34,0,6.33,2.05,6.41,2.39.17,1.96.07,4.24.27,6.15.1.98.9,3.4.85,3.94-.14,1.42-2.52,1.35-2.54,2.24l7.05,23.27,12.11-21.28c-1.03-.36-2.14-.81-2.96-1.55-2.39-2.16-.63-2.6.47-4.6.55-1,2.89-6.26,3.33-6.53.48-.3,6.56.11,6.94.4.49.38,1.89,4.83,2.32,5.85.36.85,1.79,2.98,1.9,3.45.38,1.68-4.52,3.55-5.8,3.56l5.79,21.55,8.88-20.57c-.95-.02-2.95-1.95-3.06-2.75-.07-.52,2.19-3.7,2.65-4.57.43-.81,1.88-4.67,2.37-4.95l6.79.28,4.22,9.61c.08,1.31-1.7,2.27-2.77,2.7.35,8.12,1.93,16.18,2.48,24.32,1.92.24,2.13,1.52,1.99,3.26h-6.76c-.11-1.41-.03-3,1.66-3.13-.65-7.87-1.9-15.77-2.5-23.64l-4.2.03-9.57,22.17c.2,1.27.8,2.28.52,3.73h-6.48c-.41-1.74.66-2.42,1.12-3.77l-6.2-23.57c-.35.02-.46.4-.62.65-4.38,6.96-7.8,14.92-12.21,21.92.23,1.24.64,2.34.43,3.65h-6.06c-.86,0-.48-3.43.97-3.51l-8.07-26.02c-.33-.63-2.03-.48-2.75-.92l-11.65,25.75c.72.46,1.17,3,.35,3-1.21,0-5.12.25-5.92,0Z"/>
      <path class="cls-11" d="M109.25,141.03c-1.44-.24-.78-3.22.71-3.55l-4.31-25c-.1-1.17-1.78-1.16-2.71-1.31l-13.44,24.21c-.09.39.67.69.76,1.56.29,3.07-1.82,1.87-3.55,1.28s-3.74-.78-2.61-2.9c.87-1.63,2.34-.68,2.46-.77.08-.06.57-1.46.81-1.88,4.41-7.65,8.56-15.44,13.01-23.06-1.37-.64-3.93-3.63-3.04-5.16.05-.09,1.36-.79,1.78-1.18,1.54-1.44,3.21-3.74,4.63-4.95.37-.31.75-.66,1.27-.67.34,0,5.37,1.69,5.86,1.94.71.38.64,5.72.78,6.9.41,3.48,2.37,4.69-2.8,5.52l3.65,22.81,13.19-21.06.06-.65c-1.21.29-4.43-1.89-4.53-2.97-.03-.34,2.14-4.04,2.51-4.82.76-1.57,1.23-3.3,2.06-4.85l7,.09c.47.28,2.11,4.94,2.57,5.89.36.74,1.88,2.71,1.95,3.15.28,1.92-2.48,2.94-3.91,3.55.19,8.85,1.44,17.69,1.63,26.57,2.19.31,2.11,1.62,1.99,3.54l-6.48-.28c-.02-1.47-.31-2.85,1.43-3.27l-1.71-26.04-1.09.46-14.39,23.4c-.35.93.64,2.24.26,3.48-1.77-.2-4.09.28-5.78,0Z"/>
      <path class="cls-11" d="M338.28,134.52c.15.1.75-.27,1.17-.21.93.12,2,2.04,1.49,2.78-.18.26-5.76,2.14-6.05,1.94-.75-1.63-.4-2.38.15-3.92l-13.16-23.94c-.21-.15-2.92.41-2.78,1.26l-4.26,24.8c0,.58,1.02.59,1.3,1.52.2.65.14,1.32.12,1.98-2.15.32-4.31.32-6.48.29-.19-1.18.15-2.17.36-3.29l-14.6-23.77-.98-.29c-.7,8.64-1.27,17.36-1.85,25.94,1.82.47,1.63,1.79,1.57,3.37l-6.48.28c.03-1.63-.45-3.33,1.64-3.44.87-8.85,1.37-17.81,1.98-26.68-1.16-.17-4.26-1.92-4.13-3.24l4.59-9.21c.45-.4,5.31-.4,6.22-.29.52.06.6.03.94.47.86,1.12,1.65,3.86,2.32,5.29.36.75,2.19,3.57,2.16,3.94-.17,1.93-4.73,3.13-4.73,3.43l13.1,21.28,4.1-22.42v-.4c-5.39-.64-3.2-2.77-2.83-6.35.11-1.09-.08-2.27,0-3.37.08-.92.16-2.29.92-2.75.36-.22,4.5-1.7,4.99-1.79.45-.09.65-.2,1.13.02.94.43,3.15,3.47,4.09,4.38,2.27,2.2,5.01,2.35,1.84,6.05-.43.5-1.7,1.06-1.58,1.56l13.73,24.77Z"/>
      <path class="cls-11" d="M215.08,25.75c.09-.81-.17-1.86.06-2.62.13-.43.89-.92,1.21-1.6.54-1.15.5-2.33-.29-3.38-.07-.1-1.58-1.62-1.68-1.7-1.01-.8-1.99-1.04-3.25-.71-1.1.29-3.33,2.66-3.54,3.8-.4,2.17,1.22,2.58,1.52,3.59.23.76-.03,1.81.06,2.62h-7.75c-.2,0-1.17-1.86-3.54-1.29-.89.21-1.23,1-2.05,1-3.02,0-12.4-2.3-14.69-4.22-3.32-2.78.25-4.74,2.85-5.87,12.31-5.33,43.72-5.26,56.1-.09,10.73,4.48-.59,8.12-5.82,9.22-1.41.3-4.54.96-5.83.97-.81,0-1.07-.69-1.83-.93-2.47-.79-3.55,1.22-3.76,1.22h-7.75Z"/>
      <path class="cls-35" d="M213.95,22.09v4.79h9.44c.16,0,.92-1.1,1.27-1.26,1.99-.92,2.51,1.47,3.96,2.23.42.63.42,1.66,0,2.3-.08.12-2.04,1.99-2.18,2.04-2.34.73-2.86-1.36-3.05-1.36h-9.44v5.92h12.26c.18,0,.71-1.91,2.69-1.29.73.23,2.82,2.53,2.82,3.4,0,1.64-1.1,1.36-1.64,1.9-.3.3-.1.91-.69,1.15-2.63,1.1-2.85-1.22-3.04-1.22h-12.4v5.92h-3.66v-5.92h-12.4c-.16,0-.29,2.06-2.62,1.35-.42-.13-2.75-2.61-2.76-3.18,0-.78,2.2-3.31,2.76-3.48,1.96-.58,2.59,1.36,2.76,1.36h12.26v-5.92h-9.58c-.18,0-.28,2.15-2.84,1.28-.14-.05-2.12-1.88-2.21-2.02-.42-.66-.48-1.59-.05-2.25.09-.14,2.31-2.27,2.47-2.32,1.78-.54,2.43,1.35,2.76,1.35h9.44v-4.65c0-.21-1.95-.81-1.65-2.47.05-.3,2.05-2.58,2.33-2.77.63-.41,1.66-.42,2.3,0,.14.09,2.21,2.38,2.26,2.55.35,1.14-.45,2.31-1.57,2.55Z"/>
      <path class="cls-11" d="M126.02,99.6c-.07-1.45-.24-3.19,1.7-3.25l-2.15-18.19c-1.58-.03-3.19.2-4.73-.22l-9.77,17.54c1.59.68.75,2.27.29,3.54-.83-.28-6.04-1.86-6.12-2.38-.17-1.17,1.41-2.81,2.75-2.55l9.48-16.76c.27-.99-1.92-1.76-1.81-2.92.02-.25,2.07-3.55,2.44-4.31.63-1.32,1.21-3.65,2.04-4.72.34-.44.42-.41.94-.47.75-.09,5.72-.07,6.08.15.43.26,2.69,5.85,3.23,6.91,1.23,2.41,2.6,2.28-.15,4.63-.54.46-1.53.39-1.42,1.42l1.99,18.28c2,.27,1.74,1.63,1.7,3.28h-6.48Z"/>
      <path class="cls-6" d="M292.02,99.6c-.14-1.74.07-3.03,1.99-3.26l1.94-18.61c-.01-.72-.94-.75-1.38-1.12-3.04-2.52-1.16-2.66.18-5.42.53-1.09,2.17-5.59,2.74-6s6.55-.44,7.07.02,1.93,4.72,2.43,5.75c1.21,2.51,3.63,3.69-.02,5.95l9.61,17.29c1.52-.8,3.44,2.07,2.76,2.85-.19.21-4.77,1.73-5.34,1.87-1.11.27-1.23-1.53-1.15-2.29.1-.85.84-1.17.75-1.55l-9.48-17.18c-.28-.11-.58.28-.69.28h-4.65c-.29,5.98-1.18,11.94-1.72,17.91-.08.6.61.36,1.02.67.82.62.73,1.91.7,2.84h-6.76Z"/>
      <path class="cls-27" d="M12.15,253.2c-.06.35.09,1.61,0,1.69-.35.34-3.37-.66-3.88,2.18.6,5.43-1.36,15.48.73,20.28,2.69,6.19,13.64,4.69,14.42-3.15.31-3.12.37-13.78-.41-16.5-.24-.84-.44-1.4-1.18-1.92-1.59-1.12-4.24-.16-3.76-2.58h12.12c.15,2.37.03,1.39-1.48,1.76-.87.21-1.92.48-2.43,1.24-1.85,2.78-.43,15.27-.88,19.41-1.09,10.01-20.79,11.3-21.71-1.12-.43-5.73.35-11.97,0-17.76-.36-1.89-3.5-1.69-3.66-1.84-.1-.1.06-1.33,0-1.69h12.12Z"/>
      <path class="cls-27" d="M54.71,282.8h-10.15c-.74-2.56,2.68-.77,3.09-2.97-.24-3.82.35-8.08.02-11.84-.49-5.5-6.89-4.47-8.74-.54l.05,12.05c.53,2.36,3.69.79,3.04,3.3h-9.86c-.71-2.53,2.42-.87,2.81-2.97-.29-4.27.41-9.06.02-13.25-.29-3.13-2.68-2.23-3.1-2.68-.06-.06-.07-1.26.02-1.36.35-.43,5.52-.32,6.55-.56.93.31.16,2.32.6,3.06,1.76-1.98,4.01-3.4,6.76-3.4,9.01.02,4.65,12.54,5.84,17.85.54,2.39,3.61.65,3.04,3.3Z"/>
      <path class="cls-6" d="M91.82,182.5c1.3.12,5.96-.44,6.72.23.49.43,2.11,5.06,2.62,6.11,1.03,2.11,3.16,3.06.47,5.16-3.21,2.51-11.14,2.5-14.06-.59-1.53-1.62.04-2.37.82-3.91.57-1.11,2.76-6.78,3.42-7.01Z"/>
      <path class="cls-6" d="M302.65,183.92c.65-.2,5.03-.17,5.88-.07.37.04.52.02.83.29.59.52,1.86,4.48,2.35,5.54,1.3,2.83,3.85,4.18-.33,6.34-3.15,1.63-9.06,1.58-12.01-.49-3.19-2.24-.9-3.1.31-5.57.57-1.16,2-5.76,2.96-6.06Z"/>
      <path class="cls-6" d="M136.35,184.76c.49-.17,5.14-.15,5.89-.06.39.05.5.03.83.3.72.59,2.2,5.01,2.81,6.21.65,1.29,2.25,2.37,1.52,3.75-2.1,3.99-13.34,4.01-15.48.34-.87-1.5.84-2.86,1.47-4.19.48-1.03,2.24-6.1,2.95-6.35Z"/>
      <path class="cls-6" d="M64.77,181.1c.72-.22,6.24-.15,6.73.21s2.32,5.16,2.83,6.19c.98,1.96,2.71,2.63.82,4.56-2.9,2.95-11.61,3.07-14.4,0-1.63-1.79.67-4,1.52-5.83.46-1,1.68-4.88,2.49-5.12Z"/>
      <path class="cls-6" d="M115.77,183.91c1.3.12,5.97-.44,6.72.23.4.35,2.51,5.64,3.09,6.77.91,1.76,2.37,2.15.58,3.95-2.91,2.92-10.41,3.01-13.66.67-2.84-2.03-1.23-2.5-.15-4.63.56-1.09,2.81-6.8,3.42-7.01Z"/>
      <path class="cls-6" d="M288.6,184.76c.93,1.73,1.51,3.64,2.34,5.41.46.99,2.33,3.78,2.17,4.47-.27,1.11-2.32,2.22-3.34,2.61-2.87,1.1-7.34,1.03-10.11-.31-4.46-2.14-1.77-3.77-.35-6.78.84-1.77,1.45-3.66,2.34-5.41h6.96Z"/>
      <path class="cls-6" d="M326.59,182.5c1.3.12,5.97-.44,6.72.23.57.51,2.17,5.16,2.71,6.31.97,2.05,3,2.92.39,4.97-2.95,2.31-9.64,2.32-12.74.34-3.29-2.11-1.74-2.44-.5-4.84.56-1.1,2.8-6.79,3.42-7.01Z"/>
      <path class="cls-6" d="M364.07,191.94c-2.6,2.98-10.11,2.92-13.35,1-.67-.4-2.11-1.64-2.06-2.43l4.56-9.42c.28-.17,5.97-.16,6.58-.05.4.07.45.16.67.45.81,1.04,1.64,4.12,2.32,5.57.83,1.77,2.79,3.13,1.27,4.87Z"/>
      <path class="cls-10" d="M140.62,262.46c.28-.17.35-1.25,1.74-.8l.28,6.49c-1.93.47-1.57-1.41-2.67-2.83-3.17-4.07-9.72-1.33-7.15,2.64,1.79,2.76,9.53,2.28,10.75,7,1.57,6.04-4.5,9.35-9.74,8.05-.93-.23-2.28-1.24-2.88-1.34-.83-.15-.24.94-.42,1.13-.08.08-1.35-.06-1.69,0l-.28-7.05c.44.02,1.05-.12,1.42.13.16.1,1.2,2.52,1.82,3.26,1.71,2.06,3.79,3.07,6.47,2.24,1.54-.48,2.46-1.85,2.39-3.49-.19-4.38-10.03-3.26-11.4-8.61-1.26-4.92,2.83-7.87,7.35-7.63.79.04,3.83.93,4.03.81Z"/>
      <path class="cls-27" d="M334.02,262.22c.62,2.39-1.87,1.03-2.5,2.62l5.04,12.31,5.07-11.72c.1-1.66-2.55-1.55-2.79-1.83-.16-.19.04-1.03-.03-1.38h7.89c.3,1.63-.93,1.34-1.83,1.97-.53.36-1.1,1.11-1.42,1.68-1.95,3.42-4.06,9.18-5.62,12.99-.25.61-1.15,3.77-1.3,3.91-.13.12-1.78.14-1.97-.13l-6.96-16.94c-.29-.49-.72-1.03-1.2-1.34-1.2-.79-2.36-.18-1.96-2.13h9.58Z"/>
      <path class="cls-27" d="M77.26,262.22c.33,2.28-.92,1.38-2.19,1.9-.3.12-.45.01-.34.48l5.35,12.56,4.5-11.16c.38-2.85-3.2-1.22-2.53-3.78h7.61c.42,1.96-.81,1.23-1.96,2.13-.52.41-.83,1.09-1.19,1.63l-7.12,17.02-1.71-.48-6.85-16.83c-.72-2-3.74-1.19-3.16-3.47h9.58Z"/>
      <path class="cls-55" d="M111.08,282.8c-.69-2.52,2.53-.82,3.04-3.02-.39-3.97.82-10.15-.13-13.84-.68-2.63-2.86-1.71-3.19-2.03-.05-.05-.05-1.35,0-1.4.33-.33,5.86-.24,6.86-.54.9.3.18,2.09.6,2.79,1.64-2.12,6.94-4.9,8.34-1.29,1.8,4.65-4.95,6.14-4.39.72-1.51-.1-3.46,1.71-4.08,2.97.43,3.79-.63,9.01.06,12.62.41,2.15,4.39.31,3.6,3.01h-10.71Z"/>
      <path class="cls-57" d="M64.01,279.55c.45,2.12,3.83.84,3.1,3.24h-9.86c.06-.35-.09-1.61,0-1.69.15-.15,2.47.54,2.81-1.27-.36-4.27.5-9.36.01-13.53-.33-2.81-3.31-2.04-3.67-2.39-.05-.05-.03-1.34.01-1.39.46-.49,5.54-.09,6.61-.6.29-.06.98.22.98.45v17.19Z"/>
      <path class="cls-27" d="M153.64,261.94v16.49c0,.13.53,1.93.64,2.04.61.68,2.37.54,2.46.63s-.06,1.34,0,1.69h-9.86c.06-.35-.13-1.2.03-1.38.39-.47,2.59.33,3-1.93s.3-9.76.08-12.34c-.33-3.87-3.11-2.66-3.66-3.24-.05-.05-.06-1.34-.01-1.39.36-.36,6.25-.22,7.32-.57Z"/>
      <path class="cls-27" d="M354.31,261.94v17.05c0,.2.48,1.39.68,1.57.95.87,2.99.07,2.42,2.23h-9.86c-.63-2.24,1.62-1.21,2.47-2.04.16-.15.52-1.27.56-1.55.39-2.57.32-9.1.08-11.78-.07-.77-.25-1.76-.72-2.38-.84-1.11-2.83-1.03-2.94-1.15-.05-.05-.06-1.34,0-1.39.36-.36,6.25-.22,7.32-.57Z"/>
      <path class="cls-35" d="M214.43,229.18c-.19.13-.62-.09-.77.25-.46,1.07-.35,5.05-1.11,5.6-.32.23-.54.16-.72-.14-.39-.62-.49-4.02-.82-5.11-.21-.69-.9-.54-1.01-1.24l-.55-10.58c1.25.85,2.09,2.18,2.96,3.38.99-1.19,1.66-2.77,2.96-3.66-.59,1.5-.23,11.01-.93,11.49Z"/>
      <path class="cls-44" d="M208.8,48.08c.59-.17,6.06-.17,6.65,0,1.8.53,1.75,4.07-.23,4.44-.73.14-5.8.13-6.42-.05-1.78-.52-1.62-3.92,0-4.39Z"/>
      <path class="cls-57" d="M351.41,251.28c3.86-.85,4.54,4.85,1.57,5.52-4.03.91-4.6-4.85-1.57-5.52Z"/>
      <path class="cls-57" d="M151.03,251.28c4.26-.74,4.19,6.2-.05,5.57-2.83-.41-2.83-5.08.05-5.57Z"/>
      <path class="cls-27" d="M61.11,251.28c3.64-.8,4.44,4.83,1.28,5.53-3.71.82-4.33-4.86-1.28-5.53Z"/>
      <path class="cls-49" d="M214.8,53.94c-.1.71.27,2.6-.26,2.98-.31.22-4.51.22-4.83,0-.53-.37-.16-2.28-.26-2.98h5.36Z"/>
      <path class="cls-6" d="M221,31.96c-.16.52-1.01,3.52-1.17,3.62-.41.27-2.64-.11-3.34.04.16-.52,1.01-3.52,1.17-3.62.41-.27,2.64.11,3.34-.04Z"/>
      <path class="cls-53" d="M207.16,31.98c.14.12.73,3.15,1.16,3.63-.7-.14-2.93.23-3.34-.04-.16-.1-1.01-3.1-1.17-3.62.6.11,3.11-.18,3.35.03Z"/>
      <path class="cls-62" d="M215.08,41.82l2.54.15c-.5.65-1.25,4.73-1.44,4.9-.17.14-.79-.02-1.1.03v-5.07Z"/>
      <path class="cls-33" d="M209.16,41.82v5.07c-.8.14-.46-.19-.64-.62-.55-1.36-.96-2.89-1.34-4.31l1.98-.14Z"/>
      <path class="cls-18" d="M240.63,182.08c-19.3,19.15-46.23,15.36-62.02-5.84-16.8-22.55-16.67-58.12.29-80.55,16.84-22.26,45.16-24.35,63.95-3.13,21.07,23.79,20.49,67-2.22,89.53Z"/>
      <path class="cls-6" d="M297.51,24.33c-5.54.38-9.29,4.93-14.5,5.93,1.83-3.63,2.35-8.34-1.15-11.11-5.35-4.23-12.51.19-10.67,7,.81,3,3.36,4.78,5.62,6.64-1.42,1.04-1.86-.49-2.97-1.4-6.19-5.09-16.98-10.66-24.93-6.91-7.16,3.38-8.19,14.74-4.66,21,.36.63,2.36,3.03,2.12,3.37-3.24,1.17-6.36,2.7-9.65,3.74-4.67,1.48-14.89,4.03-19.2,1.58-.66-.38-1.35-1.79-1.59-.38-.07.4-.06,3.02.05,3.2.26.43,2.47.79,3.05.89,3.14.53,5.31-.06,8.17,0,5.86-.58,11.48-2.49,16.9-4.66,1.18-.47,4.11-2.19,5.01-2.34.82-.14,3.9,1.24,5.28,1.36,2.68.24,6.35-.77,8.79-1.92,1.54-.73,9.05-6.15,10.24-5.12-2.42,5.3,1.7,12,7.67,10.06,5.31-1.72,4.22-8.18.2-11.03-1.36-.97-3.67-.89-.97-2.42,5.45,4.37,11.1,9.62,18.45,10.17,0,1.35.48,2.77.57,4.08.06.82.18,4.2.02,4.76-.08.27-.7.2-1.01.44-.82.63-.73,1.9-.7,2.84h6.48c-.04-.79.15-1.74-.2-2.47-.36-.74-1.27-.56-1.45-1.08-.29-.82.05-3.33-.04-4.47-.12-1.44-.56-2.99-.58-4.46,11.5-5.41,10.92-28.31-4.36-27.26ZM274.99,26.86c-1.43-2.09-1.42-5.54,1.46-6.12,5.1-1.03,5.93,5.39,3.31,8.66-1.21,1.5-3.99-1.41-4.76-2.54ZM245.55,39.96c-2.09-17.93,14.32-15.04,24.3-7.67.49.37,3.41,2.5,3.01,3.04l-22.75,11.51c-2.01.31-4.36-5.19-4.55-6.89ZM271.95,42.18c-4.6.85-7.76,4.69-11.98,6.06-2.03.66-4.48,1.15-6.56.62l21.97-11.44c.67-.1,1.65,1.93,2.55,1.86.11.15-2.38,2.61-2.55,2.69-.21.09-2.7.07-3.44.21ZM280.96,51.89c-1.13,1.06-3.95.21-4.68-1.23-.64-1.26-.48-5.23,1.38-4.78,2.16.53,5.47,3.98,3.31,6.01ZM283.57,40.13c6.18-1.3,12,2.68,14.09,8.45-1.61,1.19-12.84-6.45-14.09-8.45ZM300.77,48.29c-.16-.12-1.15-2.95-1.56-3.66-2.99-5.31-8.8-8.44-14.94-7.88-2.89.26-3.78,1.9-6.06-1.27,0-.14,2.03-1.73,2.17-1.78.78-.23,1.86.05,2.73-.09,6.4-.98,13.15-9.29,19.71-5,5.25,3.44,4.46,11.9,1.54,16.67-.41.66-2.66,3.68-3.6,3.01Z"/>
      <path class="cls-6" d="M208.17,53.38c-3.45,2.87-9.26,1.77-13.4.99-5.64-1.06-11.55-3.27-16.61-5.93,6.36-5.62,5.75-19.88-2.07-23.86-7.04-3.59-17.41.99-23.28,5.29-1.46,1.07-3.09,3.55-4.82,2.93,2.27-2,4.58-3.36,5.5-6.48,1.93-6.53-4.77-11.34-10.27-7.45-3.69,2.61-3.46,7.8-1.43,11.39-.96.72-8.8-4.3-10.43-4.92-11.64-4.41-18.61,5.74-15.86,16.42,1.06,4.11,3.35,8.18,7.43,9.83-.51,3.05-.69,6.13-.85,9.22-1.38.17-2.27,2.15-1.58,3.29.33.54.74-.01.86-.01h5.36c1.01,0,.16-3.53-1.42-3.37-.25-2.88.42-5.84.74-8.72,4.67-.3,8.76-2.8,12.47-5.43.91-.65,5.59-4.75,5.97-4.75.46,0,1.52,1.07,1.27,1.42-7.77,1.96-7.84,14.02,1.71,12,3.59-.76,4.82-4.63,4.47-7.89-.21-1.95-1.72-3.06,2.1-1.54,5.5,2.2,8.38,6.69,15.55,6.46,1.69-.05,5.25-1.52,6.12-1.38.85.15,3.83,1.87,5.01,2.34,6.01,2.4,12.1,4.35,18.59,4.94,1.78-.02,3.58-.02,5.36,0,.74-.09,3.47-.6,3.82-1.12.3-.45.27-3.67-.29-3.67ZM146.8,20.75c4.18-.67,4.83,3.66,2.6,6.55-.77.99-3.07,3.33-4.23,2.27-2.42-2.22-2.57-8.15,1.63-8.82ZM127.14,48.58c1.44-3.76,4.19-6.91,8.11-8.09.77-.23,5.99-1.3,5.97-.22-.01.83-11.83,9.24-14.09,8.31ZM144.14,37.55c-.52.12-2.26-.67-3.07-.77-7.73-.92-15.09,4.02-17.02,11.53-.83.74-3.48-2.6-3.89-3.3-2.83-4.89-3.33-13.98,2.51-16.83,6.49-3.17,12.54,4.28,18.8,5.38.92.16,2.53.01,2.95.13.48.13,1.5,1.53,2.17,1.79,0,.16-2.19,2.01-2.45,2.07ZM148.5,50.63c-1.29,2.67-6.69,2.35-4.98-1.88.42-1.05,2.75-2.83,3.85-2.94,1.65-.18,1.71,3.63,1.13,4.82ZM169.29,49.16c-7.36-.23-11.17-6.62-18.1-7.23-.57-.05-1.25.33-1.87.19-.18-.04-1.88-2.44-2.45-2.69l2.54-2,21.97,11.16c-.2.54-1.61.59-2.1.57ZM174.7,46.85l-23.04-12.08c2.48-1.75,4.84-3.8,7.6-5.22,10.18-5.23,21.5-4.54,19.98,9.84-.29,2.71-1.92,6.47-4.55,7.46Z"/>
      <path class="cls-6" d="M229.45,5.88c-.8-.22-2.63-.3-3.1-.57-.24-.14-1.67-1.92-2.56-2.51-5.65-3.72-18.19-3.87-23.63.28-.66.5-1.79,2-2.29,2.22-1.07.48-3.11.44-4.58,1.06-2.2.93-4.45,3.16-4.44,5.71,0,.7.71.47,1.27.42,2.52-.23,5.36-1.05,7.94-1.36,8.48-1.04,17.1-1.24,25.6-.32,3.92.42,7.76,1.43,11.7,1.69-.09-3.62-2.64-5.72-5.92-6.62ZM225.64,8c-9.01-1.21-18.18-1.15-27.19,0v-.84c9.06-1.17,18.28-1.17,27.34,0l-.15.85Z"/>
      <path class="cls-27" d="M306.9,252.72c-16.05,1.93-15.85,29.15.49,30.64,21.34,1.94,21.22-33.25-.49-30.64ZM310.48,281.39c-9.58,1.1-10.87-9.28-10.28-16.48.38-4.66,2.91-10.03,8.11-10.5,12.84-1.17,13,25.73,2.17,26.98Z"/>
      <path class="cls-27" d="M181.82,280.82c-1.03.32-3.67-.3-3.67-1.55v-28.61l-8.74.28c.05.32-.09,1.32,0,1.41.21.21,4.79.13,4.79,2.68v7.75c-9.38-4.11-16.92,3.81-14.53,13.26,1.7,6.72,9.34,9.99,14.39,4.5l.14,2.25c1.12-.22,7.23-.18,7.58-.6.16-.19-.03-1.03.03-1.38ZM174.15,278.65c-3.09,4-8.21,2.78-9.86-1.86-1.3-3.67-.69-12.54,4.21-13.37,2.47-.42,5.4,1.07,5.72,3.73.42,3.51-.28,7.9-.06,11.5Z"/>
      <path class="cls-27" d="M262.15,280.82c-1.03.32-3.67-.3-3.67-1.55v-28.61l-8.74.28c.05.32-.09,1.32,0,1.41.16.16,3.22-.03,4.19,1.3.09.12.6,1.3.6,1.38v7.75c-10.06-4.53-17.82,5.32-13.86,14.85,2.43,5.85,9.25,7.79,13.72,2.91.38.61-.24,1.93.6,2.21.27.09,4.89-.19,5.59-.25,1.42-.12,1.78-.17,1.55-1.69ZM254.48,278.65c-1.57,2.14-3.91,2.91-6.42,2.03-5.84-2.06-5.08-16.19.77-17.26,2.54-.47,5.39,1.01,5.72,3.73.42,3.51-.28,7.9-.06,11.5Z"/>
      <path class="cls-27" d="M227.48,280.82c-1.21.39-3.67-.43-3.67-1.83v-28.33l-8.74.28c.05.32-.09,1.32,0,1.41.15.15,3.03.02,4.07,1.15.11.12.72,1.18.72,1.25v8.03c-9.14-4.03-16.38,3.42-14.53,12.7,1.4,7.02,8.79,10.54,14.39,5.34.36.55-.21,1.66.6,1.93.48.16,6.89-.28,7.12-.55.16-.19-.03-1.03.03-1.38ZM219.81,278.65c-1.43,2.18-4.26,2.97-6.62,1.94-5.63-2.46-4.73-16.13.96-17.18,2.3-.42,5.39.96,5.73,3.44.48,3.51-.33,8.16-.07,11.79Z"/>
      <path class="cls-27" d="M402.79,280.82c-1.58.39-3.67-.66-3.67-2.39v-27.76l-8.74.28c.05.32-.09,1.32,0,1.41.12.12,2.63.23,3.46.63.38.19,1.33,1.18,1.33,1.49v8.31c-9.17-3.85-15.98,3.07-14.53,12.42.86,5.5,5.96,9.63,11.51,7.53,1.24-.47,2.2-1.62,2.89-1.91.82-.35.23,1.79.42,1.97.2.2,5.05-.22,5.78-.29,1.42-.12,1.78-.18,1.55-1.69ZM395.12,278.65c-1.53,2.09-3.63,2.98-6.14,2.03-6.25-2.36-5.12-16.1.48-17.26,2.21-.46,5.3.79,5.7,3.19.58,3.45-.35,8.43-.04,12.05Z"/>
      <path class="cls-27" d="M202.93,281.13c-.34-.41-2.87.18-3.29-1.64-.45-4.12.39-8.87-.06-12.91-.74-6.53-11.48-6.19-14.22-1.82-2.56,4.08,3.74,5.53,4.07,2.08.14-1.43-1.27-2.47.41-3.23,4.27-1.94,6.56,2.2,5.81,6.03-4.03,2.29-11.75,2.13-11.87,8.21-.13,6.89,8.68,6.41,12.14,2.4.19,2.32,2.33,2.98,4.38,2.83.39-.03,2.55-.5,2.63-.6.09-.11.09-1.24,0-1.35ZM195.63,278.43c0,.51-2.06,2-2.61,2.18-2.32.77-4.93.03-5.02-2.74-.13-3.98,4.51-5.52,7.64-6.34v6.91Z"/>
      <path class="cls-27" d="M412.87,261.73c-10.96,1.59-10.93,20.54.77,21.63,14.83,1.38,15.12-23.93-.77-21.63ZM413.94,281.64c-4.15-.52-5.15-7.17-4.92-10.51.2-2.8,1.45-7.16,4.68-7.72,2.91-.5,4.67.82,5.76,3.4,1.89,4.46,1.47,15.69-5.52,14.82Z"/>
      <path class="cls-27" d="M376.72,276.88c-4.46,7.99-13.71,3.25-12.54-5.08h13.53c.42-15.18-18.93-12.91-17.75,2.11.71,9.1,11.45,12.88,16.9,5.92,1.11-1.42,1.68-1.91-.14-2.95ZM373.48,270.11h-9.3c-.19-8.61,9.85-9.55,9.3,0Z"/>
      <path class="cls-27" d="M280.51,277.2c-.07.04-.5,1.03-.77,1.35-1.44,1.69-2.61,2.46-4.95,2.39-5.05-.15-6.74-4.76-6.44-9.13h13.25v-4.09c0-.51-1.17-2.68-1.58-3.22-1.81-2.35-4.74-3.1-7.6-2.86-11.12.96-11.65,21.55,1.17,21.68,2.92.03,6.98-1.91,8.23-4.67.59-1.29-.79-1.77-1.32-1.46ZM277.65,270.11h-9.3c-.19-8.66,9.79-9.49,9.3,0Z"/>
      <path class="cls-27" d="M108.82,277.73c-.05-.06-1.29-.62-1.51-.56-.44.12-1.69,3.11-4.05,3.59-6.02,1.22-8.62-3.68-8.53-8.96h13.53c.44-5.24-1.72-9.85-7.46-10.16-12.46-.66-13.49,18.78-3.27,21.31,3.25.81,7.08.04,9.47-2.4.3-.31,1.94-2.66,1.82-2.82ZM104.03,270.11h-9.3c.12-8.67,10.2-9.51,9.3,0Z"/>
      <path class="cls-47" d="M256.51,128.91c.45,5.35.39,10.74-.28,16.07h-87.37c-.8-5.31-.66-10.72-.28-16.07h87.94Z"/>
      <path class="cls-47" d="M252.56,159.35c.53.54-3.28,8.09-3.9,9.21s-3.84,6.53-4.76,6.8h-63.16c-3.47-4.96-6.55-10.25-8.51-16.01h80.33Z"/>
      <path class="cls-47" d="M252.85,112.84h-80.61c2.13-5.57,4.71-11.2,8.65-15.73l62.82-.07c.36-.04.56.08.82.3.8.66,3.49,5.12,4.14,6.29,1.64,2.94,2.92,6.09,4.18,9.21Z"/>
      <path class="cls-37" d="M211.06,81.34c6.6-1.23,7.64,7.96,2.12,8.88-6.57,1.1-7.42-7.9-2.12-8.88Z"/>
      <path class="cls-61" d="M193.87,177.74c5.68-.92,7.66,6.8,2.81,8.73-6.44,2.56-9-7.73-2.81-8.73Z"/>
      <path class="cls-36" d="M181.2,116.57c5.41-.58,7.12,6.79,2.51,8.73-6.76,2.83-9.05-8.02-2.51-8.73Z"/>
      <path class="cls-30" d="M240.37,148.14c7.74-1.59,7.83,9.91.52,8.93-4.9-.66-4.8-8.05-.52-8.93Z"/>
      <path class="cls-17" d="M193.87,85.85c6.71-1.09,7.37,8.97,1.02,9.14-5.66.15-6.2-8.3-1.02-9.14Z"/>
      <path class="cls-31" d="M238.57,117.73c4.86-4.47,11.31,3.8,5.53,7.36-4.62,2.85-9.52-3.69-5.53-7.36Z"/>
      <path class="cls-67" d="M227.97,85.85c5.85-1.21,8,7.23,2.39,8.88-6.11,1.79-8.3-7.65-2.39-8.88Z"/>
      <path class="cls-36" d="M227.97,177.73c5-1.04,7.84,5.48,3.72,8.23-4.39,2.93-9.44-2.43-6.31-6.59.48-.63,1.82-1.48,2.58-1.64Z"/>
      <path class="cls-48" d="M211.63,182.24c3.92-.43,6.62,4.01,4.16,7.27-3.63,4.79-10.73-.45-7.48-5.22.72-1.06,2.04-1.91,3.32-2.04Z"/>
      <path class="cls-17" d="M180.62,148.14c7.64-1.41,7.44,9.75.53,8.93-4.87-.58-5.21-8.06-.53-8.93Z"/>
      <rect class="cls-35" x="210.85" y="84.66" width="2.54" height="2.26"/>
      <path class="cls-22" d="M215.64,87.2c.14.11.14.3,0,.56-.57.92-1.05,1.26-1.97,1.69h-.28v-2.26s2.25,0,2.25,0Z"/>
      <path class="cls-44" d="M208.6,84.1c.47-.94,1.07-1.88,2.25-1.97v2.09s-2.25.16-2.25.16v-.28Z"/>
      <path class="cls-69" d="M215.64,84.38c-3.09.26-1.48-.32-2.01-1.8-.17-.47-.83-.36-.81-.6,1.21-.34,2.29.86,2.82,1.83.11.23.11.42,0,.56Z"/>
      <path class="cls-44" d="M208.6,87.2h2.26s0,1.97,0,1.97c-.34.12-.71.03-1.13-.28-.68-.57-.71-.63-1.13-1.41v-.28Z"/>
      <path class="cls-60" d="M210.85,89.17c.9.25,1.52.41,2.54.28h.28c-1.73.81-2.54.61-3.95-.56.38.09.76.18,1.13.28Z"/>
      <path class="cls-15" d="M215.64,87.76c.03-.18-.04-.4,0-.56.32-1.39.36-1.41,0-2.82-.04-.16.03-.38,0-.56.81,1.49.92,2.46,0,3.95Z"/>
      <path class="cls-59" d="M208.6,84.38c-.36.97-.36,1.85,0,2.82v.28c-.86-1.64-.81-1.77,0-3.38v.28Z"/>
      <path class="cls-25" d="M193.66,183.59v-2.54s2.37,0,2.37,0c.29.04.16,2.08.16,2.54-.84.55-1.7.55-2.54,0Z"/>
      <path class="cls-7" d="M196.2,183.59c.55.74.55,1.51,0,2.25-.72.35-2.05.65-2.54,0,0-.75,0-1.5,0-2.25.84,0,1.69,0,2.54,0Z"/>
      <path class="cls-7" d="M193.38,181.05c-.07.8,0,1.71,0,2.54-.2.94-1.77.71-2.25,0-.19-.79-.39-2.06.28-2.54.1-.85,1.8-.82,1.97,0Z"/>
      <path class="cls-42" d="M193.66,178.8c.25.79-.23,1.66-.28,2.25h-1.97c-.2-.16-.2-.44,0-.85.36-.59.82-1.05,1.41-1.41.41-.2.69-.2.85,0Z"/>
      <path class="cls-69" d="M196.2,183.59c.75,0,1.5,0,2.25,0,.08,1.21-1.1,1.8-1.97,2.25h-.28c0-.75,0-1.5,0-2.25Z"/>
      <path class="cls-44" d="M197.89,179.64c.39.48.49.86.28,1.13h-1.97s0-2.25,0-2.25c.51.2,1.31.74,1.69,1.13Z"/>
      <path class="cls-49" d="M193.38,183.59v1.97c-.23.22-.6.13-1.13-.28-.38-.38-.93-1.18-1.13-1.69h2.25Z"/>
      <path class="cls-26" d="M193.38,185.56c.09.04.19.26.28.28,1.01.25,1.5.16,2.54,0h.28c-1.66.86-2.84.82-4.23-.56.36.12.78.14,1.13.28Z"/>
      <path class="cls-8" d="M197.89,179.64c.65.65.85.92,1.06,1.9.06.3.33,1.49-.21,1.48.22-.98-.29-1.54-.57-2.25-.14-.35-.17-.76-.28-1.13Z"/>
      <path class="cls-29" d="M196.2,178.51c-1-.18-1.69.09-2.54.28-.24.05-.58-.04-.85,0,1.25-.77,2-.81,3.38-.28Z"/>
      <path class="cls-40" d="M191.4,181.05c-.19.84-.46,1.54-.28,2.54-.53-1.38-.49-2.14.28-3.38-.04.27.05.61,0,.85Z"/>
      <path class="cls-2" d="M183.23,119.89c.7.88.7,1.67,0,2.54-.91.76-1.9.76-2.82,0v-2.54c.94.02,1.88,0,2.82,0Z"/>
      <path class="cls-44" d="M180.41,117.63v2.25c-.75-.02-1.5.01-2.25,0-.45-.4,1.33-2.03,1.69-2.25.25-.15.44-.15.56,0Z"/>
      <path class="cls-44" d="M185.2,119.04c.21.42.21.7,0,.85-.09.85-1.8.82-1.97,0,.01-.84-.01-1.69,0-2.54.79.46,1.46.9,1.97,1.69Z"/>
      <path class="cls-70" d="M180.41,122.43c.86.11.82,2.07,0,2.25-.22.05-.5-.05-.85-.28-.6-.49-1.32-1.12-1.41-1.97.75-.01,1.5.01,2.25,0Z"/>
      <path class="cls-35" d="M185.2,122.43c.11.34.02.72-.28,1.13-.57.68-.63.71-1.41,1.13h-.28c-.86-.11-.83-2.06,0-2.25.1-.85,1.8-.82,1.97,0Z"/>
      <path class="cls-68" d="M184.92,123.55c.08-.38.19-.75.28-1.13-.54-.3-.4-2.06,0-2.54-.06-.24.04-.58,0-.85,1.1,1.69.98,3-.28,4.51Z"/>
      <path class="cls-1" d="M180.41,124.68c.44-.58,2.31-.46,2.82,0h.28c-1.62.85-2.49.91-3.95-.28.31,0,.58.2.85.28Z"/>
      <path class="cls-50" d="M179.85,117.63c.7-.44.57-.47,1.54-.58.29-.03,1.58-.19,1.56.29-.96-.14-1.64.06-2.54.28-.16.04-.38-.03-.56,0Z"/>
      <path class="cls-45" d="M245.52,151.17c.4.99.39,1.82,0,2.82-.58.53-2.13.45-2.54-.28-.78-.82-.78-1.73,0-2.54.22-.95,2-.72,2.54,0Z"/>
      <path class="cls-25" d="M242.98,151.17c-.02.84,0,1.69,0,2.54-.88.7-1.67.7-2.54,0-.55-.83-.55-1.7,0-2.54.84-.02,1.69,0,2.54,0Z"/>
      <path class="cls-4" d="M240.44,151.17c0,.84,0,1.69,0,2.54-.08.25-.17.24-.28,0-.1.85-1.8.82-1.97,0-.54-.59-.61-1.53-.28-2.25.08-.1.14-.25.28-.28.56-.78,1.78-.91,2.25,0Z"/>
      <path class="cls-3" d="M245.52,153.99c-.18.48-.99,1.32-1.41,1.69-.4.3-.78.39-1.13.28-.86-.11-.82-2.07,0-2.25.85.01,1.76-.16,2.54.28Z"/>
      <path class="cls-34" d="M240.16,153.71c.87,0,1.08,1.96.28,2.25-.35.11-.73.01-1.13-.28-.67-.58-.71-.62-1.13-1.41-.11-.22-.11-.4,0-.56h1.97Z"/>
      <path class="cls-35" d="M245.52,151.17h-2.54c0-.4-.12-2.26.14-2.26.99.17,2.04,1.38,2.39,2.26Z"/>
      <path class="cls-44" d="M238.19,151.17l.83-1.56,1.28-.7c.26,0,.14,1.86.14,2.26-.67.02-1.69-.12-2.25,0Z"/>
      <path class="cls-38" d="M240.44,155.97c.55-.53,1.96-.47,2.54,0,.37-.11.75-.19,1.13-.28-1.48,1.3-3.31,1.28-4.79,0,.38.08.75.19,1.13.28Z"/>
      <path class="cls-72" d="M238.19,153.71c.04.16-.03.38,0,.56-.47-.88-1.07-1.83-.28-2.82-.16.86.1,1.49.28,2.25Z"/>
      <path class="cls-41" d="M193.38,89.17c-.23-.77,2.33-.65,2.44-.56,1.16.84,1.36,1.97.38,3.1-.96,0-2.41.35-2.82-.56-.7-.69-.7-1.28,0-1.97Z"/>
      <path class="cls-4" d="M193.38,89.17c0,.66,0,1.32,0,1.97,0,.19,0,.38,0,.56-.11.86-1.78.81-1.97,0-.73-.39-.6-1.8-.28-2.54.74-.55,1.51-.55,2.25,0Z"/>
      <path class="cls-21" d="M193.38,86.91c.86.11.82,2.07,0,2.25-.75,0-1.5,0-2.25,0v-.28c.43-.93.77-1.4,1.69-1.97.24-.13.43-.13.56,0Z"/>
      <path class="cls-5" d="M196.76,86.91c1.03.57.83.49,1.41,1.41.2.23.32.41,0,.56-1.18,1.78-3.82-.65-1.97-1.97.12-.12.31-.12.56,0Z"/>
      <path class="cls-44" d="M198.17,91.71c.13.34.04.71-.28,1.13-.17.19-1.5,1.35-1.69,1.13-.02-.75.02-1.51,0-2.25.64-.55,1.33-.55,1.97,0Z"/>
      <path class="cls-44" d="M193.38,91.71c-.02.75.01,1.5,0,2.25-.19.23-1.52-.94-1.69-1.13-.33-.42-.42-.79-.28-1.13h1.97Z"/>
      <path class="cls-71" d="M197.89,92.83c.08-.38.19-.75.28-1.13-.45-.58-.6-2.38,0-2.82-.04-.16.03-.38,0-.56.05.08.35.13.49.48.62,1.56.3,2.85-.77,4.03Z"/>
      <path class="cls-23" d="M191.12,89.17c-.13,1.01.03,1.64.28,2.54.11.37.19.75.28,1.13-1.21-1.33-1.33-2.29-.56-3.95v.28Z"/>
      <path class="cls-64" d="M196.76,86.91c-.18-.03-.4.04-.56,0-.41.55-2.39.52-2.82,0-.16.04-.38-.03-.56,0,1.48-.92,2.47-.81,3.95,0Z"/>
      <path class="cls-35" d="M242.98,119.89c.81.73.79,1.8,0,2.54h-2.54c-.7-.88-.7-1.67,0-2.54.13-.87,2.32-.84,2.54,0Z"/>
      <path class="cls-4" d="M242.98,117.35c0,.09,0,.19,0,.28.89.21.84,1.97,0,2.25h-2.54c-.86-.11-.82-2.07,0-2.25.64-.57,1.73-.59,2.54-.28Z"/>
      <path class="cls-4" d="M240.44,119.89c0,.84.01,1.69,0,2.54-.11.86-2.07.82-2.25,0-.02-.09-.28-.22-.28-.28-.28-.73-.27-1.72.28-2.25.12-.86,2.07-.82,2.25,0Z"/>
      <path class="cls-52" d="M245.24,122.43c.11.14.11.33,0,.56-.5.94-1.09,1.76-2.25,1.97-.01-.84.01-1.69,0-2.54.11-.86,2.07-.82,2.25,0Z"/>
      <path class="cls-52" d="M245.24,119.33c.1.21.1.4,0,.56-.11.86-2.07.82-2.25,0-.01-.73.07-1.55,0-2.25,1.3-.2,1.76.7,2.25,1.69Z"/>
      <path class="cls-52" d="M240.44,117.63v2.25h-2.25c-.12-.14-.12-.33,0-.56.58-1.08.61-1.11,1.69-1.69.23-.11.42-.11.56,0Z"/>
      <path class="cls-21" d="M240.44,122.43c-.01.84.01,1.69,0,2.54-.88-.41-1.96-1.07-2.37-1.98-.13-.29.13-.51.12-.56h2.25Z"/>
      <path class="cls-12" d="M245.24,122.99c.03-.18-.04-.41,0-.56-.52-.55-.55-2,0-2.54-.04-.16.03-.38,0-.56.82,1.64.88,2.01,0,3.66Z"/>
      <path class="cls-13" d="M242.98,117.35c-.96-.14-1.64.06-2.54.28-.16.04-.38-.03-.56,0,1-.53,2.02-1.02,3.1-.28Z"/>
      <path class="cls-46" d="M238.19,119.89c-.22.88-.34,1.29-.28,2.25-.77-1-.2-1.92.28-2.82-.03.18.04.41,0,.56Z"/>
      <path class="cls-4" d="M232.83,89.17c.21.6.4.78.31,1.57-.06.51-.4.15-.59.97-.16.86-2.08.82-2.25,0-.87-.13-.83-2.33,0-2.54.08-.25.17-.24.28,0,.17-.91,1.85-.75,2.25,0Z"/>
      <path class="cls-7" d="M230.3,86.91c.83.27,1.12,1.86.28,2.25h-.28c-.13.87-2.33.83-2.54,0,0-.09,0-.19,0-.28-.79-.64-.81-1.62,0-2.25,1.11-.34,1.95-.25,2.54.28Z"/>
      <path class="cls-35" d="M230.3,89.17v2.54c-.87.7-1.66.7-2.54,0,0-.84-.02-1.69,0-2.54h2.54Z"/>
      <path class="cls-22" d="M227.76,86.63c-.01.75.02,1.51,0,2.25l-2.25.28c-.14-.1-.14-.29,0-.56.62-1.24.9-1.58,2.25-1.97Z"/>
      <path class="cls-20" d="M231.43,87.2c.72.63,1.07,1.01,1.41,1.97h-2.25l-.28-2.25c.34-.13.72-.03,1.13.28Z"/>
      <path class="cls-43" d="M232.55,91.71s.3.1-.02.64c-.34.57-.87.95-1.39,1.33-.3.19-.58.28-.85.28-.86-.11-.82-2.07,0-2.25h2.25Z"/>
      <path class="cls-35" d="M227.76,91.71c.86.11.82,2.07,0,2.25-.23.02-.51-.07-.85-.28-.74-.54-1.36-1.07-1.69-1.97.84-.01,1.69,0,2.54,0Z"/>
      <path class="cls-51" d="M227.76,93.96c.41-.51,2.17-.58,2.54,0,.28-.09.53-.28.85-.28-1.67,1.22-2.56,1.22-4.23,0,.31,0,.58.2.85.28Z"/>
      <path class="cls-56" d="M231.43,87.2c-.38-.09-.76-.18-1.13-.28-.89-.25-1.52-.42-2.54-.28,1.7-.5,2.33-.6,3.66.56Z"/>
      <path class="cls-19" d="M225.51,89.17c-.18.77-.45,1.39-.28,2.25-.48.06-.32-1-.29-1.28.09-1.04.24-.87.58-1.54-.03.18.04.4,0,.56Z"/>
      <path class="cls-7" d="M232.83,181.05c.21.6.4.78.31,1.57-.06.51-.4.15-.59.97-.14.85-2.07.83-2.25,0-.87-.13-.83-2.33,0-2.54.19-.92,2.11-.77,2.54,0Z"/>
      <path class="cls-45" d="M230.3,178.8c.84.19.85,2.02,0,2.25-.13.87-2.33.83-2.54,0v-.28c-.86-.11-.81-1.78,0-1.97.56-.65,1.98-.67,2.54,0Z"/>
      <path class="cls-25" d="M230.3,181.05v2.54c-.87.7-1.66.7-2.54,0v-2.54h2.54Z"/>
      <path class="cls-28" d="M231.43,179.08c.72.63,1.07,1.01,1.41,1.97h-2.54v-2.25c.35-.11.73-.01,1.13.28Z"/>
      <path class="cls-28" d="M227.76,178.8v1.97l-2.25.28c-.16-.08-.16-.27,0-.56.42-.79.46-.83,1.13-1.41.4-.29.78-.39,1.13-.28Z"/>
      <path class="cls-43" d="M232.55,183.59s.3.1-.02.64c-.34.57-.87.95-1.39,1.33-.3.19-.58.28-.85.28-.86-.11-.82-2.07,0-2.25h2.25Z"/>
      <path class="cls-35" d="M227.76,183.59c.86.11.82,2.07,0,2.25-.23.02-.51-.07-.85-.28-.74-.54-1.36-1.07-1.69-1.97.84-.01,1.69,0,2.54,0Z"/>
      <path class="cls-39" d="M231.43,179.08c-.38-.09-.76-.18-1.13-.28-1.36-.39-1.22-.33-2.54,0-.38.09-.75.2-1.13.28,1.49-1.28,3.31-1.3,4.79,0Z"/>
      <path class="cls-54" d="M227.76,185.84c.41-.51,2.17-.58,2.54,0,.28-.09.53-.28.85-.28-1.67,1.22-2.56,1.22-4.23,0,.31,0,.58.2.85.28Z"/>
      <path class="cls-9" d="M225.51,181.05c-.18.77-.45,1.39-.28,2.25l-.29-1.28c-.19-.79.33-1.08.58-1.54-.03.18.04.4,0,.56Z"/>
      <path class="cls-4" d="M210.85,185.56c.87.13.83,2.33,0,2.54-.14.88-2.03.81-2.25,0-.03-.09-.27-.21-.28-.28-.31-.73-.27-1.72.28-2.25.12-.86,2.07-.82,2.25,0Z"/>
      <path class="cls-52" d="M213.95,183.3c1.08.58,1.11.61,1.69,1.69.1.21.1.4,0,.56-.11.86-2.07.82-2.25,0-.86-.11-.82-2.07,0-2.25.12-.12.31-.12.56,0Z"/>
      <path class="cls-52" d="M210.85,183.3c.86.11.82,2.07,0,2.25h-2.25c-.12-.14-.12-.33,0-.56.58-1.08.61-1.11,1.69-1.69.23-.11.42-.11.56,0Z"/>
      <path class="cls-52" d="M215.64,188.1c.11.14.11.33,0,.56-.58,1.08-.61,1.11-1.69,1.69-.21.1-.4.1-.56,0-.86-.11-.82-2.07,0-2.25.11-.86,2.07-.82,2.25,0Z"/>
      <path class="cls-21" d="M210.85,188.1c.86.11.82,2.07,0,2.25-.14.12-.33.12-.56,0-1.31-.72-1.3-.86-1.69-2.25h2.25Z"/>
      <path class="cls-14" d="M210.85,190.35c.55-.52,2-.55,2.54,0,.16-.04.38.03.56,0-1.57.84-2.08.87-3.66,0,.18.03.41-.04.56,0Z"/>
      <path class="cls-32" d="M213.95,183.3c-.18-.03-.4.04-.56,0-.53.55-1.99.52-2.54,0-.16.04-.38-.03-.56,0,1.6-.85,2.06-.85,3.66,0Z"/>
      <path class="cls-12" d="M215.64,188.66c.03-.18-.04-.41,0-.56-.52-.55-.55-2,0-2.54-.04-.16.03-.38,0-.56.85,1.6.85,2.06,0,3.66Z"/>
      <path class="cls-58" d="M208.6,185.56c-.2.81-.41,1.35-.28,2.25-.77-1-.2-1.92.28-2.82-.03.18.04.41,0,.56Z"/>
      <path class="cls-24" d="M185.49,151.17c-.72.77-1.54.78-2.25,0l-.56-.45c.76-1.56-1.5-2.03-1.68-1.13.22,1.67-.53,2.57-2.23,2.06-.25.08-.29,1.45-.05,1.56,1.95-.47,2.46.41,2.26,2.23,1.21.9,2.15.16,1.71-1.34l.56-.4c.38-.48.94-.68,1.69-.63-.19-.99,0-1.63.56-1.91.16.41.52.61.52,1.26.02,4.11-5.5,5.76-7.62,2.32-2.94-4.76,4.03-8.85,6.84-4.57.29.45.17.74.27.99Z"/>
      <path class="cls-7" d="M183.23,122.43v2.25c-1.03.42-1.8.3-2.82,0v-2.25c.94-.02,1.88,0,2.82,0Z"/>
      <path class="cls-4" d="M185.2,119.89c.1.41.31.56.31,1.27s-.2.84-.31,1.27h-1.97c0-.84-.01-1.69,0-2.54h1.97Z"/>
      <path class="cls-7" d="M242.98,153.71v2.25c-1.36.39-1.22.33-2.54,0l-.28-2.25h.28c.84,0,1.69-.01,2.54,0Z"/>
      <path class="cls-16" d="M196.2,86.91v1.97s1.97,0,1.97,0c.33,1.43.36,1.4,0,2.82-.66,0-1.32,0-1.97,0-.02-.84.02-1.7,0-2.54h-2.82s0-2.25,0-2.25c1.41-.36,1.43-.32,2.82,0Z"/>
      <path class="cls-7" d="M245.24,119.89c.31,1.3.34,1.21,0,2.54h-2.25c-.02-.84.02-1.69,0-2.54h2.25Z"/>
      <path class="cls-63" d="M230.3,91.71v2.25c-1.08.34-1.46.31-2.54,0v-2.25c.84-.01,1.69,0,2.54,0Z"/>
      <path class="cls-63" d="M230.3,183.59v2.25c-1.08.34-1.46.31-2.54,0v-2.25c.84-.01,1.69,0,2.54,0Z"/>
      <path class="cls-44" d="M213.39,185.56c.87.13.83,2.33,0,2.54-.13.87-2.33.83-2.54,0v-2.54c.13-.87,2.32-.84,2.54,0Z"/>
      <path class="cls-45" d="M215.64,185.56c.31,1.3.34,1.21,0,2.54h-2.25v-2.54h2.25Z"/>
      <path class="cls-4" d="M213.39,183.3v2.25h-2.54v-2.25c1.33-.34,1.23-.31,2.54,0Z"/>
      <path class="cls-4" d="M213.39,188.1v2.25c-1.3.31-1.21.34-2.54,0v-2.25h2.54Z"/>
      <path class="cls-65" d="M183.23,153.71c-.03.95.38,2.32-.7,2.54-3.29.64-1.71-2.14-2.11-2.54-.47-.47-2.45,1.08-2.43-1.22.02-2.49,1.92-.81,2.43-1.31.43-.43-1.25-3.55,2.78-2.22.09.74.02,1.48.03,2.22l-1.01.56c-1.82.19-1.14,1.96.69,1.42l.32.55Z"/>
      <path class="cls-4" d="M185.49,151.17v2.54c-.75.01-1.51-.02-2.25,0-.75-.82-.75-1.72,0-2.54.75.02,1.51-.01,2.25,0Z"/>
      <path class="cls-70" d="M183.23,151.17c.02.84.03,1.7,0,2.54-.45.01-2.5.12-2.54-.16v-2.38c.85.01,1.7-.02,2.54,0Z"/>
    </g>
  </g>
</svg>