<?xml version="1.0" encoding="UTF-8"?>
<svg id="Capa_2" data-name="Capa 2" xmlns="http://www.w3.org/2000/svg" viewBox="0 0 283.46 283.47">
  <defs>
    <style>
      .cls-1 {
        fill: #fbfbfb;
      }
    </style>
  </defs>
  <g id="Escudos">
    <g id="UvA">
      <rect class="cls-1" width="283.46" height="283.47"/>
      <path d="M0,0v283.47h283.46V0H0ZM108.48,28.01l11.85-11.85,21.41,21.4,21.41-21.4,11.84,11.85-21.4,21.4,21.4,21.41-11.84,11.84-21.41-21.41-21.41,21.41-11.85-11.84,21.41-21.41-21.41-21.4ZM108.48,106.79l11.85-11.85,21.41,21.4,21.41-21.4,11.84,11.85-21.4,21.4,21.4,21.42-11.84,11.84-21.41-21.41-21.41,21.41-11.85-11.84,21.41-21.42-21.41-21.4ZM174.98,259.24l-11.84,11.85-21.41-21.41-21.41,21.41-11.85-11.85,21.41-21.41-21.41-21.4,11.85-11.85,21.41,21.4,21.41-21.4,11.84,11.85-21.4,21.4,21.4,21.41ZM183.25,198.25l.03-25.81-11.62,10.92s-6.78,6.95-22.11,10.9c-15.32,3.93-26.95,3.21-33.91,1.81-6.97-1.39-13.24-3.26-17.19-5.13-3.95-1.85-10.92-5.35-17.17-15.13-3.71-5.76-3.71-20.21-3.71-20.21l.28-26.93-2.04-45.57s6.9.31,11.61.32c5.79.03,10.79-1.26,10.93-.51.23,1.4.38,63.43.38,63.43,0,0,.69,13.24,3.93,19.98,5.7,11.84,31.12,12.81,31.12,12.81,0,0,3.95.48,12.78-.22,8.81-.68,26.04-3.22,31.6-13.67,0,0,3.95-4.41,5.38-29.49,1.49-26.27-2.03-52.28-2.03-52.28l24.63-1.13s-1.67,18.57-1.71,53.43c-.03,34.84,3.19,55.29,3.19,55.29l-24.4,7.18Z"/>
    </g>
  </g>
</svg>