<?xml version="1.0" encoding="UTF-8"?>
<svg id="Capa_2" data-name="Capa 2" xmlns="http://www.w3.org/2000/svg" viewBox="0 0 89.64 89.64">
  <defs>
    <style>
      .cls-1 {
        fill: #fff;
      }

      .cls-2 {
        fill: #264d62;
      }
    </style>
  </defs>
  <g id="Home">
    <g>
      <path class="cls-2" d="M0,6.42C0,2.88,2.97,0,6.62,0h76.39c3.66,0,6.62,2.88,6.62,6.42v76.8c0,3.55-2.97,6.42-6.62,6.42H6.62c-3.66,0-6.62-2.87-6.62-6.42V6.42h0Z"/>
      <path class="cls-1" d="M27.24,75.02v-40.36h-13.41v40.36h13.42,0ZM20.54,29.15c4.68,0,7.59-3.1,7.59-6.97-.09-3.96-2.91-6.97-7.5-6.97s-7.59,3.01-7.59,6.97,2.91,6.97,7.41,6.97h.09ZM34.67,75.02h13.41v-22.53c0-1.2.09-2.41.44-3.27.97-2.41,3.18-4.91,6.88-4.91,4.85,0,6.79,3.7,6.79,9.13v21.59h13.41v-23.14c0-12.4-6.62-18.16-15.44-18.16-7.24,0-10.41,4.04-12.18,6.8h.09v-5.85h-13.41c.18,3.79,0,40.36,0,40.36h0Z"/>
    </g>
  </g>
</svg>