<?xml version="1.0" encoding="UTF-8"?>
<svg id="Capa_2" data-name="Capa 2" xmlns="http://www.w3.org/2000/svg" viewBox="0 0 52.44 52.53">
  <defs>
    <style>
      .cls-1 {
        fill: #4d4f52;
      }

      .cls-2 {
        fill: #fff;
      }

      .cls-3 {
        fill: #264d62;
      }

      .cls-4 {
        stroke: #575b5c;
      }

      .cls-4, .cls-5 {
        fill: none;
        stroke-miterlimit: 10;
      }

      .cls-5 {
        stroke: #254d62;
      }
    </style>
  </defs>
  <g id="Home">
    <g id="Mail">
      <g>
        <circle class="cls-2" cx="26.34" cy="26.54" r="25.72"/>
        <g id="Mail-2" data-name="Mail">
          <g>
            <path class="cls-5" d="M51.94,27.52c-.67,13.64-12.07,24.51-25.73,24.51S1.42,41.47.5,28.03"/>
            <path class="cls-4" d="M.5,25.01C1.17,11.36,12.57.5,26.23.5c13.47,0,24.78,10.56,25.7,24"/>
          </g>
          <g>
            <path class="cls-1" d="M43.76,20.13l-11.59,8.83,11.04,10.08c.34.31.36.83.05,1.17-.16.18-.39.27-.61.27-.2,0-.4-.07-.56-.22l-11.26-10.28-4.22,3.22c-.05.04-.11.08-.17.1-.11.05-.23.08-.35.08h0c-.12,0-.24-.03-.35-.08-.06-.03-.12-.06-.17-.11l-4.18-3.27-10.93,10.3c-.33.31-.86.3-1.17-.04-.31-.33-.3-.86.04-1.17l10.75-10.13-11.23-8.8c-.58.09-1.02.58-1.02,1.19v18.77c0,.67.54,1.21,1.21,1.21h34.4c.67,0,1.21-.54,1.21-1.21v-18.77c0-.55-.37-1.01-.87-1.15Z"/>
            <g>
              <path class="cls-3" d="M27.53,18.25c-.75-.44-1.55-.48-2.32-.11-.74.35-.95,1.04-.98,1.92.02.12.03.35.08.57.21.87.84,1.35,1.76,1.37.82.03,1.25-.32,1.56-1.22.19-.56.2-1.14.3-1.71.07-.39-.09-.64-.4-.82Z"/>
              <path class="cls-3" d="M42.34,17.78l-15.13-11.99c-.6-.49-1.47-.49-2.08,0l-14.82,12.06c-.48.39-.48,1.12,0,1.52l15.25,12.41c.36.29.87.29,1.23,0l15.55-12.48c.49-.39.49-1.14,0-1.53ZM32.09,22.07c-.58.99-1.56,1.43-2.63,1.26-.6-.1-.99-.48-1.3-.96-1.73,1.38-3.31,1.42-4.5.12-1.19-1.3-1.09-3.84.19-5.13,1.16-1.17,2.77-1.18,4.11-.01.27-.16.04-.72.61-.68.97.06.98.02.88.99-.1,1.03-.28,2.05-.26,3.09,0,.54-.01,1.12.68,1.3.58.15,1.11-.24,1.4-.97,1.15-2.96-.54-5.91-3.7-6.43-2.98-.49-5.86,1.46-6.31,4.28-.67,4.2,2.46,7.07,6.62,6.06.63-.15,1.23-.37,1.8-.66.26-.13.37-.11.46.21.27.96.29.98-.65,1.34-2.8,1.06-5.48.96-7.78-1.13-1.9-1.74-2.33-4.01-1.72-6.45.63-2.54,2.32-4.09,4.8-4.8,1.65-.47,3.29-.34,4.85.38,3.56,1.66,3.77,5.92,2.43,8.18Z"/>
            </g>
          </g>
        </g>
      </g>
    </g>
  </g>
</svg>