<?xml version="1.0" encoding="UTF-8"?>
<svg id="Capa_2" data-name="Capa 2" xmlns="http://www.w3.org/2000/svg" viewBox="0 0 52.18 52.28">
  <defs>
    <style>
      .cls-1 {
        fill: #254d62;
        stroke: #254d62;
        stroke-miterlimit: 10;
        stroke-width: .74px;
      }

      .cls-2 {
        fill: #fff;
      }

      .cls-3 {
        fill: #fdfdfc;
      }
    </style>
  </defs>
  <g id="Home">
    <g>
      <path class="cls-2" d="M26.09,51.86C11.89,51.86.37,40.35.37,26.14S11.89.42,26.09.42s25.72,11.52,25.72,25.72-11.52,25.72-25.72,25.72"/>
      <path class="cls-1" d="M25.9,51.91C11.51,51.81.35,40.07.37,26.16.32,11.88,12.02.16,26.49.37c13.76.2,25.39,11.39,25.32,25.92-.07,14.21-11.57,25.72-25.91,25.62"/>
      <path class="cls-3" d="M15.1,25.99c0-3.35,0-6.71,0-10.06,0-.38.1-.49.47-.47.7.03,1.4.03,2.1,0,.34-.01.43.09.42.43-.02,1.77,0,3.55,0,5.32,0,4.74,0,9.49-.02,14.23,0,.1,0,.19-.01.29-.09.91-.34,1.16-1.25,1.11-.49-.02-.98-.14-1.46-.2-.32-.04-.24-.28-.24-.48,0-2.32,0-4.63,0-6.95,0-1.07,0-2.14,0-3.21Z"/>
      <path class="cls-3" d="M18.6,26.13c-.02,1.09-1.01,2.05-2.08,2.02-1.07-.03-2.07-1.04-2.04-2.07.03-1.12.97-1.96,2.17-1.94,1.11.02,1.97.9,1.95,1.99Z"/>
      <path class="cls-3" d="M41.44,21.98c-1.37-3.57-4-5.72-7.81-6.31-1.47-.23-2.95-.2-4.43-.23-1.88-.05-3.76-.04-5.64-.04-.62,0-.93.31-.99.93-.02.21-.02.41-.02.62,0,2.91,0,5.81,0,8.72s0,5.81,0,8.72c0,.49-.09.98,0,1.48.1.57.34.83.91.95.45.1.89,0,1.33.02,2.9.09,5.79-.05,8.67-.44,2.35-.32,4.43-1.22,6.01-3.03,2.93-3.39,3.55-7.24,1.96-11.39ZM37.03,31.53c-1.26,1.25-2.83,1.92-4.54,2.29-1.94.42-3.89.34-5.85.17-.54-.05-.69-.52-.83-.94-.16-.48-.08-.98-.09-1.47-.01-1.79,0-3.57,0-5.36h.02c0-2.04,0-4.09,0-6.13,0-.21.01-.41.04-.62.1-.81.47-1.2,1.28-1.23,1.95-.08,3.92-.22,5.85.22,4.05.92,6.25,3.78,6.11,7.93-.07,1.94-.57,3.72-1.99,5.13Z"/>
    </g>
  </g>
</svg>