<?xml version="1.0" encoding="UTF-8"?>
<svg id="Capa_2" data-name="Capa 2" xmlns="http://www.w3.org/2000/svg" viewBox="0 0 89.64 89.64">
  <defs>
    <style>
      .cls-1 {
        fill: #fff;
      }

      .cls-2 {
        fill: #575756;
      }
    </style>
  </defs>
  <g id="Home">
    <g>
      <rect class="cls-2" width="89.64" height="89.64" rx="37.35" ry="37.35"/>
      <path class="cls-1" d="M37.29,19.43l-18.73,16.46h12.08c.88,7.88,7.18,11.21,13.66,11.73-1.23,3.15-.7,4.73,1.23,6.83-7.53.18-18.03,4.55-18.03,11.73.7,7.88,11.03,9.45,16.11,9.45,6.65.18,14.18-3.33,15.76-9.45.7-6.13-1.75-9.45-5.43-12.43-4.03-3.15-4.9-4.9-3.68-7,2.63-2.98,6.13-4.73,6.83-8.93.35-2.98-.35-4.9-1.05-7.53l7.88-6.65-.18,2.8c-.53.35-.88,1.05-.88,1.58v18.03c.35,2.28,3.85,1.93,4.03,0v-18.03c0-.53-.35-1.23-.88-1.4v-4.38l2.8-2.8h-31.51ZM47.45,44.12c-10.68,1.75-15.23-15.23-6.65-17.33,9.8-1.93,14.53,15.06,6.65,17.33ZM46.57,56.9c10.5,2.28,10.68,11.03,1.75,13.66-7.7,1.58-14.36-.7-14.18-5.25,0-4.38,6.13-8.4,12.43-8.4Z"/>
    </g>
  </g>
</svg>