<?xml version="1.0" encoding="UTF-8"?>
<svg id="Capa_2" data-name="Capa 2" xmlns="http://www.w3.org/2000/svg" viewBox="0 0 89 89.18">
  <defs>
    <style>
      .cls-1 {
        fill: #fff;
      }

      .cls-2 {
        fill: #575756;
      }
    </style>
  </defs>
  <g id="Home">
    <g>
      <path class="cls-2" d="M0,44.63C-.08,19.92,20.15-.36,45.19,0c23.8.35,43.93,19.71,43.81,44.84-.11,24.59-20.02,44.51-44.82,44.33C19.27,89-.04,68.7,0,44.63Z"/>
      <g>
        <path class="cls-1" d="M12.27,67.62c-3.07-10.68-3.97-21.9-2.63-32.97.54-4.48,1.45-8.85,2.69-13.17,6.24-.75,12.48-.58,18.66.47-2.38,6.47-3.74,13.19-4.03,20.05-.2,5.03.16,10.03,1.12,14.97.66,3.52,1.65,6.94,2.87,10.28-6.23,1.08-12.46,1.2-18.64.46l-.05-.09Z"/>
        <path class="cls-1" d="M40.03,5.54c10.78,2.68,20.96,7.51,29.87,14.21,3.61,2.7,6.94,5.68,10.06,8.92-2.47,5.78-5.73,11.1-9.74,15.93-4.41-5.3-9.55-9.84-15.35-13.51-4.25-2.69-8.77-4.88-13.53-6.51-3.38-1.19-6.83-2.04-10.34-2.66,2.18-5.93,5.19-11.39,8.93-16.37h.1Z"/>
        <path class="cls-1" d="M50.99,80.1c-3.62,1.44-7.23,2.61-11.02,3.53-3.78-5.01-6.77-10.48-8.96-16.37,8.56-1.45,16.64-4.58,23.94-9.21,5.76-3.67,10.87-8.17,15.26-13.45,4,4.84,7.26,10.15,9.73,15.93-6.88,7.19-15,13.05-23.98,17.38l-4.98,2.19Z"/>
      </g>
    </g>
  </g>
</svg>