<?xml version="1.0" encoding="UTF-8"?>
<svg id="Capa_2" data-name="Capa 2" xmlns="http://www.w3.org/2000/svg" viewBox="0 0 96.18 96.14">
  <defs>
    <style>
      .cls-1, .cls-2, .cls-3, .cls-4, .cls-5, .cls-6, .cls-7 {
        fill: none;
        stroke-miterlimit: 10;
      }

      .cls-1, .cls-3, .cls-6 {
        stroke-width: .75px;
      }

      .cls-1, .cls-5 {
        stroke: #676766;
      }

      .cls-1, .cls-6, .cls-7 {
        stroke-linecap: round;
      }

      .cls-2 {
        stroke: #254d62;
      }

      .cls-2, .cls-4 {
        stroke-width: 3px;
      }

      .cls-3 {
        stroke: #274d62;
      }

      .cls-4, .cls-6 {
        stroke: #575756;
      }

      .cls-5, .cls-7 {
        stroke-width: 2px;
      }

      .cls-7 {
        stroke: #264d62;
      }
    </style>
  </defs>
  <g id="Dots">
    <g>
      <path class="cls-4" d="M50.77,1.5c11.21.65,21.81,5.33,29.85,13.16s12.99,18.32,13.93,29.5"/>
      <path class="cls-2" d="M94.68,49.75c-.42,11.58-5.13,22.6-13.22,30.9-8.09,8.3-18.99,13.29-30.56,14"/>
      <path class="cls-4" d="M45.25,94.65c-11.33-.68-22.04-5.48-30.09-13.49C7.11,73.15,2.25,62.48,1.5,51.15"/>
      <path class="cls-2" d="M1.5,45.09c.72-11.27,5.51-21.89,13.47-29.9C22.92,7.18,33.52,2.33,44.78,1.53"/>
    </g>
    <g>
      <g>
        <rect class="cls-5" x="23.27" y="17.5" width="49.64" height="61.14" rx="1.6" ry="1.6"/>
        <g>
          <line class="cls-7" x1="31.02" y1="25.05" x2="65.04" y2="25.05"/>
          <rect class="cls-3" x="30.62" y="52.48" width="33.39" height="8.5" rx="1.95" ry="1.95"/>
        </g>
      </g>
      <line class="cls-1" x1="27.5" y1="39.95" x2="68.68" y2="39.95"/>
      <line class="cls-1" x1="27.5" y1="43.73" x2="68.68" y2="43.73"/>
      <line class="cls-1" x1="27.5" y1="47.52" x2="68.68" y2="47.52"/>
      <line class="cls-1" x1="29.81" y1="66.22" x2="66.37" y2="66.22"/>
      <line class="cls-1" x1="29.81" y1="69.58" x2="66.37" y2="69.58"/>
      <line class="cls-1" x1="29.81" y1="72.95" x2="66.37" y2="72.95"/>
      <line class="cls-6" x1="27.5" y1="32.37" x2="68.68" y2="32.37"/>
      <line class="cls-1" x1="27.5" y1="36.16" x2="68.68" y2="36.16"/>
    </g>
  </g>
</svg>