<?xml version="1.0" encoding="UTF-8"?>
<svg id="Capa_2" data-name="Capa 2" xmlns="http://www.w3.org/2000/svg" viewBox="0 0 96.18 96.14">
  <defs>
    <style>
      .cls-1, .cls-2, .cls-3, .cls-4, .cls-5, .cls-6, .cls-7 {
        stroke-miterlimit: 10;
      }

      .cls-1, .cls-3, .cls-4 {
        fill: #fff;
      }

      .cls-1, .cls-4 {
        stroke: #1e1e1c;
        stroke-width: 2px;
      }

      .cls-1, .cls-5, .cls-7 {
        stroke-linecap: round;
      }

      .cls-2 {
        stroke: #254d62;
      }

      .cls-2, .cls-5, .cls-6, .cls-7 {
        fill: none;
      }

      .cls-2, .cls-6 {
        stroke-width: 3px;
      }

      .cls-3 {
        stroke: #000;
      }

      .cls-5 {
        stroke: #fff;
      }

      .cls-6 {
        stroke: #575756;
      }

      .cls-7 {
        stroke: #010101;
      }

      .cls-8 {
        fill: #274d62;
        opacity: .75;
      }
    </style>
  </defs>
  <g id="Logos">
    <g>
      <path class="cls-6" d="M50.77,1.5c11.21.65,21.81,5.33,29.85,13.16s12.99,18.32,13.93,29.5"/>
      <path class="cls-2" d="M94.68,49.75c-.42,11.58-5.13,22.6-13.22,30.9-8.09,8.3-18.99,13.29-30.56,14"/>
      <path class="cls-6" d="M45.25,94.65c-11.33-.68-22.04-5.48-30.09-13.49C7.11,73.15,2.25,62.48,1.5,51.15"/>
      <path class="cls-2" d="M1.5,45.09c.72-11.27,5.51-21.89,13.47-29.9C22.92,7.18,33.52,2.33,44.78,1.53"/>
    </g>
  </g>
  <g id="Dots">
    <g>
      <g>
        <path class="cls-4" d="M25.79,20.21h47.06c1.42,0,2.58,1.16,2.58,2.58v55.98c0,1.42-1.16,2.58-2.58,2.58H28.37c-1.42,0-2.58-1.16-2.58-2.58V20.21h0Z"/>
        <g>
          <path class="cls-4" d="M70.39,58.24V16.38c0-.88-.71-1.59-1.59-1.59H22.34c-.88,0-1.59.71-1.59,1.59v57.96c0,.88.71,1.59,1.59,1.59h29.9c.17,0,.3-.14.3-.3v-15.06c0-.59.48-1.08,1.08-1.08h15.51c.69,0,1.26-.56,1.26-1.26Z"/>
          <rect class="cls-8" x="21.65" y="15.81" width="47.74" height="11.16" rx=".68" ry=".68"/>
          <line class="cls-1" x1="70.11" y1="59.02" x2="52.42" y2="75.88"/>
        </g>
        <line class="cls-7" x1="24.23" y1="67.13" x2="46.57" y2="67.13"/>
        <line class="cls-7" x1="24.23" y1="61.26" x2="46.57" y2="61.26"/>
        <line class="cls-7" x1="24.23" y1="55.38" x2="65.4" y2="55.38"/>
        <line class="cls-7" x1="43.31" y1="37.94" x2="65.65" y2="37.94"/>
        <line class="cls-7" x1="43.31" y1="32.06" x2="65.65" y2="32.06"/>
        <line class="cls-7" x1="43.31" y1="43.81" x2="65.65" y2="43.81"/>
        <line class="cls-7" x1="43.31" y1="49.69" x2="65.65" y2="49.69"/>
        <rect class="cls-3" x="24.23" y="32.06" width="14.76" height="19.37" rx="1.95" ry="1.95"/>
      </g>
      <line class="cls-5" x1="25.79" y1="21.4" x2="66.96" y2="21.4"/>
    </g>
  </g>
</svg>