<?xml version="1.0" encoding="UTF-8"?>
<svg id="Capa_2" data-name="Capa 2" xmlns="http://www.w3.org/2000/svg" viewBox="0 0 96.19 100.24">
  <defs>
    <style>
      .cls-1 {
        stroke: #254f64;
      }

      .cls-1, .cls-2 {
        fill: none;
        stroke-miterlimit: 10;
        stroke-width: 3px;
      }

      .cls-3 {
        fill: #fff;
      }

      .cls-4 {
        fill: #5b5f60;
      }

      .cls-5 {
        fill: #254f64;
      }

      .cls-2 {
        stroke: #575756;
      }
    </style>
  </defs>
  <g id="Logos">
    <g id="Patent">
      <g>
        <g>
          <path class="cls-2" d="M50.77,1.5c11.21.68,21.81,5.56,29.85,13.74,8.04,8.18,12.99,19.12,13.93,30.8"/>
          <path class="cls-1" d="M94.69,51.87c-.42,12.09-5.13,23.6-13.22,32.26-8.09,8.66-18.99,13.88-30.56,14.61"/>
          <path class="cls-2" d="M45.25,98.75c-11.33-.71-22.04-5.72-30.09-14.08-8.05-8.36-12.91-19.5-13.66-31.33"/>
          <path class="cls-1" d="M1.5,47.01c.72-11.76,5.51-22.86,13.47-31.22C22.92,7.43,33.52,2.36,44.78,1.54"/>
        </g>
        <g>
          <path class="cls-5" d="M80.92,72.69c-2.19,3.43-4.77,6.5-7.82,9.13-5.02,4.33-10.78,7.02-17.14,8.44-3.5.78-7.03,1.06-10.59.83-4.61-.3-9.04-1.41-13.25-3.44-1.7-.82-3.35-1.73-4.94-2.76-3.77-2.44-7.06-5.46-9.82-9.09-2.21-2.91-4.02-6.09-5.4-9.52-.13-.33-.39-.64-.16-1.1.13-.25-.41-.28-.5-.65-.21-.91-.59-1.77-.82-2.68-.55-2.21-1.06-4.43-1.33-6.71-.52-4.32-.43-8.58.37-12.86.73-3.93,2.03-7.62,3.76-11.17.18-.37.44-.53.8-.66.58-.21.77-.73.52-1.3-.14-.3.06-.48.17-.67,1.33-2.28,2.87-4.4,4.62-6.35,2.25-2.49,4.77-4.62,7.51-6.53,3.93-2.74,8.26-4.39,12.82-5.49,3.24-.79,6.53-1.12,9.85-1.01,1.37.04,2.73.15,4.09.38.4.07.7.19.94.56.33.5.8.63,1.26.18.24-.23.45-.18.71-.12,2.39.57,4.72,1.31,6.96,2.35,5.08,2.35,9.57,5.57,13.37,9.81,2.34,2.62,4.31,5.52,5.89,8.69,2.29,4.6,3.58,9.52,4.27,14.63.25,1.84.3,3.69.28,5.55-.03,1.9-.17,3.8-.46,5.68-.06.38-.1.72-.56.91-.59.24-.74.91-.3,1.41.38.42.25.81.15,1.22-.94,3.86-2.44,7.47-4.39,10.88-.12.21-.2.44-.53.26-.24-.13-.28.12-.32.3-.01.3.16.59,0,.89Z"/>
          <g>
            <path class="cls-3" d="M49.87,88.16c.68-.05,1.37-.1,2.05-.17.16-.02.44.15.47-.14.03-.34-.3-.37-.51-.38-.52-.02-1.04.01-1.56.02-3.16.07-6.33.23-9.44-.58-1.13-.3-2.26-.6-3.41-.83-.16.1-.21-.07-.3-.14-1.13-.28-2.32-.62-3.27-1.18-1.59-.93-3.25-1.72-4.79-2.75-4.84-3.22-8.76-7.37-11.78-12.52.62-.33,1.26-.43,1.88-.6,2.12-.57,4.24-1.12,6.35-1.72.54-.15.9-.03,1.21.4,1.87,2.56,4.21,4.59,6.9,6.08,3.31,1.84,6.79,3.26,10.58,3.65,1.99.2,3.97.28,5.95.07,2.61-.28,5.12-1.02,7.58-2.01,2.79-1.11,5.32-2.64,7.63-4.59,1.27-1.08,2.37-2.35,3.52-3.56.27-.28-.04-.86.49-.86.58,0,.6-.54.84-.86,2.08-2.85,3.39-6.09,4.28-9.53.13-.49.18-.99.28-1.48.11-.52.4-.61.77-.71,1.61-.44,3.22-.89,4.83-1.32.19-.05.42-.07.48-.26.2-.74.7-.62,1.18-.46.38.13.75.09,1.11-.02.55-.18.66.08.62.58-.19,2.1-.47,4.18-.87,6.25-1.12,5.84-3.69,10.93-7.25,15.52-1.49,1.92-3.21,3.59-5.01,5.19-.12.11-.22.25-.33.38-.05.24-.22.37-.39.5-4.84,3.8-10.19,6.35-16.21,7.3-.09.01-.19,0-.36.18.86-.05,1.6-.22,2.33-.4,1.43-.34,2.85-.73,4.24-1.24.27-.1.53-.21.82-.21.15.03.31.04.3.27-2.19.94-4.45,1.59-6.79,1.97-1.89.31-3.79.48-5.7.5-.12,0-.23.02-.32-.07,0-.34.25-.2.4-.22.39-.05.78.08,1.16-.08Z"/>
            <path class="cls-3" d="M41.14,75.24c-1.62-.16-3.07-.9-4.55-1.54-.58-.25-1.14-.57-1.69-.91-.13-.08-.62-.22-.13-.54.1,0,.19.05.26.11.32.16.56.45.9.57.25.08.44.29.73.27.6.4,1.32.5,1.95.85.22.15.48.19.7.34.07,0,.14.1.21.01-.07,0-.13-.02-.19-.04-.2-.1-.41-.18-.61-.27-.6-.37-1.32-.44-1.91-.84-.29-.1-.6-.19-.87-.34-.34-.11-.58-.39-.87-.57-.13-.1-.17-.28-.28-.4-1.03-.85-2.19-1.53-3.19-2.42-.96-.85-1.87-1.74-2.7-2.73-.25-.29-.35-.41.15-.53,2.38-.61,4.75-1.26,7.13-1.9,4.41-1.19,8.81-2.38,13.22-3.56,4.1-1.1,8.22-2.16,12.32-3.29,2.09-.57,4.18-1.11,6.26-1.7,1.34-.38,2.69-.71,4.04-1.06.56-.15.69.02.56.56-.34,1.44-.8,2.84-1.32,4.21-.68,1.8-1.57,3.46-2.66,5.02-.18.26-.17.27.13.48.11.08.07.54-.06.69-2.09,2.4-4.29,4.64-6.96,6.36-2.18,1.4-4.48,2.58-6.95,3.2-3.98,1-8.04,1.33-12.1.38,0-.21.16-.23.3-.27.79.11,1.59.22,2,.26-1.09-.09-2.54-.38-4.02-.78.18.11.39.07.47.26-.02.13-.08.21-.22.14Z"/>
            <path class="cls-3" d="M33.76,15.04c.34-.53.99-.43,1.43-.76.09.08.1.18.06.29-.05.09-.12.17-.21.22-.1.06-.21.07-.34.17.22,0,.36-.1.51-.17.81-.29,1.63-.57,2.42-.9,1.38-.45,2.8-.75,4.22-1.02.26-.02.53-.02.78-.11.42-.05.83-.15,1.26-.2.39-.02.79.04,1.17-.11.21-.05.42-.05.63-.05,1.49,0,2.98,0,4.47,0,.67-.04,1.32.27,2,.1.08,0,.15,0,.23.02.07.02.14.05.2.1.54.18,1.11.2,1.67.31.58.15,1.18.22,1.74.45.11.18.28.23.47.28,5.66,1.59,10.79,4.26,15.24,8.29,1.27,1.15,2.48,2.37,3.57,3.67.84,1,1.62,2.1,2.31,3.24.48.8.49.79-.39,1.05-2.49.71-4.99,1.4-7.48,2.13-.39.11-.67.1-.94-.23-1.75-2.18-3.86-3.9-6.19-5.35-2.91-1.8-6.03-3-9.37-3.57-2.95-.5-5.9-.54-8.87-.02-2.81.5-5.53,1.27-8.1,2.54-2.28,1.13-4.36,2.59-6.3,4.3-2.37,2.1-4.24,4.61-5.75,7.41-1.28,2.36-2.28,4.85-2.77,7.52-.1.56-.32.89-.89,1.05-2.7.73-5.38,1.51-8.13,2.29-.08-1.22.21-2.34.29-3.47.2-2.84,1.09-5.5,1.99-8.14.46-1.34,1.14-2.6,1.76-3.87.14-.29.19-.53.1-.82.18-.33.32-.67.53-1-.17-.01-.28.16-.45.14-.11-.04-.18-.09-.11-.22-.13-.54.36-.69.59-1.01.05-.05.11-.07.17-.07.72.09.84-.55,1.1-1,.11-.2.08-.48.33-.6.87-.87,1.51-1.94,2.33-2.86.42-.46.86-.91,1.23-1.42.09-.1.19-.17.3-.25.12-.1.23-.22.34-.34.5-.6,1.13-1.05,1.67-1.61.79-.67,1.57-1.36,2.4-1.98.74-.52,1.5-1.01,2.2-1.58.46-.27.95-.47,1.4-.78.94-.55,1.9-1.05,2.88-1.5.17-.08.68-.09.3-.55Z"/>
            <path class="cls-3" d="M66.97,32.77c-2.05.57-3.93,1.1-5.82,1.63-2.87.8-5.74,1.6-8.6,2.4-3.53.99-7.05,1.99-10.58,2.97-2.98.83-6,1.55-8.95,2.48-1.53.48-3.12.68-4.61,1.26-.23.09-.45.11-.55.39-.13.37-.47.51-.75.72-.41.31-.52-.18-.77-.31-.32-.17-.69-.03-1.03.04-.37.07-.73.2-1.09.33-.52.18-.71.05-.56-.53.56-2.18,1.36-4.26,2.44-6.22,1.49-2.7,3.37-5.06,5.68-7.04,3.23-2.77,6.87-4.69,10.97-5.65,1.65-.39,3.33-.66,5.01-.68,2.45-.03,4.9.2,7.27.89,3.63,1.05,6.94,2.75,9.8,5.33.68.61,1.33,1.25,2.13,2Z"/>
          </g>
          <g>
            <path class="cls-5" d="M60.83,85.92c-2.23.78-4.47,1.47-6.8,1.86-.14.02-.28.04-.42.08-.25.06-.47-.02-.5-.27-.05-.33.25-.28.43-.3,2.35-.35,4.64-.99,6.87-1.83,3.37-1.26,6.39-3.17,9.27-5.33.22-.17.46-.32.68-.48.06.17.11.34.17.5.08.1.08.19-.02.28-.05,0-.1,0-.16.01-.07.23-.31.31-.41.51-.14.07-.29.15-.43.22-.21.13-.38.31-.56.48-.25.1-.44.34-.71.39-.12.21-.39.25-.46.5-.27,0-.46.28-.74.26-.06.1-.12.2-.18.3-.19-.02-.33.1-.48.2-.24.07-.38.3-.6.4-.03,0-.05,0-.08-.01-.23.2-.54.25-.76.46h-.2c-.27.18-.5.45-.87.44h-.01c-.16.21-.46.25-.63.45h.02c-.22.04-.43.11-.62.23-.37.12-.71.32-1.06.49-.25.06-.51.07-.76.16Z"/>
            <path class="cls-5" d="M45.6,12.59c-.17.01-.33.02-.5.03-.39.15-.82-.06-1.21.13-.4.14-.81.18-1.23.16-.24.14-.53-.04-.76.13-1.42.34-2.85.68-4.27,1.02-.08-.07-.11-.16-.1-.27.02-.06.05-.12.1-.17l-.02.02c.89-.45,1.87-.56,2.8-.86.21-.05.44-.06.65-.13.2-.09.42-.06.63-.07.23,0,.46-.04.69-.09.12-.04.25.02.37-.06h.14c.2-.16.44-.15.68-.15.31.01.61-.05.91-.13.19-.02.38-.03.58,0,.43.03.84-.11,1.24-.24,1.22.15,2.44.03,3.66.07.25-.03.49.08.74.07.16-.01.32-.03.48.02.32.07.64.07.96.13.2.04.3.13.15.34-.66.38-1.32.01-1.97,0-1.57-.08-3.13-.1-4.7,0Z"/>
            <path class="cls-5" d="M22.37,23.61c-.04.48-.45.66-.71.97-.92,1.12-1.86,2.21-2.68,3.41-.03.04-.11.04-.17.05-.1-.07-.25,0-.33-.14-.02-.07-.01-.13.01-.19.13-.27.33-.48.47-.74l.43-.56c.21-.31.5-.56.7-.88,0-.05,0-.1.01-.16.28-.12.4-.45.69-.55.11-.28.23-.56.44-.78.33-.16.48-.55.83-.67.15,0,.25.08.3.23Z"/>
            <path class="cls-5" d="M33.76,15.04c.21-.07.37-.07.41.22.04.25-.14.26-.29.33-1.09.54-2.16,1.08-3.25,1.63-.22-.06-.34-.19-.31-.44h.03c.38-.21.72-.53,1.16-.6.09-.05.18-.1.27-.14.27-.26.64-.34.94-.55.21-.1.43-.17.64-.27.14-.04.34.08.41-.16h-.02Z"/>
            <path class="cls-5" d="M27.07,19.58c-.8.65-1.6,1.3-2.41,1.96-.23.08-.31-.07-.37-.26,0-.07.03-.14.08-.2.72-.76,1.53-1.4,2.41-1.94.21.07.35.18.29.44Z"/>
            <path class="cls-5" d="M27.07,19.58c-.1-.15-.19-.3-.29-.44.05-.04.1-.09.15-.13.14-.15.34-.23.42-.44.15-.05.3-.11.45-.16.12-.14.29-.22.41-.35.16-.09.31-.19.44-.31.16-.08.3-.21.49-.16.18.09.07.25.09.39-.61.69-1.44,1.07-2.17,1.61Z"/>
            <path class="cls-5" d="M24.36,21.22c.05.15.16.26.3.31-.57.54-1.15,1.08-1.72,1.63-.15,0-.27-.04-.34-.18-.06-.41.31-.5.49-.74.11-.27.33-.42.56-.56.26-.11.37-.48.71-.47Z"/>
            <path class="cls-5" d="M37.61,13.78c0,.1,0,.2.01.3-.81.3-1.62.6-2.42.9-.1-.08-.19-.17-.19-.32.06-.05.12-.1.18-.15.15-.19.37-.24.58-.32.14-.07.32,0,.43-.14.02-.03.04-.07.06-.1.45-.07.89-.21,1.35-.17Z"/>
            <path class="cls-5" d="M50.02,12.14c-1.04,0-2.09-.01-3.13.03-.28.01-.47-.22-.73-.19-.27.25-.55.25-.83,0,.46-.17.94-.02,1.41-.11.75.1,1.51.1,2.26,0,.48.09.98-.08,1.45.12-.11.16-.31.02-.44.14Z"/>
            <path class="cls-5" d="M40.46,12.9c-.93.36-1.89.55-2.85.75,0-.09-.05-.23.06-.26.85-.21,1.65-.68,2.57-.63.11-.03.19.03.23.13Z"/>
            <path class="cls-5" d="M55.99,13.37c-.6.08-1.15-.15-1.71-.29-.13-.26,0-.38.22-.45.22-.04.43.08.65.06.25.05.48.17.72.25.04.14.08.29.12.43Z"/>
            <path class="cls-5" d="M29.24,17.97c-.17-.09-.04-.21-.03-.32-.02-.31.26-.32.41-.47.12-.03.23-.1.35-.12.12-.09.24-.19.36-.28.1.15.21.3.31.44-.43.32-.88.62-1.4.76Z"/>
            <path class="cls-5" d="M49.87,88.16c-.48.35-1.09-.07-1.57.3-.44,0-.87,0-1.31,0,0-.08,0-.17,0-.25.96-.07,1.92-.1,2.89-.04Z"/>
            <path class="cls-5" d="M16.65,30.74c.15-.28.44-.3.84-.49-.37.58-.5,1.11-.96,1.41-.05-.11-.1-.22-.16-.34-.18-.33.12-.42.27-.58Z"/>
            <path class="cls-5" d="M23.09,22.25c0,.33-.46.41-.4.78-.03.1-.09.17-.17.23-.12.1-.27.15-.4.22-.37.07-.39.71-.89.58.55-.68,1.06-1.41,1.85-1.81Z"/>
            <path class="cls-5" d="M42.74,12.46c-.09.05-.18.09-.27.14-.24.18-.54,0-.78.14-.21,0-.43,0-.64,0-.05-.03-.07-.06-.06-.09.02-.03.03-.05.05-.05.57-.08,1.11-.47,1.71-.13Z"/>
            <path class="cls-5" d="M84.78,48.15c.27.93.08,1.88.12,2.82-.04.08-.08.08-.12,0-.04-.94.06-1.9-.14-2.83.05-.06.1-.06.14.01Z"/>
            <path class="cls-5" d="M52.27,12.58c.04-.33-.19-.23-.36-.25-.26-.04-.55.09-.79-.14.01-.1.11-.11.16-.16.57.06,1.15.11,1.72.17.02.15-.08.22-.17.29-.05.03-.1.06-.15.09-.08.04-.17.05-.26.04-.05-.01-.1-.02-.15-.04Z"/>
            <path class="cls-5" d="M44.17,88.16h1.5c-.49.46-1,.13-1.5.13-.05-.03-.07-.06-.05-.09.02-.03.03-.04.05-.04Z"/>
            <path class="cls-5" d="M61.55,85.64c.35-.21.71-.38,1.11-.47.15-.08.18,0,.17.14-.34.29-.77.35-1.15.52-.12,0-.17-.07-.13-.19Z"/>
            <path class="cls-5" d="M13.58,37.21c-.13.51-.15,1.07-.54,1.48.12-.52.19-1.05.54-1.48Z"/>
            <path class="cls-5" d="M37.61,13.78c-.43.22-.88.33-1.35.17.43-.24.85-.53,1.37-.31-.01.04-.02.09-.02.14Z"/>
            <path class="cls-5" d="M49.01,11.88c-.75.2-1.51.21-2.26,0,.75,0,1.51,0,2.26,0Z"/>
            <path class="cls-5" d="M44.98,12.29c-.18.02-.35.03-.53.05-.06.03-.12.04-.18,0-.15-.05-.33-.02-.42-.21.46-.12.91-.28,1.36.02-.05.08-.14.11-.23.13Z"/>
            <path class="cls-5" d="M44.98,12.29c.08-.04.15-.09.23-.13.04-.06.08-.11.12-.17.28,0,.55,0,.83,0-.27.62-.78.23-1.18.31Z"/>
            <path class="cls-5" d="M31.52,16.17c-.36.26-.73.51-1.16.6.35-.28.58-.81,1.16-.6Z"/>
            <path class="cls-5" d="M29.64,17.22c-.02.28-.34.23-.43.43-.19.08-.37.16-.56.23-.06-.07-.06-.13,0-.19.17-.25.42-.37.67-.51.11-.03.22-.05.32.04Z"/>
            <path class="cls-5" d="M55.86,12.94c-.25.22-.41,0-.59-.14-.04-.04-.06-.08-.04-.11.02-.04.03-.05.05-.05.43.03.86.09,1.31.29-.28.23-.51-.12-.73.01Z"/>
            <path class="cls-5" d="M44.17,88.16s0,.09,0,.13c-.39,0-.77,0-1.14-.16-.03-.03-.04-.06-.03-.09.01-.03.02-.04.03-.04.38.04.78-.06,1.14.16Z"/>
            <path class="cls-5" d="M11.93,43.49c.03-.37-.04-.77.27-1.21.03.53-.06.88-.27,1.21Z"/>
            <path class="cls-5" d="M48.73,24.03h-1.73c.58-.17,1.15-.12,1.73-.09,0,.03,0,.06,0,.09Z"/>
            <path class="cls-5" d="M41.03,87.58c.32.18.72,0,1.03.26-.01.09-.1.1-.15.14-.4-.02-.8-.09-1.17-.26.07-.12.21-.05.3-.14Z"/>
            <path class="cls-5" d="M53.31,12.25c.33.03.68.01.98.2.06.07.06.14,0,.2-.41.3-.76.28-1.04-.19-.02-.08,0-.15.06-.21Z"/>
            <path class="cls-5" d="M44.59,24.09c.39,0,.79.05,1.16-.14.06.03.15.04.16.13-.39.09-.79.17-1.18.26-.08-.07-.2-.11-.14-.26Z"/>
            <path class="cls-5" d="M15.27,29.4c.29-.18.55-.13.86-.12q-.37.29-.86.12Z"/>
            <path class="cls-5" d="M57.63,13.34c-.29-.07-.57-.14-.98-.25.5-.35.71.13,1.03.02-.02.08-.04.15-.05.23Z"/>
            <path class="cls-5" d="M84.39,55.2c-.06-.33-.1-.61.15-1.05.13.47.15.75-.15,1.05Z"/>
            <path class="cls-5" d="M83.75,41.31c.41.5.27.93.3,1.32-.08-.37-.17-.75-.3-1.32Z"/>
            <path class="cls-5" d="M41.9,87.98c.05-.05.1-.09.15-.14.32.09.68-.11.98.15,0,.04,0,.09,0,.13l-1.13-.15Z"/>
            <path class="cls-5" d="M83.73,40.43c.05.25.09.51.14.76-.23-.21-.33-.46-.14-.76Z"/>
            <path class="cls-5" d="M32.77,15.57c-.31.19-.61.4-.98.46.11-.45.55-.41.84-.59.15-.07.17,0,.14.14Z"/>
            <path class="cls-5" d="M74.76,76.38c.37-.4.62-.66.95-1.01-.21.48-.48.72-.95,1.01Z"/>
            <path class="cls-5" d="M18.5,27.72c0,.07,0,.13,0,.2-.04.25-.09.49-.39.52-.11-.02-.18-.07-.15-.21.11-.23.21-.47.44-.6.07-.02.1,0,.1.08Z"/>
            <path class="cls-5" d="M13.25,62.58c-.23-.31-.28-.7-.42-1.19.42.38.38.84.55,1.19-.04.07-.08.07-.13,0Z"/>
            <path class="cls-5" d="M20.09,25.54c-.09.42-.33.71-.7.88.08-.43.32-.72.7-.88Z"/>
            <path class="cls-5" d="M51.56,24.1c.41-.11.76.21,1.16.15-.41.22-.78.05-1.16-.08v-.07Z"/>
            <path class="cls-5" d="M17.96,28.24s.08.09.12.13c.12.35-.05.53-.34.65-.12-.01-.18-.08-.21-.2.12-.21.14-.5.43-.58Z"/>
            <path class="cls-5" d="M41.03,12.59s0,.1,0,.14c-.18.11-.36.19-.57.17-.08-.04-.15-.09-.23-.13.22-.29.54-.09.8-.18Z"/>
            <path class="cls-5" d="M12.46,40.62c0,.31.19.69-.22,1.04.1-.44.16-.74.22-1.04Z"/>
            <path class="cls-5" d="M11.29,49.64v-1.15s.05,0,.08,0v1.15s-.05,0-.08,0Z"/>
            <path class="cls-5" d="M43.59,12.46c-.24,0-.48,0-.72,0,.11-.47.46-.26.73-.28.04.04.07.08.07.14-.01.06-.04.1-.09.13Z"/>
            <path class="cls-5" d="M15.19,33.38c-.12.25-.23.51-.35.76-.09-.37.08-.6.35-.76Z"/>
            <path class="cls-5" d="M18.5,27.72s-.05-.07-.1-.08c.1-.3.27-.54.56-.66.03.37-.21.56-.46.75Z"/>
            <path class="cls-5" d="M63.9,84.59c.25-.23.56-.35.87-.45-.19.35-.38.71-.87.45Z"/>
            <path class="cls-5" d="M54.29,12.59s0-.1,0-.14c.36-.13.64.24.99.18,0,.06,0,.11,0,.17-.23-.02-.46-.03-.68-.05-.08-.09-.24-.03-.3-.15Z"/>
            <path class="cls-5" d="M61.55,85.64c.04.06.08.13.13.19-.19.07-.38.15-.56.22-.09-.04-.19-.09-.28-.13.21-.18.47-.23.72-.29Z"/>
            <path class="cls-5" d="M37.51,86.9c.24-.15.45-.13.7.04-.28.28-.49-.05-.7-.04Z"/>
            <path class="cls-5" d="M78.92,50.01c.21-.3.41-.19.72-.22-.24.33-.44.34-.72.22Z"/>
            <path class="cls-5" d="M84.79,50.97s.08,0,.12,0c0,.33.07.67-.18.97.02-.32.04-.65.06-.97Z"/>
            <path class="cls-5" d="M20.8,24.83c-.22.19-.27.63-.69.55.2-.22.21-.71.69-.55Z"/>
            <path class="cls-5" d="M12.27,59.01c-.15-.24-.2-.49-.1-.79.14.26.19.52.2.79-.04.07-.07.07-.1,0Z"/>
            <path class="cls-5" d="M16.65,30.74c-.09.19-.18.39-.27.58-.16,0-.37.04-.21-.24.1-.18.23-.34.35-.51.05.06.09.11.14.17Z"/>
            <path class="cls-5" d="M41.14,75.24c.06-.04.12-.08.18-.12.3-.16.55-.08.77.16.02.08,0,.15-.05.21-.31-.03-.63-.04-.9-.25Z"/>
            <path class="cls-5" d="M51.56,24.1s0,.07,0,.07c-.31.03-.61.07-.9-.15.35-.29.6.13.9.08Z"/>
            <path class="cls-5" d="M56.05,25.13c.26-.07.48,0,.76.23-.35.05-.55-.12-.76-.23Z"/>
            <path class="cls-5" d="M24.36,21.22c-.25.13-.39.46-.71.47.14-.33.36-.56.72-.61,0,.05,0,.1,0,.14Z"/>
            <path class="cls-5" d="M68.26,82.05c.21-.17.37-.4.66-.44.07-.06.14-.05.2.02-.26.19-.48.49-.86.42Z"/>
            <path class="cls-5" d="M60.13,14.08c-.3-.03-.57-.16-.86-.37.37-.1.6.12.85.25.05.03.06.05.05.08-.02.03-.03.04-.05.04Z"/>
            <path class="cls-5" d="M81.95,64.98c.01.21-.09.38-.19.55-.03.07-.06.08-.11.02-.04-.26-.04-.51.16-.72.13-.04.19,0,.14.15Z"/>
            <path class="cls-5" d="M67.06,82.81c.23-.12.41-.44.74-.26-.24.09-.37.54-.74.26Z"/>
            <path class="cls-5" d="M64.96,84.15c.16-.32.42-.47.76-.46-.1.43-.46.4-.76.46Z"/>
            <path class="cls-5" d="M11.77,55.85c-.29-.24-.23-.48-.17-.75.09.25.29.43.17.75Z"/>
            <path class="cls-5" d="M39.1,87.39c-.18-.05-.37-.11-.55-.16.24-.14.45-.17.63-.02-.03.06-.05.12-.08.18Z"/>
            <path class="cls-5" d="M85.3,42.97c-.18-.31-.08-.55.1-.82.16.34-.17.54-.1.82Z"/>
            <path class="cls-5" d="M84.77,46.07v1.17c-.22-.34-.11-.61-.14-.86-.09-.17-.12-.31.14-.31Z"/>
            <path class="cls-5" d="M28.46,82.59c.39-.02.51.15.67.33-.31.13-.42-.09-.67-.33Z"/>
            <path class="cls-5" d="M45.91,24.09c-.05-.04-.11-.09-.16-.13.25-.02.48-.22.81,0-.23.16-.44.16-.65.13Z"/>
            <path class="cls-5" d="M11.33,50.38c.08.31.11.61,0,.96-.11-.35-.08-.66,0-.96Z"/>
            <path class="cls-5" d="M83.34,39.24c.16.4.27.58.17.86-.15-.22-.17-.42-.17-.86Z"/>
            <path class="cls-5" d="M83.36,39.15c-.22-.2-.34-.44-.27-.9.12.4.2.65.27.9Z"/>
            <path class="cls-5" d="M41.03,87.58l-.3.14c-.17-.04-.36.03-.59-.23.36.04.63.07.89.09Z"/>
            <path class="cls-5" d="M83.38,60.23c.06-.25.11-.5.18-.8.23.36-.05.55-.09.8-.03,0-.06,0-.09,0Z"/>
            <path class="cls-5" d="M82.12,35.57c.11.38.33.54.18.82-.21-.17-.23-.4-.18-.82Z"/>
            <path class="cls-5" d="M42.04,75.49v-.16c.33-.13.66-.28.87.17-.1.04-.2.08-.29.12-.19-.04-.38-.09-.58-.13Z"/>
            <path class="cls-5" d="M82.89,62.15c.11.3-.09.47-.19.7-.05-.28-.19-.55.19-.7Z"/>
            <path class="cls-5" d="M42.3,24.71c-.18.14-.35.23-.61.16.19-.2.37-.25.61-.16Z"/>
            <path class="cls-5" d="M48.73,24.03s0-.06,0-.09c.29,0,.59,0,1.03,0-.44.16-.73.1-1.03.09Z"/>
            <path class="cls-5" d="M11.6,54.45c-.26-.19-.2-.42-.1-.66.03.22.07.44.1.66Z"/>
            <path class="cls-5" d="M12.27,59.01s.07,0,.1,0c-.02.29.28.52.11.88-.15-.3-.21-.58-.21-.88Z"/>
            <path class="cls-5" d="M11.46,52.54c-.28-.22-.16-.45-.1-.68.03.23.07.46.1.68Z"/>
            <path class="cls-5" d="M70.71,20.13c.17-.09.38-.11.42.02.1.26-.11.17-.23.14-.06-.02-.11-.08-.19-.16Z"/>
            <path class="cls-5" d="M83.46,60.77c-.08.19-.08.43-.34.56,0-.28.05-.51.21-.71.1,0,.11.08.13.15Z"/>
            <path class="cls-5" d="M34.39,85.58c.38.14.58.22.78.29-.26.09-.5.1-.78-.29Z"/>
            <path class="cls-5" d="M31.92,84.6c-.24-.06-.49-.12-.67-.38.3-.08.47.16.67.26.04.03.05.06.04.09-.01.03-.03.04-.04.04Z"/>
            <path class="cls-5" d="M35.9,86.27c.33-.11.55.09.87.18-.37.15-.61.05-.87-.18Z"/>
            <path class="cls-5" d="M37.5,26.41c.21-.2.38-.31.68-.31-.18.23-.34.34-.68.31Z"/>
            <path class="cls-5" d="M32.77,15.57s-.09-.09-.14-.14c.13-.23.4-.15.58-.28.06.04.14.05.16.14-.2.09-.39.18-.59.27Z"/>
            <path class="cls-5" d="M13.92,64.45c-.1-.24-.27-.4-.15-.69.27.19.19.41.15.69Z"/>
            <path class="cls-5" d="M63.25,85.04c.11-.31.37-.39.63-.46-.03.42-.38.37-.63.46Z"/>
            <path class="cls-5" d="M79.69,69.73c-.09-.23-.01-.38.13-.58.18.29-.05.4-.13.58Z"/>
            <path class="cls-5" d="M14.39,34.96c.04.22.01.4-.2.49-.07-.25.09-.36.2-.49Z"/>
            <path class="cls-5" d="M78.01,72.28c.03.35-.17.42-.34.58-.04-.33.16-.42.34-.58Z"/>
            <path class="cls-5" d="M82.38,63.31c.07-.01.13.04.13.16,0,.12,0,.25-.14.28-.13.03-.14-.09-.16-.17-.04-.13,0-.23.18-.27Z"/>
            <path class="cls-5" d="M69.11,81.62c-.07,0-.13-.01-.2-.02.15-.22.35-.38.61-.43-.05.23-.23.34-.41.45Z"/>
            <path class="cls-5" d="M80.59,32.61c-.13-.17-.25-.32-.2-.53.02-.02.03-.04.05-.06.11.17.29.32.15.59Z"/>
            <path class="cls-5" d="M53.31,12.25c0,.06,0,.12-.01.18-.2.2-.39.22-.57-.03.1-.07.19-.13.29-.2.11-.06.22-.08.3.05Z"/>
            <path class="cls-5" d="M35.82,14.28c-.19.15-.41.21-.64.24,0-.08,0-.16,0-.24.15-.05.29-.11.44-.16.07.05.17.06.2.16Z"/>
            <path class="cls-5" d="M28.65,17.69c0,.06,0,.13,0,.19-.14.1-.28.19-.42.29-.07-.06-.08-.13-.02-.2.08-.2.25-.26.44-.28Z"/>
            <path class="cls-5" d="M28.22,17.97c0,.07.01.13.02.2-.11.16-.26.22-.43.24-.03-.32.2-.37.42-.44Z"/>
            <path class="cls-5" d="M27.34,18.57c.1.39-.2.37-.42.44,0-.3.2-.37.42-.44Z"/>
            <path class="cls-5" d="M65.8,83.71c.15-.23.24-.52.6-.45.04.03.05.06.04.1-.01.03-.03.05-.04.05-.19.11-.33.35-.6.31Z"/>
            <path class="cls-5" d="M44.59,24.09c.05.09.1.17.14.26-.19,0-.38,0-.56,0-.04-.03-.04-.06-.03-.08.02-.02.03-.03.05-.03.13-.06.21-.27.4-.15Z"/>
            <path class="cls-5" d="M44.19,24.24s0,.07-.02.11c-.12.23-.3.14-.48.1.15-.15.29-.26.5-.2Z"/>
            <path class="cls-5" d="M58.62,25.99c-.29.08-.43,0-.57-.1.18-.2.31-.02.57.1Z"/>
            <path class="cls-5" d="M84.33,44.74c.31.22.27.39.25.62-.08-.19-.14-.34-.25-.62Z"/>
            <path class="cls-5" d="M62.83,85.31l-.17-.14c.17-.21.38-.22.61-.14-.08.21-.27.23-.44.28Z"/>
            <path class="cls-5" d="M11.9,56.88c-.14-.21-.27-.35-.16-.58.17.14.28.29.16.58Z"/>
            <path class="cls-5" d="M83.46,60.77c-.04-.05-.09-.1-.13-.15.02-.13.04-.26.06-.4.03.01.06.01.09,0,.3.19.12.37-.02.55Z"/>
            <path class="cls-5" d="M13.25,62.58s.08,0,.13,0c0,.21.22.37.13.63-.23-.16-.26-.39-.25-.63Z"/>
            <path class="cls-5" d="M61.73,14.53c.23.1.36.16.49.22-.19.1-.33.06-.49-.22Z"/>
            <path class="cls-5" d="M39.42,87.32c.15-.09.31-.09.44.03.02.02-.03.16-.06.17-.16.04-.3-.02-.38-.2Z"/>
            <path class="cls-5" d="M17.53,28.82c.05.06.1.11.15.17.09.17.03.28-.14.33-.11-.02-.21-.05-.16-.21.04-.1,0-.25.14-.3Z"/>
            <path class="cls-5" d="M59.17,26.37c-.14-.05-.28-.1-.58-.2.37-.09.52-.03.58.2Z"/>
            <path class="cls-5" d="M81.95,64.98s-.09-.1-.14-.15c.05-.15.07-.33.31-.4.06.23-.04.39-.17.54Z"/>
            <path class="cls-5" d="M81.47,66.01c.06.24,0,.43-.21.56-.21-.23-.03-.38.11-.54.02-.07.05-.07.1-.02Z"/>
            <path class="cls-5" d="M80.87,67.44c-.11-.21-.05-.36.08-.51.25.27-.09.34-.08.51Z"/>
            <path class="cls-5" d="M53.52,89.16c-.08-.22-.27-.43.02-.69.13.25.04.48-.02.69Z"/>
            <path class="cls-5" d="M41.21,25.01c-.12.13-.33.18-.37.12-.11-.19.09-.15.18-.17.06-.01.12.03.2.05Z"/>
            <path class="cls-5" d="M60.13,14.08s0-.08,0-.12c.19.06.38.11.56.17.04.03.06.05.05.08-.01.03-.03.04-.04.04-.21.02-.4,0-.57-.17Z"/>
            <path class="cls-5" d="M82.63,37.18c-.19-.14-.34-.29-.22-.43.1-.12.18.05.21.15.02.06,0,.13,0,.29Z"/>
            <path class="cls-5" d="M29.64,17.22c-.11-.01-.21-.02-.32-.04.21-.06.4-.25.65-.13-.08.12-.19.18-.33.16Z"/>
            <path class="cls-5" d="M33.36,15.3c-.05-.05-.11-.1-.16-.14.16-.2.4.05.57-.1-.05.25-.25.21-.41.24Z"/>
            <path class="cls-5" d="M36.05,63.01c.01-.14.01-.39.04-.39.18-.02.08.14.09.23.01.06-.02.13-.04.19-.03-.01-.06-.02-.09-.03Z"/>
            <path class="cls-5" d="M66.4,83.4s0-.09,0-.14c.15-.07.23-.41.48-.15-.12.17-.29.26-.48.29Z"/>
            <path class="cls-5" d="M60.7,14.24s0-.08,0-.12c.15.06.3.12.51.2-.23.12-.38.11-.5-.08Z"/>
            <path class="cls-5" d="M35.82,14.28c-.07-.05-.13-.11-.2-.16.18-.1.37-.16.57-.07-.05.21-.22.2-.37.23Z"/>
            <path class="cls-5" d="M31.92,84.6s0-.08,0-.13c.14.06.27.12.45.2-.24.19-.35.06-.46-.08Z"/>
            <path class="cls-5" d="M43.61,12.35c0-.06,0-.12,0-.17.08-.01.16-.03.24-.04.15.05.3.1.45.15-.21.19-.46.08-.69.07Z"/>
            <path class="cls-5" d="M17.39,29.12s.09.09.13.14c.06.25-.04.34-.27.3-.05,0-.09,0-.14,0,.06-.17.1-.36.28-.45Z"/>
            <path class="cls-5" d="M33.35,85.28c-.2.02-.33-.07-.5-.27.26-.01.44-.04.5.27Z"/>
            <path class="cls-5" d="M50.02,12.14c.12-.15.29-.1.44-.14.09.01.18.02.27.04.05.02.06.05.05.07-.02.02-.03.04-.05.04-.24,0-.47,0-.71,0Z"/>
            <path class="cls-5" d="M11.94,57.07c.07.11.13.16.14.23,0,.06-.02.17-.06.18-.11.04-.17-.05-.17-.15,0-.06.04-.11.09-.25Z"/>
            <path class="cls-5" d="M34.77,71.95c.09.1.19.2.28.3.02.14-.01.21-.16.16-.04-.05-.09-.1-.13-.15,0-.1,0-.21,0-.31Z"/>
            <path class="cls-5" d="M37.18,85.95c.1.05.2.09.3.14-.03.08-.06.24-.09.24-.24-.01-.14-.25-.21-.37Z"/>
            <path class="cls-5" d="M50.73,12.15s0-.07,0-.11c.18-.19.37-.03.56,0-.05.05-.11.11-.16.16-.13-.01-.27-.03-.4-.04Z"/>
            <path class="cls-5" d="M81.47,66.01s-.06.02-.1.02c.06-.18.08-.38.27-.48.04-.01.07-.02.11-.02-.05.19-.09.38-.29.48Z"/>
            <path class="cls-5" d="M23.61,42.37c-.13-.14-.08-.27-.02-.4.26.15-.06.27.02.4Z"/>
            <path class="cls-5" d="M84.77,46.07c-.13.06-.15.18-.14.31-.19-.16-.21-.38-.03-.52.09-.08.18.08.17.22Z"/>
            <path class="cls-5" d="M85.36,52.14c-.11-.17-.01-.39.03-.39.18-.01.08.15.08.24,0,.05-.06.09-.11.16Z"/>
            <path class="cls-5" d="M70.52,80.43c0-.09.01-.19.02-.28.13,0,.33-.09.34.07,0,.15-.17.27-.36.21Z"/>
            <path class="cls-5" d="M84.78,48.15h-.07s-.07-.01-.07-.01c-.11-.18-.1-.34.07-.52.13.17.05.36.08.53Z"/>
            <path class="cls-5" d="M69.95,80.95c-.01-.3.25-.36.41-.51.07.35-.19.41-.41.51Z"/>
            <path class="cls-5" d="M40.09,25.27c-.1.22-.24.32-.53.23.23-.1.38-.16.53-.23Z"/>
            <path class="cls-5" d="M42.91,75.51c-.27-.15-.57-.15-.86-.17-.24-.07-.48-.15-.73-.22-.37-.1-.74-.21-1.12-.31l.05-.24c1.92.34,3.8.92,5.74,1.14-1.05.13-2.06-.09-3.09-.2Z"/>
            <path class="cls-5" d="M59.84,72.41c1.57-.83,2.98-1.92,4.39-3,.14-.08.16.02.16.13-1.21,1.25-2.65,2.13-4.14,2.94-.12.06-.27.06-.4.09-.04-.03-.06-.07-.05-.1.01-.04.02-.06.04-.06Z"/>
            <path class="cls-5" d="M51.45,75.44c-.09-.27.13-.19.23-.21,1.02-.16,2.04-.34,3.02-.71.14-.05.35-.17.42.04.08.26-.2.23-.33.27-1.09.28-2.15.72-3.31.64l-.04-.03Z"/>
            <path class="cls-5" d="M65.68,68.08c.85-.98,1.7-1.95,2.54-2.93.06.05.11.11.17.16-.82.91-1.4,2.03-2.43,2.73-.16.11-.06.35-.27.35-.09-.1-.08-.21,0-.31Z"/>
            <path class="cls-5" d="M59.84,72.41v.16c-.1.45-.53.43-.82.59-.64.36-1.3.69-2.02.87-.14.08-.28.13-.29-.13,1.05-.49,2.13-.91,3.13-1.5Z"/>
            <path class="cls-5" d="M48.87,75.8c-.82.26-1.64.07-2.47,0,.81-.31,1.63-.32,2.47-.13.03.03.04.06.03.09-.01.03-.02.04-.03.04Z"/>
            <path class="cls-5" d="M48.87,75.8s.02-.09,0-.13c.84-.27,1.71-.29,2.57-.23,0,0,.04.03.04.03-.85.33-1.73.35-2.61.33Z"/>
            <path class="cls-5" d="M38.57,74.22c-.63-.37-1.38-.43-1.96-.91-.03-.15.01-.23.17-.18.65.31,1.37.49,1.98.89.03.17-.02.26-.2.2Z"/>
            <path class="cls-5" d="M64.4,69.54l-.16-.13c.34-.41.74-.74,1.16-1.04.09.02.14.07.15.16-.33.4-.66.8-1.15,1.01Z"/>
            <path class="cls-5" d="M56.71,73.91c.1.04.2.08.29.13-.39.26-.82.36-1.39.53.29-.58.76-.49,1.09-.66Z"/>
            <path class="cls-5" d="M34.89,72.41c.05-.05.11-.11.16-.16.39.07.59.42.86.66v.02c-.42,0-.72-.25-1.02-.52Z"/>
            <path class="cls-5" d="M35.91,72.93v-.02c.32-.09.58.12.87.22-.06.06-.12.12-.17.18-.26-.06-.57-.05-.7-.38Z"/>
            <path class="cls-5" d="M39.33,74.33c.2-.1.39-.17.55.06.06.08.09.22,0,.25-.2.05-.4.01-.55-.17-.04-.03-.05-.06-.04-.09.01-.03.02-.05.03-.05Z"/>
            <path class="cls-5" d="M39.33,74.33s0,.09,0,.13c-.29.04-.53-.12-.77-.25.07-.07.13-.13.2-.2.22.03.46.04.56.32Z"/>
            <path class="cls-5" d="M65.55,68.53c-.05-.05-.1-.11-.15-.16.08-.12.12-.27.29-.29,0,.1,0,.21,0,.31-.05.05-.09.1-.14.14Z"/>
            <path class="cls-5" d="M17.25,29.56c.17-.03.24-.15.27-.3.06-.09.11-.18.17-.27.19-.17.32-.37.4-.62.14-.15.28-.3.42-.45l.31.12c-.23.49-.5.96-.8,1.41-.25.37-.47.33-.76.11Z"/>
            <path class="cls-5" d="M52.72,12.4c.19.11.38.02.57.03.29.33.66.16.99.17.1.05.2.1.3.15-.2.01-.31.12-.32.33-.62-.02-1.22-.14-1.81-.32.06-.12.32-.04.26-.28,0-.03,0-.05,0-.08Z"/>
            <path class="cls-5" d="M45.6,12.59c.49-.28,1.02-.14,1.53-.13,1.06.02,2.12-.16,3.17.12-1.57,0-3.13,0-4.7,0Z"/>
            <path class="cls-5" d="M35,14.66c.13.06.19.17.19.32-.04.03-.08.09-.1.08-.23-.08-.51.52-.65.02-.11-.4.34-.32.56-.42Z"/>
            <path class="cls-5" d="M22.12,23.48c.06-.21.2-.29.41-.27.1.05.17.12.13.25-.04.17-.18.13-.29.15-.08-.04-.16-.09-.25-.13Z"/>
            <path class="cls-5" d="M43.89,12.76c.38-.29.8-.12,1.21-.13-.39.14-.8.11-1.21.13Z"/>
            <path class="cls-5" d="M22.66,23.46c-.04-.08-.09-.17-.13-.25.05-.06.11-.12.16-.18.08.04.17.09.25.13-.09.1-.19.2-.28.3Z"/>
            <path class="cls-5" d="M52.73,12.48c.05.07.16.18.15.2-.1.17-.27.04-.41.08-.02-.04-.04-.09-.04-.14.08-.11.14-.24.3-.14Z"/>
            <path class="cls-5" d="M41.89,13.06c.22-.25.5-.13.76-.13-.25.04-.51.09-.76.13Z"/>
            <path class="cls-5" d="M43.61,12.35c.23-.02.46-.05.69-.07.05.02.1.04.15.05-.27.22-.57.1-.86.12.02-.03.03-.07.02-.1Z"/>
            <path class="cls-5" d="M41.68,12.74c.25-.14.51-.14.78-.14-.22.27-.52.13-.78.14Z"/>
          </g>
          <g id="IntelectualProperty">
            <g id="IntelectualProperty-2" data-name="IntelectualProperty">
              <g>
                <path class="cls-4" d="M75.24,58.25c.27.07.47.19.44.55-.04.6.28.79.82.82.5.03.97.33,1.41.52.54.23,1.09.42,1.64.59.37.11.48.24.3.61-.21.42-.1,1.2-.82,1.05-.83-.17-1.67-.44-2.43-.83-.35-.18-.73-.32-1.07-.53-.24-.15-.47-.21-.69.23-.36.74-.97.11-1.43.04-.44-.06-.05-.47.02-.71.34-1.24,1.1-2.32,1.28-3.63.09-.63.6-.25.93-.33.22.1.45.06.68,0,.02,0,.12.06.06-.04-.03-.05-.11-.08-.16-.13-.31-.13-.61-.27-.92-.38-.3-.11-.38-.24-.3-.6.25-1.05.22-1.06,1.16-.55,1.37.74,2.66,1.72,4.27,1.86.39.03.48.29.34.62-.15.35-.01,1.02-.68.86-.99-.24-1.98-.45-3.01-.32-.5.14-1.02.02-1.53.07-.13.01-.37-.11-.32.21Z"/>
                <path class="cls-4" d="M28.64,72.74c-1.04,1.13-2.08,2.25-3.12,3.38-.1.11-.17.2-.35.1-.67-.38-.84-.96-.46-1.64.13-.25.26-.5.39-.74-.05-.04-.09-.08-.14-.12-.24.24-.5.47-.71.74-.29.39-.47.33-.82.01-.53-.47-.42-.74.02-1.18,1.12-1.13,2.19-2.33,3.29-3.48.14-.14.29-.55.53-.2.24.33.9.41.65,1.06-.12.3-.27.58-.4.86-.1.09-.11.23-.07.32.04.09.15.01.23-.01.1-.11.19-.21.29-.32.65-.73,1.08-.6,1.4.45.17.26,0,.4-.17.54-.18.09-.32.27-.54.24Z"/>
                <path class="cls-4" d="M67.11,75.37c.62.55.99,1.31,1.49,1.97.08.1.08.33.06.33-.59-.18-.56.49-.87.67-.24.14-.34-.04-.46-.2-.29-.42-.56-.86-.86-1.27-.16-.21-.28-.51-.76-.54.46.69.84,1.3,1.26,1.86.26.36.3.57-.11.86-.84.58-.82.61-1.4-.25-.86-1.27-1.72-2.54-2.61-3.79-.27-.38-.22-.58.13-.81.46-.3.91-.63,1.35-.95.5-.36,1.02-.35,1.42.1.46.52,1.12.98.79,1.88.16.19.42-.02.58.15Z"/>
                <path class="cls-4" d="M71.55,74.45c0,.73-.65,1.59-1.52,1.82-.53.14-.96-.09-1.41-.54-.66-.66-1.29-1.34-1.94-2.02-.5-.53-.87-1.13-.58-1.92.29-.77.84-1.21,1.64-1.33.42-.06.76.07,1.04.34.89.85,1.69,1.79,2.46,2.76.2.25.3.56.3.89Z"/>
                <path class="cls-4" d="M49.02,78.97q1.44-.32,1.64,1.16c.02.15.06.29.09.43.31.78.16,1.64.36,2.43.02.07.04.14.02.21.04,0,.05-.02.04-.09-.06-.36-.18-.71-.16-1.08-.2-.79,0-1.6-.12-2.39.08-.24.41-.28.35-.71-.06-.48.49-.27.77-.35.31-.09.43.08.46.38.14,1.45.3,2.89.42,4.34.09,1.06-.53,1.72-1.61,1.82-1.06.09-1.74-.47-1.86-1.55-.14-1.35-.27-2.7-.4-4.04-.16-.19-.15-.38,0-.57Z"/>
                <path class="cls-4" d="M45.18,80.9c.29.72.23.82-.46.75-.19-.02-.37-.07-.56-.08-.45-.02-.52-.26-.46-.68.06-.37.24-.74.01-1.35-.39,1.28-.42,2.42-.57,3.52q-.08.57.17.63c.15-.18.16-.42.16-.63,0-.67.25-.8.87-.65.86.21.88.16.67,1.1-.11.48-.25.95-.7,1.22-.16.16-.5-.05-.57.3-1.9.13-2.64-.85-2.17-2.79.19-.78.18-1.61.3-2.41.09-.63.44-1.12,1.03-1.29.76-.22,1.52-.17,2.12.43.47.46.56,1.07.42,1.71-.02.09-.17.15-.27.22h0Z"/>
                <path class="cls-4" d="M53.11,78.8c-.07-.33.12-.44.45-.53,1.7-.48,1.74-.51,2.27,1.23.38,1.24.88,2.43,1.37,3.61.23.55.15.73-.41.88-.63.17-1.1.24-1.18-.62,0-.09,0-.28-.19-.24-.19.04-.25.18-.24.39,0,.27.33.62-.01.8-.4.2-.86.25-1.3.35-.11.03-.16-.07-.17-.18-.2-1.87-.39-3.75-.59-5.68Z"/>
                <path class="cls-4" d="M78.07,63.76c.25.11.67.19.57.5-.12.4-.28.84-.61,1.13-.12.11-.25-.06-.37-.13-.52-.27-1.05-.54-1.57-.81-.17-.09-.32-.21-.51.05.47.34,1.08.49,1.36,1.07.33.12.5.37.55.73.02.88-.18,1.03-.87.64-.43-.24-.93-.36-1.26-.77-.02-.15-.08-.09-.15-.03-1.02-.37-1.92-1-2.91-1.44-.22-.1-.26-.25-.15-.47.32-.64.62-1.28.85-1.96.14-.42.57-.59,1.01-.49.71.16,1.34.46,1.66,1.21.05.12.07.12.18.1.74-.17,1.33.25,1.95.54.07.09.09.27.27.15Z"/>
                <path class="cls-4" d="M62.05,75.03c.27-.04.47.1.63.28.49.58.87,1.23,1.07,1.97.17.62-.2.98-.66,1.24-.34.2-.43.37-.17.72.17.23.28.51.41.77.49.94.35,1.27-.64,1.6-.23.08-.35,0-.46-.19-.85-1.65-1.69-3.3-2.54-4.94-.07-.14-.12-.29.05-.38.75-.41,1.45-.91,2.3-1.07Z"/>
                <path class="cls-4" d="M70.36,67.63c.24-.29.45-.02.61.09.34.22.65.49.96.76.83.74.89,1.09.26,1.99-.19.27-.19.37.05.56.38.3.73.63,1.09.96.32.3.37.54.04.96-.44.56-.69.67-1.27.12-1.13-1.09-2.36-2.06-3.56-3.07-.29-.24-.4-.43-.1-.76.4-.42.75-.89,1.12-1.34.2-.25.42-.27.67-.13.31.46.75.83.83,1.43-.09.31-.27.26-.52.09.23.24.41.44.72.43.13,0,.27-.02.42.12-.19-.28-.4-.48-.53-.73-.14-.57-.76-.86-.79-1.49Z"/>
                <path class="cls-4" d="M41.91,78.34c-.13.5-.2.81-.29,1.11-.05.15-.19.15-.28.07-.35-.29-.62-.23-.78.2-.14.36-.21.7.33.8.73.13.14.62.17.92.04.39-.25.42-.54.31-.74-.28-.48.43-.64.71-.24.44.11.4.35.47.31.08.71.08.46.64-.17.39-.08,1.01-.82.68-.6-.27-1.51-.14-1.82-.65-.29-.47.22-1.23.37-1.87.27-1.19.59-2.37.87-3.56.1-.4.23-.59.67-.43.51.19,1.05.29,1.57.43.18.05.38.08.37.16Z"/>
                <path class="cls-4" d="M32.02,74.46c.14-.26.28-.45.6-.2.3.23.64.41.96.62.84.53.88.74.3,1.46-.21.27-.41.05-.55-.08-.36-.33-.51-.07-.68.21-.18.3-.32.55.13.73.63.25.14.57.02.85-.14.33-.32.53-.68.22-.17-.15-.41-.23-.6-.33-.18.07-.01.16-.04.23-.23.64-.27,1.17.43,1.58.13.08-.26.61-.44.9-.16.25-.32.03-.48-.07-.46-.29-.92-.6-1.39-.88-.34-.2-.46-.32-.19-.76.78-1.25,1.49-2.56,2.22-3.84.03-.27.17-.47.38-.63Z"/>
                <path class="cls-4" d="M74.54,66.85c-.04.08-.06.16-.1.21-.6.6.11.66.35.91.42.44.49-.06.64-.27.17-.23.27-.55.64-.23.29.26.78.39.48.96-.05.09-.11.16-.17.24-.42.48-.52,1.44-1.12,1.48-.5.03-1.03-.6-1.54-.94-.91-.62-1.82-1.24-2.72-1.87-.7-.48-.76-.75-.12-1.22.32-.24.52-.53.74-.83.19-.25.28-.66.73-.28.32.27.55.44.13.83-.15.14-.27.42.06.58.28.15.54.53.86.03.1-.16.22-.52.53-.23.21.2.58.24.63.62Z"/>
                <path class="cls-4" d="M29.06,72.4c.19-.08.29-.23.3-.45.38-.06.59.24.85.44.51.39.99.83,1.51,1.2.4.28.51.54.13.9,0,.24-.19.33-.34.44-.02,0-.06.03-.07.02-.71-.62-1.03-.04-1.4.48-.6.86-1.24,1.69-1.83,2.55-.27.39-.44.46-.82.11-.77-.72-.79-.69-.13-1.56.74-.99,1.46-2,2.2-3-.22-.24-.52-.37-.65-.68.05-.17.15-.31.26-.45Z"/>
                <path class="cls-4" d="M49.02,78.97c0,.19,0,.38,0,.57-.23.32-.1,1.17-.95.59-.18,1.4-.02,2.75-.08,4.09-.04.9-.55,1.27-1.38.96-.29-.11-.19-.36-.18-.56,0-.74.03-1.48.04-2.22,0-.74,0-1.48,0-2.24-.29.07-.61.22-.79-.06-.19-.29-.04-.67-.03-1,.01-.26.29-.19.46-.19.97.02,1.94.04,2.91.06Z"/>
                <path class="cls-4" d="M60.3,82.45c0,.2-.06.32-.26.38-.2.06-.4.2-.6.2-.51-.01-1.01.92-1.49.13-.28-.47-.58-1.03-.5-1.65.05-.42-.32-.55-.42-.88-.25-.87-.57-1.72-.88-2.57-.13-.34-.03-.51.27-.62.22-.08.46-.13.67-.24.37-.21.49-.02.6.32.41,1.26.84,2.51,1.27,3.77.06.17.01.46.38.35.54-.16.95.2.97.81Z"/>
                <path class="cls-4" d="M34.87,75.61c.36.18.74.33,1.08.54.24.15.03.34-.05.51-.56,1.22-1.1,2.45-1.68,3.66-.14.29-.12.45.17.55.81.26.17.67.1,1.01-.11.46-.37.39-.68.17-.52-.37-1.43-.39-1.57-.96-.11-.49.43-1.14.69-1.72.51-1.11,1.02-2.22,1.53-3.32.09-.19.12-.45.41-.43Z"/>
                <path class="cls-4" d="M37.2,76.74c.4.16.81.29,1.19.49.21.11.01.3-.04.45-.44,1.25-.87,2.5-1.35,3.74-.14.37-.12.54.26.63.71.17.22.58.15.9-.07.34-.15.62-.61.38-.46-.24-.97-.4-1.46-.56-.3-.1-.45-.22-.29-.58.42-.92.68-1.92,1.11-2.85.29-.64.45-1.41.68-2.11.07-.21.11-.43.37-.48Z"/>
                <path class="cls-4" d="M22.32,73.06c-.4-.28-.67-.7-.92-1.09-.16-.25.22-.38.39-.52,1.25-1.1,2.53-2.15,3.76-3.27.34-.31.49-.23.71.08.15.22.33.42.5.62.13.16.14.29-.04.43-1.4,1.21-2.79,2.43-4.19,3.65-.05.05-.12.07-.2.11Z"/>
              </g>
              <g>
                <path class="cls-4" d="M34.79,16.59c.31-.41.83-.42,1.23-.67.21-.14.27.1.33.25.56,1.42,1.15,2.82,1.66,4.26.33.93-.1,1.66-1.09,2.07-.92.38-1.73.12-2.1-.75-.58-1.37-1.11-2.76-1.66-4.15-.04-.09-.1-.19-.08-.28.06-.33,1.25-.64,1.56-.41.24.26.34.61.51.91.19.56.39,1.13.58,1.69.24.37.36.81.53,1.21.02.03.04.07.04.11.04-.09-.06-.14-.08-.21-.12-.43-.32-.82-.52-1.22-.18-.58-.38-1.15-.59-1.71-.2-.34-.3-.72-.32-1.12Z"/>
                <path class="cls-4" d="M65.7,23.21c-.56.57-.91,1.2-1.29,1.8-.26.42-.44.46-.82.15-.84-.69-.84-.66-.2-1.57.87-1.26,1.73-2.53,2.56-3.82.23-.36.39-.39.7-.11.3.28.66.48.98.74,1.2.96,1.04,2.45-.33,3.19-.11.06-.34-.05-.32.18.09,1.05-.77,1.58-1.16,2.37-.18.37-.39.39-.72.13-.78-.61-.79-.59-.21-1.47.28-.43.56-.86.83-1.29.03-.04,0-.13-.03-.3Z"/>
                <path class="cls-4" d="M19.1,41c.22.09.43.22.66.26.66.12.56.43.38.96-.16.46-.3.51-.7.37-1.55-.53-3.11-1.02-4.66-1.53-.23-.07-.62-.07-.44-.47.16-.37-.02-1.05.69-1.02.54.02,1.09.05,1.63.08.11-.11.25-.04.35-.07-.21-.01-.41-.14-.62-.21-.27-.09-.53-.22-.81-.28-.62-.12-.76-.39-.51-1.03.18-.44.28-.54.74-.37,1.47.53,2.96,1.03,4.46,1.46.65.19.82.44.48,1.04-.09.17-.02.41-.22.53-.56.15-1.14-.03-1.71.11.04.19.19.1.28.16Z"/>
                <path class="cls-4" d="M51.54,17.6c-.08.73-.15,1.41-.23,2.08-.05.39-.11.77-.65.57-.41-.15-1.12.21-.97-.79.26-1.65.44-3.32.61-4.98.06-.57.28-.7.72-.49.4.19.82.05,1.23.15,1.35.33,1.84,1.8.93,2.92-.17.2-.32.31-.06.55.18.17.2.42.16.69-.09.6-.18,1.2-.22,1.8-.04.72-.51.41-.82.38-.33-.03-.82.06-.68-.62.12-.57.17-1.17.24-1.75.02-.17.07-.35-.27-.5Z"/>
                <path class="cls-4" d="M57.88,16.66c-.26,1.2-.49,2.56-1.02,3.82-.31.73-1.11.96-1.96.7-.8-.25-1.32-.89-1.2-1.68.19-1.29.52-2.55.96-3.77.26-.72,1-1.03,1.77-.86.92.2,1.45.8,1.46,1.79Z"/>
                <path class="cls-4" d="M42.18,20.64c-.31.11-.62.24-.93.33-.42.13-.74.05-.83-.48-.03-.18-.06-.45-.33-.35-.22.08-.06.3-.07.46,0,.22.29.51-.04.65-.45.18-.93.48-1.42.33-.26-.08-.13-.49-.16-.75-.19-1.6-.49-3.19-.6-4.81-.03-.51.02-.88.61-.89.12,0,.23-.06.34-.08,1.11-.24,1.26-.09,1.66,1.03.48,1.34,1.08,2.63,1.63,3.94.18.17.31.35.14.6Z"/>
                <path class="cls-4" d="M29.7,26.49c-.39.03-.69-.19-.96-.49-.83-.92-1.52-1.96-2.17-3.02-.47-.76-.2-1.6.57-2.18.87-.66,1.59-.65,2.23.03.15.16.25.37.41.51.54.48.44.8-.11,1.21-.51.38-.82.45-1.15-.19-.14-.27-.4-.84-.64-.63-.33.28.17.61.36.89.52.77,1.06,1.52,1.61,2.26.08.11.18.36.38.17.16-.14-.03-.26-.08-.38-.02-.04-.05-.08-.07-.13-.14-.3-.6-.54-.43-.85.18-.34.6-.53.92-.79.15-.12.25-.04.36.06.54.49.87,1.55.66,2.14-.26.74-1.13,1.39-1.89,1.38Z"/>
                <path class="cls-4" d="M61.96,17.84c-.17.75-.4,1.53-.88,2.18-.32.43-.82.39-1.24.17-.4-.21-.53-.03-.65.31-.14.39-.34.77-.44,1.17-.16.7-.52.57-.98.36-.42-.19-.84-.24-.52-.95.66-1.49,1.22-3.04,1.79-4.57.18-.47.33-.71.85-.38.46.29,1,.44,1.48.7.36.19.55.53.59,1.02Z"/>
                <path class="cls-4" d="M46.17,16.95c0-.87.03-1.73-.01-2.6-.02-.38.04-.56.44-.53.64.05,1.28-.05,1.91.09.61.14.81.53.88,1.16.06.59-.04,1.15-.05,1.73,0,.61-.54.81-1.03.8-.58-.02-.68.22-.58.74.05.24.02.49.01.74-.03.99-.04.93-1,1.03-.57.06-.62-.13-.58-.64.05-.84.01-1.68.01-2.52h0Z"/>
                <path class="cls-4" d="M65.28,18.97c0,.56-.64,1.02-1.1.74-.41-.25-.41.1-.54.3-.15.23-.35.48.06.62.56.19.41.5.2.89-.2.37-.38.63-.79.26-.29-.27-.43-.04-.5.21-.07.29-.6.58-.02.89.31.17.7.22.38.83-.34.64-.61.73-1.15.29-.46-.37-1.31-.43-1.45-.96-.14-.52.46-1.07.74-1.61.56-1.12,1.16-2.21,1.71-3.33.2-.42.37-.57.79-.28.43.3.91.53,1.36.79.14.08.33.12.31.35Z"/>
                <path class="cls-4" d="M26.5,28.23c-1-1.12-1.99-2.26-3-3.36-.27-.29-.26-.45.02-.7.41-.37.8-.77,1.18-1.18.21-.22.4-.41.58-.03.15.32.94.48.31,1.01-.41.35-.26.53.02.84.25.27.4.27.61,0,.45-.58.6.03.85.24.29.24.41.46,0,.71-.41.25-.21.49.04.73.24.23.45.66.8.14.3-.44.54-.4.85.03.24.34.6.54.05.96-.49.38-.88.89-1.32,1.34-.61.17-.76-.35-1-.73Z"/>
                <path class="cls-4" d="M18.68,30.55c.27.18.51.33.75.49.4.28.07.53-.07.73-.27.42.1.48.29.57.16.08.4.51.58-.03.17-.5.45-.5.86-.22.38.25.6.47.21.89-.3.33.02.43.21.49.27.08.5.69.84.09.19-.33.29-.72.84-.38.52.33.66.6.25,1.12-.4.5-.49,1.46-1.07,1.53-.49.06-1.07-.55-1.58-.9-1.02-.71-2.22-1.13-3.11-2.04-.1-.1-.35-.12-.21-.37.33-.6.67-1.2,1.01-1.79.04-.07.13-.12.2-.17Z"/>
                <path class="cls-4" d="M73.09,27.03c.98-.57.96-.55,1.6.2.3.35.16.47-.15.62-.51.25-1.01.55-1.53.76-1.12.45-2.1,1.12-2.94,2-.3.32-.51.19-.64-.12-.14-.32-.91-.54-.39-.94,1.47-1.15,2.3-2.8,3.3-4.3.2-.3.3-.46.6-.08.64.79.66.77-.03,1.69-.03.15-.05.29.17.17Z"/>
                <path class="cls-4" d="M33.19,24.27c-.25-.03-.3-.25-.39-.41-.59-1.09-1.18-2.19-1.76-3.29-.16-.31-.25-.61-.72-.3-.57.39-.51-.35-.73-.57-.25-.25-.17-.44.14-.61.75-.42,1.49-.85,2.21-1.32.47-.3.46.16.57.36.14.25.61.56.08.82-.46.23-.41.43-.18.82.59,1.04,1.09,2.13,1.71,3.15.32.52.26.76-.25.98-.24.1-.46.25-.67.37Z"/>
                <path class="cls-4" d="M72.07,24.33c-.23.27-.45.55-.71.81-.22.22-.34-.05-.44-.17-.23-.29-.38-.22-.6.04-.84,1-1.73,1.97-2.56,2.98-.28.34-.43.31-.72.02-.78-.77-.79-.75-.04-1.59.69-.78,1.36-1.58,2.05-2.36.25-.28.42-.52,0-.81-.34-.23-.17-.48.06-.64.23-.17.34-.75.75-.4.72.6,1.38,1.28,2.06,1.93.05.05.08.12.14.21Z"/>
                <path class="cls-4" d="M15.62,36.51c.24-.54.47-1.05.69-1.57.14-.33.43-.56.43-.98,0-.23.21-.52.48-.25.24.24,1,.05.72.7-.22.51-.04.62.32.79,1.08.49,2.14,1.03,3.24,1.48.92.38.19.85.11,1.26-.09.53-.39.46-.78.26-1.1-.55-2.23-1.04-3.33-1.59-.31-.16-.5-.19-.61.22-.05.2-.13.5-.42.29-.29-.2-.77-.12-.86-.62Z"/>
                <path class="cls-4" d="M27.07,29.41c-.4.45-.82.89-1.2,1.36-.22.27-.34.4-.66.09-1.24-1.18-2.49-2.34-3.77-3.47-.35-.31-.41-.48-.06-.84.73-.77.7-.79,1.45-.09.94.88,1.89,1.75,2.83,2.62.31-.15.2-.72.67-.68.41.21.85.4.74,1.02Z"/>
                <path class="cls-4" d="M19.83,29.16c.85-.12,1.53.07,2.14.67.38.37.85.63,1.26.96.36.3.61.58,1.02-.03.31-.47.56.17.84.29.2.09.42.23.17.56-.37.48-.69,1-1.04,1.5-.15.21-.3.27-.53.09-1.35-1.04-2.7-2.09-4.08-3.08-.36-.26-.21-.56-.2-.82.02-.34.29-.19.43-.14Z"/>
                <path class="cls-4" d="M19.84,43.69c-.04,1.02-.17,1.12-1.12.93-1.47-.3-2.94-.63-4.42-.91-.49-.09-.55-.3-.49-.8.09-.78.36-.97,1.1-.78,1.46.37,2.94.64,4.42.93.38.07.54.25.52.63Z"/>
                <path class="cls-4" d="M42.76,17.07c.16.57.13,1.22.64,1.64.33.27-.06.57.05.88.1.29.65.47.32.8-.19.19-.62.11-.95.16-.12.02-.23.05-.34.07-.35-.14-.22-.47-.28-.73-.23-1.61-.47-3.23-.69-4.84-.03-.23-.29-.63.25-.63.17.09.33.18.36.41.03.19.1.37.22.51.04.05.07.11.1.17.11.27.16.56.24.84.02.06.04.12.05.18.03.18.06.37.04.55Z"/>
                <path class="cls-4" d="M42.03,14.81c-.09-.13-.19-.26-.28-.4,1.16-.21,1.17-.21,1.35,1,.11.71.21,1.43.32,2.17-.36-.03-.34-.39-.54-.5-.18-.16-.08-.46-.28-.61v.02c-.04-.37-.11-.73-.28-1.06v.02c-.16-.17-.21-.41-.28-.63Z"/>
                <path class="cls-4" d="M44.67,19.39c.03.51.03.91-.34.84-.41-.09-.46-.54-.51-.95-.04-.41.2-.34.42-.36.54-.05.43.36.43.48Z"/>
                <path class="cls-4" d="M20.33,28.99c-.16-.09-.33-.11-.38-.32,0-.03.05-.12.06-.11.19.04.36.1.31.44Z"/>
              </g>
            </g>
            <g>
              <path class="cls-3" d="M50.98,83.15c-.16-.85-.27-1.71-.24-2.58.24-.27,0-.62.14-.91.13.85.27,1.7.24,2.57-.15.29.13.66-.15.93Z"/>
              <path class="cls-3" d="M75.24,58.25c-.12.02-.27.03-.28-.11-.01-.17.15-.13.26-.13.62-.01,1.25-.02,1.87-.03-.58.33-1.26-.04-1.85.28Z"/>
              <path class="cls-3" d="M76.22,56.49c.18-.03.31.06.54.27-.44.04-.78.02-1.12-.11.18-.11.43.07.58-.16Z"/>
              <path class="cls-3" d="M43.31,83.69c-.05.15-.11.31-.18.52-.34-.44-.08-.79,0-1.15.09.2-.07.48.17.63Z"/>
              <path class="cls-3" d="M27.67,71.82c-.15.16-.22.42-.55.43.11-.29.19-.55.39-.74.02.12,0,.27.16.31Z"/>
              <path class="cls-3" d="M43.74,85.03c-.01-.16-.02-.32-.04-.56.23.11.38.35.62.26-.19.1-.38.2-.57.3Z"/>
              <path class="cls-3" d="M31.49,74.93c.09-.16.16-.35.34-.44.06-.01.12-.02.19-.03-.06.25-.21.45-.38.63-.05-.05-.1-.1-.15-.15Z"/>
              <path class="cls-3" d="M29.06,72.4c.04.23-.13.33-.26.45-.05-.04-.11-.07-.16-.11.21-.02.13-.42.42-.34Z"/>
              <path class="cls-3" d="M67.11,75.37c-.22-.02-.43-.04-.65-.06,0-.02,0-.04,0-.05.01-.02.04-.03.06-.04.21-.01.43-.08.58.15Z"/>
              <path class="cls-3" d="M19.1,41c-.34.39-.44-.17-.68-.27.7,0,1.4,0,2.1,0-.43.36-1-.09-1.42.27Z"/>
              <path class="cls-3" d="M27.07,29.41c.03-.55-.56-.63-.74-1.02.06-.06.11-.11.17-.17.41.13.48.76,1,.73-.14.15-.28.3-.43.46Z"/>
              <path class="cls-3" d="M34.79,16.59c.13.36.27.72.4,1.08-.02.11-.07.18-.17.21-.17-.3-.37-.59-.38-.96.05-.11.09-.22.14-.33Z"/>
              <path class="cls-3" d="M42.6,16.47c.49,0,.22.39.28.61,0,0-.06,0-.06,0h-.06c-.24-.16-.14-.4-.16-.61Z"/>
              <path class="cls-3" d="M42.19,19.89c.22.19.04.55.28.73-.1,0-.2.02-.3.02,0-.21-.21-.37-.14-.6.05-.05.1-.1.15-.15Z"/>
              <path class="cls-3" d="M73.09,27.03c-.15.11-.29.22-.47.35-.05-.32.17-.39.3-.52.06.06.11.11.17.17Z"/>
              <path class="cls-3" d="M79.12,57.29c.08.02.1.12.09.22,0,.06-.01.17-.11.11-.07-.04-.13-.13-.15-.22-.02-.06.03-.14.16-.11Z"/>
              <path class="cls-3" d="M65.39,75.24c-.08.1-.16.25-.18.24-.34-.19-.47-.57-.69-.87-.08-.11.08-.19.15-.16.38.12.46.53.72.79Z"/>
              <path class="cls-3" d="M70.18,74.95c-.8-.44-1.27-1.22-1.88-1.85-.27-.28-.53-.56-.79-.85-.08-.09-.29-.12-.16-.32.16-.25.28-.05.39.06.58.63,1.17,1.24,1.73,1.9.27.32.63.58.72,1.07Z"/>
              <path class="cls-3" d="M50.98,83.15c.11-.3-.11-.66.15-.93.19.54.26,1.09-.06,1.66-.03-.24-.06-.49-.09-.73Z"/>
              <path class="cls-3" d="M51.9,80.42c.44.21.27.63.34.78.09-.29-.65-.26-.54-.75.06-.08.12-.09.2-.03Z"/>
              <path class="cls-3" d="M52.29,81.86c.19.24.17.42.15.73-.18-.25-.35-.38-.15-.73Z"/>
              <path class="cls-3" d="M51.71,79.7c-.22.05-.02.41-.28.42.2-.06-.26-.61.28-.42Z"/>
              <path class="cls-3" d="M45.18,80.9c-.13-.08-.34.07-.42-.15-.01-.04.05-.15.08-.15.19,0,.27.15.33.31,0,0,0,0,0,0Z"/>
              <path class="cls-3" d="M54.84,81.63c-.25-.37-.03-.8-.16-1.19.2.26.37.53.31.88-.08.09-.02.25-.15.31Z"/>
              <path class="cls-3" d="M54.84,81.63c.04-.11,0-.26.15-.31.04.08.12.17.12.25,0,.15.31.35,0,.44-.29.08-.21-.23-.26-.38Z"/>
              <path class="cls-3" d="M54.29,79.28c.14.17.17.35,0,.59-.14-.23.08-.42,0-.59Z"/>
              <path class="cls-3" d="M74.23,63.92c-.49-.21-.77-.56-.59-1.23-.02.79.95.53,1.02,1.23-.14.1-.29.11-.43,0Z"/>
              <path class="cls-3" d="M61.71,76.34c.19.02.24.23.28.35.1.31.48.5.33.9-.02.05-.11.1-.16.09-.15-.01-.67-1.15-.59-1.26.03-.04.08-.05.13-.08Z"/>
              <path class="cls-3" d="M71,69.28s.06,0,.1,0c.21.16.3.35.15.61-.62.06-.8-.53-1.24-.78.5-.43.6.46.99.18Z"/>
              <path class="cls-3" d="M47.07,80.43c-.17,0-.18-.11-.18-.2,0-.06-.05-.24.11-.17.07.03.12.14.14.23.01.04-.06.1-.08.14Z"/>
              <path class="cls-3" d="M33.43,79.76c-.18-.47-.03-.66.13-.88.17.32-.13.5-.13.88Z"/>
              <path class="cls-3" d="M37.73,77.91c.11,0,.17.08.16.18,0,.08,0,.21-.14.17-.05-.02-.11-.08-.13-.14-.03-.09-.01-.19.11-.21Z"/>
              <path class="cls-3" d="M35.02,17.88c.06-.07.11-.14.17-.21.32.54.53,1.12.58,1.75.06.16-.02.19-.14.18-.2-.57-.41-1.15-.61-1.72Z"/>
              <path class="cls-3" d="M35.63,19.6c.05-.06.1-.12.14-.18.41.29.43.79.56,1.22.06.15-.01.17-.13.14l-.57-1.19Z"/>
              <path class="cls-3" d="M36.2,20.79s.09-.09.13-.14c.19.19.26.42.26.75-.34-.1-.37-.35-.39-.61Z"/>
              <path class="cls-3" d="M66.93,21.24c.19.65-.25.88-.51,1.19-.01.02-.14-.03-.17-.08-.02-.05,0-.15.03-.2.19-.28.4-.56.65-.91Z"/>
              <path class="cls-3" d="M51.73,16.51c.02-.39-.11-.69-.02-1.03.04-.15.1-.19.23-.2.15,0,.21.07.21.22,0,.36.07.74-.42,1.01Z"/>
              <path class="cls-3" d="M56.4,16.4c-.28,1.07-.59,2.27-.91,3.47-.03.12-.12.24-.26.18-.14-.06-.1-.21-.07-.32.25-1.09.5-2.19.77-3.27.05-.19.12-.45.4-.43.11,0,.11.14.08.37Z"/>
              <path class="cls-3" d="M39.3,17.67c.18.01.22,0,.23.02.11.3.32.57.22.92-.01.03-.15.07-.17.05-.24-.3.03-.66-.28-.99Z"/>
              <path class="cls-3" d="M59.88,19c-.05-.43.17-.68.27-.98.05-.14.03-.46.3-.34.19.08.13.3.03.45-.18.29-.1.76-.61.87Z"/>
              <path class="cls-3" d="M47.74,16.57v-1.57c.5.32.53.94,0,1.57Z"/>
              <path class="cls-3" d="M42.31,15.42c.11.35.55.6.29,1.06-.24-.31-.17-.71-.29-1.06Z"/>
              <path class="cls-3" d="M42.03,14.81c.21.15.27.38.29.63-.4-.06-.47-.28-.29-.63Z"/>
            </g>
          </g>
          <g id="Patented">
            <g id="Patented-2" data-name="Patented">
              <path class="cls-3" d="M56.87,52.59c.1.31-.11.4-.32.46-.59.17-1.19.3-1.78.48-.34.1-.48-.14-.65-.33-1.09-1.23-2.17-2.47-3.27-3.7-.15-.17-.27-.48-.55-.32-.31.17-.07.42-.01.64.33,1.36.64,2.71.98,4.07.09.37.05.61-.37.67-.32.05-.64.18-.96.25-1.18.27-.97.45-1.27-.75-.79-3.06-1.48-6.15-2.26-9.21-.12-.46.02-.57.37-.66.3-.07.63-.08.88-.23,1.02-.61,1.56.14,2.12.79.91,1.06,1.81,2.14,2.71,3.21.14.17.31.27.5.15.21-.13.11-.33.06-.52-.35-1.38-.68-2.76-1.03-4.14-.1-.41-.13-.67.4-.74.53-.07,1.05-.27,1.57-.43.24-.07.38-.12.46.21.79,3.29,1.6,6.58,2.4,9.87.02.07.02.15.03.22Z"/>
              <path class="cls-3" d="M80.54,42.8c.18,2.06-1.08,4.05-3.03,4.61-.9.26-1.77.6-2.7.78-.37.07-.5.02-.59-.36-.71-3.02-1.43-6.04-2.16-9.05-.02-.09-.08-.18-.12-.27-.3-.8-.22-1,.57-1.19.8-.2,1.61-.37,2.42-.55,1.8-.39,4.01.35,4.87,2.65.41,1.09.77,2.22.73,3.38Z"/>
              <path class="cls-3" d="M24.54,60.34c.07-3.28.14-6.56.22-9.84,0-.24-.04-.54.31-.56.72-.04,1.37-.36,2.06-.52.35-.08.51-.01.68.29,1.68,3.07,3.36,6.13,5.07,9.18.2.35.06.44-.18.51-.56.17-1.13.32-1.7.49-.41.12-.6-.13-.77-.45q-.6-1.17-1.78-.84s-.04.02-.07.03c-1.27.36-1.28.36-1.3,1.75,0,.39-.11.59-.48.66-.49.1-.99.18-1.44.37-.6.25-.71,0-.65-.55.02-.17,0-.35,0-.52.01,0,.02,0,.03,0Z"/>
              <path class="cls-3" d="M18.9,51.82c1.54-.18,3.28,1.22,3.22,3.2-.01.33.28.55.16.89-.34.98-.8,1.83-1.78,2.24-.46.19-.92.4-1.4.53-.4.11-.41.3-.3.64.33.98.53,1.99.75,3,.09.4.03.56-.35.7-1.95.7-1.95.71-2.46-1.33-.68-2.67-1.2-5.39-2.04-8.02-.23-.74-.1-.88.68-1.09,1.05-.27,2.08-.64,3.16-.76.12-.01.23,0,.35,0Z"/>
              <path class="cls-3" d="M68.2,43.03c.48-.13.96-.26,1.44-.38.24-.06.51-.13.49.27-.02.44.15.83.27,1.22.19.62-.13.79-.59.89-.07.01-.14,0-.21.01-.42.06-.95.06-1.1.51-.17.51.11,1.05.3,1.55.11.29.42.17.63.12.53-.13,1.05-.28,1.56-.44.2-.06.42-.12.48.11.16.59.27,1.2.38,1.8.04.25-.14.31-.34.36-1.39.36-2.79.72-4.18,1.1-.32.09-.43.07-.53-.31-.78-3.24-1.58-6.47-2.41-9.7-.13-.5.04-.65.43-.76,1.37-.36,2.75-.71,4.11-1.1.31-.09.37.06.45.28.69,1.83.69,1.82-1.16,2.35-.28.08-.76-.03-.81.44-.06.57.23,1.08.39,1.61.04.13.25.11.39.07Z"/>
              <path class="cls-3" d="M41.97,56.94c-.46.07-.59-.03-.66-.35-.79-3.27-1.59-6.53-2.39-9.79-.08-.33-.04-.52.36-.61,1.38-.32,2.75-.7,4.11-1.08.33-.09.48-.06.54.31.07.41.15.83.29,1.22.17.48,0,.69-.43.79-.42.1-.82.27-1.24.3-.63.04-.71.36-.53.89,0,.02,0,.05.01.07q.26,1.24,1.41.95t1.36.85-.75,1.36c-.18.06-.36.15-.54.16-.58.05-.66.36-.47.86.06.16.11.33.13.5.09.59.35.83.93.58.21-.09.45-.16.68-.17.39-.02.9-.53,1.11-.17.32.54.38,1.25.54,1.89.04.17-.13.27-.26.3-1.46.4-2.92.79-4.21,1.14Z"/>
              <path class="cls-3" d="M37.63,57.74c.07.26-.09.35-.29.4-.46.13-.91.26-1.37.39-.77.21-1.15-.22-1.15-1.04,0-1.03-.43-2-.65-3-.24-1.14-.57-2.27-.83-3.41-.1-.45-.27-.62-.74-.49-1.13.32-1.13.31-1.41-.89,0-.02,0-.05,0-.07-.31-1.29-.32-1.34.85-1.56,1.41-.26,2.79-.69,4.17-1.06.51-.14.7-.01.74.5.01.15.06.29.1.43.12.44.44.99.3,1.3-.16.35-.79.31-1.22.42-.43.11-.38.39-.29.74.6,2.37,1.18,4.75,1.76,7.13.02.07.02.15.03.22Z"/>
              <path class="cls-3" d="M58.29,43.74s-.1.03-.17.05q-1.2.27-1.49-1.01-.25-1.11.83-1.41c1.44-.38,2.88-.74,4.31-1.16.4-.12.52.04.62.35.07.21.1.43.16.64.36,1.26.36,1.28-.82,1.61-.47.13-.52.43-.42.84.46,1.86.92,3.71,1.38,5.57.13.55.24,1.1.39,1.64.09.32-.06.48-.31.55-.59.16-1.19.3-1.79.45-.26.07-.36-.03-.43-.31-.56-2.38-1.13-4.76-1.72-7.13-.07-.26-.05-.69-.54-.68Z"/>
            </g>
            <g>
              <path class="cls-5" d="M77.65,42.86c.07,1.15-.26,1.69-.88,2.09-.29.19-.38.13-.46-.22-.4-1.68-.82-3.35-1.25-5.02-.11-.42.04-.53.42-.51.7.04,1.13.47,1.44,1.06.49.92.64,1.95.74,2.6Z"/>
              <path class="cls-5" d="M27.18,53.72c.38.8.84,1.57,1.12,2.41.19.55-.45.29-.67.46-.11.09-.42.23-.44-.2-.03-.89-.09-1.77-.13-2.66.04,0,.08-.01.12-.02Z"/>
              <path class="cls-5" d="M19.4,55.26c0,.73-.45.96-.91,1.17-.18.08-.24-.07-.28-.23-.08-.33-.22-.67-.23-1,0-.31-.52-.74.06-.92.49-.15,1-.05,1.23.56.06.16.1.33.12.41Z"/>
            </g>
          </g>
          <g id="Stars">
            <g>
              <path class="cls-4" d="M53.42,68.12c.07.37-.05.81.41,1.02.12.05.06.22.02.34-.15.57-.3,1.13-.49,1.86-.55-.6-1.07-1.09-1.5-1.66-.29-.39-.59-.47-1.03-.41-.56.08-1.12.06-1.69.11-.38.03-.39-.08-.24-.42.22-.5.56-.91.8-1.4.3-.61.21-1.05,0-1.58-.22-.56-.43-1.13-.69-1.83.79.16,1.46.26,2.11.43.45.11.79.08,1.13-.31.36-.42.82-.74,1.23-1.12.24-.22.41-.26.45.15.01.15.07.3.06.44-.18,1.67.75,2.55,2.04,3.2.16.08.41.12.38.37-.02.2-.26.19-.4.26-.4.21-.81.42-1.21.62q-.86.44-1.26-.39c-.22-.13-.27-.37-.37-.58-.05-.25-.13-.49-.21-.72,0-.05-.02-.09-.05-.11.03.07.04.14.07.2.1.24.13.5.23.74.15.24.12.52.2.78Z"/>
              <path class="cls-4" d="M58.19,60.62s.09.01.14.03c.92.35,1.69.12,2.31-.66.1-.12.2-.32.4-.2.14.08.11.26.11.4-.06,1.03.38,1.72,1.3,2.1.13.05.29.11.3.27.02.2-.18.2-.3.24-.94.29-1.53.87-1.63,1.95-.05.5-.29.54-.55.11-.55-.88-1.32-1.09-2.26-.88-.13.03-.3.12-.4,0-.15-.19.07-.3.13-.45,0-.02.02-.05.04-.06.56-.75.74-1.52.16-2.36-.2-.29-.26-.57.26-.48Z"/>
              <path class="cls-4" d="M41.72,67.78s-.01-.06,0-.07c.53-.82.48-1.61-.03-2.42-.22-.35-.04-.48.28-.34,1.13.48,1.99.06,2.73-.83.02-.03.09-.02.17-.05.08.33.15.64.12,1.02-.05.73.52,1.08,1.07,1.38.2.11.51.18.49.46-.02.21-.32.26-.52.31-.93.22-1.25.94-1.38,1.81-.06.39-.15.61-.5.2-.5-.59-.97-1.22-1.88-.98-.16.04-.2-.17-.23-.32-.08-.09-.25-.03-.31-.16Z"/>
            </g>
            <g>
              <path class="cls-4" d="M46.93,35.55c-.51-.11-.84-.14-1.15-.26-.93-.36-1.66-.11-2.32.63-.29.33-.67.86-1.04.74-.3-.1-.18-.79-.21-1.21-.03-.42-.22-.81-.14-1.23.05-.26-.19-.25-.3-.34-.54-.4-1.08-.79-1.65-1.14-.41-.25-.32-.4.04-.56.04-.02.08-.05.13-.06,1.62-.36,2.28-1.53,2.43-3.13.01-.16,0-.39.19-.44.2-.06.27.16.36.29.87,1.36,2.01,1.98,3.59,1.55.45-.12.76,0,.37.53-1,1.32-1.08,2.67-.23,4.09.14.24.31.59-.06.54Z"/>
              <path class="cls-4" d="M51.72,31.34c.09-.4.19-.8.28-1.19.3,0,.4.23.52.39.48.66,1.04,1.02,1.87.81.23-.06.6-.2.71.05.12.27-.19.5-.38.71-.3.05.03.33-.14.43-.22.26-.28.51-.11.86.2.41.34.86.49,1.27-.21.19-.36.05-.5,0-.97-.35-1.77-.09-2.45.7-.24.27-.48.32-.45-.17.08-1.04-.32-1.74-1.25-2.13-.14-.06-.36-.12-.32-.33.03-.19.26-.18.39-.27.4-.28.98-.26,1.21-.82.21-.19.35.04.52.08.04.02.07.04.1.06-.01-.02-.04-.04-.1-.07-.19-.06-.29-.2-.38-.37Z"/>
              <path class="cls-4" d="M35.21,37.9c-.58.07-.88-.48-1.36-.66-.15-.06-.12-.25.05-.33.1-.05.22-.09.33-.13.89-.3,1.42-.9,1.5-1.89.05-.59.24-.48.52-.12.27.34.73.57.44,1.2.64-.44,1.33-.17,1.97-.32.32-.07.39.1.22.38-.03.04-.04.1-.07.13-.78.8-.61,1.65-.14,2.52.1.19.23.56-.11.42-1.23-.51-2.17-.13-3.04.96-.16-.76-.31-1.35-.16-1.97.06-.17.02-.34.04-.52-.14.08-.07.27-.18.35Z"/>
            </g>
          </g>
        </g>
      </g>
    </g>
  </g>
</svg>