<?xml version="1.0" encoding="UTF-8"?>
<svg id="Capa_2" data-name="Capa 2" xmlns="http://www.w3.org/2000/svg" viewBox="0 0 96.18 96.14">
  <defs>
    <style>
      .cls-1 {
        stroke: #254d62;
      }

      .cls-1, .cls-2 {
        fill: none;
        stroke-width: 3px;
      }

      .cls-1, .cls-2, .cls-3, .cls-4 {
        stroke-miterlimit: 10;
      }

      .cls-5 {
        fill: #254d62;
      }

      .cls-2 {
        stroke: #575756;
      }

      .cls-3 {
        fill: #5b5f60;
        stroke-width: .25px;
      }

      .cls-3, .cls-4 {
        stroke: #fff;
      }

      .cls-4 {
        fill: #5c6061;
        stroke-width: .5px;
      }

      .cls-6 {
        fill: #5c6161;
      }
    </style>
  </defs>
  <g id="Logos">
    <g id="Publications">
      <g>
        <path class="cls-2" d="M50.77,1.5c11.21.65,21.81,5.33,29.85,13.16,8.04,7.84,12.99,18.32,13.93,29.5"/>
        <path class="cls-1" d="M94.68,49.75c-.42,11.58-5.13,22.6-13.22,30.9s-18.99,13.29-30.56,14"/>
        <path class="cls-2" d="M45.25,94.65c-11.33-.68-22.04-5.48-30.09-13.49C7.11,73.15,2.25,62.48,1.5,51.15"/>
        <path class="cls-1" d="M1.5,45.09c.72-11.27,5.51-21.89,13.47-29.9C22.92,7.18,33.52,2.33,44.78,1.53"/>
      </g>
      <g>
        <path class="cls-5" d="M47.75,68.99c-5.85-.29-11.71-.89-17.55-.79-4.89.09-9.77,1-15.61,1.65-2.01-8.35-4.11-17.1-6.28-26.13,3.78-.93,3.96-.97,8.69-.99.47,0,.89.27,1.08.69,1.32,2.89,2.98,8.39,4.43,10.83.67,1.14,2.19,1.43,3.59,1.56,7.69.72,16.11,6.02,21.65,13.16Z"/>
        <path class="cls-5" d="M35.49,41.64c2.92-7.28,5.43-14.56,8.24-21.58,2.37,1.5,4.51,3.39,6.75,5.13,2.09,1.63,3.73,3.66,5.28,5.87.83,1.18,1.54,2.45,2.42,3.59,2.61,3.39,4.69,6.5,3.06,10.8-2.64,6.98-5.87,15.18-9.27,22.25"/>
        <path class="cls-3" d="M50.78,71.1c-5.54-7.14-15.29-14.36-24.68-15.27-1.21-.12-2.69-1.38-3.36-2.52-1.56-2.65-2.71-5.54-4.03-8.34-1.5-5.55-2.99-11.1-4.76-17.66,7.28,5.21,13.96,9.99,20.65,14.78,5.15,6.98,5.49,6.66,10.21,13.57,2.15,3.15,4.59,8.98,4.63,9.1.51,1.5,1.43,5.19,1.34,6.34-.04.57,0,0,0,0Z"/>
        <path class="cls-5" d="M72.6,36.08c3.65-1.57,6.17-2.34,7.44,3.29,1.86,8.24,5.08,16.18,7.82,24.56-11.58-2.75-22.44-3.68-32.13,4.05.26-1.11.25-2.38.82-3.29,4.6-7.35,9.39-14.68,16.91-19.36,3.66-2.27,3.54-4.21,1.03-6.96-.67-.73-1.26-1.52-1.89-2.29Z"/>
        <path class="cls-4" d="M72.6,36.08c.63.76,1.23,1.56,1.89,2.29,2.51,2.76,2.63,4.69-1.03,6.96-7.53,4.68-12.31,12-16.91,19.36-.57.91-.56,2.19-.82,3.29-.86.38-1.72.76-2.8,1.24-.08-1.1-.15-2.03-.22-2.97,2.91-6.88,6.03-13.68,8.67-20.66,1.63-4.3-.59-7.89-3.2-11.28-1.76-2.28-3.13-4.85-4.67-7.3,1.88-2.41,3.75-4.82,5.74-7.37,4.72,5.81,9.04,11.12,13.35,16.43Z"/>
        <path class="cls-6" d="M85.56,66.36c-5.84.86-12.27,1.31-18.42,2.9-3.76.97-6.98,3.88-10.62,5.51-2.16.97-5.12,2.26-6.94,1.51-9.21-3.79-18.53-3.89-28.1-2.3-1.11.18-2.27.03-4.87.03,11.64-5.07,22.12-5.33,32.7-1.84,2.45.81,3.77.61,6.04-.97,9.39-6.52,19.55-9.71,30.21-4.84Z"/>
      </g>
    </g>
  </g>
</svg>