<?xml version="1.0" encoding="UTF-8"?>
<svg id="Capa_2" xmlns="http://www.w3.org/2000/svg" version="1.1" viewBox="0 0 918.2 770">
  <!-- Generator: Adobe Illustrator 30.3.0, SVG Export Plug-In . SVG Version: 2.1.3 Build 182)  -->
  <defs>
    <style>
      .st0 {
        stroke: #575b5c;
        stroke-width: 20px;
      }

      .st0, .st1 {
        fill: #fff;
      }

      .st0, .st2 {
        stroke-miterlimit: 10;
      }

      .st2 {
        fill: #264d62;
        stroke: #fff;
        stroke-width: 10px;
      }
    </style>
  </defs>
  <circle class="st1" cx="533.2" cy="385" r="400"/>
  <path class="st0" d="M908.2,385c0,207.1-167.9,375-375,375s-375-167.9-375-375S326.1,10,533.2,10s375,167.9,375,375Z"/>
  <path class="st2" d="M881.8,228.9c-7.7-8.3-21.5-11.6-33.1-12.8l-13.2-1.3-16.7,1.4c-24,2-45.7,10-67.6,19.9-34.3,15.7-64.8,36.7-92.8,61.9l-29.6,29.4c-17.6,17.5-32.3,37.9-46.1,59.3-13,20-23.4,40.4-32,61.9-8.5,21.1-14.8,43.1-17.2,66.5l-.4,26c-.2,15,3.5,30.1,9.5,44.4,8.9,21,23.9,37,44.3,47.2,38.4,19.2,86.6,12.5,126.7-2.3,51.5-19,106.4-57.6,140.5-100.4,6.8-8.6,14.4-20.3,9.2-26.2-3.7-4.2-9.5-2.9-13.4,1.6-43.1,48.1-107.9,91.7-172.8,99.6-21.4,2.6-46.8-1.6-63.8-14.5l-14.2-13.2-4.6-10c-15.4-27.4-10.3-68.4-.2-98.8,19.2-58.1,58.1-112,103.9-152.5,23.9-21.1,49-39.4,77.8-52.8,23.5-10.9,56.2-21.5,79.6-12.2,8.2,3.1,12.4,10.2,11.4,19.1-1.3,12.2-12,18.1-7.4,23.4,5.6,6.5,28.6-8.4,33.4-33.1,2.3-12-2-24.6-11-31.3h-.1Z"/>
  <path class="st2" d="M673.1,147.4c-3.8-3.8-8.5-3.6-13.9-2.5-28.7,5.9-61,30.1-83.2,50.2l-42.1,38.3-19.7,18.7-20.4,19.2-20.4,20.4h-1.3l-17.9,16.9-18.6,17.5-35.5,32.9-28.8,26.3-11.9,10.9-17.5,14.9c-3.1,2.6-6.4,4.8-10.1,5.5-2.2-1.9-2.9-5-2.5-8.5,1.2-14,4.7-27,8.8-40.6l22.8-75.6,25.4-83.5c4.2-13.9,6.2-28,4.9-42.2-.6-6.8-3.8-12.2-8.5-16.4-12.1-10.8-31.1-4.9-46,4.1-15.4,9.4-27.7,21.2-39.6,34.8-17.5,20.2-33,41.3-47.3,63.2-9.7,12.4-18.1,26.2-27.1,39.8l-25.6,39.4-66.6,104.9c-32.4,51-72.4,111.4-116.9,150.7-71.8,63.4-131.3,59.8-139.4,65-.7.5-1.3.7-1.2,1.7.1.8,1.3,3,2.6,3.1,62.6,8.4,123.1-15.2,170.4-56.6,26.8-23.5,49-50,70-78.8l56.4-83,70.3-108.1c13.6-21,69.2-102.8,82.3-102.7,3,0,4.1,5.3,2.8,11.5-3.4,16.1-8,31.7-13,48l-21.6,72c-5.9,19.7-10.8,38.6-14.4,58.8l-1.3,11.6c-1.8,10.9-2,22.7,1.3,33.7,3.4,11,12.6,16.9,24,15.5,7.9-1.1,15.2-4.3,22-8.9,13.2-8.9,24.6-18.6,36.4-29.9l77-73.1,100-92.8c5.8-5.4,10.1-11.2,18.1-14.5l-13.6,25c-3.4,6.6-5.8,13.4-10.2,19.7l-3.6,8.5c-31.2,62-62.4,132-79,198.6-7.2,28.9-12.6,61.8-9,91.2,1.6,13,4.6,25.3,10.6,37.4,14.5,29,45.7,44.6,77.5,37.7,1.7-.4,3.1-2,3.7-3,1-1.6,1-3.6-.5-4.9-5-4.7-21.1-6.1-33.8-26.4-21.5-34-13.8-87.1-4.7-126l10.6-37.7c10.9-36.7,25.6-71.5,41.2-106,34.2-75.6,74.4-152.4,127.4-216.8,2.6-3.1,2.2-7.3.2-9.1h-.1Z"/>
</svg>