<?xml version="1.0" encoding="UTF-8"?>
<svg id="Capa_2" data-name="Capa 2" xmlns="http://www.w3.org/2000/svg" viewBox="0 0 918.16 770">
  <defs>
    <style>
      .cls-1 {
        stroke: #fff;
        stroke-width: 7px;
      }

      .cls-1, .cls-2 {
        fill: #264d62;
      }

      .cls-1, .cls-3 {
        stroke-miterlimit: 10;
      }

      .cls-3 {
        fill: none;
        stroke: #575b5c;
        stroke-width: 20px;
      }
    </style>
  </defs>
  <g id="Capa_1-2" data-name="Capa 1">
    <path class="cls-3" d="M908.16,385c0,207.11-167.89,375-375,375s-375-167.89-375-375S326.06,10,533.16,10c231.11,0,375,167.89,375,375Z"/>
    <path class="cls-2" d="M856.22,268.97c-6.44-6.89-17.89-9.73-27.56-10.67l-11-1.07-13.87,1.21c-19.96,1.74-38.09,8.26-56.31,16.63-28.56,13.13-53.97,30.59-77.34,51.57l-24.68,24.45c-14.74,14.6-26.92,31.59-38.44,49.4-10.79,16.68-19.46,33.68-26.69,51.56-7.12,17.6-12.33,35.88-14.29,55.38l-.33,21.74c-.19,12.53,2.88,25.11,7.9,36.97,7.4,17.48,19.92,30.8,36.87,39.28,32.01,16.01,72.24,10.41,105.57-1.9,42.88-15.83,88.68-47.97,117.12-83.74,5.69-7.15,12-16.94,7.69-21.79-3.09-3.48-7.88-2.35-11.18,1.34-35.88,40.1-89.89,76.44-143.98,83.02-17.84,2.17-38.98-1.35-53.19-12.1l-11.85-10.97-3.81-8.26c-12.78-22.8-8.63-56.97-.24-82.28,16.04-48.38,48.41-93.3,86.61-127.08,19.86-17.56,40.75-32.78,64.83-44,19.63-9.14,46.76-17.91,66.27-10.25,6.75,2.65,10.27,8.51,9.49,15.87-1.07,10.2-9.98,15.13-6.21,19.47,4.72,5.42,23.81-7.03,27.79-27.65,1.92-9.95-1.74-20.45-9.18-26.13Z"/>
    <path class="cls-1" d="M670.1,196c-3.21-3.16-7.07-3.04-11.61-2.1-23.86,4.92-50.83,25.09-69.28,41.82l-35.11,31.85-16.44,15.6-16.97,16.04-17.03,16.97c-.29,0-.72.05-1.1-.08l-14.88,14.1-15.45,14.6-29.56,27.38-24.02,21.94-9.94,9.1-14.57,12.41c-2.64,2.25-5.32,4.04-8.43,4.56-1.76-1.61-2.38-4.19-2.13-7.06,1.03-11.74,3.86-22.54,7.26-33.78l19.03-62.98,21.21-69.58c3.55-11.63,5.24-23.27,4.12-35.17-.54-5.74-3.25-10.19-7.15-13.67-10.06-8.97-25.91-4.13-38.28,3.41-12.77,7.79-23.12,17.68-32.98,29.02-14.6,16.79-27.45,34.44-39.38,52.72-8.09,10.26-15.15,21.77-22.58,33.22l-21.28,32.77-55.49,87.44c-26.99,42.53-60.27,92.77-97.42,125.56-59.79,52.78-109.36,49.78-116.16,54.24-.61.4-1.1.59-.97,1.43.11.7,1.13,2.48,2.17,2.62,52.24,6.95,102.65-12.68,142-47.2,22.34-19.6,40.76-41.67,58.3-65.71l46.96-69.24,58.6-90.13c11.34-17.45,57.73-85.66,68.65-85.55,2.49.03,3.35,4.41,2.28,9.63-2.78,13.44-6.69,26.39-10.79,40.04l-18.02,59.95c-4.92,16.36-8.98,32.22-12.04,48.97l-1.07,9.74c-1.46,9.13-1.67,18.92,1.09,28.12,2.76,9.19,10.51,14.13,20.01,12.89,6.61-.86,12.68-3.64,18.29-7.43,11.01-7.43,20.51-15.54,30.31-24.85l64.17-60.91,83.29-77.34c4.82-4.48,8.44-9.31,15.08-12.1l-11.31,20.81c-2.83,5.54-4.77,11.21-8.55,16.41l-3.01,7.1c-26.03,51.66-52.05,110.02-65.75,165.48-5.96,24.13-10.52,51.55-7.53,76.04,1.32,10.75,3.79,21.08,8.83,31.15,12.11,24.18,38.06,37.24,64.57,31.38,1.41-.31,2.58-1.71,3.07-2.51.8-1.29.85-2.95-.38-4.08-4.18-3.86-17.56-5.09-28.21-22-17.87-28.35-11.53-72.63-3.86-104.96l8.79-31.43c9.06-30.58,21.27-59.62,34.26-88.29,28.55-63.03,61.95-126.96,106.18-180.71,2.18-2.65,1.75-6.1.18-7.65Z"/>
  </g>
</svg>