<?xml version="1.0" encoding="UTF-8"?>
<svg id="Capa_2" data-name="Capa 2" xmlns="http://www.w3.org/2000/svg" viewBox="0 0 96.18 96.14">
  <defs>
    <style>
      .cls-1 {
        fill: #243885;
      }

      .cls-2 {
        fill: #36478e;
      }

      .cls-3 {
        fill: #394c94;
      }

      .cls-4 {
        fill: #384990;
      }

      .cls-5 {
        fill: #34448d;
      }

      .cls-6 {
        fill: #52504f;
      }

      .cls-7 {
        fill: #304089;
      }

      .cls-8 {
        fill: #34458e;
      }

      .cls-9 {
        fill: #33458f;
      }

      .cls-10 {
        fill: #2d3c84;
      }

      .cls-11 {
        fill: #313f89;
      }

      .cls-12 {
        fill: #636260;
      }

      .cls-13 {
        fill: #2d3d8a;
      }

      .cls-14 {
        fill: #32418c;
      }

      .cls-15 {
        fill: #36478f;
      }

      .cls-16 {
        fill: #2f3f8c;
      }

      .cls-17 {
        fill: #2d3d87;
      }

      .cls-18 {
        fill: #33468e;
      }

      .cls-19 {
        fill: #303f89;
      }

      .cls-20 {
        fill: #5b5a59;
      }

      .cls-21 {
        fill: #35468f;
      }

      .cls-22 {
        fill: #253784;
      }

      .cls-23 {
        fill: #585857;
      }

      .cls-24 {
        fill: #51504f;
      }

      .cls-25 {
        fill: #394a92;
      }

      .cls-26 {
        fill: #293884;
      }

      .cls-27 {
        fill: #2a3a88;
      }

      .cls-28 {
        fill: #535251;
      }

      .cls-29 {
        fill: #264d62;
      }

      .cls-30 {
        fill: #263684;
      }

      .cls-31 {
        fill: #2f3d89;
      }

      .cls-32 {
        fill: #575655;
      }

      .cls-33 {
        fill: #fff;
      }

      .cls-34 {
        fill: #2f3d88;
      }

      .cls-35 {
        fill: #273985;
      }

      .cls-36 {
        fill: #2a3b86;
      }

      .cls-37 {
        stroke: #264d62;
      }

      .cls-37, .cls-38 {
        fill: none;
        stroke-miterlimit: 10;
        stroke-width: 3px;
      }

      .cls-39 {
        fill: #555553;
      }

      .cls-40 {
        fill: #33468f;
      }

      .cls-41 {
        fill: #394891;
      }

      .cls-42 {
        fill: #384991;
      }

      .cls-43 {
        fill: #5a5858;
      }

      .cls-44 {
        fill: #253785;
      }

      .cls-45 {
        fill: #364990;
      }

      .cls-46 {
        fill: #52524f;
      }

      .cls-47 {
        fill: #2d3c88;
      }

      .cls-48 {
        fill: #254f64;
      }

      .cls-49 {
        fill: #5e5d5d;
      }

      .cls-50 {
        fill: #35448d;
      }

      .cls-51 {
        fill: #34438c;
      }

      .cls-52 {
        fill: #253885;
      }

      .cls-53 {
        fill: #34438f;
      }

      .cls-54 {
        fill: #263983;
      }

      .cls-55 {
        fill: #2b3a88;
      }

      .cls-56 {
        fill: #3a4b91;
      }

      .cls-57 {
        fill: #384892;
      }

      .cls-58 {
        fill: #263784;
      }

      .cls-59 {
        fill: #2b3986;
      }

      .cls-60 {
        fill: #31428d;
      }

      .cls-61 {
        fill: #31428a;
      }

      .cls-62 {
        fill: #394992;
      }

      .cls-63 {
        fill: #34438e;
      }

      .cls-64 {
        fill: #61615f;
      }

      .cls-65 {
        fill: #5e5d5c;
      }

      .cls-66 {
        fill: #2f3d8d;
      }

      .cls-67 {
        fill: #2e3d88;
      }

      .cls-68 {
        fill: #243882;
      }

      .cls-69 {
        fill: #4f4d4c;
      }

      .cls-70 {
        fill: #2b3b87;
      }

      .cls-71 {
        fill: #30408a;
      }

      .cls-72 {
        fill: #394b94;
      }

      .cls-73 {
        fill: #374892;
      }

      .cls-74 {
        fill: #5e5d5b;
      }

      .cls-75 {
        fill: #364790;
      }

      .cls-76 {
        fill: #37478f;
      }

      .cls-77 {
        fill: #2a3a84;
      }

      .cls-78 {
        fill: #61605e;
      }

      .cls-79 {
        fill: #35458e;
      }

      .cls-80 {
        fill: #2a3984;
      }

      .cls-81 {
        fill: #384790;
      }

      .cls-82 {
        fill: #60615f;
      }

      .cls-83 {
        fill: #31418b;
      }

      .cls-84 {
        fill: #5c5b5a;
      }

      .cls-85 {
        fill: #364991;
      }

      .cls-86 {
        fill: #35458d;
      }

      .cls-87 {
        fill: #2c3b88;
      }

      .cls-88 {
        fill: #2a3a87;
      }

      .cls-89 {
        fill: #565555;
      }

      .cls-38 {
        stroke: #575756;
      }

      .cls-90 {
        fill: #263681;
      }

      .cls-91 {
        fill: #35448f;
      }

      .cls-92 {
        fill: #2f3c89;
      }

      .cls-93 {
        fill: #283581;
      }

      .cls-94 {
        fill: #575553;
      }

      .cls-95 {
        fill: #555452;
      }

      .cls-96 {
        fill: #2b3a83;
      }

      .cls-97 {
        fill: #394b92;
      }

      .cls-98 {
        fill: #283986;
      }

      .cls-99 {
        fill: #2a3b85;
      }

      .cls-100 {
        fill: #364690;
      }

      .cls-101 {
        fill: #2b3a87;
      }

      .cls-102 {
        fill: #626260;
      }

      .cls-103 {
        fill: #615f5e;
      }

      .cls-104 {
        fill: #273984;
      }

      .cls-105 {
        fill: #626161;
      }

      .cls-106 {
        fill: #504e4c;
      }

      .cls-107 {
        fill: #605f5e;
      }

      .cls-108 {
        fill: #36468f;
      }

      .cls-109 {
        fill: #394b91;
      }

      .cls-110 {
        fill: #273682;
      }

      .cls-111 {
        fill: #32438c;
      }

      .cls-112 {
        fill: #253783;
      }

      .cls-113 {
        fill: #585756;
      }

      .cls-114 {
        fill: #2e3b87;
      }

      .cls-115 {
        fill: #535351;
      }

      .cls-116 {
        fill: #5c5b58;
      }

      .cls-117 {
        fill: #34458d;
      }

      .cls-118 {
        fill: #595958;
      }

      .cls-119 {
        fill: #293a85;
      }

      .cls-120 {
        fill: #314089;
      }

      .cls-121 {
        fill: #273884;
      }

      .cls-122 {
        fill: #feffff;
      }

      .cls-123 {
        fill: #374992;
      }

      .cls-124 {
        fill: #2c3c88;
      }

      .cls-125 {
        fill: #243883;
      }

      .cls-126 {
        fill: #5f5e5c;
      }

      .cls-127 {
        fill: #33408a;
      }

      .cls-128 {
        fill: #384891;
      }

      .cls-129 {
        fill: #2b3984;
      }

      .cls-130 {
        fill: #5f5e5e;
      }

      .cls-131 {
        fill: #5a5958;
      }

      .cls-132 {
        fill: #273987;
      }

      .cls-133 {
        fill: #34428d;
      }

      .cls-134 {
        fill: #2b3c88;
      }

      .cls-135 {
        fill: #263682;
      }

      .cls-136 {
        fill: #37478e;
      }

      .cls-137 {
        fill: #3a4b92;
      }

      .cls-138 {
        fill: #273a85;
      }

      .cls-139 {
        fill: #535150;
      }

      .cls-140 {
        fill: #253782;
      }
    </style>
  </defs>
  <g id="Logos">
    <g>
      <g>
        <path class="cls-12" d="M53.77,10.36c.27.07.56.08.83,0,1.09.13,2.14,1.37,2.79,2.17.33.39.67.73,1.03,1.03.56.56.94.91,1.45,1.55.21.3.45.54.72.72.38.38.5.48.83.93.16.24.33.41.52.52,1.61,1.58,3.05,3.32,4.55,5.02.33.15.94-.48,1.22-.64.32-.18.71-.43,1.05-.55.47-.12.96-.19,1.45-.1.32.11.52.31.78.51l16.06,16.12c.02.28-.02.56-.1.83-.1.17.06.18-.31.31-2.9.07-5.89.14-8.78-.1-.22-.07-.32-.17-.41-.21-.1-.13-.27-.15-.41-.1-1.23-.49-2.68-1.42-3.93-1.76-.72-.34-1.78-.31-2.64-.25-.01,0,.25-.05.26.05-2.44.51-4.74,2-7.07,2.69-.97.29-1.8.31-2.74-.11.19-.57.48-1.1.65-1.68.13-.45.15-.88.28-1.32.05-.48.14-1.56-.21-2.07-.3-1.23-1.08-2.36-2.08-3.14-.22-.17-1.25-.72-1.28-.78-.13-.22-.02-.83-.05-1.14.12-.12.16-.06.1.1.02.13.06.13.1,0-.2-.8-.44-1.46-.72-1.96-.41-.45-.73-.99-1.24-1.4-.17-.14-1.02-.59-1.04-.67-.08-.12-.27-.13-.41-.1-.36-.11-1.65-.28-1.74-.33-.06-.03-.6-.92-.8-1.11-.4-.4-1-.67-1.39-1.03-.13-.14-.51-.35-.83-.31-.22-.07-.5-.17-.72-.21-.06-.2-1.78-.23-1.73-.15.02.02.04.04.07.05-1.11.23-2.08.54-3,1.24-.35.08-.79.55-.83.83-.62.69-.38.36-1.17.74s-1.29.73-1.81,1.4c-.43.55-.86,1.71-1.19,2.07-.3.33-1.45.89-1.93,1.32-1.75,1.55-2.4,3.89-1.93,6.17.07.34.58,1.46.57,1.56-.03.35-.75,1.24-1.11,1.31-.79-.08-1.59-.08-2.38,0-1.42.05-2.84.1-4.27.14l.13.06-2.69.21c-.17-.04-.82-.13-.72,0-.57.13-1.27.18-1.86.21-.25-.08-1.08-.09-.52,0-.12.18-.42.09-.62.1-.39-.1-.74-.06-1.03.1-.5.01-1.13,0-1.24-.62l.1-.83c.15-.34.57-.68.83-.93.1-.01.2-.11.31-.31.21-.37,2.34-3.04,2.55-3.08.17-.04.54-.04.71-.03.02,0,.02-.11.25-.2.11.04.84-.09.62-.21.63-.28,1.29-.66,1.86-1.03.36-.24.6-.51.72-.83.72-.93,1.02-1.78,1.26-2.92,2.87-3.08,6.22-5.78,9.23-8.75.42-.33.85-.56,1.39-.62.27.08.56.08.83,0,.97.11,1.63.72,2.48,1.09l8.61-8.6c.52-.41,1.04-.88,1.72-.97Z"/>
        <path class="cls-29" d="M48.09,23.49c.22.03.43.07.62.1.23.03.47.03.72,0,1.33.28,2.55,1.49,2.89,2.79,2.79-.66,5.18,2.02,3.82,4.65,2.68.56,4.65,3.06,3.82,5.84-.03.1-.11.35-.2.36-.09-.11-.12.11-.1.41-.15.34-.9,1.23-.91,1.31-.02.12.17.35.19.55-.08.2-.09.42,0,.62.04.2.07.4.1.62,0,.14.05.34-.1.41-.1-.08-.04.1,0,.21-.19,1.03-1.4,2.08-2.38,2.38-.65.09-1.31.13-1.96.1-.69-.15-1.24-.51-1.7-1.03-.27.47-.71.77-1.08,1.13-.19.11-.36.28-.52.52-.18.25-.99,1.13-1.01,1.21-.11.37-.01,1.42-.02,1.89-.13,1.18-.12,2.54,0,3.72-.15.63-2.83.62-3-.1.11-1.88.15-3.89,0-5.79-.04-.11-.04-.23-.15-.31l-2.92-2.98c-.44.14-.71.49-1.14.68-3.65,1.6-6.97-2.57-4.38-5.62-.24-.4-.52-.73-.72-1.17-.15-.58-.25-1.16-.31-1.76-.04-.15-.07-.32-.1-.52,0-.17-.06-.43.1-.52.1.08.04-.1,0-.21.21-1.4,1.58-2.55,2.72-3.22.19-.11,1.02-.44,1.05-.49.06-.09.19-.98.34-1.32.33-.74,1.05-1.49,1.81-1.81.35-.14.93-.17,1.2-.35.14-.09.55-.93.78-1.18.65-.72,1.58-1.1,2.53-1.14Z"/>
        <path class="cls-12" d="M28.35,61.71c.99.06,2.03.11,3,0,.82.03,1.69.09,2.48.31-.4.01-.33.05.21.1.5.08,1.02.15,1.55.21,4.12.91,7.76,3.05,10.64,6.1l.68.77c.06,4.49.11,8.95.15,13.38,0,.34.04.77,0,1.09-.02.14.06.18-.15.15-2.61-2.01-5.08-4.24-7.94-5.91-2.26-1.32-5.03-2.52-7.51-3.19-.16-.14-.42-.16-.62-.1-.96-.23-1.94-.38-2.89-.62-.99-.17-2.14-.36-3.2-.21h-.83c-.21-.13-2.44-.01-2.33.04.02.01.04.04.06.06-.4.15-.98.16-1.45.21-.2-.01-.38-.05-.52-.1,1.55-3.99,3.73-7.8,5.26-11.81.11-.13.46-.16.63-.17.16.08.58.08.31,0,.05-.14.2-.1.31-.1.44.03.89.02,1.33-.05.79.08.8.07.01-.05.17-.18.57-.1.83-.1Z"/>
        <path class="cls-12" d="M68.65,61.92c.31.01,1.35.12,1.55.26.16.12,1.13,2.67,1.33,3.11,1.28,2.91,2.67,5.76,3.93,8.68l-.03.24-.98-.21c-1.03-.15-2.11-.27-3.24-.36-.02,0,.45-.02.35.15-.48,0-.97,0-1.45,0-.76-.1-1.59-.07-2.35.05,0,0,.03.02.08.05l-.07.08c-.36,0-.71.1-1.07.12-.16-.08-.58-.08-.31,0-.05.14-.2.09-.31.1-.14-.06-1.01-.03-.83.1-1.38.3-2.8.76-4.13,1.24-.28-.03-.77.09-.72.21-4.27,1.68-8.65,4.94-12.09,7.96-.06,0-.1-.01-.1-.02-.05-4.84-.06-9.83,0-14.65.11-.24.29-.28.41-.41.26-.17.62-.47.62-.62,1.46-1.46,2.92-2.63,4.75-3.62.34-.05,1.05-.36.93-.41,2.02-.94,3.78-1.49,5.99-1.86.22,0,.39.03.52.1,2.35-.5,4.82-.43,7.23-.31Z"/>
        <path class="cls-48" d="M16.27,32.99c.17.07.35.07.52,0,.24.06.35.32.41.52v.62c-.17.47-.37.38-.72.67.24.14.51,1,.63,1.08.1.07.6-.31.93-.26.54.09.73.8.54,1.27-.14.34-.6.5-.64.55-.05.08.1.24.1.3-.01.25.06.45.21.62.22.58.26.55.05,1.23,1.43,2.43,2.73,4.94,4.03,7.45.23.22.71-.09.98-.16.34-.09.68-.18,1.03-.25h2.27c1.76.35,2.99,1.85,3.44,3.54.23.85.21,2.25.69,2.92.4.56,2.54,1.48,3.3,1.97,1.18.76,3.42,2.52,3.62,3.97-.07.16-.07.33,0,.52v1.14c-.05.14,0,.3-.25.31-.83-.23-1.7-.56-2.54-.72,0-.08-.11-.08-.31,0-.33-.06-.74-.06-1.03-.21.12-.11-.2-.05-.31,0-.42-.02-.98-.07-1.34-.21.33-.02.15-.05-.56-.09l-.16-.11c-1,.05-2.01.07-3.02.06l.12.04-3.2.41c-.45-.06-1.34.08-1.45.21-.02.06-.18.13-.24.24-.58,1.1-1.22,2.45-1.73,3.59-.16.15-.25.4-.21.62l-.77,1.75c-.53-.65-.83-1.46-.98-2.27.05-.12.11-.36,0-.21-.17-.09-.1-.35-.1-.52.03-.6.07-1.18.1-1.76.13-.92.14-1.82.05-2.71l-.05.13c-.29-.61-.73-1.12-1.14-1.65-.29-.36-.6-.67-.93-.93-.77-.83-1.43-1.59-1.55-2.79.07-.41.07-.83,0-1.24.12-1.22.86-2.26,1.76-3.05.19-.17.84-.47.81-.7l-3.51-7.65c-.2-.24-.55-.12-.87-.37-.24-.19-.33-.47-.46-.73,0-.2-.11-.38-.21-.41-.32-.03-.27.06-.52.1h-.72c-.16-.07-.34-.26-.41-.41-.08-.34.03-.64.21-.93.13-.14.42-.34.42-.37,0-.07-.41-.92-.47-.98-.12-.13-.22.01-.26,0l-.93.1c-.65-.12-.61-.93-.25-1.34.14-.15.62-.35.64-.47,0-.05-.18-.53-.23-.58-.16-.16-.37-.01-.68-.31-.09-.22-.13-.46-.1-.72.42-.95,3.67-2.58,4.68-2.35.71.16.24.77.3,1.14.01.09.34.62.39.65.12.07.46-.23.62-.27Z"/>
        <path class="cls-12" d="M71.02,39.29h1.03c.46.14,1.13.69,1.54.99,1.89,1.39,4.58,3.43,6.26,5,.27.25.51.43.57.82-.07.23-.07.49,0,.72-.06.4-.29.71-.62.93-.73.11-.9.18-.52.21-.51.13-.61.16-1.13-.06l-6.27-4.17-5.11,2.69c-.04.06.1.3.1.41-.02.09.01.69.1.41.53,1.48,1.19,3.1,2.17,4.34-.14-1.99.89-4,2.89-4.55.11.06.38.1.21,0,.07-.16.28-.1.41-.1.23.08.49.08.72,0,1.74.16,3.26,1.82,3.31,3.56.02.67-.19,1.13-.42,1.71-.15.2-.32.48-.31.72-.88,1.4-2.49,2.19-4.13,1.76.08-.1-.1-.05-.21,0-1.31-.14-3.03-1.25-4.34-1.65-.3-.23-.92-.33-1.34-.31-1.12-.21-2.16-.25-3.31-.21l-.02-.11c.68-.02,1.34-.05,1.98-.09-.64.04-1.29.07-1.95.1l-.07-.1c-.08.14-.26.2-.56.17l.09.04c-.22.17-.56.15-.83.21-.09-.05-.77,0-.52.1-1.04.28-2.05.76-3.1,1.03-.69.06-1.73.2-2.17.41-.03,0-.07,0-.1,0-.48-.08-.97-.07-1.45,0-.39-.03-.6-.13-.93-.21-.14-.12-.34-.16-.62-.1-.27-.08-.84-.29-1.07-.43-.13-.07-.24-.14-.06-.24,2.44-1.62,5.04-2.97,7.74-4.09.11.03.85-.09.62-.21.38-.15,2.25-.78,2.38-.88.2-.16-.05-.74-.1-.98.04-.2,0-.4-.1-.62-.11-.3-.18-.51-.21-.83.1-.43.07-1.15,0-.31-.17-.11-.1-.42-.1-.62.08-.23.07-.49,0-.72.15-1.34,1.24-1.41,2.27-1.86.26.02.74-.12.62-.21.96-.41,1.92-.85,2.89-1.24.26.04.52,0,.41-.1,1.08-.43,2.17-1.09,3.31-1.34Z"/>
        <path class="cls-48" d="M28.66,75.97c-.12.11.2.05.31,0,.27.02.69.08.93.21-.08.1.1.05.21,0,5.62,1.11,10.78,3.98,15.08,7.68l1.96.9c.1.08,1.07.08.72,0,1.86-.66,3.29-2.11,4.88-3.23,3.04-2.12,6.39-3.86,9.99-4.83.59-.07,1.17-.18,1.76-.31.32-.09.32-.17.83-.21.18-.05.37-.06.58-.04l-.06-.06s.15-.08.31-.1c2.17-.23,4.38-.23,6.61,0,.07,0,.14,0,.21,0,.2.07.4.11.62.1.18.08.36.08.52,0,.21.05,1.07,1.65,1.24,1.96.47.85.86,1.74,1.34,2.58-1.41-.14-2.82-.36-4.24-.52-.47-.05-1.04-.07-1.45-.21-.07-.12-.58-.05-.83,0-.93,0-1.86-.03-2.79,0-1.15-.08-2.31,0-3.48.23-.86-.06-.98-.04-.35.08-1.16.23-2.34.47-3.51.62l-.18.07c-.56.03-.74.07-.54.14-1.07.28-2.17.65-3.2,1.03-.11-.03-.84.09-.62.21-1.92.77-3.37,1.75-5.06,2.89-.21.13-.35.26-.41.41-.35.33-.55.53-1.03.72-.19-.03-.76.05-.41.1-.91.24-1.16.24-2.07,0-.03-.15-.27-.12-.41-.1-.5-.2-.67-.41-1.03-.72-.13-.22-.34-.43-.62-.62-3.24-2.27-6.66-3.56-10.54-4.34-.72-.25-1.54-.42-2.49-.5l-.1-.11c-.13.07-.33.11-.62.1-.57-.07-1.22-.04-1.76-.21-.13-.08-.33-.08-.62,0-.26,0-.66.08-.83-.1.29-.03.57-.06.83-.1-1.33.09-2.87.09-4.24,0,.25.04.53.07.83.1-.2.19-.64.1-.93.1-.23-.08-.97-.1-.52,0-.15.2-.5.08-.72.1-1.46.17-2.88.63-4.34.83.47-.93.93-1.88,1.45-2.79.29-.5.73-1.41,1.14-1.76.52-.14.65-.21.41-.21.63-.2,1.31-.28,1.96-.31.25.08,1.08.09.52,0,.11-.17.39-.1.57-.11,1.39-.02,2.82-.02,4.19.31Z"/>
        <path class="cls-48" d="M47.36,53.86c.14.13.32.25.52.21,1.16.5,2.32,1.16,3.51,1.55-.03.15.27.12.41.1,1.69.48,3.13.56,4.86.21.48-.02,1.23-.16,1.55-.41.02-.12.49-.26.62-.31.3,0,.86-.12,1.03-.31.31-.1.57-.22.93-.31.24.05,1.04-.06.62-.1.35-.07.67-.17,1.03-.21.87.04,1.73.04,2.58,0,.8.09,6.34,1.66,6.41,2.07.09.14.35.14.52.1.3.08.66.16.93.31-.07.11.2.05.31,0,.58-.02,1.18-.01,1.76,0,.12.06.46.11.31,0,.31-.07.62-.15.93-.21.27.03.54,0,.83-.1.55-.22,1.1-.41,1.65-.62.26.05.52,0,.41-.1.75-.27,1.49-.74,2.27-.93h.93c.16.07.45.36.52.52v.83c-.23.67-2.1,1.2-2.79,1.45-.83.16-1.62.4-2.38.72-.39.1-.7.27-1.14.31-.12-.05-.36-.11-.21,0-3.17.95-6.12-.6-9.01-1.68l-2.66-.59.12-.05c-.46.02-.91,0-1.36-.06-.43.08-.87.13-1.31.14l.07.06c-.35.22-.77.16-1.14.21-.51.11-.68.18-.52.21-.99.36-1.97.78-3,1.03-.56.07-1.11.14-1.65.21-.72.05-1.44.08-2.17.1-.17,0-.43.06-.52-.1.22-.01.15-.05-.21-.1-.47-.07-.95-.14-1.45-.21-1.91-.52-3.42-1.5-5.17-2.17-.09-.13-.27-.15-.41-.1-.65-.21-1.31-.34-1.96-.52.05-.12-.28-.05-.41,0-.44,0-.9-.02-1.34,0-.09-.03-.09-.06,0-.1.09-.06.09-.1,0-.1l-.02.11c-.48,0-.78.06-.91.2-.59.11-1.23.45-1.76.52-.2-.07-.42-.07-.62,0-.31-.07-.61-.41-.68-.72-.25-1.11.91-1.36,1.71-1.61.49-.15,1.08-.26,1.55-.36.62.02,1.25,0,1.86-.1,1.44-.08,2.76.51,4.03,1.03Z"/>
        <path class="cls-48" d="M31.97,12.43h.93c.35.15.47.47.52.83-.07.16-.08.35,0,.52.02.48.07,1.13-.1,1.55-.03-.51-.07-.99-.1-1.45.08.8.08,1.72,0,2.53.01.81-.02,1.62-.1,2.43-.09.33-.08.7,0,1.03-.19,1.18-2.41,1.55-3.1.67-.82-1.04,1.1-1.62,1.85-1.72.04-.16,0-.33.01-.5.07-.39.08-.84.04-1.23,0,0,0,.05-.04.09-.12-.09-.02-.32-.25-.32-.68,0-3.01,1.21-3.78,1.56-.12,0-.14.17-.17.44.04,2.22-.1,4.58-.25,6.89-.05,1.16-.12,2.33-.21,3.51-.98,2.29-5.12,3.32-6.66,1.13-1.36-1.93.15-3.81,2.01-4.54.21-.01,1.06-.12.83-.21.79-.18,1.46-.39,2.27,0,.02-2.51-.02-5.03,0-7.54.09-1.1.09-2.2,0-3.31.14-.82,1.56-1.02,2.27-1.24.37,0,.99-.11,1.24-.31.77-.23,1.58-.54,2.25-.72.18-.05.36-.08.54-.11Z"/>
        <path class="cls-48" d="M47.05,58.1c.16.15.4.25.62.21,1.35.57,2.58,1.4,4.03,1.76.62.27,1.31.38,2.07.31.82.33.69,1.31-.31,1.45-.12-.05-.36-.11-.21,0-.07.16-.28.09-.41.1-.58-.06-1.17-.04-1.76,0-2.1-.29-3.67-1.73-5.68-2.17-.05,0-.09-.02-.11-.05-.2-.24-2.07-.18-2.58-.15-.34-.05-.6-.31-.72-.62v-.72c.39-1.01,2.63-.74,3.53-.59.62.11.97.28,1.53.49Z"/>
        <path class="cls-48" d="M81.56,59.65c.44.28.52.76.37,1.25-.28.89-3.02,1.65-3.88,1.85-.25.03-.49.07-.72.1-.57.15-1.16.22-1.76.21-.64.05-1.3.08-1.96.1-.42-.02-.81-.08-1.23-.12l-1.04-2.47c1.36.52,2.74.58,4.19.52.76-.03,1.35-.22,1.99-.41,1.08-.33,2.06-.85,3.02-1.15.35,0,.69.02,1.03.1Z"/>
        <path class="cls-91" d="M47.05,82.58c-.12-.16-.17-.59-.17-.79,0-4.19.17-8.39-.06-12.57l-.6-.8c.27.29.79.54.83.98-.07,4.39.07,8.79,0,13.18Z"/>
        <path class="cls-74" d="M86.62,38.78c-.86.3-3.79.09-4.91.1-1.52.02-2.3.27-3.87-.2l8.78.1Z"/>
        <path class="cls-30" d="M48.29,83.72s-.14.31-.21.15v-14.48c-.06-.17.05-.25.1-.35l.1,14.67Z"/>
        <path class="cls-123" d="M65.96,61.71l1.14.1c.21,0,.41,0,.62,0l.52.1c.12.02.28-.02.41,0-2.42-.11-4.81.06-7.23.31-.28-.03-.26-.13,0-.21.37-.05.85-.07,1.24-.1l.52-.1c.2-.02.42.01.62,0,.48-.08.96-.12,1.45-.1.24,0,.48,0,.72,0Z"/>
        <path class="cls-62" d="M70.4,75.66l1.03.1c.43.02.97.04,1.34.21-1.44-.12-3.05-.18-4.5-.11-.65.03-1.49.32-2.11.11.72-.1,1.45-.15,2.17-.21.34-.08.68-.11,1.03-.1.34-.02.69,0,1.03,0Z"/>
        <path class="cls-40" d="M27.84,18.42c-.02.07-.1.15-.1.21.06.48.09.97,0,1.45,0,.38,0,.76,0,1.14l-.1,1.24c0,.38,0,.76,0,1.14l-.1,1.14c0,.38,0,.76,0,1.14-.13.14-.17.08-.1-.1.08-1.66.15-3.35.21-5.01.02-.44-.11-2.19.1-2.39.05-.04.1.06.1.06Z"/>
        <path class="cls-25" d="M71.54,73.8s-.08-.09-.16-.1c-.27-.02-.54,0-.82,0-.12,0-.38.08-.36-.1,1.53-.03,3.03.18,4.54.31l-.31.1c-.96-.08-1.93-.12-2.89-.21Z"/>
        <path class="cls-95" d="M47.26,51.17v-5.79c.05.13.09.14.11.35.13,1.44.01,3.38,0,4.87,0,.17.07.46-.11.57Z"/>
        <path class="cls-116" d="M33.11,38.36c.25-.06.35-.02.31.1-.62,0-1.25,0-1.86,0l-1.55.1c-.34,0-.69,0-1.03,0l-1.03-.1c1.72,0,3.44-.16,5.17-.1Z"/>
        <path class="cls-117" d="M67.41,79.9c-.67.02-1.4.05-2.07.1l-.52.1c-.42.03-.82.13-1.24.1l-.41-.1c.95-.01,1.9-.25,2.84-.31.41-.03,1.02-.07,1.39.1Z"/>
        <path class="cls-133" d="M33.31,15.32c0,.41,0,.83,0,1.24l-.1,1.24c0,.38,0,.76,0,1.14-.03.09-.06.09-.1,0v-.1c.02-.79.1-1.67.1-2.43v-2.53h.1c0,.48,0,.97,0,1.45Z"/>
        <path class="cls-53" d="M24.94,79.79c-.27,0-.55,0-.83,0v-.1s4.24,0,4.24,0v.1c-.27,0-.55,0-.83,0-.85.02-1.73.02-2.58,0Z"/>
        <path class="cls-85" d="M31.35,80c.68.07,1.55.26,2.24.4.19.04.4-.09.34.22-.85-.17-1.72-.3-2.58-.41-.27-.07-.27-.12,0-.21Z"/>
        <path class="cls-126" d="M70.71,36.4c-.11,0-.34.07-.31-.1.93-.11,1.84-.08,2.75.19l-.07.12c-.79-.21-1.58-.17-2.38-.21Z"/>
        <path class="cls-75" d="M21.64,73.9c-.13,0-.52.08-.52-.1l3.62-.21-.83.21c-.38,0-.76,0-1.14,0l-.62.1c-.17,0-.35,0-.52,0Z"/>
        <path class="cls-98" d="M65.03,54.27c-.11.17-.39.1-.57.11-.64,0-1.41.08-2.02-.11.97-.11,1.61-.11,2.58,0Z"/>
        <path class="cls-100" d="M24.74,73.8c1.15-.31,2.35.06,3.51.1.03.17-.19.1-.31.1-.46.02-.89-.07-1.34-.1-.25,0-.49-.03-.72-.1-.37-.02-.76,0-1.14,0Z"/>
        <path class="cls-42" d="M26.6,46.63c-.67.17-1.61.17-2.27,0,.77-.16,1.51-.15,2.27,0Z"/>
        <path class="cls-123" d="M27.53,25.86c0,.07,0,.14,0,.21l-.1.93c0,.31.01.62,0,.93-.06.3-.1.61-.1.93-.03.12-.06.31-.1.41l.1-3.26c-.03-.1.11-.22.11-.25l.1.1Z"/>
        <path class="cls-6" d="M50.26,51.28c-.17-.11-.1-.39-.11-.57,0-.86-.01-1.73,0-2.59,0-.17-.07-.46.11-.57-.02,1.24.01,2.48,0,3.72Z"/>
        <path class="cls-60" d="M31.14,59.65c.09.03.09.06,0,.1-.19.1-.5.07-.72,0-.72,0-1.45.01-2.17,0-.18,0-.66.09-.72-.1,1.2.05,2.42-.07,3.62,0Z"/>
        <path class="cls-5" d="M42.71,59.54c.71-.2,1.61-.13,2.33,0,.19.03.41-.12.35.21-.93-.21-1.86-.08-2.69-.21Z"/>
        <path class="cls-102" d="M58.42,28.96c-.03.09-.06.09-.1,0,0-.05-.05-.09-.1-.1-.07-.68-.28-1.23-.52-1.86,0,0,.07-.08.11-.05.25.21.58,1.63.62,2.01Z"/>
        <path class="cls-75" d="M80.01,57.58c-.78.28-1.58.51-2.38.72l-.07-.12c.68-.13,1.32-.41,1.98-.61.14-.04.37-.2.47,0Z"/>
        <path class="cls-51" d="M57.7,53.86c-.69.18-1.46.36-2.17.41-.06-.33.17-.17.36-.2.45-.07.87-.15,1.31-.25.15-.03.4-.16.5.04Z"/>
        <path class="cls-84" d="M61.62,33.92c.28-.06.2.14.24.32.14.74.05,1.51.07,2.26-.19,0-.1-.39-.1-.52-.02-.73-.03-1.34-.21-2.07Z"/>
        <path class="cls-114" d="M25.67,18.11c0-.92-.14-2.49,0-3.31.17.11.1.39.11.57,0,.72,0,1.45,0,2.17,0,.17.07.46-.11.57Z"/>
        <path class="cls-105" d="M56.56,43.74c-.74.23-1.19.27-1.96.1l.57-.11h1.4Z"/>
        <path class="cls-75" d="M19.67,61.82c-.03.09-.06.09-.1,0,0-.1,0-.21,0-.31l.1-.62c0-.24,0-.48,0-.72.08-.2.08-.42,0-.62,0-.1,0-.21,0-.31,0-.07-.03-.32.1-.15.01.28.12.54.11.83-.01.59-.18,1.32-.22,1.91Z"/>
        <path class="cls-64" d="M37.96,35.99c-.26-.59-.37-1.12-.41-1.76.03-.09.06-.09.1,0,.07.42.2.87.31,1.29.04.14.2.37,0,.47Z"/>
        <path class="cls-30" d="M31.35,61.71c-.11.17-.39.1-.57.11-.78,0-1.68.08-2.43-.11.99,0,2.01-.04,3,0Z"/>
        <path class="cls-83" d="M70.09,73.8c-.34,0-.69,0-1.03,0l-.72.1c-.17,0-.35,0-.52,0-.12,0-.43.08-.41-.1.88.02,1.82-.29,2.69,0Z"/>
        <path class="cls-56" d="M62.14,52.52c-.07,0-.14,0-.21,0v-.1c.22.1.56-.1.67-.1h2.01c.02.18-.23.1-.36.1-.45.02-.9-.02-1.35,0-.13,0-.23.11-.25.11-.16.01-.36.01-.52,0Z"/>
        <path class="cls-62" d="M53.77,60.37c-.33.16-1,.04-1.38-.01-.16-.02-.77-.02-.68-.3.26.06.52.15.79.19.38.07.89-.04,1.28.12Z"/>
        <path class="cls-102" d="M35.48,38.36s-.07,0-.1,0l-1.76.1c-.07,0-.14,0-.21,0-.05-.13-.2-.1-.31-.1.7-.17,1.67-.17,2.38,0Z"/>
        <path class="cls-58" d="M52.84,61.92c-.7.05-1.03.1-1.76,0,.48-.17,1.27-.17,1.76,0Z"/>
        <path class="cls-86" d="M43.33,52.83s-.08.09-.16.1c-.54.04-1.22.22-1.7,0,.63-.13,1.22-.11,1.86-.1Z"/>
        <path class="cls-107" d="M47.88,21.73c-.12,0-.43.08-.41-.1.57.01,1.14-.02,1.71,0,.2,0,.41-.11.36.21-.58-.11-1.08-.08-1.65-.1Z"/>
        <path class="cls-63" d="M58.21,55.51s.16.03.1.1c-.06.06-1.48.53-1.65.31.53-.11,1.02-.33,1.55-.41Z"/>
        <path class="cls-63" d="M57.49,57.89c-.53.13-1.11.27-1.65.31-.09-.03-.09-.06,0-.1.48-.04,1.19-.41,1.65-.21Z"/>
        <path class="cls-21" d="M64.51,76.38c-.5.14-1.26.48-1.76.31.57-.15,1.16-.35,1.76-.31Z"/>
        <path class="cls-8" d="M52.94,57.99c.09.03.09.06,0,.1-.49-.04-.98-.18-1.45-.31.37-.21,1.03.13,1.45.21Z"/>
        <path class="cls-49" d="M70.2,21.01l-1.45.1c.57-.21.83-.31,1.45-.1Z"/>
        <path class="cls-73" d="M77.33,62.85c.09.03.09.06,0,.1-.37.07-.67.07-1.03.1l-.52.1c-.07,0-.14,0-.21,0-.09-.03-.09-.06,0-.1.52-.04,1.21-.12,1.76-.21Z"/>
        <path class="cls-70" d="M55.84,58.1v.1c-.68.05-1.48.01-2.17,0,.66-.24,1.47-.04,2.17-.1Z"/>
        <path class="cls-8" d="M35.59,62.33c-.44.2-1.11-.12-1.55-.21-.09-.03-.09-.06,0-.1.49.04,1.06.2,1.55.31Z"/>
        <path class="cls-41" d="M27.53,61.82l.62.1c-.65-.13-1.38.27-1.96,0,.45-.02.89-.12,1.34-.1Z"/>
        <path class="cls-81" d="M25.05,60.16l-1.45.21s-.09-.06-.1-.1c.49,0,1.1-.4,1.55-.11Z"/>
        <path class="cls-136" d="M29.18,13.26l.07.12c-.41,0-.93.45-1.31.19.41-.13.85-.19,1.24-.31Z"/>
        <path class="cls-43" d="M58.42,13.57c-.04.21-.26-.11-.31-.16-.33-.33-.47-.57-.72-.88.42.27.69.69,1.03,1.03Z"/>
        <path class="cls-85" d="M65.96,52.72c.28-.2.84.05,1.16.14.07.02.45.07.19.17-.37-.11-.95-.24-1.34-.31Z"/>
        <path class="cls-112" d="M75.57,63.06v.1c-.62.03-1.35.03-1.96,0,.59-.22,1.33-.06,1.96-.1Z"/>
        <path class="cls-15" d="M63.38,56.24c.09.03.09.06,0,.1-.43.01-.83.1-1.24.1-.11,0-.34.07-.31-.1.52-.08,1.03-.09,1.55-.1Z"/>
        <path class="cls-109" d="M63.38,56.24c.58-.02,1.17,0,1.76,0,0,.19-.38.1-.52.1-.41.01-.83-.01-1.24,0v-.1Z"/>
        <path class="cls-109" d="M59.87,54.89l.07.12c-.34,0-.79.43-1.1.19.37-.15.68-.2,1.03-.31Z"/>
        <path class="cls-61" d="M18.54,57.58c-.38-.24-.63-.61-.93-.93.04-.21.26.11.31.16.3.3.4.48.62.77Z"/>
        <path class="cls-131" d="M44.88,22.97c-.34.26-.55.51-.83.83-.24-.09.02-.28.1-.36.11-.11.55-.7.72-.46Z"/>
        <path class="cls-93" d="M19.57,63.57c-.01-.58,0-1.17,0-1.76h.1c-.03.57.11,1.25-.1,1.76Z"/>
        <path class="cls-12" d="M35.38,38.36c-.5.19-1.2.1-1.76.1.5-.23,1.19-.05,1.76-.1Z"/>
        <path class="cls-138" d="M72.06,39.29c-.21.17-.8.18-1.03,0,.45-.1.55-.15,1.03,0Z"/>
        <path class="cls-47" d="M81.56,59.65c-.22.15-.66-.06-.96-.02l-.07-.08c.44-.13.63-.15,1.03.1Z"/>
        <path class="cls-134" d="M11.93,39.4c-.23-.49-.09-.6.21-.93l-.21.93Z"/>
        <path class="cls-88" d="M32.9,12.43c-.19.17-.74.17-.93,0,.36-.07.51-.18.93,0Z"/>
        <path class="cls-78" d="M51.08,22.35c-.29-.06-.55-.22-.83-.31.1-.2.45-.02.62.05.4.18.19.24.21.26Z"/>
        <path class="cls-118" d="M27.53,31.96c.22-.3.5-.53.72-.83l.1.05c-.12.39-.53.58-.83.77Z"/>
        <path class="cls-12" d="M31.56,38.47c-.43.19-1.06.1-1.55.1.43-.19,1.06-.1,1.55-.1Z"/>
        <path class="cls-6" d="M22.57,39.09c-.35.02-.68.09-1.03.1-.12-.34.81-.26,1.03-.1Z"/>
        <path class="cls-72" d="M65.24,61.71c-.43.02-.98.07-1.45.1.39-.23.99-.05,1.45-.1Z"/>
        <path class="cls-2" d="M23.39,25.66c.65-.03-.66.4-.83.21.34-.13.51-.13.83-.21Z"/>
        <path class="cls-80" d="M82.29,54.79c-.19.17-.74.17-.93,0,.35-.09.57-.16.93,0Z"/>
        <path class="cls-109" d="M37.65,60.68c-.19-.28,0-.74,0-1.14.1.44.18.66,0,1.14Z"/>
        <path class="cls-125" d="M31.87,18.32c.01-.38-.02-.76,0-1.14,0-.11-.07-.34.1-.31-.06.45.13,1.04-.1,1.45Z"/>
        <path class="cls-3" d="M27.73,20.08c0-.45-.05-1.03,0-1.45.17.35.18,1.08,0,1.45Z"/>
        <path class="cls-71" d="M54.91,63.99l.1.1c-.36.05-.63.33-.98.41l-.06-.1c.3-.16.62-.27.93-.41Z"/>
        <path class="cls-131" d="M60.59,15.84l-.05.1c-.15-.18-.39-.34-.52-.51-.1-.13-.12-.28-.15-.31.31.16.49.49.72.72Z"/>
        <path class="cls-68" d="M55.42,54.27c-.43.03-1.02.03-1.45,0,.37-.18,1.1-.17,1.45,0Z"/>
        <path class="cls-62" d="M70.2,79.9c.37-.23.92-.05,1.34-.1,0,.19-.38.1-.52.1-.27,0-.55,0-.83,0Z"/>
        <path class="cls-42" d="M60.07,80.83c-.18.23-.51.15-.72.21-.14,0-.24.05-.21-.1.3-.12.68-.07.93-.1Z"/>
        <path class="cls-23" d="M26.29,38.78c-.24,0-.48,0-.72,0-.15,0-.6.09-.62-.1.42.05.97-.13,1.34.1Z"/>
        <path class="cls-62" d="M42.2,54.79c.09.03.09.06,0,.1v.1c-.36.02-.57.04-.93.1.01-.04-.02-.19,0-.21.04-.03.78-.09.93-.1Z"/>
        <path class="cls-40" d="M31.14,59.65c.37.02.82.19,1.24.1,0,.19-.38.1-.52.1-.21,0-.41,0-.62,0-.08-.02-.11-.05-.1-.1v-.1Z"/>
        <path class="cls-3" d="M33.21,17.8c0-.39-.09-.93.1-1.24,0,.39.09.93-.1,1.24Z"/>
        <path class="cls-115" d="M86.93,38.47c.03-.26-.1-.65.1-.83.19.44.09.49-.1.83Z"/>
        <path class="cls-85" d="M59.66,49.01c.6-.04-.43.45-.62.21.21-.09.43-.13.62-.21Z"/>
        <path class="cls-111" d="M28.35,79.9c.34-.23.86-.05,1.24-.1-.02.19-.47.1-.62.1-.21,0-.41,0-.62,0Z"/>
        <path class="cls-82" d="M25.67,32.99c.6-.04-.43.45-.62.21.19-.07.46-.14.62-.21Z"/>
        <path class="cls-97" d="M66.06,74.21c-.26.03-.58.05-.83.1-.65-.01.6-.37.83-.1Z"/>
        <path class="cls-11" d="M48.6,68.64c.21-.23.4-.4.62-.62l.1.05c-.23.2-.4.53-.72.57Z"/>
        <path class="cls-79" d="M47.16,84.75c.24,0,.48,0,.72,0,.06,0,.43-.05.26.1h-1.14c-.16-.14.08-.1.15-.1Z"/>
        <path class="cls-101" d="M41.99,58.92c-.13-.35-.13-.38,0-.72.17.13.17.59,0,.72Z"/>
        <path class="cls-121" d="M82.8,56.13c-.17-.16-.17-.66,0-.83.13.3.1.53,0,.83Z"/>
        <path class="cls-90" d="M16.06,53.86c-.03-.34-.03-.9,0-1.24.18.3.17.96,0,1.24Z"/>
        <path class="cls-3" d="M27.63,22.45c0-.39-.09-.93.1-1.24,0,.39.09.93-.1,1.24Z"/>
        <path class="cls-127" d="M45.09,85.58c-.22-.19-.48-.35-.62-.62.23.16.54.27.72.57l-.1.05Z"/>
        <path class="cls-25" d="M21.64,64.19c-.07.15-.11.4-.21.62-.26-.18.11-.49.1-.72l.1.1Z"/>
        <path class="cls-19" d="M76.29,52.21c-.1.25-.16.49-.31.72l-.1-.06c.05-.27.28-.48.31-.77l.1.1Z"/>
        <path class="cls-85" d="M61.42,54.48c.16.01.35-.07.31.1-.31-.08-.72.24-.93,0,.22-.05.42-.06.62-.1Z"/>
        <path class="cls-54" d="M10.38,34.54c-.26-.25-.26-.36-.1-.72.2.15.08.5.1.72Z"/>
        <path class="cls-72" d="M67.1,61.82c-.36,0-.86.09-1.14-.1.35-.01.87-.08,1.14.1Z"/>
        <path class="cls-22" d="M23.91,75.76c.21,0,.41,0,.62,0,0,.19-.43.1-.57.1-.17,0-.46.06-.57-.11.17,0,.35,0,.52,0Z"/>
        <path class="cls-120" d="M11.82,37.12c-.25.12-.67.15-.93.1.28-.22.65-.13.93-.1Z"/>
        <path class="cls-57" d="M56.15,82.07c-.21.08-.42.12-.62.21-.6.04.43-.45.62-.21Z"/>
        <path class="cls-128" d="M78.05,62.75c-.23.05-.43.15-.72.21v-.1c.19-.03.47-.27.72-.1Z"/>
        <path class="cls-3" d="M27.53,24.73c0-.36-.09-.86.1-1.14,0,.36.09.86-.1,1.14Z"/>
        <path class="cls-85" d="M61.11,75.56c-.24.09-.51.12-.72.21l-.1-.1c.26,0,.63-.35.83-.1Z"/>
        <path class="cls-4" d="M64.41,41.98l.1.1c-.24,0-.55.37-.72.1.23-.1.46-.14.62-.21Z"/>
        <path class="cls-130" d="M23.7,38.98c-.17,0-.35,0-.52,0-.21,0-.41,0-.62,0,0-.19.43-.1.57-.1.17,0,.46-.06.57.11Z"/>
        <path class="cls-62" d="M79.81,47.77c-.16.1-.33.16-.52.21-.16-.01-.35.07-.31-.1l.77-.2.06.1Z"/>
        <path class="cls-87" d="M77.02,56.44c-.23.09-.62.35-.83.1.28-.05.54-.15.83-.1Z"/>
        <path class="cls-8" d="M61,56.65c-.11.23-.37.15-.52.21-.57-.08.22-.17.52-.21Z"/>
        <path class="cls-20" d="M20.29,38.57c-.05-.26,0-.58.1-.83.18.14.02.64-.1.83Z"/>
        <path class="cls-14" d="M52.43,53.96c.21-.23,1.23.1.62.1-.2-.04-.4-.03-.62-.1Z"/>
        <path class="cls-32" d="M61.93,17.29l-.05.1c-.27-.14-.34-.45-.47-.62.25.1.36.36.52.52Z"/>
        <path class="cls-128" d="M47.67,58.3c-.18.26-.49-.11-.72-.1l.1-.1c.19.07.41.12.62.21Z"/>
        <path class="cls-3" d="M71.44,75.76c-.33-.02-.79.1-1.03-.1.32,0,.8-.08,1.03.1Z"/>
        <path class="cls-123" d="M33.11,18.94c.1.21.08.5,0,.72,0,.07.01.14,0,.21-.18-.23-.17-.82,0-1.03,0,.03,0,.07,0,.1Z"/>
        <path class="cls-3" d="M69.37,75.66c-.26.01-.7.08-1.03.1.25-.22.71-.06,1.03-.1Z"/>
        <path class="cls-113" d="M51.81,43.94c-.16.16-.27.42-.52.52.12-.17.19-.48.47-.62l.05.1Z"/>
        <path class="cls-110" d="M13.06,39.81c-.28.05-.41.14-.72,0,.13-.17.59-.17.72,0Z"/>
        <path class="cls-67" d="M61.31,52.72c-.17.04-.36.06-.52.1-.58.01.3-.36.52-.1Z"/>
        <path class="cls-109" d="M18.23,38.36c-.43-.19-.2-.45-.21-.62.11.19.14.44.21.62Z"/>
        <path class="cls-44" d="M31.35,80v.21c-.21-.03-.41-.08-.62-.1.1-.16.44-.12.62-.1Z"/>
        <path class="cls-3" d="M27.42,27c0-.29-.08-.73.1-.93,0,.29.08.73-.1.93Z"/>
        <path class="cls-42" d="M49.02,86.3c-.17.07-.27.06-.41.1-.16-.01-.35.07-.31-.1.23.05.58-.22.72,0Z"/>
        <path class="cls-45" d="M24.01,79.9c-.17,0-.35,0-.52,0-.14,0-.28,0-.41,0v-.1c.29.04.71-.11.93.1Z"/>
        <path class="cls-110" d="M17.19,34.13c-.17-.1-.17-.52,0-.62.09.28.11.32,0,.62Z"/>
        <path class="cls-18" d="M46.12,86.3c.14-.22.49.05.72,0,.04.17-.15.09-.31.1-.14-.04-.24-.03-.41-.1Z"/>
        <path class="cls-124" d="M30.83,74.63c.16-.24.49.02.72,0l-.1.1c-.16-.04-.41-.05-.62-.1Z"/>
        <path class="cls-3" d="M27.32,28.86c.04-.29-.11-.72.1-.93-.02.4-.02.54-.1.93Z"/>
        <path class="cls-97" d="M65.86,76.07c.14,0,.24-.05.21.1-.18.08-.57,0-.72,0,.09-.18.36-.08.52-.1Z"/>
        <path class="cls-65" d="M49.43,23.59c-.2.28-.57.02-.72,0-.09-.03-.09-.06,0-.1.12,0,.6.08.72.1Z"/>
        <path class="cls-69" d="M40.96,18.84c-.16.17-.66.17-.83,0,.22-.02.61-.02.83,0Z"/>
        <path class="cls-106" d="M54.6,10.36c-.16.17-.66.17-.83,0,.21-.03.61-.02.83,0Z"/>
        <path class="cls-31" d="M47.88,54.07c-.1.24-.42-.13-.62-.1l.1-.1c.17.07.34.13.52.21Z"/>
        <path class="cls-21" d="M43.54,55c.19-.21.57-.07.83-.1v.1c-.14,0-.28,0-.41,0s-.28,0-.41,0Z"/>
        <path class="cls-76" d="M51.39,55.62c.11.04.27.06.41.1-.21.23-.97-.12-.41-.1Z"/>
        <path class="cls-108" d="M66.99,47.25c-.01.47-.16.05-.2-.27-.02-.17.09-.14.09-.15.1.12.06.3.1.41Z"/>
        <path class="cls-99" d="M61.93,47.15c-.05-.2-.12-.4-.1-.62.04.12.42.4.1.62Z"/>
        <path class="cls-9" d="M61.62,45.7c0-.1,0-.21,0-.31,0-.17,0-.34,0-.52h.1c-.03.25.11.64-.1.83Z"/>
        <path class="cls-72" d="M31.14,59.75s.09.05.1.1c-.26,0-.66.08-.83-.1.23,0,.51-.03.72,0Z"/>
        <path class="cls-15" d="M13.79,40.12c-.07-.13-.2-.24-.21-.41,0,0,.05-.1.1-.05.11.09.18.27.2.41l-.1.06Z"/>
        <path class="cls-83" d="M71.95,56.44c-.03.2-.59.03-.62,0-.06-.07.1-.09.1-.1.18,0,.35.06.52.1Z"/>
        <path class="cls-140" d="M20.19,74.11c-.21.02-.41.05-.62.1-.06-.19.09-.18.1-.21.17,0,.43-.06.52.1Z"/>
        <path class="cls-34" d="M21.43,76.07c.55.09-.17.05-.36.31l-.05-.1c.24-.21.14-.12.41-.21Z"/>
        <path class="cls-7" d="M50.46,85.17c-.08.21-.28.29-.41.41l-.1-.05c.11-.24.38-.27.51-.36Z"/>
        <path class="cls-96" d="M73.4,46.94c-.13.17-.59.17-.72,0,.23,0,.5-.02.72,0Z"/>
        <path class="cls-72" d="M26.6,73.9c-.23-.02-.58.09-.72-.1.28.02.55.09.72.1Z"/>
        <path class="cls-72" d="M69.06,73.8c-.14.18-.5.1-.72.1.14-.18.5-.1.72-.1Z"/>
        <path class="cls-135" d="M80.43,46.84c-.17-.13-.17-.59,0-.72.02.17.02.56,0,.72Z"/>
        <path class="cls-97" d="M67.72,40.64l.1.1c-.16,0-.42.21-.52,0,.16-.06.32-.07.41-.1Z"/>
        <path class="cls-42" d="M45.92,55.51c.1-.21.35,0,.52,0l-.1.1c-.09-.04-.27-.06-.41-.1Z"/>
        <path class="cls-126" d="M77.02,38.36c.1-.21.35,0,.52,0l-.1.1c-.11-.04-.25-.04-.41-.1Z"/>
        <path class="cls-3" d="M33.11,19.66c.02-.24,0-.48,0-.72h.1c0,.23.08.58-.1.72Z"/>
        <path class="cls-28" d="M59.04,40.74c-.17-.11-.1-.42-.1-.62v-.1c.18.14.11.5.1.72Z"/>
        <path class="cls-103" d="M55.01,24.83c.01-.18.5-.02.52,0,.06.07-.1.09-.1.1-.16.02-.28-.06-.41-.1Z"/>
        <path class="cls-10" d="M61.52,44.77c0-.23-.02-.51,0-.72.17.13.17.59,0,.72Z"/>
        <path class="cls-74" d="M59.76,37.23c.01.15-.04.28-.1.41-.18-.01-.02-.5,0-.52.07-.06.09.1.1.1Z"/>
        <path class="cls-72" d="M19.67,60.16c0-.21,0-.41,0-.62.17.1.17.52,0,.62Z"/>
        <path class="cls-52" d="M75.26,56.75c.1,0,.21,0,.31,0v.1c-.19-.02-.5.08-.62-.1.1,0,.21,0,.31,0Z"/>
        <path class="cls-22" d="M61.42,62.23c-.16.02-.44.05-.52-.1.18-.03.37-.08.52-.1v.21Z"/>
        <path class="cls-105" d="M58.94,40.02s0,.07,0,.1c-.17-.1-.17-.52,0-.62.02.17,0,.35,0,.52Z"/>
        <path class="cls-72" d="M19.57,61.51c0-.2-.07-.51.1-.62,0,.2.07.51-.1.62Z"/>
        <path class="cls-89" d="M21.22,36.81c.09-.09.14-.27.31-.31-.07.12-.06.32-.26.41l-.05-.1Z"/>
        <path class="cls-80" d="M33.21,60.06c.12-.19.43-.09.62-.1v.1c-.1,0-.21,0-.31,0s-.21,0-.31,0Z"/>
        <path class="cls-70" d="M52.94,57.99c.19.03.42-.02.62,0v.1s-.41,0-.41,0c-.07,0-.14,0-.21,0v-.1Z"/>
        <path class="cls-72" d="M22.77,73.8c-.11.17-.42.1-.62.1.11-.17.42-.1.62-.1Z"/>
        <path class="cls-26" d="M39.51,55.62c-.14.02-.5.03-.62,0,.1-.17.52-.17.62,0Z"/>
        <path class="cls-139" d="M48.71,23.49v.1c-.19-.03-.5.09-.62-.1.2,0,.42-.01.62,0Z"/>
        <path class="cls-137" d="M73.61,76.07c-.19-.02-.5.09-.62-.1.27.03.42.07.62.1Z"/>
        <path class="cls-119" d="M28.66,75.97c.1,0,.21,0,.31,0-.12.19-.43.09-.62.1v-.1c.1,0,.21,0,.31,0Z"/>
        <path class="cls-92" d="M79.08,55.72l.1.1c-.16,0-.42.21-.52,0,.13-.05.28-.06.41-.1Z"/>
        <path class="cls-99" d="M74.12,76.07c-.14.28-.45,0-.52,0,.16.03.35-.02.52,0Z"/>
        <path class="cls-90" d="M16.78,32.99c-.07.16-.45.16-.52,0,.09-.02.44-.02.52,0Z"/>
        <path class="cls-59" d="M72.88,56.75c.1,0,.21,0,.31,0-.09.17-.36.09-.52.1v-.1c.07,0,.14,0,.21,0Z"/>
        <path class="cls-104" d="M34.55,60.27c.27-.27.82,0,.31,0-.09-.02-.21.02-.31,0Z"/>
        <path class="cls-104" d="M25.87,62.02c.07,0,.14,0,.21,0v.1c-.16,0-.42.07-.52-.1.1,0,.21,0,.31,0Z"/>
        <path class="cls-35" d="M19.67,64.3c0-.07,0-.14,0-.21,0-.1,0-.21,0-.31h.1c0,.16.07.42-.1.52Z"/>
        <path class="cls-3" d="M65.34,80c-.05,0-.31.09-.52.1.09-.17.35-.1.52-.1Z"/>
        <path class="cls-1" d="M33.83,62.02c.07,0,.14,0,.21,0v.1c-.15-.03-.35.02-.52,0v-.1c.1,0,.21,0,.31,0Z"/>
        <path class="cls-94" d="M37.65,34.23h-.1c-.01-.17,0-.35,0-.52.18.09.08.36.1.52Z"/>
        <path class="cls-72" d="M63.17,61.82c-.09.17-.35.1-.52.1.1,0,.29-.09.52-.1Z"/>
        <path class="cls-55" d="M71.64,54.69c.09-.17.36-.09.52-.1v.1c-.1,0-.21,0-.31,0-.07,0-.14,0-.21,0Z"/>
        <path class="cls-77" d="M66.68,74.11c-.1,0-.21,0-.31,0-.07,0-.14,0-.21,0v-.1c.16,0,.42-.07.52.1Z"/>
        <path class="cls-17" d="M33.42,13.77c-.16-.07-.16-.45,0-.52.02.16,0,.35,0,.52Z"/>
        <path class="cls-46" d="M58.94,41.15c0,.07.01.15,0,.21-.17-.09-.09-.36-.1-.52h.1c0,.1,0,.21,0,.31Z"/>
        <path class="cls-132" d="M37.65,59.54c-.02-.1-.27-.36,0-.52.02.15,0,.36,0,.52Z"/>
        <path class="cls-101" d="M76.5,58.61c-.07,0-.14,0-.21,0-.1,0-.21,0-.31,0v-.1c.16,0,.42-.07.52.1Z"/>
        <path class="cls-104" d="M72.26,47.04c.1,0,.21,0,.31,0v.1c-.16,0-.42.07-.52-.1.07,0,.14,0,.21,0Z"/>
        <path class="cls-35" d="M53.46,61.82c-.06,0-.14,0-.21,0-.1,0-.21,0-.31,0v-.1c.16,0,.42-.07.52.1Z"/>
        <path class="cls-6" d="M37.65,32.99c.17.09.09.36.1.52h-.1c0-.1,0-.21,0-.31,0-.07,0-.14,0-.21Z"/>
        <path class="cls-72" d="M68.23,61.92c-.17,0-.43.06-.52-.1.27.01.36.07.52.1Z"/>
        <path class="cls-3" d="M76.29,63.06c-.08,0-.28.09-.52.1.09-.17.35-.1.52-.1Z"/>
        <path class="cls-36" d="M29.9,76.18c.07,0,.14,0,.21,0-.09.17-.36.09-.52.1v-.1c.1,0,.21,0,.31,0Z"/>
        <path class="cls-24" d="M58.42,28.96c.01.14.03,1.03-.05,1.03-.13-.31,0-.71-.05-1.03h.1Z"/>
        <path class="cls-122" d="M50.57,41.98c-.08.04-.28.24-.31.21v-3.51c.61.54,1.31,1.1,2.17,1.14.14.13-.76.88-.88,1.03-.13.17-.23.35-.36.52-.17.25-.37.45-.62.62Z"/>
        <path class="cls-122" d="M47.26,38.36c.09.65.1,1.32,0,1.96l-.21,1.24-1.86-2.43.41-.15c.02-.07.09-.07.21,0,.47-.09.86-.44,1.27-.64.18-.09.07-.1.17.02Z"/>
        <rect class="cls-65" x="50.05" y="38.67" width=".1" height="3.72"/>
        <path class="cls-20" d="M47.26,38.36c.13.15.1.17.11.35.07.95-.06,1.99,0,2.95-.18.02-.1-.23-.1-.36-.01-.33,0-.66,0-.98,0-.65,0-1.31,0-1.96Z"/>
        <path class="cls-23" d="M50.57,41.98l.62-.62c-.3.4-.12.38-.62.62Z"/>
        <path class="cls-39" d="M45.81,38.98c-.06.01-.14,0-.21,0h-.41s0-.1,0-.1c.19.02.5-.08.62.1Z"/>
        <path class="cls-33" d="M27.32,55.1c.07.13.07.24,0,.31-.12.71-.83,1.71-1.45,2.07-.18.25-.63.35-.93.31-1.23-.02-1.83-.16-2.69-1.08-.13-.14-.44-.66-.51-.67-.18-.19-.26-.62-.21-.93,0-.23-.03-.51,0-.72-.07-.14-.07-.24,0-.31.57-3.21,5.95-2.85,5.79,1.03Z"/>
        <path class="cls-50" d="M25.87,57.48c.16.23-.59.41-.77.41-.08,0-.15-.1-.16-.1.26-.09.71-.18.93-.31Z"/>
        <path class="cls-8" d="M21.74,56.03s-.05.09-.1.1c-.02-.21-.17-.41-.19-.6-.04-.29.08-.39.08-.43l.21.93Z"/>
        <path class="cls-129" d="M27.32,55.1c.27.27,0,.82,0,.31.01-.09,0-.21,0-.31Z"/>
        <path class="cls-119" d="M21.53,54.07c-.02.09.01.21,0,.31-.27-.27,0-.82,0-.31Z"/>
        <rect class="cls-66" x="67.51" y="79.69" width="2.38" height=".1"/>
        <rect class="cls-1" x="73.3" y="56.86" width="1.45" height=".1"/>
        <path class="cls-27" d="M42.2,54.79c.15-.01,1.24-.03,1.24.05l-1.24.05v-.1Z"/>
        <path class="cls-16" d="M55.11,56.24c.02.18-.23.1-.36.1-.22.01-.45,0-.67,0-.02-.18.23-.1.36-.1.22-.01.45,0,.67,0Z"/>
        <rect class="cls-13" x="73.71" y="61.2" width="1.55" height=".1"/>
      </g>
      <g>
        <path class="cls-38" d="M50.77,1.5c11.21.65,21.81,5.33,29.85,13.16,8.04,7.84,12.99,18.32,13.93,29.5"/>
        <path class="cls-37" d="M94.68,49.75c-.42,11.58-5.13,22.6-13.22,30.9s-18.99,13.29-30.56,14"/>
        <path class="cls-38" d="M45.25,94.65c-11.33-.68-22.04-5.48-30.09-13.49S2.25,62.48,1.5,51.15"/>
        <path class="cls-37" d="M1.5,45.09c.72-11.27,5.51-21.89,13.47-29.9C22.92,7.18,33.52,2.33,44.78,1.53"/>
      </g>
    </g>
  </g>
</svg>