<?xml version="1.0" encoding="UTF-8"?>
<svg id="Capa_2" data-name="Capa 2" xmlns="http://www.w3.org/2000/svg" viewBox="0 0 96.18 96.14">
  <defs>
    <style>
      .cls-1 {
        stroke: #254d62;
      }

      .cls-1, .cls-2, .cls-3, .cls-4, .cls-5 {
        stroke-miterlimit: 10;
      }

      .cls-1, .cls-2, .cls-4 {
        fill: none;
      }

      .cls-1, .cls-4 {
        stroke-width: 3px;
      }

      .cls-6, .cls-7, .cls-5 {
        fill: #264d62;
      }

      .cls-7 {
        font-family: FreestyleScript-Regular, 'Freestyle Script';
        font-size: 4px;
        letter-spacing: .01em;
      }

      .cls-2, .cls-3 {
        stroke: #5d6061;
        stroke-width: 2px;
      }

      .cls-3 {
        fill: #fff;
      }

      .cls-4 {
        stroke: #575756;
      }

      .cls-5 {
        stroke: #fff;
      }
    </style>
  </defs>
  <g id="Logos">
    <g id="Membership">
      <g>
        <path class="cls-4" d="M50.77,1.5c11.21.65,21.81,5.33,29.85,13.16,8.04,7.84,12.99,18.32,13.93,29.5"/>
        <path class="cls-1" d="M94.68,49.75c-.42,11.58-5.13,22.6-13.22,30.9s-18.99,13.29-30.56,14"/>
        <path class="cls-4" d="M45.25,94.65c-11.33-.68-22.04-5.48-30.09-13.49C7.11,73.15,2.25,62.48,1.5,51.15"/>
        <path class="cls-1" d="M1.5,45.09c.72-11.27,5.51-21.89,13.47-29.9S33.52,2.33,44.78,1.53"/>
      </g>
      <g id="Membership-2" data-name="Membership">
        <rect class="cls-2" x="23.18" y="21.3" width="49.72" height="59.18"/>
        <g>
          <path class="cls-6" d="M45.37,46.73h5.95c3.45,0,6.26,2.8,6.26,6.26v5.21h-19.09v-4.59c0-3.8,3.08-6.88,6.88-6.88Z"/>
          <circle class="cls-6" cx="48.04" cy="41.11" r="4.39"/>
        </g>
        <rect class="cls-2" x="29.49" y="32.62" width="37.11" height="25.79"/>
        <line class="cls-2" x1="29.49" y1="68.87" x2="66.6" y2="68.58"/>
        <line class="cls-2" x1="29.49" y1="75.35" x2="38.8" y2="75.21"/>
        <line class="cls-2" x1="41.93" y1="75.28" x2="58.69" y2="75.28"/>
        <polygon class="cls-3" points="53.2 29.46 42.95 29.51 39.59 13.97 56.49 13.97 53.2 29.46"/>
        <circle class="cls-2" cx="48.04" cy="21.74" r="3.16"/>
        <text class="cls-7" transform="translate(31.06 64.33) scale(2.22 1)"><tspan x="0" y="0">Miguel Claros</tspan></text>
        <path class="cls-5" d="M63.74,68.55c.64.94.99,1.99,1.18,3.17.09-.23.16-.4.23-.58,1.94-4.77,4.74-8.95,8.57-12.42,1.85-1.68,3.9-3.07,6.2-4.07,1.48-.64,3.02-1.08,4.62-1.29.04,0,.08,0,.12,0,.06,0,.13-.06.16.04-1.11.59-2.17,1.26-3.19,2-.96.69-1.87,1.45-2.73,2.26-.04.04-.08.07-.12.1-.05.05-.13.05-.15.13-.28.29-.56.58-.85.87-2.07,2.12-3.79,4.5-5.3,7.03-1.38,2.3-2.56,4.71-3.77,7.1-.66,1.31-1.34,2.62-2.16,3.84-.53.79-1.12,1.52-1.9,2.09-.15.11-.25.12-.41,0-.57-.46-.98-1.05-1.31-1.7-.54-1.06-.89-2.19-1.27-3.32-.33-1-.67-2.01-1.15-2.95-.32-.62-.7-1.19-1.22-1.66-.66-.6-1.45-.88-2.33-.9-.14,0-.28,0-.42,0,.51-1.62,1.69-2.66,3.16-2.56.1,0,.2.03.3.04.05.07.12,0,.18.03.71.14,1.32.46,1.89.91.4.31.77.65,1.09,1.03.19.22.37.45.52.7,0,.05.01.1.07.12Z"/>
      </g>
    </g>
  </g>
</svg>