<?xml version="1.0" encoding="UTF-8"?>
<svg id="Capa_2" data-name="Capa 2" xmlns="http://www.w3.org/2000/svg" viewBox="0 0 96.18 96.14">
  <defs>
    <style>
      .cls-1 {
        fill: #2c3874;
      }

      .cls-2 {
        stroke: #254d62;
      }

      .cls-2, .cls-3 {
        fill: none;
        stroke-width: 3px;
      }

      .cls-2, .cls-3, .cls-4 {
        stroke-miterlimit: 10;
      }

      .cls-5 {
        fill: #264d62;
      }

      .cls-6 {
        fill: #fff;
      }

      .cls-7 {
        fill: #4d4c4c;
      }

      .cls-8 {
        fill: #37406c;
      }

      .cls-9, .cls-4 {
        fill: #254f64;
      }

      .cls-10 {
        fill: #323f75;
      }

      .cls-11 {
        fill: #7a7a7b;
      }

      .cls-3 {
        stroke: #575756;
      }

      .cls-12 {
        fill: #f9f9f9;
      }

      .cls-4 {
        stroke: #254f64;
        stroke-linecap: round;
        stroke-width: 1.4px;
      }

      .cls-13 {
        fill: #394375;
      }

      .cls-14 {
        fill: #707175;
      }

      .cls-15 {
        fill: #585b5c;
      }
    </style>
  </defs>
  <g id="Logos">
    <g id="Skills">
      <g>
        <g>
          <path class="cls-15" d="M66.22,85.44c-.27-.15-.56-.26-.88-.32-.47-.09-.94-.02-1.41-.05-.77-.05-1.48-.31-1.6-1.21-.1-.75-.27-1.49-.41-2.24-.02-.13-.02-.27-.19-.32-.04,0-.08-.01-.12-.01-3.02,0-6.03,0-9.05,0-.09,0-.19-.03-.26.05h0c-.15.11-.12.27-.15.41-.15.75-.27,1.51-.42,2.26-.12.58-.52.9-1.16,1-.47.08-.94.03-1.41.05-.53.02-1,.17-1.41.49-.37.29-.3.69-.31,1.07,0,.21.08.36.32.41.09,0,.18,0,.28,0,5.99,0,11.99,0,17.98,0,.13,0,.27,0,.4-.01.12-.02.2-.1.25-.19.21-.42-.02-1.16-.45-1.41Z"/>
          <path class="cls-15" d="M75.64,57.6c-.14-.82-.64-1.37-1.48-1.68-.39-.15-.8-.16-1.21-.16-10.54,0-21.08,0-31.61,0-.31,0-.62,0-.92.05-1.09.18-1.91.98-1.97,1.91,0,.12,0,.24,0,.37,0,5.61,0,11.22,0,16.84,0,1.15,0,2.29.01,3.44.1,1,.92,1.76,2.03,1.91.24,0,.47.02.71.02,10.6,0,21.2,0,31.8,0,.23,0,.45-.02.68-.02,1.09-.19,1.85-.9,1.98-1.85,0-.28.02-.56.02-.85,0-5.19,0-10.38,0-15.57,0-1.47.03-2.93-.02-4.4Z"/>
          <rect class="cls-6" x="40.48" y="57.65" width="33.84" height="18.66" rx="1.31" ry="1.31"/>
        </g>
        <g>
          <path class="cls-5" d="M57.11,9.17c1.65-.09,1.48,4.53,1.99,5.57.8.2,1.58.5,2.34.81.64.25,1.37.95,2.01.61,1.39-.74,3.46-3.68,5.13-2.44.68.5,3.8,3.61,4.27,4.27s.41.96.07,1.62c-.42.82-2.4,3-2.5,3.67l1.69,4.2c.23.26,3.67.57,4.34.77.35.1.32.18.52.39l.36.75c.14,2.23.16,4.46.06,6.67-.51,1.27-4.02,1.1-5.19,1.63l-1.78,4.16c.34.98,2.6,3.41,2.64,4.22.02.56-.48,1.13-.85,1.54-.62.7-3.61,3.56-4.29,3.83-.78.31-.97.07-1.61-.32-.53-.32-3.04-2.41-3.27-2.42-1.19.51-2.49,1.07-3.74,1.39-.42.11-.96.36-1.36.17l-8.54-8.54c.38-.13.82.2,1.23.31,12.89,3.52,18.01-13.62,7.22-18.42-7.64-3.4-15.79,3.64-13.63,11.6.11.45.17.9.18,1.35-.17.11-2.61-2.4-2.84-2.81.09-.63.14-1.27.15-1.9.06-.51.25-1.22.28-1.68.15-1.22.18-3.06-.14-4.2-.6-3.71-2.86-7.12-5.6-9.59,1.15-.91,2.88-3.7,4.53-2.85l3.66,2.79,4.04-1.67c.37-.26.43-4.27,1.14-5.05.13-.14.27-.1.34-.14l.6-.17c2.2-.03,4.38-.06,6.54-.11Z"/>
          <path class="cls-11" d="M40.31,54.39l-10.17-10.06c-1.56-.97-3.36,0-5.02.12-9.15.67-15.3-6.91-14.47-15.73.09-.97.33-2.38,1.6-1.77l6.85,6.87c1.29.84,2.94.95,4.2,0,.98-.75,4.23-4,4.95-4.99.88-1.21,1.06-2.86.28-4.15-.8-1.2-7.29-6.85-7.4-7.59-.1-.64.55-.88,1.05-1.05,3.54-1.2,8.27-.39,11.32,1.71,4.33,2.98,5.92,7.81,5.56,12.93-.19,2.67-1.22,3.2.83,5.6,5.31,6.21,12.38,11.82,17.92,17.99,0,.08-.02.14-.02.14-5.77.07-11.72.09-17.48,0Z"/>
          <path class="cls-7" d="M57.81,54.25s.41.19.21.28h-17.23c-.23.07-.33-.07-.47-.14l17.5-.14Z"/>
          <path class="cls-10" d="M77.41,36.05c-.23-.15-.14-.53-.14-.77-.02-1.78.19-4.05,0-5.75-.04-.35-.22-.58-.28-.91.41.42.5.73.56,1.33.09.9.12,5.46-.14,6.09Z"/>
          <path class="cls-13" d="M41.71,31.85c.38.48-.13,1.24-.08,1.76.05.55,2.24,2.28,2.67,2.86l-.07-1.26.63,2.1-3.36-3.36c-.15-.32.15-1.6.21-2.1Z"/>
          <path class="cls-1" d="M57.11,9.17s-.16.14-.34.15c-2.26.02-4.56-.13-6.8.13.25-.15.21-.24.63-.28,2.03-.22,4.44.17,6.51,0Z"/>
          <path class="cls-8" d="M41.85,25.97l.14-.07c.24,1.43.12,2.89.15,4.34l-.14-.07c.08-1.23.06-2.99-.14-4.2Z"/>
          <path class="cls-5" d="M65.26,68.87c-1.14-.21-1.31-2.9-1.81-3.86-.07-.15.07-.26-.29-.2l-3.24,9.01c-.79,1.24-2.58,1.53-3.62.44-.7-.73-.75-2.06-1.05-3.01-.97-3.02-1.95-6.04-2.8-9.1l-2.91,6.4c-.13.04-.54.32-.59.32h-6.51v-2.17c0-.15.34-.2.48-.22.85-.1,4.76.19,5.12-.06l2.68-6.28c.98-1.71,2.07-1.91,3.4-.37,1.44,3.96,2.47,8.1,3.58,12.17.35.1.36-.31.48-.57,1.16-2.48,2.19-5.64,3.22-8.26.34-.86.3-2.08,1.65-1.93,2.16.25,2.52,3.79,3.31,5.35.14.18.62.08.86.09,1.55-.04,3.09.01,4.62.14.49.37.27,1.19.14,1.68l-.08.3c-2.23.05-4.44.09-6.64.12Z"/>
        </g>
        <g>
          <g>
            <line class="cls-4" x1="26.22" y1="49.89" x2="26.19" y2="73.18"/>
            <line class="cls-4" x1="22.69" y1="49.89" x2="22.67" y2="73.18"/>
            <line class="cls-4" x1="19.14" y1="73.18" x2="19.17" y2="49.89"/>
            <line class="cls-4" x1="29.75" y1="49.89" x2="29.72" y2="73.18"/>
          </g>
          <g>
            <line class="cls-4" x1="12.79" y1="59.81" x2="36.08" y2="59.74"/>
            <line class="cls-4" x1="12.81" y1="63.33" x2="36.1" y2="63.26"/>
            <line class="cls-4" x1="12.82" y1="66.86" x2="36.11" y2="66.79"/>
            <line class="cls-4" x1="12.78" y1="56.28" x2="36.07" y2="56.21"/>
          </g>
          <rect class="cls-9" x="15.62" y="52.66" width="17.65" height="17.75" rx="2.82" ry="2.82"/>
          <rect class="cls-12" x="18.89" y="55.98" width="11.11" height="11.11" rx=".8" ry=".8"/>
          <rect class="cls-14" x="20.32" y="57.41" width="8.25" height="8.25" rx=".8" ry=".8"/>
        </g>
      </g>
      <g id="Lenguajes">
        <g>
          <path class="cls-3" d="M50.77,1.5c11.21.65,21.81,5.33,29.85,13.16s12.99,18.32,13.93,29.5"/>
          <path class="cls-2" d="M94.68,49.75c-.42,11.58-5.13,22.6-13.22,30.9s-18.99,13.29-30.56,14"/>
          <path class="cls-3" d="M45.25,94.65c-11.33-.68-22.04-5.48-30.09-13.49C7.11,73.15,2.25,62.48,1.5,51.15"/>
          <path class="cls-2" d="M1.5,45.09c.72-11.27,5.51-21.89,13.47-29.9C22.92,7.18,33.52,2.33,44.78,1.53"/>
        </g>
      </g>
    </g>
  </g>
</svg>