<?xml version="1.0" encoding="UTF-8"?>
<svg id="Capa_2" data-name="Capa 2" xmlns="http://www.w3.org/2000/svg" viewBox="0 0 96.18 96.14">
  <defs>
    <style>
      .cls-1 {
        stroke: #254d62;
      }

      .cls-1, .cls-2 {
        fill: none;
        stroke-miterlimit: 10;
        stroke-width: 3px;
      }

      .cls-3 {
        fill: #545454;
      }

      .cls-4 {
        fill: #214760;
      }

      .cls-5 {
        fill: #254b63;
      }

      .cls-6 {
        fill: #234860;
      }

      .cls-7 {
        fill: #274c65;
      }

      .cls-8 {
        fill: #254962;
      }

      .cls-9 {
        fill: #264c65;
      }

      .cls-10 {
        fill: #2b4e64;
      }

      .cls-11 {
        fill: #254960;
      }

      .cls-12 {
        fill: #2d5067;
      }

      .cls-2 {
        stroke: #575756;
      }

      .cls-13 {
        fill: #555454;
      }

      .cls-14 {
        fill: #2b4f68;
      }

      .cls-15 {
        fill: #244a63;
      }

      .cls-16 {
        fill: #555554;
      }

      .cls-17 {
        fill: #244961;
      }

      .cls-18 {
        fill: #294b60;
      }

      .cls-19 {
        fill: #224760;
      }

      .cls-20 {
        fill: #244a62;
      }

      .cls-21 {
        fill: #535353;
      }
    </style>
  </defs>
  <g id="Dots">
    <g>
      <path class="cls-4" d="M48.75,36.5c-.42-.23-.77-.29-1.17-.06l-4.32,2.4c-.47-.35-.62-.87-.64-1.43-.06-2.7-1.07-5.11-2.8-7.11-3.6-4.16-3.4-10.34.38-14.3,2.25-2.36,5.41-3.54,8.71-3.33s6.45,2,8.32,4.83,2.29,6.75.92,10.02c-.47,1.13-1.13,2.06-1.9,2.99-1.7,2.04-2.61,4.46-2.66,7.12,0,.47-.18.92-.6,1.22l-4.24-2.35Z"/>
      <path class="cls-16" d="M78.21,80.69h-16.58s.02-5.13.02-5.13c.12-2.98,2.46-5.37,5.42-5.54h5.77c2.85.18,5.13,2.41,5.32,5.29l.04,5.39Z"/>
      <path class="cls-13" d="M34.59,76.04v4.65s-16.62,0-16.62,0l.03-5.18c.14-2.9,2.31-5.21,5.17-5.49h5.74c1.28-.02,2.44.4,3.43,1.19,1.47,1.16,2.25,2.91,2.25,4.84Z"/>
      <path class="cls-3" d="M56.4,80.69h-16.57s.03-5.32.03-5.32c.18-2.9,2.46-5.18,5.34-5.36h5.67c3.01.1,5.35,2.48,5.52,5.49v5.19Z"/>
      <circle class="cls-4" cx="26.27" cy="64.63" r="4.22"/>
      <circle class="cls-4" cx="69.92" cy="64.63" r="4.22"/>
      <circle class="cls-4" cx="48.11" cy="64.63" r="4.21"/>
      <path class="cls-13" d="M50.48,46.46c-1.25,1.39-3.4,1.4-4.68.05-.41-.43-.62-.93-.72-1.51h-1.25c-.3,0-.48-.17-.51-.43-.03-.21.13-.54.45-.54h8.71c.28,0,.43.27.43.46,0,.27-.19.5-.49.5h-1.26c-.14.54-.3,1.06-.67,1.47Z"/>
      <path class="cls-13" d="M53.21,42.97l-10.21-.02c-.4,0-.65-.39-.65-.7s.24-.72.65-.72h10.17c.39,0,.66.33.69.64.03.37-.19.71-.65.79Z"/>
      <path class="cls-21" d="M52.53,40.41h-8.85c-.26,0-.37-.32-.37-.47,0-.22.16-.46.45-.5l.73-.02,3.63-1.92,3.63,1.94h.66c.28.01.45.23.5.44.04.16-.06.54-.38.54Z"/>
      <path class="cls-13" d="M34.33,19.12c.37.12.56.37.52.75-.04.31-.37.64-.76.51l-2.78-.9c-.35-.11-.4-.56-.28-.83.14-.3.47-.42.83-.31l2.47.78Z"/>
      <path class="cls-13" d="M62.47,20.36c-.37.12-.72-.05-.83-.38-.12-.38.07-.71.48-.84l2.6-.82c.36-.11.68.16.75.43.1.41-.14.69-.52.82l-2.47.79Z"/>
      <path class="cls-13" d="M64.95,28.43c.34.13.34.57.25.79-.14.32-.49.46-.83.33l-2.5-.92c-.36-.13-.5-.5-.39-.82s.48-.53.83-.39l2.64,1.01Z"/>
      <path class="cls-13" d="M32.09,29.56c-.36.13-.69-.06-.81-.31s-.08-.69.23-.81l2.82-1.05c.31-.12.61.24.66.47.06.29-.06.63-.37.75l-2.53.95Z"/>
      <path class="cls-13" d="M48.78,9.73c0,.4-.31.6-.61.6-.34,0-.62-.25-.62-.64l.02-2.8c0-.35.38-.54.68-.5s.53.29.53.64v2.69Z"/>
      <path class="cls-13" d="M39.56,12.21c.26.3.13.73-.08.89-.3.22-.67.17-.91-.1l-1.65-1.87c-.24-.28-.34-.61-.08-.92.18-.22.64-.37.9-.07l1.82,2.07Z"/>
      <path class="cls-13" d="M57.9,13.08c-.25.28-.7.19-.9-.03-.25-.27-.18-.65.07-.93l1.59-1.84c.25-.29.63-.41.93-.17s.33.68.05.99l-1.74,1.98Z"/>
      <g>
        <path class="cls-13" d="M26.77,56.49c0,.27,0,.52-.19.66s-.39.16-.59.04c-.22-.13-.25-.4-.22-.68-.64-.31-1.05-.96-.92-1.6.14-.73.7-1.21,1.37-1.23.74-.02,1.3.47,1.46,1.14.17.7-.22,1.39-.91,1.68Z"/>
        <path class="cls-13" d="M48.6,56.69c.03.37-.26.55-.52.57-.46.02-.49-.4-.49-.74-.56-.33-1.01-.9-.91-1.56s.59-1.19,1.24-1.27c.7-.09,1.32.31,1.54.95s.02,1.35-.6,1.69c-.15.08-.28.16-.27.36Z"/>
        <path class="cls-13" d="M70.43,56.51c-.01.26-.01.51-.2.64s-.39.16-.59.04c-.22-.13-.25-.4-.21-.68-.64-.33-1.04-.93-.9-1.64s.72-1.18,1.42-1.19,1.25.49,1.41,1.12c.18.72-.24,1.4-.94,1.71Z"/>
        <g>
          <circle class="cls-7" cx="53.41" cy="55.04" r=".68"/>
          <path class="cls-5" d="M30.49,55.68c-.46.04-.77-.27-.77-.64,0-.39.31-.68.73-.66.37.01.64.25.67.57.04.35-.19.68-.63.72Z"/>
          <path class="cls-17" d="M56.92,55.69c-.44-.01-.7-.29-.69-.64.01-.33.28-.64.64-.66.41-.02.72.21.76.57s-.23.74-.71.73Z"/>
          <path class="cls-19" d="M63.27,55.69c-.44-.04-.67-.38-.63-.72.05-.37.35-.61.76-.58.37.02.65.32.65.65,0,.39-.32.68-.78.65Z"/>
          <circle class="cls-15" cx="43.23" cy="55.04" r=".68"/>
          <circle class="cls-8" cx="66.5" cy="55.04" r=".68"/>
          <circle class="cls-17" cx="33.63" cy="55.04" r=".68"/>
          <circle class="cls-20" cx="40.07" cy="55.04" r=".68"/>
          <circle class="cls-6" cx="60.15" cy="55.04" r=".68"/>
          <circle class="cls-11" cx="36.88" cy="55.04" r=".68"/>
          <circle class="cls-9" cx="48.1" cy="51.94" r=".58"/>
          <circle class="cls-18" cx="48.11" cy="49.6" r=".57"/>
          <circle class="cls-10" cx="48.12" cy="58.7" r=".54"/>
          <circle class="cls-12" cx="69.95" cy="58.7" r=".54"/>
          <circle class="cls-14" cx="26.26" cy="58.7" r=".53"/>
        </g>
      </g>
    </g>
    <g>
      <path class="cls-2" d="M50.77,1.5c11.21.65,21.81,5.33,29.85,13.16s12.99,18.32,13.93,29.5"/>
      <path class="cls-1" d="M94.68,49.75c-.42,11.58-5.13,22.6-13.22,30.9-8.09,8.3-18.99,13.29-30.56,14"/>
      <path class="cls-2" d="M45.25,94.65c-11.33-.68-22.04-5.48-30.09-13.49C7.11,73.15,2.25,62.48,1.5,51.15"/>
      <path class="cls-1" d="M1.5,45.09c.72-11.27,5.51-21.89,13.47-29.9C22.92,7.18,33.52,2.33,44.78,1.53"/>
    </g>
  </g>
</svg>