<?xml version="1.0" encoding="UTF-8"?>
<svg id="Capa_2" data-name="Capa 2" xmlns="http://www.w3.org/2000/svg" viewBox="0 0 96.18 96.14">
  <defs>
    <style>
      .cls-1 {
        stroke: #254d62;
      }

      .cls-1, .cls-2 {
        fill: none;
        stroke-miterlimit: 10;
        stroke-width: 3px;
      }

      .cls-3 {
        fill: #1d4763;
      }

      .cls-4 {
        fill: #565555;
      }

      .cls-2 {
        stroke: #575756;
      }

      .cls-5 {
        fill: #1e4864;
      }
    </style>
  </defs>
  <g id="Dots">
    <g>
      <path class="cls-4" d="M52.1,65.16l-11.94-6.81-7.57-4.31v-16.06s8.65-4.66,8.65-4.66l11.11-6.04,6.29-3.56c.63-.36,1.46-.29,2.04.09.67.45,1.14,1.21,1.14,2.09v40.82c0,.88-.42,1.67-1.1,2.13-.84.57-1.81.37-2.64-.12l-5.99-3.56Z"/>
      <path class="cls-5" d="M29.24,72.65h-4.12c-.97,0-1.84-.79-2.02-1.75l-1.15-6.43-1.7-9.82h-1.69c-2.01-.02-3.84-1.56-3.85-3.7l-.05-9.39c.26-2.32,1.99-3.9,4.31-3.9h11.61s0,16.97,0,16.97l-2.72.02,3.06,15.68c.21,1.06-.57,2.31-1.67,2.31Z"/>
      <path class="cls-3" d="M65.57,41.15c2.45,2.15,2.79,6.13.89,8.89-.75,1.09-1.83,1.84-3.19,2.02v-12.01c.92.09,1.65.52,2.31,1.1Z"/>
      <path class="cls-4" d="M70.44,38.82c-.57.4-1.37.08-1.71-.42-.32-.46-.37-1.36.19-1.76l6.8-4.88c.61-.44,1.46-.29,1.88.27s.39,1.48-.24,1.93l-6.92,4.87Z"/>
      <path class="cls-4" d="M77.31,58.12c.63.45.7,1.24.35,1.83-.32.55-1.2.85-1.81.41l-6.9-4.97c-.55-.4-.56-1.21-.25-1.74s1.13-.85,1.71-.44l6.91,4.92Z"/>
      <path class="cls-4" d="M80.41,47.26h-8.06c-.68,0-1.12-.66-1.14-1.22-.03-.64.41-1.33,1.14-1.33l7.83-.03c.73,0,1.29.5,1.35,1.21.05.56-.36,1.37-1.12,1.38Z"/>
    </g>
    <g>
      <path class="cls-2" d="M50.77,1.5c11.21.65,21.81,5.33,29.85,13.16s12.99,18.32,13.93,29.5"/>
      <path class="cls-1" d="M94.68,49.75c-.42,11.58-5.13,22.6-13.22,30.9-8.09,8.3-18.99,13.29-30.56,14"/>
      <path class="cls-2" d="M45.25,94.65c-11.33-.68-22.04-5.48-30.09-13.49C7.11,73.15,2.25,62.48,1.5,51.15"/>
      <path class="cls-1" d="M1.5,45.09c.72-11.27,5.51-21.89,13.47-29.9C22.92,7.18,33.52,2.33,44.78,1.53"/>
    </g>
  </g>
</svg>