<?xml version="1.0" encoding="UTF-8"?>
<svg id="Capa_2" data-name="Capa 2" xmlns="http://www.w3.org/2000/svg" viewBox="0 0 96.18 96.14">
  <defs>
    <style>
      .cls-1 {
        fill: #254c66;
      }

      .cls-2 {
        stroke: #254d62;
      }

      .cls-2, .cls-3 {
        fill: none;
        stroke-miterlimit: 10;
        stroke-width: 3px;
      }

      .cls-4 {
        fill: #555;
      }

      .cls-5 {
        fill: #254b65;
      }

      .cls-6 {
        fill: #565655;
      }

      .cls-7 {
        fill: #565555;
      }

      .cls-3 {
        stroke: #575756;
      }

      .cls-8 {
        fill: #254b66;
      }
    </style>
  </defs>
  <g id="Dots">
    <g>
      <path class="cls-3" d="M50.77,1.5c11.21.65,21.81,5.33,29.85,13.16s12.99,18.32,13.93,29.5"/>
      <path class="cls-2" d="M94.68,49.75c-.42,11.58-5.13,22.6-13.22,30.9-8.09,8.3-18.99,13.29-30.56,14"/>
      <path class="cls-3" d="M45.25,94.65c-11.33-.68-22.04-5.48-30.09-13.49C7.11,73.15,2.25,62.48,1.5,51.15"/>
      <path class="cls-2" d="M1.5,45.09c.72-11.27,5.51-21.89,13.47-29.9C22.92,7.18,33.52,2.33,44.78,1.53"/>
    </g>
    <g>
      <path class="cls-8" d="M24.02,40.87l-.03,8.36c0,1.03-1.01,1.73-1.93,1.73s-1.93-.7-1.93-1.74v-8.29c-.02-3.27,2.8-6.42,6.03-6.44l7.38-.03c1.86,0,3.4.93,4.51,2.38l2.31,3.02,4.44-4.26c.57-.55,1.46-.49,2.16-.22l5.81-5.49c.3-.28.82-.06.97.23.17.33.1.67-.2.95l-5.66,5.32c.31.98-.06,1.78-.76,2.44l-5.14,4.89c-.94,1.07-2.6.98-3.48-.12l-2.8-2.69v11.1s-10.66,0-10.66,0v-11.15s-1.03,0-1.03,0Z"/>
      <path class="cls-5" d="M44.43,47.47h29.81c.58,0,1.03-.52,1.03-1.08v-23.86c0-.54-.47-1-1.02-1h-29.91c-.68,0-1.09.62-1.03,1.24v10.21s-1.69-1.07-1.69-1.07l.02-9.53c0-1.3,1.17-2.51,2.52-2.51h30.27c1.29,0,2.52,1.2,2.52,2.51v24.18c0,1.31-1.22,2.55-2.54,2.55h-30.17c-1.52.01-2.67-1.33-2.63-2.78l1.65-1.23.04,1.29c.02.62.46,1.07,1.11,1.07Z"/>
      <path class="cls-7" d="M56.08,76.26h-16.23s.02-5.38.02-5.38c0-2.82,2.38-4.98,5.16-5.11h5.61c2.85-.04,5.25,2.13,5.43,4.98v5.51Z"/>
      <path class="cls-7" d="M76.73,76.27h-16.22s.03-5.47.03-5.47c.13-2.78,2.42-4.87,5.15-5.03h5.83c2.78.11,5.09,2.24,5.19,5.05l.02,5.45Z"/>
      <path class="cls-4" d="M35.44,74.65l-.02,1.61h-16.21s.04-5.54.04-5.54c.16-2.76,2.43-4.79,5.13-4.96h5.61c2.76,0,5.18,2.06,5.4,4.84l.05,4.04Z"/>
      <circle class="cls-1" cx="30.11" cy="28.25" r="4.76"/>
      <circle class="cls-7" cx="27.32" cy="60.31" r="4.34"/>
      <circle class="cls-6" cx="68.65" cy="60.31" r="4.34"/>
      <circle class="cls-7" cx="47.98" cy="60.31" r="4.34"/>
    </g>
  </g>
</svg>