<?xml version="1.0" encoding="UTF-8"?>
<svg id="Capa_2" data-name="Capa 2" xmlns="http://www.w3.org/2000/svg" viewBox="0 0 344.61 344.02">
  <defs>
    <style>
      .cls-1, .cls-2 {
        stroke-width: 8px;
      }

      .cls-1, .cls-2, .cls-3, .cls-4, .cls-5 {
        fill: none;
      }

      .cls-1, .cls-2, .cls-3, .cls-4, .cls-5, .cls-6, .cls-7 {
        stroke-miterlimit: 10;
      }

      .cls-1, .cls-2, .cls-3, .cls-5 {
        stroke-linecap: round;
      }

      .cls-1, .cls-4, .cls-5 {
        stroke: #575b5c;
      }

      .cls-2 {
        stroke: #254d62;
      }

      .cls-8 {
        fill: #818081;
      }

      .cls-9 {
        fill: #fff;
      }

      .cls-3 {
        stroke-width: .5px;
      }

      .cls-3, .cls-7 {
        stroke: #fff;
      }

      .cls-10 {
        fill: #264d62;
      }

      .cls-11, .cls-6, .cls-7 {
        fill: #575b5c;
      }

      .cls-12 {
        fill: #828081;
      }

      .cls-5 {
        stroke-width: 1.5px;
      }

      .cls-6 {
        stroke: #1d1d1b;
      }

      .cls-6, .cls-7 {
        stroke-width: .12px;
      }

      .cls-13 {
        fill: #9f9d9f;
      }

      .cls-14 {
        fill: #a4baca;
      }
    </style>
  </defs>
  <g id="Home">
    <g>
      <g>
        <path class="cls-2" d="M164.09,340.02C74.97,335.66,4,261.14,4,171.91c0-87.98,68.98-161.87,156.75-167.91"/>
        <path class="cls-1" d="M180.52,4c89.13,4.35,160.09,78.87,160.09,168.11,0,87.98-68.98,161.87-156.75,167.91"/>
      </g>
      <g>
        <path class="cls-11" d="M132.2,190.58c-3.54-14.04-6.92-28.13-10.41-42.18-.4-1.63-.47-3.38-1.5-4.84-1.01-1.47-2.55-1.93-4.27-1.93-5.8-.02-11.6-.01-17.41-.01-21.93,0-43.86,0-65.78,0-1.61,0-3.13.22-4.28,1.45-.72.46-1.01,1.16-1.21,1.91-3.75,14.33-7.51,28.65-11.24,42.98-.47,1.79-1.3,3.57-.99,5.47.51,3.12,1.12,6.22,1.74,9.32.29,1.43,1.13,2.51,2.61,3.05,1.01.47,2.09.32,3.14.32,29.58,0,59.15,0,88.73,0,5.45,0,10.91-.03,16.36-.05,2.25-.52,3.4-1.79,3.64-3.93.17-1.49.49-2.96.65-4.45.26-2.35.83-4.63.21-7.09Z"/>
        <path class="cls-9" d="M116.39,144.1c1.2.42,1.61,1.27,1.89,2.45,2.09,8.91,4.27,17.79,6.42,26.68,1.48,6.1,2.92,12.21,4.43,18.3.21.83-.27,1.29-.68,1.84-.3.46-.77.61-1.31.62-.3,0-.6,0-.9,0-34.92,0-69.84,0-104.77,0-.5,0-1.02.15-1.5-.14-1.69-1.04-1.79-1.24-1.3-3.17,3.77-14.85,7.56-29.69,11.3-44.54.29-1.15.99-1.69,2.03-2.03.38-.29.82-.15,1.23-.15,27.3,0,54.6,0,81.9,0,.41,0,.86-.15,1.23.15Z"/>
        <g>
          <path class="cls-10" d="M117.19,190.23c-1.8.05-3.46-.35-4.8-1.55-2.27-2.03-1.64-4.88,1.29-5.85,2.06-.68,4.1-.56,6.08.29,1.85.8,3.02,2.61,2.74,4.13-.3,1.63-1.99,2.84-4.15,2.98-.38.02-.77,0-1.15,0Z"/>
          <path class="cls-10" d="M73.59,190.22c-.96.1-1.87-.09-2.75-.39-1.56-.54-2.61-1.52-2.78-3.15-.16-1.49.72-2.84,2.35-3.56,2.24-.98,4.54-.99,6.77,0,1.24.55,2.1,1.46,2.2,2.89.11,1.57-.67,2.64-2,3.39-1.16.65-2.44.93-3.78.82Z"/>
          <path class="cls-10" d="M44.29,190.23c-.67.06-1.47-.02-2.24-.27-1.26-.41-2.34-1.09-2.64-2.39-.33-1.41.19-2.64,1.3-3.62,1.97-1.73,6.07-2.07,8.36-.71,1.86,1.11,2.23,3.29.82,4.92-1.42,1.64-3.32,2.14-5.6,2.07Z"/>
          <path class="cls-10" d="M58.89,190.23c-.77.07-1.64-.1-2.48-.38-1.42-.48-2.48-1.34-2.65-2.81-.19-1.54.56-2.8,1.93-3.58,2.29-1.31,4.76-1.42,7.19-.42,2.7,1.11,2.97,4.37.58,6.01-1.24.85-2.5,1.19-4.57,1.19Z"/>
          <path class="cls-10" d="M102.74,190.23c-1.76.05-3.26-.32-4.52-1.31-2.23-1.74-2-4.57.58-5.78,2.51-1.17,5.1-1.06,7.51.38,1.33.8,1.91,2.02,1.73,3.53-.16,1.37-1.14,2.12-2.34,2.64-.97.42-2.01.63-2.95.53Z"/>
          <path class="cls-10" d="M88.17,190.23c-1.17.06-2.3-.19-3.39-.69-1.47-.67-2.37-1.77-2.35-3.31.03-1.54.97-2.67,2.47-3.23,2.31-.86,4.63-.84,6.85.32,1.38.72,2.1,1.82,1.97,3.38-.11,1.41-.95,2.27-2.21,2.86-1.05.49-2.14.72-3.35.67Z"/>
          <path class="cls-10" d="M29.96,190.23c-.76.07-1.63-.06-2.47-.37-2.28-.83-3.02-2.79-1.81-4.8,1.15-1.92,3.88-2.98,6.68-2.61.17.02.33.08.5.11,2.13.37,3.27,1.22,3.53,2.64.3,1.6-.54,3.13-2.27,4.12-1.16.67-2.25.92-4.16.91Z"/>
          <path class="cls-10" d="M46.09,180.09c-.66-.11-1.51-.05-2.34-.31-1.3-.41-2.31-1.1-2.55-2.43-.24-1.31.39-2.38,1.41-3.21,1.8-1.47,5.59-1.82,7.72-.75,2.28,1.15,2.5,3.67.44,5.33-1.3,1.05-2.86,1.35-4.68,1.38Z"/>
          <path class="cls-10" d="M33.59,172.83c.91-.04,1.83.04,2.7.42,2.06.89,2.65,2.67,1.45,4.49-.44.66-1.02,1.18-1.76,1.54-2.03.99-4.17,1.1-6.29.43-2.46-.79-3.04-3.16-1.3-5.03,1.37-1.48,3.17-1.94,5.2-1.85Z"/>
          <path class="cls-10" d="M87.84,180.05c-1.16.02-2.3-.12-3.33-.64-1.3-.66-2.21-1.6-2.15-3.15.06-1.49.96-2.37,2.27-2.93,1.78-.76,3.64-.71,5.46-.21,2.02.55,3.27,2.2,3.07,3.81-.19,1.52-1.8,2.82-3.8,3.04-.51.06-1.02.06-1.53.08Z"/>
          <path class="cls-10" d="M74.19,172.83c1.27-.07,2.46.13,3.55.77,2.16,1.26,2.33,3.89.32,5.37-1.89,1.39-6.03,1.47-7.95.15-2.16-1.49-1.89-4.19.56-5.56,1.1-.62,2.29-.8,3.52-.72Z"/>
          <path class="cls-10" d="M115.49,180.05c-1.3.03-2.53-.2-3.67-.82-1.52-.82-2.3-2.15-2.07-3.59.24-1.53,1.37-2.29,2.81-2.61,1.89-.42,3.79-.42,5.56.5,1.56.81,2.66,2.58,2.39,3.84-.3,1.41-1.89,2.48-3.88,2.61-.38.02-.77.05-1.15.07Z"/>
          <path class="cls-10" d="M101.04,172.85c1.62-.11,2.95.2,4.13,1.01,1.2.82,1.78,1.92,1.59,3.34-.18,1.34-1.18,2.04-2.36,2.45-1.76.61-3.59.57-5.37.06-1.89-.55-3.22-2.21-3.08-3.72.14-1.56,1.81-2.92,3.86-3.13.46-.05.93,0,1.23,0Z"/>
          <path class="cls-10" d="M61.61,163.56c1.25.08,2.64.24,3.74,1.19,1.5,1.3,1.44,3.29-.1,4.54-1.9,1.54-5.97,1.74-8.03.39-1.71-1.12-1.68-3.53.08-4.9,1.21-.94,2.64-1.2,4.31-1.22Z"/>
          <path class="cls-10" d="M48.52,163.57c.91-.02,1.78.15,2.61.48,2.51,1,2.89,3.72.75,5.34-1.85,1.4-5.56,1.63-7.61.47-2.02-1.15-2.05-3.6-.05-5.06,1.27-.92,2.74-1.2,4.3-1.23Z"/>
          <path class="cls-10" d="M74.55,163.56c1.45.06,2.91.29,4.05,1.35,1.54,1.42,1.37,3.59-.47,4.68-2.34,1.38-4.85,1.44-7.27.21-2.17-1.1-2.32-3.52-.41-5.04,1.17-.93,2.58-1.16,4.11-1.2Z"/>
          <path class="cls-10" d="M87.24,163.57c1.21,0,2.25.19,3.22.62,1.42.64,2.27,1.67,2.2,3.23-.07,1.51-1.13,2.31-2.47,2.77-1.81.63-3.67.56-5.47-.08-1.67-.59-2.5-1.81-2.39-3.33.1-1.39,1.15-2.54,2.79-2.94.73-.18,1.48-.39,2.12-.28Z"/>
          <path class="cls-10" d="M105.73,167.43c0,1.24-.72,2.06-1.83,2.53-2.3.98-4.62.89-6.82-.29-1.18-.63-1.85-1.66-1.73-3.01.11-1.36.97-2.19,2.26-2.64,2.1-.74,4.16-.62,6.13.37,1.28.65,1.99,1.8,1.98,3.04Z"/>
          <path class="cls-10" d="M36.21,161.57c-.74-.13-1.55-.1-2.32-.39-2.11-.79-2.67-2.83-1.21-4.5,1.7-1.94,6.26-2.33,8.3-.7,1.43,1.14,1.19,3.28-.52,4.47-1.25.88-2.7,1.1-4.25,1.12Z"/>
          <path class="cls-10" d="M49.9,155.03c1.15-.08,2.2.13,3.18.71,1.61.96,1.92,2.63.73,4.04-1.63,1.94-6.09,2.43-8.18.89-1.65-1.22-1.52-3.38.31-4.62,1.18-.8,2.53-1.12,3.96-1.01Z"/>
          <path class="cls-10" d="M62.31,155.02c1.19-.08,2.31.12,3.3.73,1.88,1.16,1.96,3.38.2,4.69-1.82,1.35-5.54,1.48-7.47.27-1.79-1.12-1.73-3.42.14-4.68,1.14-.77,2.44-1.11,3.83-1Z"/>
          <path class="cls-10" d="M87.47,161.58c-1.46-.13-2.81-.21-3.94-1.07-1.69-1.28-1.67-3.45.08-4.64,1.84-1.25,5.56-1.17,7.34.17,1.85,1.38,1.58,3.84-.51,4.91-.98.5-2.04.5-2.98.64Z"/>
          <path class="cls-10" d="M99.58,155.02c1.08-.07,2.13.18,3.12.7,1.3.68,2.11,1.71,1.96,3.14-.15,1.45-1.32,2.14-2.64,2.47-1.41.35-2.86.33-4.28-.09-1.97-.58-3.23-1.97-3.06-3.4.17-1.46,1.84-2.7,3.82-2.82.34-.02.68,0,1.08,0Z"/>
          <path class="cls-10" d="M51.15,146.71c.87-.03,1.69.14,2.49.45,1,.39,1.77.99,1.9,2.08.13,1.14-.33,2.09-1.33,2.72-2.16,1.35-4.47,1.45-6.77.44-1.95-.86-2.12-2.94-.43-4.39,1.17-1.01,2.63-1.22,4.14-1.29Z"/>
          <path class="cls-10" d="M37.85,153.06c-.46-.07-1.15-.09-1.79-.28-1.09-.31-2.08-.84-2.28-2.02-.22-1.28.35-2.36,1.45-3.02,1.97-1.19,4.13-1.4,6.31-.54,2.18.86,2.44,3.21.58,4.66-.91.71-2.61,1.21-4.26,1.2Z"/>
          <path class="cls-10" d="M62.47,153.09c-.56-.09-1.28-.17-1.97-.34-1.28-.32-2.24-1.06-2.4-2.36-.15-1.24.55-2.22,1.63-2.81,2.08-1.13,4.27-1.23,6.41-.14,1.78.9,2.01,2.93.58,4.28-1.14,1.07-2.61,1.23-4.25,1.38Z"/>
          <path class="cls-10" d="M75.11,146.72c1.13-.04,2.18.21,3.15.75,1.81,1.03,1.92,3.38.22,4.57-1.73,1.23-5.16,1.32-7,.19-1.94-1.19-1.71-3.63.47-4.81.97-.53,2.04-.76,3.16-.7Z"/>
          <path class="cls-10" d="M87.03,146.71c1.38.05,2.7.27,3.72,1.26,1.47,1.41,1.25,3.5-.59,4.39-2.18,1.05-4.46.99-6.55-.24-1.98-1.17-1.77-3.58.35-4.73.94-.51,1.98-.69,3.06-.68Z"/>
          <path class="cls-10" d="M38.1,164.07c-2.06-.76-4.12-.65-6.11.31h0s0,0,0,0c-.77.3-1.33.84-1.77,1.48-1.02,1.48-.79,2.88.6,3.85,1.99,1.45,6.73,1.05,8.42-.92,1.52-1.77,1.08-3.9-1.15-4.72Z"/>
          <path class="cls-10" d="M115.1,148.71h0c-1.14-1.72-2.96-2-4.84-1.96-1.37.03-2.78.2-3.55,1.56-.84,1.39-.49,2.87.98,3.74,1.84,1.09,3.84,1.23,5.87.6,2.18-.67,2.68-2.02,1.55-3.95Z"/>
          <path class="cls-10" d="M65.2,174.59h0c-1.92-2.53-7.22-2.47-9.44.1-1.39,1.61-1.02,3.49.89,4.54,2,1.16,4.12,1.02,6.19.36,2.31-.74,3.78-3.15,2.35-5Z"/>
          <path class="cls-10" d="M115.94,156.4s0,0,0,0c-1.82-1.72-4.03-1.61-6.27-1.13-1.27.28-2.27,1-2.44,2.32-.18,1.44.55,2.46,1.91,3.07,1.75,1.03,3.66,1.04,5.53.58,2.76-.67,3.28-2.84,1.27-4.85Z"/>
          <path class="cls-10" d="M118.6,166.79c-.63-2.09-2.35-2.87-4.36-3.15-2.64-.37-5.2.47-5.67,2.17-.43,1.62.11,2.95,1.56,3.77,2.34,1.32,4.78,1.38,7.21.13h0s0,0,0,0c1.3-.77,1.65-1.61,1.25-2.92ZM108.83,167.2c.12.44.27.84.47,1.19-.02-.02-.04-.04-.06-.06-.32-.34-.38-.74-.41-1.13Z"/>
          <path class="cls-10" d="M102.89,148.31s0,0,0,0c0,0,0,0,0,0-1.59-1.73-3.62-1.83-5.77-1.37-1.78.38-2.8,1.32-2.94,2.59-.13,1.18.72,2.29,2.31,3.01,1.73.59,3.48.69,5.21.07,2.19-.78,2.65-2.53,1.19-4.3Z"/>
          <path class="cls-10" d="M77.02,155.32c-1.72-.48-3.43-.47-5.08.19-1.96.79-2.62,2.31-1.83,4.07.06.14.09.31.2.41,1.9,1.87,4.23,1.81,6.61,1.22,1.83-.46,2.71-1.5,2.72-2.91.02-1.47-.74-2.33-2.61-2.98Z"/>
        </g>
      </g>
      <path class="cls-10" d="M200.11,164.81c-.23-1.12-.62-1.48-1.71-1.56-.82-.07-1.65-.14-2.47-.18-.41-.02-.64-.17-.77-.6-.28-.91-.55-1.84-.98-2.69-.52-1.02-.46-1.8.39-2.58.41-.37.68-.89,1.05-1.31.45-.52.58-1.07.28-1.71-.1-.32-.34-.51-.55-.73-1.27-1.31-2.56-2.6-3.81-3.93-.53-.57-1.11-.8-1.86-.58-.99.48-1.72,1.31-2.56,1.99-.35.28-.59.35-1,.12-1.13-.64-2.31-1.17-3.56-1.5-.77-.21-.97-.62-1.06-1.42-.12-1.06.14-2.23-.63-3.16-.34-.39-.79-.5-1.26-.5-1.79,0-3.59,0-5.38.01-1.15.17-1.41.44-1.54,1.58-.1.9-.23,1.8-.3,2.71-.03.36-.12.53-.48.66-1.38.49-2.72,1.06-3.98,1.82-.34.21-.58.18-.88-.08-.63-.55-1.27-1.09-1.93-1.61-.92-.72-1.6-.73-2.42.09-1.43,1.43-2.82,2.9-4.19,4.38-.65.7-.62,1.54.01,2.29.53.62,1.08,1.22,1.64,1.81.26.28.36.52.18.9-.54,1.11-.97,2.27-1.31,3.47-.13.47-.4.58-.85.59-.85.02-1.71.09-2.56.18-1.08.11-1.4.43-1.64,1.55,0,2.22,0,4.43,0,6.65.27,1.12.75,1.52,1.82,1.57.83.04,1.66.13,2.48.12.45,0,.62.2.76.59.39,1.08.77,2.18,1.24,3.23.22.5.14.84-.19,1.22-.52.59-1.02,1.2-1.51,1.81-.69.87-.71,1.55.05,2.34,1.38,1.44,2.79,2.85,4.22,4.23.72.7,1.46.7,2.24.08.68-.54,1.33-1.11,1.96-1.71.33-.32.58-.38,1.01-.16,1.08.55,2.18,1.06,3.36,1.37.36.17.5.12.49-.35-.03-2.16-.02-4.31,0-6.47,0-.42-.15-.63-.5-.75-.08-.07-.16-.16-.25-.22-4.38-3.05-6.3-7.29-5.37-12.66.79-4.57,3.53-7.67,7.75-9.14,4.26-1.48,8.21-.61,11.61,2.5,1.76,1.61,2.81,3.67,3.52,5.95.64,3.11.25,6.06-1.24,8.86h0s0,0,0,0c-1.2,2.1-2.9,3.69-4.89,4.98-.15,2.37-.02,4.75-.07,7.13,0,.26.06.37.33.24.22-.1.47-.15.7-.23.9-.27,1.75-.66,2.58-1.1.4-.21.68-.2,1.02.13.54.53,1.11,1.02,1.7,1.49,1.04.84,1.67.83,2.61-.11,1.37-1.37,2.71-2.76,4.04-4.17.69-.73.71-1.3.11-2.11-.52-.7-1.06-1.38-1.62-2.05-.26-.3-.26-.54-.11-.91.43-1.03.84-2.08,1.19-3.15.19-.59.44-.88,1.09-.85.68.03,1.38-.07,2.06-.16.52-.07,1.13.01,1.48-.56.35-.32.49-.73.49-1.21,0-2.14-.02-4.27-.02-6.41Z"/>
      <g>
        <line class="cls-5" x1="176.85" y1="167.81" x2="177.23" y2="218.47"/>
        <ellipse class="cls-11" cx="177.04" cy="199.31" rx="7.1" ry="7.31"/>
        <line class="cls-3" x1="176.99" y1="198.62" x2="177.09" y2="218.02"/>
      </g>
      <g>
        <path class="cls-11" d="M206.53,132.55c-.91-.52-1.9-.88-2.97-1.08-1.59-.29-3.2-.08-4.79-.17-2.62-.15-5.01-1.04-5.43-4.11-.35-2.54-.91-5.06-1.38-7.59-.08-.43-.06-.91-.66-1.07-.14-.01-.28-.04-.42-.04-10.23,0-20.47,0-30.7,0-.3,0-.64-.11-.87.18h0c-.5.36-.41.91-.51,1.39-.49,2.56-.92,5.13-1.44,7.68-.41,1.98-1.77,3.05-3.92,3.4-1.6.26-3.2.1-4.8.18-1.78.08-3.41.59-4.78,1.65-1.26.98-1.02,2.34-1.04,3.64,0,.72.27,1.23,1.09,1.39.31,0,.63.03.94.03,20.34,0,40.68,0,61.02,0,.45,0,.91-.02,1.36-.04.41-.08.68-.33.84-.65.73-1.41-.07-3.93-1.54-4.79Z"/>
        <path class="cls-11" d="M238.47,38.11c-.49-2.77-2.18-4.66-5.01-5.71-1.32-.5-2.71-.55-4.11-.55-35.75,0-71.51,0-107.26,0-1.05,0-2.1.03-3.13.17-3.69.61-6.48,3.31-6.7,6.49-.01.41-.03.83-.03,1.24,0,19.04,0,38.08,0,57.13,0,3.89.03,7.78.04,11.67.34,3.38,3.11,5.98,6.9,6.49.8.02,1.61.07,2.41.07,35.97,0,71.93,0,107.9,0,.77,0,1.53-.05,2.3-.08,3.71-.65,6.29-3.07,6.7-6.28.03-.96.08-1.91.08-2.87,0-17.61.02-35.22,0-52.82,0-4.97.11-9.95-.08-14.92Z"/>
        <rect class="cls-9" x="119.2" y="38.25" width="114.81" height="63.31" rx=".94" ry=".94"/>
        <path class="cls-10" d="M153.35,62.02c5.26,2.18,10.51,4.36,15.77,6.54,1.52.63,3.04,1.27,4.56,1.9.39.16.67.31.67.81-.03,8.07-.03,16.14-.04,24.21,0,.03-.03.05-.11.17-1.78-.91-3.56-1.82-5.34-2.73-4.95-2.53-9.91-5.06-14.86-7.6-.29-.15-.66-.21-.82-.53.12-.34.06-.69.06-1.04,0-6.9,0-13.8,0-20.69,0-.34-.1-.7.1-1.03Z"/>
        <path class="cls-10" d="M176.76,95.77c-.23-.36-.13-.69-.13-.99,0-7.65.02-15.3,0-22.95,0-.77.23-1.15,1.04-1.48,6.44-2.63,12.85-5.33,19.28-8,.25-.1.5-.2.83-.34,0,1.79.02,3.49,0,5.19-.09,5.58-.22,11.15-.29,16.73,0,.65-.23,1-.86,1.34-6.18,3.25-12.34,6.55-18.51,9.83-.44.23-.89.45-1.35.68Z"/>
        <path class="cls-13" d="M196.04,60.62c-2.76,1.13-5.42,2.23-8.08,3.32-3.94,1.61-7.89,3.21-11.83,4.83-.49.2-.87.22-1.37.01-6.57-2.72-13.15-5.41-19.72-8.11-.1-.04-.2-.07-.54-.18,2.56-.94,4.81-1.76,7.05-2.58,4.33-1.58,8.67-3.15,13-4.75.48-.18.89-.25,1.39-.06,6.52,2.41,13.04,4.81,19.57,7.21.15.06.29.16.53.3Z"/>
        <path class="cls-12" d="M146.32,93.02c-1.4-.14-2.62-.33-3.84-.65-.9-.24-1.09-.75-.88-1.44.38-1.24,1.1-2.34,1.95-3.35.66-.77,1.49-.62,1.89.36.29.7.6.75,1.29.44,1.54-.67,3.12-1.25,4.68-1.87,1.1-.43,1.25.52,1.64,1.01.47.59-.11.8-.61,1.02-1.57.68-3.12,1.4-4.7,2.07-.56.24-.79.44-.53,1.07.32.8-.17,1.34-.89,1.33Z"/>
        <path class="cls-8" d="M204.48,93.06c-.86.05-1.29-.42-.9-1.37.23-.59.08-.82-.5-1.07-1.61-.68-3.19-1.42-4.79-2.13-.4-.18-.99-.31-.56-.86.39-.5.51-1.5,1.56-1.13,1.65.58,3.27,1.26,4.88,1.94.55.23.81.22,1.09-.34.62-1.24,1.43-1.25,2.24-.08.63.91,1.19,1.85,1.53,2.91.28.87-.06,1.25-.88,1.5-1.13.34-2.29.54-3.67.65Z"/>
        <path class="cls-8" d="M174.12,48.34c0-.38-.03-.77,0-1.14.08-.72-.07-1.18-1.02-1.29-.59-.07-.87-.52-.46-1.07.59-.79,1.16-1.58,1.8-2.34.57-.68,1.29-.46,1.82,0,.77.68,1.45,1.47,1.94,2.35.47.83.08,1.47-.92,1.45-.58-.01-.43.27-.43.52,0,1.02-.03,2.04.02,3.05.02.56-.14.81-.8.81-2.37,0-1.92.29-1.95-2.33Z"/>
      </g>
      <g>
        <g>
          <rect class="cls-11" x="123.44" y="229.91" width="103.93" height="97.57" rx="2.28" ry="2.28"/>
          <g>
            <path class="cls-9" d="M181.99,324.95h-17.99c-1.15,0-2.08-.88-2.08-1.95v-7.29c0-1.08.93-1.95,2.08-1.95h17.99c1.15,0,2.08.88,2.08,1.95v7.29c0,1.08-.94,1.95-2.08,1.95M164,315.35c-.21,0-.38.16-.38.35v7.29c0,.19.17.35.38.35h17.99c.21,0,.38-.16.38-.35v-7.29c0-.19-.17-.35-.38-.35h-17.99Z"/>
            <path class="cls-9" d="M200.17,315.35h-11.74c-.84,0-1.51.64-1.51,1.42v5.16c0,.78.68,1.42,1.51,1.42h11.74c.84,0,1.52-.64,1.52-1.42v-5.16c0-.78-.68-1.42-1.52-1.42ZM194.44,319.22v-3.33h3.12v3.33h-3.12ZM197.56,319.48v3.33h-3.12v-3.33h3.12ZM194.15,315.88v3.33h-3.69v-3.33h3.69ZM188.43,315.88h1.75v3.33h-2.7v-2.44c0-.49.42-.89.95-.89ZM188.43,322.82c-.52,0-.95-.4-.95-.89v-2.45h2.7v3.33h-1.75ZM190.46,319.48h3.69v3.33h-3.69v-3.33ZM201.11,321.93c0,.49-.43.89-.95.89h-2.32v-3.33h3.27v-.27h-3.27v-3.33h2.32c.52,0,.95.4.95.89v5.16Z"/>
            <path class="cls-9" d="M151.12,321.15c-1.06,0-1.92-.81-1.92-1.8s.86-1.8,1.92-1.8,1.92.81,1.92,1.8-.86,1.8-1.92,1.8M151.12,317.95c-.82,0-1.49.63-1.49,1.4s.67,1.4,1.49,1.4,1.49-.63,1.49-1.4-.67-1.4-1.49-1.4"/>
            <path class="cls-9" d="M156.24,321.15c-1.06,0-1.92-.81-1.92-1.8s.86-1.8,1.92-1.8,1.92.81,1.92,1.8-.86,1.8-1.92,1.8M156.24,317.95c-.82,0-1.49.63-1.49,1.4s.67,1.4,1.49,1.4,1.49-.63,1.49-1.4-.67-1.4-1.49-1.4"/>
          </g>
        </g>
        <rect class="cls-9" x="128.54" y="235.04" width="93.73" height="77.05" rx=".94" ry=".94"/>
        <path class="cls-6" d="M212.46,308.26h-75.39c-1.68,0-2.68-1.77-1.74-3.08l9.57-13.22c.39-.54,1.04-.86,1.74-.86h56.24c.69,0,1.34.32,1.74.86l9.57,13.22c.95,1.31-.05,3.08-1.74,3.08Z"/>
        <path class="cls-4" d="M143.8,232.7c-.7,0-1.26.31-1.26.68v13.52c0,.37.57.68,1.26.68h61.95c.7,0,1.26-.31,1.26-.68v-13.52c0-.37-.57-.68-1.26-.68h-61.95Z"/>
        <g>
          <path class="cls-14" d="M157.2,274.57c-.04,1.2.79,1.91,1.71,2.51,1.63,1.07,3.51,1.6,5.43,2.02,3.49.76,7.04,1.03,10.61.91,3.92-.13,7.81-.52,11.48-1.97.98-.39,1.9-.88,2.68-1.58.65-.59,1.02-1.26.9-2.13.54.45.27,1.07.35,1.61.04.25-.03.52-.06.78-.97,1.84-2.79,2.64-4.68,3.29-2.22.77-4.55,1.12-6.9,1.38-2.12.23-4.24.3-6.36.24-3.43-.1-6.82-.44-10.11-1.42-1.85-.55-3.55-1.33-4.88-2.7-.3-.07-.16-.34-.27-.5-.23-.82-.35-1.64.1-2.44Z"/>
          <path class="cls-10" d="M190.32,290.44c0-4.58-.01-9.15-.02-13.73-.14-.03-.22.05-.29.15-.9,1.37-2.29,2.15-3.82,2.73-3.33,1.27-6.85,1.67-10.39,1.83-3.73.17-7.46-.04-11.12-.81-2.48-.52-4.92-1.14-6.79-2.92-.14-.13-.31-.28-.52-.19,0,0,0,0,0,0-.09-.17-.18-.33-.27-.5,0,1.71-.02,3.41-.02,5.12,0,4.72.01,9.44.02,14.17-.1,2.17.78,3.83,2.88,4.82,3.19,1.52,6.64,2.1,10.17,2.37,2.12.17,4.25.14,6.37,0,2.93-.14,5.79-.63,8.57-1.54,1.62-.53,3.12-1.23,4.38-2.35.58-.52.86-1.11.85-1.88-.03-2.42,0-4.84-.01-7.26Z"/>
          <path class="cls-10" d="M190,274.32c-.43-.87-1.19-1.44-2.06-1.85-3.63-1.72-7.56-2.23-11.56-2.41-1.79,0-3.58,0-5.37,0-2.36.06-4.68.37-6.98.85-1.8.37-3.54.89-5.12,1.79-.78.44-1.45.99-1.72,1.86-.23.72.07,1.28.58,1.81,1.28,1.32,2.98,1.94,4.72,2.46,3.39,1.01,6.91,1.27,10.43,1.39,2.37.08,4.72-.15,7.07-.43,2.26-.28,4.47-.76,6.57-1.62,1.14-.46,2.2-1.04,3-1.96.49-.56.78-1.16.42-1.89Z"/>
        </g>
        <g>
          <path class="cls-7" d="M184.87,242.1h-19.84c-.67,0-1.25.43-1.43,1.06l-2.36,8.1c-.45,1.55.73,3.1,2.38,3.1h23.45c1.73,0,2.93-1.7,2.31-3.3l-3.11-8.02c-.22-.57-.78-.94-1.4-.94"/>
          <path class="cls-7" d="M176.47,259.16h-2.27c-2.82,0-5.11-2.15-5.11-4.8h12.5c0,2.65-2.29,4.8-5.11,4.8"/>
          <path class="cls-7" d="M177.04,259.16h-3.41v2.67c0,.88.76,1.6,1.7,1.6s1.7-.72,1.7-1.6v-2.67Z"/>
        </g>
      </g>
      <g>
        <path class="cls-11" d="M235.75,164.35c0-1.68,0-3.36-.04-5.03-.01-.52.18-.78.61-1.06,9.53-6.36,19.3-12.36,28.97-18.5.19-.12.36-.26.55-.4-5.56-5.04-6.71-6.09-7.33-11.48-.89.6-1.75,1.16-2.59,1.73-8.18,5.64-16.51,11.06-24.6,16.83-1.25.89-2.48,1.81-3.36,3.08-2,2.89-1.19,6.73,1.88,8.55.77.45,1,.92.96,1.75-.07,1.51-.04,3.03-.06,4.55.2.26.5.3.79.31,1.37,0,2.74.09,4.11-.02.13-.07.16-.17.1-.3Z"/>
        <path class="cls-11" d="M303.23,148.87c-5.23-.83-9.31,1.09-12.44,5.21-7.21,9.49-14.48,18.94-21.94,28.24-.55.68-1.14,1.34-1.58,2.09-.66,1.09-1.2,2.25-1.85,3.49,1.09-.27,2.06-.5,3.08-.46.44.02.6-.35.82-.61,2.68-3.21,6.03-5.36,10.2-6.22.06-.01.1-.08.15-.11h0c2.81-.35,5.61-.33,8.39.19,4.16,1.11,7.26,3.8,10.25,6.66.23.22.47.44.77.72,1.89-3.34,3.77-6.65,5.63-9.96,2.31-4.1,4.61-8.2,6.9-12.3,3.83-6.84-.53-15.7-8.38-16.94Z"/>
        <path class="cls-11" d="M242.99,164.64c-.63-.34-1.32-.29-1.99-.3-1.75,0-3.5,0-5.25,0,0,.07.01.14.02.21-1.27-.35-2.57-.09-3.85-.17-.39-.02-.77-.02-1.16-.03,0,0,.06,0,.06,0-1.85,0-3.71-.01-5.56,0-.45,0-.91,0-1.32.26-1.17.68-1.77,2.03-1.31,3.35.65,1.88,1.39,3.74,2.27,5.54.34.37.78.16,1.17.17,1.58.03,3.17.01,4.75.02.06.98.11,1.96.17,2.94,0,1.43.02,2.87.02,4.3,0,.42.04.82.36,1.13h-.04s0,0,0,0c0,0,0,0,0,0,.81,1.26,2.01,1.51,3.41.71.79-.46.99-1.21.99-2.04.01-2.12.03-4.24,0-6.36,0-.4.09-.57.33-.64.15-.02.3-.02.45-.04,1.28.03,2.56.01,3.84.01q1.56,0,2.08-1.54c.72-1.8,1.84-3.47,1.78-5.51-.03-.89-.35-1.62-1.23-2.02ZM230.82,164.37h0s0,0,0,0c0,0,0,0,0,0Z"/>
        <path class="cls-11" d="M299.05,142.2c-4.8-4.35-9.59-8.7-14.38-13.06-2.84-2.58-5.58-5.28-8.51-7.75-5.3-4.46-13.33-1.74-14.61,4.86-.15,1.03-.18,2.05,0,3.08-.04.17-.03.33.14.44.09.74.39,1.4.82,2.01.41,1.09,1.25,1.86,2.08,2.62,4,3.68,8.02,7.34,12.03,11,3.25,2.96,6.52,5.9,9.74,8.88.52.48.67.39,1.05-.12,1.74-2.35,3.61-4.58,6.26-6.05,3.22-1.78,6.6-2.27,10.19-1.33.05.01.11-.04.22-.09-1.69-1.51-3.36-3-5.01-4.5Z"/>
        <path class="cls-10" d="M314.66,210.34c-.05-1.05-.86-1.84-1.94-1.99-1.45-.21-2.91-.43-4.37-.57-.72-.07-1.11-.4-1.36-1.04-.44-1.13-.9-2.26-1.39-3.38-.23-.53-.18-.96.14-1.44.85-1.26,1.68-2.53,2.49-3.81.8-1.26.7-2.21-.33-3.31-1.13-1.21-2.27-2.42-3.44-3.59-1.43-1.44-2.39-1.53-4.16-.46-1.2.72-2.4,1.42-3.58,2.17-.67.42-1.3.46-2.02.1-1.04-.53-2.1-1.01-3.21-1.38-.48-.16-.79-.45-.86-1.04-.2-1.56-.51-3.1-.75-4.66-.23-1.45-1.08-2.2-2.57-2.25-1.83-.05-3.67-.13-5.5-.15-1.61-.02-2.52.73-2.78,2.26-.27,1.58-.55,3.16-.78,4.75-.07.51-.29.83-.76,1.01-1.36.52-2.72,1.05-4.09,1.56-.59.22-1.14.11-1.67-.23-1.18-.75-2.36-1.49-3.55-2.23-1.44-.89-2.41-.79-3.6.37-1.23,1.21-2.46,2.42-3.67,3.65-1.19,1.2-1.28,2.23-.34,3.62.78,1.15,1.53,2.32,2.32,3.46.39.56.43,1.11.14,1.72-.54,1.16-1.09,2.32-1.6,3.5-.27.63-.82.77-1.41.87-1.28.22-2.56.48-3.85.65-1.04.14-1.77.6-2.1,1.61-.25,2.31.02,4.63-.02,6.94.21,1.59.62,2.08,2.16,2.43,1.24.28,2.49.5,3.74.69.89.14,1.47.51,1.76,1.4.31.94.72,1.85,1.16,2.74.34.69.28,1.27-.14,1.89-.79,1.18-1.54,2.38-2.31,3.57-.78,1.21-.79,2.09.11,3.18,1.33,1.6,2.87,3.02,4.41,4.41.78.71,1.79.68,2.73.11,1.28-.77,2.58-1.49,3.85-2.28.72-.45,1.39-.56,2.21-.23,1.2.48,2.39,1.01,3.65,1.34.64.17.75.71.84,1.28.24,1.52.48,3.05.77,4.56.24,1.21,1.02,1.83,2.26,1.84,2.03.03,4.07.03,6.1.02,1.41,0,2.26-.71,2.48-2.08.23-1.43.45-2.86.61-4.29.09-.84.47-1.33,1.29-1.59,1.14-.36,2.27-.78,3.37-1.23.64-.26,1.18-.21,1.75.15,1.27.79,2.54,1.57,3.82,2.33,1.32.79,2.34.73,3.46-.31,1.29-1.19,2.54-2.43,3.75-3.7,1.08-1.13,1.14-2.08.31-3.41-.8-1.29-1.6-2.57-2.44-3.83-.39-.58-.42-1.11-.13-1.71.48-1.02.93-2.04,1.38-3.07.27-.6.69-.97,1.37-1.09,1.53-.28,3.07-.58,4.58-.95,1.21-.29,1.6-.84,1.75-2.02.28-2.29.04-4.58-.06-6.86ZM284.06,227.72c-7.45-.06-13.63-6.24-13.69-13.68-.06-7.86,6.97-13.86,13.69-13.61,8.72-.15,14.35,7.11,14.28,13.8-.08,6.91-5.94,13.56-14.28,13.5Z"/>
        <path class="cls-10" d="M301.09,165.37c2.85.21,5.16-2.41,5.1-4.99-.07-2.74-2.2-4.76-5.11-4.85-2.94-.09-5.25,2.5-5.14,5.1.11,2.56,2.51,4.98,5.16,4.74Z"/>
        <path class="cls-10" d="M270.19,131.27c2.14-.03,3.78-1.34,3.84-3.57.05-2.18-1.75-3.71-3.92-3.77-1.98-.05-3.68,1.73-3.67,3.77.01,1.91,1.76,3.57,3.75,3.57Z"/>
        <path class="cls-10" d="M236.14,152.98c0-1.45-1.28-2.74-2.71-2.72-1.49.03-2.62,1.18-2.63,2.67,0,1.46,1.24,2.74,2.73,2.71,1.16-.02,2.7-.89,2.6-2.67Z"/>
      </g>
    </g>
  </g>
</svg>