<?xml version="1.0" encoding="UTF-8"?>
<svg id="Capa_2" data-name="Capa 2" xmlns="http://www.w3.org/2000/svg" xmlns:xlink="http://www.w3.org/1999/xlink" viewBox="0 0 344.61 344.02">
  <defs>
    <style>
      .cls-1, .cls-2 {
        stroke-width: 8px;
      }

      .cls-1, .cls-2, .cls-3 {
        stroke-linecap: round;
      }

      .cls-1, .cls-2, .cls-3, .cls-4, .cls-5, .cls-6 {
        fill: none;
      }

      .cls-1, .cls-2, .cls-7, .cls-8, .cls-9, .cls-10, .cls-4, .cls-11, .cls-6, .cls-12, .cls-13 {
        stroke-miterlimit: 10;
      }

      .cls-1, .cls-6 {
        stroke: #575b5c;
      }

      .cls-14 {
        clip-path: url(#clippath-6);
      }

      .cls-2, .cls-4 {
        stroke: #254d62;
      }

      .cls-15 {
        clip-path: url(#clippath-4);
      }

      .cls-3 {
        stroke: #264d62;
        stroke-linejoin: round;
        stroke-width: .72px;
      }

      .cls-7 {
        stroke-width: .37px;
      }

      .cls-7, .cls-8, .cls-9, .cls-10, .cls-11, .cls-13 {
        stroke: #8d8e94;
      }

      .cls-7, .cls-16, .cls-10, .cls-17 {
        fill: #264d62;
      }

      .cls-18 {
        fill: #fff;
        font-family: Calibri-Bold, Calibri;
        font-size: 25.29px;
        font-weight: 700;
      }

      .cls-19 {
        opacity: .4;
      }

      .cls-19, .cls-8, .cls-20, .cls-21 {
        fill: #575b5c;
      }

      .cls-22 {
        fill: #00718d;
      }

      .cls-8 {
        stroke-width: .25px;
      }

      .cls-8, .cls-21, .cls-17, .cls-23, .cls-24 {
        fill-rule: evenodd;
      }

      .cls-9 {
        fill: #8d8e94;
      }

      .cls-10 {
        stroke-width: .3px;
      }

      .cls-25, .cls-12, .cls-13 {
        fill: #254d62;
      }

      .cls-26 {
        clip-path: url(#clippath-1);
      }

      .cls-4, .cls-6 {
        stroke-width: 1.2px;
      }

      .cls-27 {
        clip-path: url(#clippath-5);
      }

      .cls-28 {
        clip-path: url(#clippath-3);
      }

      .cls-5 {
        clip-rule: evenodd;
      }

      .cls-11 {
        fill: #5b5f60;
        stroke-width: .79px;
      }

      .cls-12 {
        stroke: #00718d;
      }

      .cls-12, .cls-13 {
        stroke-width: .3px;
      }

      .cls-29 {
        clip-path: url(#clippath-2);
      }

      .cls-23 {
        fill: #726e6d;
      }

      .cls-30 {
        clip-path: url(#clippath);
      }

      .cls-24 {
        fill: #b7b3b3;
      }
    </style>
    <clipPath id="clippath">
      <polygon class="cls-5" points="168.43 318.64 204.51 318.64 204.51 194.47 168.43 194.47 168.43 318.64 168.43 318.64"/>
    </clipPath>
    <clipPath id="clippath-1">
      <polygon class="cls-5" points="168.43 318.64 204.51 318.64 204.51 194.47 168.43 194.47 168.43 318.64 168.43 318.64"/>
    </clipPath>
    <clipPath id="clippath-2">
      <polygon class="cls-5" points="168.43 318.64 204.51 318.64 204.51 194.47 168.43 194.47 168.43 318.64 168.43 318.64"/>
    </clipPath>
    <clipPath id="clippath-3">
      <polygon class="cls-5" points="168.43 318.64 204.51 318.64 204.51 194.47 168.43 194.47 168.43 318.64 168.43 318.64"/>
    </clipPath>
    <clipPath id="clippath-4">
      <polygon class="cls-5" points="168.43 318.64 204.51 318.64 204.51 194.47 168.43 194.47 168.43 318.64 168.43 318.64"/>
    </clipPath>
    <clipPath id="clippath-5">
      <polygon class="cls-5" points="168.43 318.64 204.51 318.64 204.51 194.47 168.43 194.47 168.43 318.64 168.43 318.64"/>
    </clipPath>
    <clipPath id="clippath-6">
      <polygon class="cls-5" points="168.43 318.64 204.51 318.64 204.51 194.47 168.43 194.47 168.43 318.64 168.43 318.64"/>
    </clipPath>
  </defs>
  <g id="Home">
    <g id="Methodologies">
      <g>
        <path class="cls-16" d="M143.09,58.43c1.91-1.75,3.93-2.98,6.56-3.16,3.1-.21,4.34.84,4.35,3.83,0,2.68-1.12,5.15-1.59,7.74-.14.76-.36,1.51-.49,2.28-.13.77.19,1.2,1.08,1.08.28-.04.57-.04.85-.06.39-.03.59.2.74.5.17.32-.08.52-.25.72-.83.98-4.04,1.96-5.27,1.58-.87-.27-1.33-.84-1.25-1.76.17-2.1.9-4.09,1.34-6.14.36-1.67.91-3.31.87-5.04-.05-1.88-1.41-2.83-3.2-2.02-2.39,1.08-4.36,2.54-4.79,5.39-.42,2.8-1.13,5.56-1.72,8.33-.2.94-1.59,1.59-2.84,1.27-1.04-.26-.93-1.03-.77-1.8,1.41-6.89,2.83-13.78,4.24-20.67.29-1.41.21-1.53-1.24-1.64-.49-.04-.87-.12-.93-.69-.05-.53.25-.85.71-.95,1.38-.28,2.77-.57,4.17-.73,1.08-.13,1.59.45,1.4,1.49-.63,3.44-1.29,6.87-1.97,10.45Z"/>
        <path class="cls-16" d="M163.87,69.37c2.36-3.07,4.62-5.94,5.53-9.53.23-.89.27-1.77-.2-2.61-.28-.51-.74-1.03-.08-1.55.62-.5,1.32-.7,2.13-.36,1.24.53,1.82,1.91,1.39,3.49-.47,1.75-1.42,3.28-2.38,4.81-1.78,2.83-3.72,5.56-5.87,8.13-.25.3-.53.59-.82.86-.49.45-1.08.52-1.69.28-.57-.22-.86-.62-.91-1.25-.21-2.87-.43-5.75-.7-8.62-.13-1.39-.34-2.78-.54-4.16-.13-.95-.64-1.48-1.72-1.33-.69.1-1.29-.12-1.3-.85-.01-.72.7-.75,1.26-.82,1.28-.15,2.57-.26,3.86-.4.84-.09,1.32.24,1.4,1.06.4,4.19.63,8.39.65,12.85Z"/>
        <g>
          <path class="cls-20" d="M267.94,281.17c-3.37-8.33-6.92-16.57-10.23-24.93-3.91-9.89-8.63-19.42-11.7-29.69,0-6.44,0-12.87,0-19.31,2.6-.38,3.29-1.11,3.27-3.43-.02-2.03-.84-2.9-3.01-3.19-9.05,0-18.11.01-27.16.02-2.02.49-2.75,1.41-2.7,3.39.06,1.96.89,2.75,3.44,3.23-.2,7.17.53,14.37-.51,21.53-2.52,6.14-5.04,12.29-7.56,18.43-4.72,11.47-9.51,22.92-14.14,34.43-3.98,9.88,2.29,19.87,12.31,19.86,15.18-.01,30.37-.02,45.55,0,10.29.01,16.56-10.17,12.44-20.33Z"/>
          <path class="cls-9" d="M225.02,226.02c.32-.92.18-1.88.18-2.82.02-4.97.05-9.94-.01-14.91-.01-1.14.3-1.38,1.31-1.37,4.24.06,8.48.07,12.71,0,1.1-.02,1.49.21,1.47,1.51-.09,4.39.11,8.78-.07,13.16-.19,4.55.81,8.68,2.52,12.82,6.7,16.15,13.27,32.36,19.83,48.58,1.9,4.71.89,8.85-2.53,11.36-1.24.91-2.63,1.43-4.14,1.43-15.77.02-31.54.05-47.3,0-5.05-.02-8.49-5.72-6.81-11.29,1.39-4.59,3.46-8.9,5.26-13.31,5.52-13.5,11.06-26.98,16.59-40.47.23-1.58.8-3.08,1-4.67Z"/>
          <path class="cls-25" d="M259.78,283.93c-3.83-9.34-7.65-18.69-11.43-28.05-.38-.94-.94-1.02-1.73-1.02-9.27.02-18.54.03-27.81-.02-.91,0-1.28.35-1.61,1.18-1.84,4.59-3.73,9.16-5.61,13.74-2.05,5.01-4.17,9.99-6.13,15.04-1.4,3.62.1,6.59,3.57,7.45,9.16.02,18.32.04,27.49.05,6.6,0,13.2-.03,19.8-.05,2.31-.47,3.86-1.87,4.15-3.85.23-1.55-.11-3.02-.69-4.46Z"/>
          <path class="cls-22" d="M232.98,280.08c-.01,2.28-1.87,4.23-3.96,4.17-2.02-.06-3.75-2.03-3.72-4.26.02-2.24,1.76-4.13,3.82-4.16,2.13-.03,3.88,1.89,3.86,4.25Z"/>
          <path class="cls-22" d="M243.01,270.18c.02,1.85-1.31,3.33-3.01,3.37-1.74.04-3.14-1.39-3.15-3.21-.01-1.84,1.32-3.34,3.02-3.4,1.68-.06,3.12,1.43,3.14,3.24Z"/>
        </g>
        <g>
          <path class="cls-16" d="M110.61,203.07c1.55,2.45,2.21,4.85,2.07,7.41-.28,5.19-3.13,8.69-7.92,10.8-4.03,1.78-8.33,2.66-12.66,3.43-3.76.66-7.55,1.12-11.35,1.49-3.51.34-7.04.61-10.56.78-4.22.21-8.44.35-12.66.18-2.73-.11-5.51-.08-8.15-.91-2.32-.73-3.79-2.4-4.31-4.64-.52-2.26.05-4.39,1.76-6.13.49-.49,1.01-.65,1.74-.28,1.41.72,3.01.82,4.57.93,6.47.47,12.95.31,19.42-.07,3.98-.24,7.96-.54,11.91-1.04,6.97-.88,13.95-1.78,20.48-4.54,1.08-.46,2.09-1.04,3.02-1.73,1.83-1.36,2.67-3.19,2.63-5.67Z"/>
          <path class="cls-16" d="M110.59,182.91c1.19,1.89,1.82,3.64,2.02,5.54.68,6.27-2.98,11.19-9.72,13.47-4.35,1.47-8.83,2.36-13.38,3.05-4.26.65-8.54,1.14-12.83,1.46-7.7.57-15.41.92-23.14.39-1.13-.08-2.26-.32-3.38-.5-4.26-.68-7.26-6.13-3.68-10.61.79-.98,1.13-.99,2.32-.54,2.09.8,4.33.89,6.53.99,5.72.25,11.44.17,17.15-.2,5.43-.35,10.85-.83,16.24-1.64,5.41-.81,10.77-1.74,15.85-3.81,1.14-.47,2.22-1.05,3.22-1.77,1.91-1.37,2.88-3.22,2.78-5.83Z"/>
          <path class="cls-16" d="M110.68,223.49c1.51,2.25,2.18,4.71,1.98,7.36-.41,5.55-3.71,8.96-8.83,10.97-4.19,1.65-8.58,2.55-13.02,3.23-10.54,1.63-21.16,2.38-31.84,2.27-3.19-.03-6.45.05-9.52-.93-4.87-1.55-5.94-7.29-2.67-10.73.54-.56,1.09-.7,1.89-.29,1.44.72,3.08.82,4.66.92,6.41.43,12.81.29,19.22-.1,4.47-.28,8.93-.63,13.37-1.21,6.17-.8,12.31-1.72,18.14-3.99.75-.29,1.49-.63,2.2-1.01,2.61-1.4,4.45-3.31,4.42-6.48Z"/>
          <path class="cls-16" d="M110.68,162.97c3.88,6.05,2.18,14.39-5.46,17.84-3.81,1.72-7.84,2.67-11.94,3.41-5.94,1.07-11.94,1.7-17.96,2.15-6.34.47-12.68.66-19.03.47-2.15-.06-4.31-.18-6.41-.71-2.49-.63-4.07-2.23-4.72-4.58-.64-2.31-.06-4.44,1.58-6.25.51-.57,1.08-.79,1.9-.35,1.25.67,2.69.76,4.08.88,3.98.34,7.96.42,11.96.3,4.15-.12,8.3-.29,12.44-.65,8.25-.72,16.48-1.58,24.44-3.99,1.46-.44,2.89-.97,4.23-1.68,3.59-1.89,4.64-3.37,4.9-6.83Z"/>
          <path class="cls-16" d="M110.59,142.65c1.21,1.88,1.81,3.64,2.02,5.53.68,6.1-2.86,11.12-9.65,13.43-4.29,1.46-8.7,2.34-13.17,3.04-4.16.65-8.35,1.11-12.55,1.45-7.11.58-14.24.84-21.38.58-2.05-.07-4.12-.17-6.11-.72-2.47-.68-4.05-2.32-4.64-4.68-.58-2.3-.01-4.44,1.72-6.21.54-.55,1.06-.6,1.82-.26,1.87.83,3.93.88,5.94,1.02,6.15.42,12.3.17,18.44-.2,6.61-.41,13.21-1.05,19.73-2.23,4.39-.79,8.75-1.7,12.79-3.63,2.93-1.4,5.18-3.32,5.03-7.13Z"/>
          <path class="cls-16" d="M74.86,132.54c7.78.6,15.53,1.37,23.13,3.2,3.38.82,6.72,1.8,9.62,3.79,1.59,1.09,1.85,1.59,1.85,3.48,0,2.51-1.77,4.91-4.15,5.66-.28.09-.5.03-.74-.07-4.49-1.88-9.25-2.77-14.03-3.55-4.77-.78-9.58-1.28-14.39-1.65"/>
          <path class="cls-16" d="M92.59,245.89c4.02-.72,7.99-1.57,11.76-3.09,1.17-.47,2.34-.98,3.37-1.7.51-.35.8-.26,1.22.14,2.97,2.92,4.16,6.42,3.65,10.46-.1.77-.3,1.53-1.24,1.74-.88.2-1.43-.22-1.96-.89-1.6-2-3.91-3-6.26-3.87-3.11-1.15-6.34-1.86-9.6-2.47-.32-.06-.65-.05-.92-.33Z"/>
          <path class="cls-16" d="M83.64,153.5c-1.92.42-3.68.5-5.43.64-6.42.52-12.85.9-19.29.76-2.9-.06-5.81-.14-8.67-.72-.59-.12-1.18-.26-1.69-.76,1.41-.67,2.9-.8,4.38-.93,5.22-.47,10.45-.39,15.68-.17,4.95.21,9.9.56,15.03,1.18Z"/>
          <path class="cls-16" d="M48.55,193.63c2.09-.76,4.21-.89,6.32-1.03,6.9-.44,13.8-.08,20.68.4,2.63.18,5.26.37,7.87.81-4.17.52-8.34.85-12.53,1.08-5.22.28-10.44.41-15.66.14-1.85-.09-3.71-.22-5.51-.73-.41-.12-.8-.24-1.17-.68Z"/>
          <path class="cls-16" d="M83.6,173.67c-3.62.52-7.26.79-10.91,1.01-4.24.26-8.49.48-12.74.37-3.19-.08-6.41-.06-9.56-.71-.63-.13-1.26-.26-1.84-.78,1.45-.67,2.97-.79,4.47-.93,6.53-.61,13.07-.32,19.59.04,3.67.2,7.34.5,10.99,1.01Z"/>
          <path class="cls-16" d="M48.54,233.93c1.74-.74,3.54-.86,5.32-.99,5.88-.41,11.77-.26,17.65.08,3.59.21,7.17.51,10.74.84.41.04.82.14,1.47.25-9.48,1.09-18.73,1.52-28.01,1.22-1.95-.06-3.91-.21-5.81-.71-.48-.13-.93-.27-1.35-.69Z"/>
          <path class="cls-16" d="M48.54,213.79c1.92-.78,3.91-.89,5.88-1.03,7.23-.5,14.44-.08,21.65.39,2.05.14,4.1.35,6.14.55.45.04.89.14,1.58.26-9.6,1.09-18.95,1.55-28.34,1.21-1.88-.07-3.78-.22-5.62-.7-.48-.13-.91-.3-1.3-.68Z"/>
          <path class="cls-16" d="M92.68,205.6c4.4-.79,8.73-1.73,12.8-3.56.74-.33,1.44-.73,2.14-1.13.83-.48,1.21-.42,1.49.49.64,2.11.53,4.12-1.14,5.82-.16.16-.32.31-.49.46-1.31,1.1-2.52,1.61-4.4.77-3.13-1.38-6.56-1.98-9.95-2.57-.16-.03-.33,0-.45-.28Z"/>
          <path class="cls-16" d="M92.64,225.75c4.23-.76,8.41-1.67,12.36-3.35.92-.39,1.79-.9,2.66-1.39.79-.45,1.06-.37,1.44.48.87,1.97.21,4.77-1.45,6.17-.07.06-.15.12-.23.18-1.28,1.08-2.47,1.59-4.32.76-3.07-1.37-6.44-1.96-9.77-2.55-.26-.05-.52-.05-.7-.31Z"/>
          <path class="cls-16" d="M92.66,185.5c1.19-.24,2.38-.46,3.57-.73,4.07-.9,8.08-1.96,11.66-4.15.89-.54,1.08.25,1.27.74.86,2.19.06,4.86-1.84,6.32-.05.04-.11.07-.16.11-1.18.99-2.31,1.29-3.93.59-3.33-1.44-6.94-2.08-10.57-2.88Z"/>
          <path class="cls-16" d="M92.65,165.44c1.98-.5,3.96-.85,5.9-1.34,3.29-.84,6.48-1.87,9.39-3.62.86-.52,1.12.31,1.24.79.63,2.43.29,4.68-2.04,6.44-1.23.93-2.31,1.22-3.87.56-3.38-1.45-7.02-2.08-10.62-2.83Z"/>
          <path class="cls-16" d="M83.03,133.4c-1.92.42-3.68.5-5.43.64-6.42.52-12.85.9-19.29.76-2.9-.06-5.81-.14-8.67-.72-.59-.12-1.18-.26-1.69-.76,1.41-.67,2.9-.8,4.38-.93,5.22-.47,10.45-.39,15.68-.17,4.95.21,9.9.56,15.03,1.18Z"/>
          <path class="cls-7" d="M84.79,122.73c.73,1.88,1.1,3.64,1.23,5.53.41,6.1-1.74,11.12-5.86,13.43-2.6,1.46-5.28,2.34-8,3.04-2.53.65-5.07,1.11-7.62,1.45-4.32.58-8.65.84-12.98.58-1.24-.07-2.5-.17-3.71-.72-1.5-.68-2.46-2.32-2.82-4.68-.35-2.3,0-4.44,1.05-6.21.33-.55.64-.6,1.11-.26,1.14.83,2.39.88,3.61,1.02,3.73.42,7.47.17,11.2-.2,4.02-.41,8.02-1.05,11.98-2.23,2.66-.79,5.31-1.7,7.77-3.63,1.78-1.4,3.15-3.32,3.06-7.13Z"/>
        </g>
        <path class="cls-2" d="M164.09,340.02C74.97,335.66,4,261.14,4,171.91c0-87.98,68.98-161.87,156.75-167.91"/>
        <path class="cls-1" d="M180.52,4c89.13,4.35,160.09,78.87,160.09,168.11,0,87.98-68.98,161.87-156.75,167.91"/>
        <g id="iNDUSTRIALiNNOVATION">
          <g>
            <path class="cls-6" d="M150.29,134.01c-3.18-.06-6.37.21-9.55-.12-3.39-.35-6.07-2.81-6.47-5.97-.2-1.6-.13-3.21-.14-4.82-.07-8.99-3.5-16.72-9.94-23.34-4.54-4.66-8.18-9.82-10.19-15.89-.07-.22-.15-.45-.22-.67-2.23-7.09-2.21-14.63-.1-21.75l1.1-3.7-.14.48c3.97-8.28,9.63-15.81,18.31-20.31,25.87-13.39,51.04-.37,59.88,16.99.11.22.22.44.33.66,2.08,4.3,3.18,8.95,3.36,13.67l.03.8c.42,10.62-3.52,21.03-11.17,28.91-.18.19-.36.37-.55.55-4.88,4.89-8.28,10.5-9.74,17.09-.7,3.15-.75,6.34-.72,9.54,0,.85-.06,1.69-.28,2.52-.87,3.27-3.62,5.28-7.43,5.35-2.85.05-5.71,0-8.56.02"/>
            <g>
              <path class="cls-4" d="M161.95,125.69v-7.67c0-.1,0-.2.03-.31l5.73-29.57c.19-.99-.57-1.91-1.58-1.91h-22.72c-1.02,0-1.78.93-1.58,1.93l5.96,29.55c.02.1.03.21.03.32v7.67"/>
              <path class="cls-11" d="M154.42,151.42c6.08,0,12.15,0,18.23-.01.76,0,1.49.15,2.18.38,1.5.51,2.28,2.16,2.02,4.08-.2,1.5-1.49,2.74-3.02,2.81-1.46.06-2.93.08-4.39.03-.81-.03-1.25.24-1.45,1.03-1.03,3.94-3.56,6.57-7.25,8.13-1.12.47-2.3.85-3.53.97-4.46.44-8.74.1-12.44-2.82-1.94-1.53-3.32-3.41-3.87-5.85-.21-.92-.66-1.52-1.77-1.46-1.35.07-2.7.03-4.05-.02-1.83-.06-3.16-1.41-3.33-3.29-.16-1.82,1.01-3.34,2.77-3.78.67-.16,1.32-.21,1.99-.21,5.96,0,11.93,0,17.89,0Z"/>
              <path class="cls-11" d="M154.76,141.29c-6.19,0-12.39,0-18.58,0-1.11,0-2.11-.26-2.95-1.07-1.17-1.12-1.34-2.47-.87-3.9.41-1.26,1.38-2.23,2.68-2.22,1.59,0,2.74-.85,4.01-1.48,4.59-2.27,9.49-4.98,14.72-8.21.56-.35.95-.37,1.58.02,5.41,3.36,11.04,6.33,16.73,9.17.46.23.92.42,1.48.42,2.36.02,3.71,1.33,3.71,3.53,0,2.29-1.43,3.72-3.81,3.72-5.59.02-11.19,0-16.78,0-.64,0-1.28,0-1.91,0Z"/>
              <path class="cls-10" d="M154.24,150.31c-6.22,0-12.45,0-18.67,0-1.61,0-3.02-.95-3.6-2.4-.56-1.38-.17-3.03,1.03-4.09.71-.63,1.55-.99,2.53-.99,7.57,0,15.15,0,22.72,0,4.87,0,9.75,0,14.62-.02,1.68,0,2.99.63,3.76,2.15.63,1.24.31,3.22-.67,4.2-.76.76-1.71,1.16-2.81,1.16-6.3,0-12.6,0-18.9,0Z"/>
            </g>
          </g>
        </g>
        <g>
          <path class="cls-20" d="M234.79,104.84q3.89-1.26,6.54-3.28c5.68,8.62,11.35,17.23,17.03,25.85-2.18,1.34-4.26,2.8-6.06,4.62-5.5-8.48-11.02-16.95-16.45-25.47"/>
          <path class="cls-20" d="M270.97,149.96c2-1.41,2.98-3.58,4.17-5.59,7.44,6.37,14.88,12.74,22.32,19.12.36.31.67.64,1.19.59-2.4,1.06-3.74,3.18-5.16,5.22-7.51-6.45-15.01-12.89-22.52-19.34Z"/>
          <path class="cls-20" d="M236.24,151.43c-.61-2.45-.77-5.05-2.33-7.19,5.3-1.72,10.6-3.44,15.9-5.16-.24,2.65.47,5.12,1.46,7.54-5.01,1.6-10.02,3.21-15.03,4.81Z"/>
          <path class="cls-20" d="M282.19,116.99c1.1,2.12,3.06,3.38,4.83,4.83-4.12,3.91-8.24,7.82-12.36,11.73-1.68-1.58-3.35-3.17-5.03-4.75,4.19-3.94,8.37-7.87,12.56-11.81Z"/>
          <g>
            <circle class="cls-19" cx="262.87" cy="139.72" r="15.79"/>
            <circle class="cls-25" cx="262.13" cy="138.42" r="15.79"/>
            <text class="cls-18" transform="translate(251.08 146.91)"><tspan x="0" y="0">M</tspan></text>
          </g>
          <circle class="cls-13" cx="231.51" cy="91.13" r="13.73"/>
          <circle class="cls-12" cx="306.34" cy="175.75" r="13.73"/>
          <circle class="cls-13" cx="223.82" cy="151.25" r="12.12"/>
          <circle class="cls-13" cx="292.14" cy="111.54" r="11.15"/>
        </g>
        <g>
          <path class="cls-8" d="M192.73,223.68c6.26,0,11.3,3.08,11.3,6.9,0,.03,0,.05,0,.08h0v86.41c0,.77-1.02,1.4-2.3,1.4h-30.82c-1.26,0-2.29-.63-2.29-1.4v-86.4h0s0-.07,0-.09c0-3.82,5.04-6.9,11.29-6.9h12.82Z"/>
          <g class="cls-30">
            <polygon class="cls-21" points="192.5 214.74 179.81 214.74 179.81 222.61 192.5 222.61 192.5 214.74 192.5 214.74"/>
            <g class="cls-26">
              <polygon class="cls-23" points="187.49 209.59 184.82 209.59 184.82 215.65 187.49 215.65 187.49 209.59 187.49 209.59"/>
              <g class="cls-29">
                <polygon class="cls-21" points="187.49 204.14 184.82 204.14 184.82 215.65 187.49 215.65 187.49 204.14 187.49 204.14"/>
                <g class="cls-28">
                  <polygon class="cls-17" points="191.5 201.71 180.81 201.71 180.81 203.83 191.5 203.83 191.5 201.71 191.5 201.71"/>
                  <g class="cls-15">
                    <polygon class="cls-21" points="191.5 207.77 188.49 207.77 188.49 210.5 191.5 210.5 191.5 207.77 191.5 207.77"/>
                    <g class="cls-27">
                      <polygon class="cls-24" points="188.49 205.95 183.48 205.95 183.48 212.01 188.49 212.01 188.49 205.95 188.49 205.95"/>
                      <g class="cls-14">
                        <path class="cls-3" d="M201.69,196.41l-4.42,27.26c-7.19-.59-14.32-.42-21.42,0l-4.89-27.05c10.04,1.62,20.28,1.62,30.73-.2h0Z"/>
                      </g>
                    </g>
                  </g>
                </g>
              </g>
            </g>
          </g>
        </g>
      </g>
    </g>
  </g>
</svg>