<?xml version="1.0" encoding="UTF-8"?>
<svg id="Capa_2" data-name="Capa 2" xmlns="http://www.w3.org/2000/svg" viewBox="0 0 96.18 96.14">
  <defs>
    <style>
      .cls-1 {
        letter-spacing: -.08em;
      }

      .cls-2 {
        stroke: #254d62;
      }

      .cls-2, .cls-3, .cls-4, .cls-5, .cls-6 {
        stroke-miterlimit: 10;
      }

      .cls-2, .cls-3, .cls-5, .cls-6 {
        fill: none;
      }

      .cls-2, .cls-5 {
        stroke-width: 3px;
      }

      .cls-7 {
        letter-spacing: -.06em;
      }

      .cls-8 {
        fill: #4c5151;
        font-family: BernardMT-Condensed, 'Bernard MT Condensed';
        font-size: 4.5px;
      }

      .cls-9 {
        fill: #fff;
      }

      .cls-3 {
        stroke-width: 11px;
      }

      .cls-3, .cls-6 {
        stroke: #4c5151;
      }

      .cls-4 {
        fill: #254d62;
        stroke: #585b5c;
        stroke-width: .75px;
      }

      .cls-5 {
        stroke: #575756;
      }

      .cls-6 {
        stroke-width: 2px;
      }
    </style>
  </defs>
  <g id="Logos">
    <g id="Awards">
      <g>
        <path class="cls-5" d="M50.77,1.5c11.21.65,21.81,5.33,29.85,13.16,8.04,7.84,12.99,18.32,13.93,29.5"/>
        <path class="cls-2" d="M94.68,49.75c-.42,11.58-5.13,22.6-13.22,30.9s-18.99,13.29-30.56,14"/>
        <path class="cls-5" d="M45.25,94.65c-11.33-.68-22.04-5.48-30.09-13.49C7.11,73.15,2.25,62.48,1.5,51.15"/>
        <path class="cls-2" d="M1.5,45.09c.72-11.27,5.51-21.89,13.47-29.9S33.52,2.33,44.78,1.53"/>
      </g>
      <g>
        <g>
          <polyline class="cls-4" points="46.73 58.83 32.22 83.36 30.61 77.71 24.16 78.52 38.13 56.17"/>
          <line class="cls-6" x1="33.46" y1="56.17" x2="19.72" y2="79.64"/>
          <polyline class="cls-4" points="47.46 58.83 61.96 83.36 63.58 77.71 70.02 78.52 56.05 56.17"/>
          <polyline class="cls-6" points="60.47 87.24 47.09 64.39 47.09 64.39 33.71 87.24"/>
          <line class="cls-6" x1="60.72" y1="56.17" x2="74.46" y2="79.64"/>
        </g>
        <circle class="cls-3" cx="48.27" cy="34.4" r="21.69"/>
        <g>
          <polygon class="cls-9" points="42.95 15.98 42.04 14.56 42.64 12.99 41.06 13.45 39.8 12.36 39.74 14.06 38.35 14.96 39.89 15.55 40.29 17.2 41.31 15.86 42.95 15.98"/>
          <polygon class="cls-9" points="48.27 8.91 49.3 11.08 51.62 11.43 49.94 13.12 50.34 15.51 48.27 14.38 46.19 15.51 46.59 13.12 44.91 11.43 47.23 11.08 48.27 8.91"/>
          <g>
            <path class="cls-9" d="M41.13,54.6c-.34-.25-.64-.43-.97-.54-.33-.11-.66-.18-1.02-.19-.71-.03-1.48.1-2.22.28-.74.18-1.44.4-1.97.57-.52.17-.86.31-.86.31,0,0,.33.19.87.42.54.23,1.28.48,2.09.62.81.14,1.69.16,2.45-.06.76-.21,1.41-.67,1.63-1.4Z"/>
            <path class="cls-9" d="M38.87,51.37c.29.64.71,1.26,1.25,1.66.27.2.58.35.91.41.33.06.68.05,1.02-.09.02-.76-.19-1.37-.52-1.89-.33-.52-.8-.98-1.29-1.37-.49-.39-.98-.71-1.36-.95-.38-.23-.63-.37-.63-.37,0,0,0,.08.02.23.01.14.04.34.08.59.08.49.24,1.14.53,1.78Z"/>
            <path class="cls-9" d="M33.55,53.07c.74-.04,1.4-.32,1.86-.92-.37-.65-.93-1-1.59-1.2-.67-.2-1.45-.26-2.21-.28-.77-.02-1.52,0-2.09,0-.58,0-.95.02-.95.02,0,0,.07.08.2.2.13.12.32.3.57.49.48.39,1.16.85,1.91,1.18.75.34,1.57.55,2.31.51Z"/>
            <path class="cls-9" d="M34.96,50.19c.42.52,1.01.87,1.74.83.3-.7.25-1.37.05-1.99-.2-.61-.56-1.18-.92-1.67-.36-.49-.73-.91-1-1.21-.13-.15-.25-.27-.33-.35-.08-.08-.12-.13-.12-.13,0,0-.02.08-.06.21-.04.14-.08.33-.12.57-.08.48-.11,1.13-.01,1.82.1.68.35,1.38.77,1.91Z"/>
            <path class="cls-9" d="M25.9,44.96c-.53-.16-.86-.26-.86-.26,0,0,.03.09.1.23.07.14.18.34.31.58.13.24.3.51.49.8.1.15.2.29.31.44l.08.11.11.14c.07.09.15.18.22.28.61.72,1.37,1.27,2.12,1.5.75.23,1.47.16,2.08-.3-.17-.73-.59-1.23-1.15-1.66-.14-.11-.29-.21-.44-.31-.15-.1-.32-.2-.49-.3-.16-.1-.34-.2-.51-.3-.16-.09-.33-.17-.5-.25-.67-.31-1.35-.55-1.87-.71Z"/>
            <path class="cls-9" d="M31.04,46.25c.2.63.66,1.15,1.36,1.31.49-.59.64-1.23.68-1.84.03-.61-.05-1.18-.11-1.67-.02-.2-.11-.55-.18-.82-.08-.28-.17-.53-.24-.74-.08-.21-.15-.38-.2-.5-.04-.12-.07-.19-.07-.19,0,0-.05.07-.13.19-.08.13-.19.3-.3.52-.23.44-.51,1.05-.7,1.73-.05.17-.09.34-.13.52-.03.16-.06.33-.07.5-.01.17,0,.34.01.51.02.17.06.33.1.49Z"/>
            <path class="cls-9" d="M25.1,42.4c.12.15.26.28.41.4.14.12.29.23.44.33.61.39,1.29.55,2.03.34.06-.36.03-.7-.06-1-.05-.15-.12-.3-.2-.44-.08-.14-.18-.28-.28-.42-.4-.54-1.01-1.01-1.62-1.43-.6-.42-1.23-.79-1.71-1.05-.49-.26-.8-.42-.8-.42,0,0,.01.09.05.25.04.16.11.38.2.64.18.53.44,1.24.86,1.88.2.33.43.65.68.93Z"/>
            <path class="cls-9" d="M29.09,42.12c.14.29.35.54.65.74.67-.38,1.05-.95,1.26-1.56.05-.15.09-.31.12-.47.02-.08.03-.16.04-.24.01-.08.02-.16.04-.24.04-.33.05-.65.04-.96-.04-.62-.08-1.21-.16-1.63-.04-.21-.08-.39-.1-.51-.02-.12-.04-.19-.04-.19,0,0-.06.06-.16.16-.11.1-.24.25-.4.44-.31.38-.7.92-1.02,1.55-.3.62-.5,1.33-.49,1.99,0,.17.03.33.07.48.04.16.09.31.17.45Z"/>
            <path class="cls-9" d="M23.81,36.41c.09.17.19.33.3.48.12.15.24.29.37.41.53.5,1.16.79,1.93.72.13-.34.17-.67.13-.99-.02-.16-.05-.32-.11-.47-.05-.16-.1-.31-.17-.46-.14-.31-.34-.6-.56-.89-.12-.14-.23-.29-.35-.43-.12-.14-.24-.28-.36-.42-.5-.54-1.06-1.04-1.44-1.42-.4-.37-.68-.6-.68-.6,0,0-.01.38.02.94.02.28.08.61.14.96.04.18.07.36.12.54.05.18.09.37.16.55.14.37.3.73.48,1.07Z"/>
            <path class="cls-9" d="M28.24,37.62c.73-.25,1.22-.73,1.54-1.27.08-.14.15-.28.21-.42.07-.15.13-.29.19-.44.11-.3.18-.6.23-.9.06-.3.12-.58.15-.85.02-.14.03-.26.04-.38,0-.12.01-.23.03-.34.05-.41.04-.69.04-.69,0,0-.28.15-.69.44-.1.07-.21.15-.32.24-.12.09-.23.19-.34.29-.23.21-.46.45-.68.72-.11.13-.22.27-.32.42-.05.07-.1.15-.15.22-.04.08-.08.15-.12.23-.15.31-.27.63-.33.95-.03.16-.05.32-.05.48,0,.16.03.32.08.47.09.3.24.59.49.84Z"/>
            <path class="cls-9" d="M25.59,28.52c-.17-.32-.36-.64-.53-.93-.18-.3-.35-.56-.49-.79-.29-.46-.5-.75-.5-.75,0,0-.11.36-.22.91-.04.28-.08.61-.11.97-.01.18-.02.36-.03.55,0,.19.01.39.03.58.03.39.08.79.19,1.16.11.37.26.73.45,1.03.36.62.95,1.05,1.71,1.15.1-.15.17-.31.23-.46.05-.16.11-.31.13-.47.05-.32.03-.64-.05-.97-.07-.33-.17-.66-.31-.99-.14-.33-.32-.67-.48-.99Z"/>
            <path class="cls-9" d="M29.72,31.39c.23-.22.42-.47.59-.73.18-.26.34-.52.47-.79.07-.13.12-.27.18-.39.06-.13.12-.25.17-.38.1-.24.18-.47.24-.66.15-.38.22-.64.22-.64,0,0-.31.08-.78.25-.48.17-1.05.45-1.62.85-.14.1-.29.21-.41.32-.13.11-.25.24-.36.36-.23.26-.43.54-.57.83-.13.3-.2.61-.2.92,0,.16.01.31.06.47.05.15.12.31.22.46.77-.07,1.32-.42,1.79-.86Z"/>
            <path class="cls-9" d="M27.48,26.53c.1-.13.18-.27.25-.41.06-.15.11-.3.14-.46.03-.16.04-.32.06-.48.03-.33,0-.68-.06-1.04-.06-.36-.12-.71-.21-1.07-.19-.72-.39-1.39-.57-1.9-.18-.51-.3-.84-.3-.84,0,0-.05.08-.13.22-.08.14-.18.35-.29.6-.24.5-.49,1.22-.64,1.97-.06.38-.1.78-.1,1.16,0,.19.02.38.04.57.03.19.07.36.12.54.11.34.25.65.48.91.23.26.51.47.87.62.14-.12.25-.25.34-.38Z"/>
            <path class="cls-9" d="M33.53,23.8c.07-.1.1-.16.1-.16,0,0-.08,0-.23,0-.15,0-.35.02-.59.05-.24.03-.53.08-.84.14-.15.03-.32.07-.47.12-.16.05-.32.1-.47.17-.32.13-.65.28-.93.46-.28.19-.54.41-.76.66-.11.12-.19.26-.26.4-.07.14-.13.29-.17.43-.04.15-.06.31-.06.46,0,.16.04.33.09.49.38.06.73.04,1.05-.03.32-.07.63-.19.91-.35.14-.08.27-.16.39-.26.06-.04.12-.09.18-.14.06-.05.12-.1.18-.15.24-.2.45-.43.64-.65.2-.22.39-.45.54-.66.04-.05.08-.11.11-.16.04-.05.07-.1.11-.15.07-.1.14-.19.19-.28.12-.17.2-.32.27-.42Z"/>
            <path class="cls-9" d="M29.56,21.9c.33-.16.57-.38.76-.63.2-.25.33-.54.42-.86.2-.63.23-1.38.22-2.1,0-.18-.01-.36-.02-.54,0-.18-.02-.35-.03-.51-.03-.33-.06-.65-.09-.91-.06-.53-.11-.88-.11-.88,0,0-.06.07-.17.19-.11.12-.25.29-.42.51-.16.22-.36.48-.53.78-.18.3-.36.62-.51.97-.15.35-.28.72-.36,1.09-.08.37-.12.74-.1,1.09.05.71.33,1.35.94,1.8Z"/>
            <path class="cls-9" d="M34.91,21.52c.25-.18.48-.36.68-.53.2-.18.39-.34.54-.49.15-.15.28-.27.36-.36.09-.09.13-.14.13-.14,0,0-.32-.07-.82-.12-.25-.02-.53-.03-.85-.03-.32,0-.66.02-.99.08-.69.1-1.38.33-1.9.71-.26.2-.47.43-.62.7-.14.28-.21.59-.2.94.71.31,1.38.28,1.99.1.31-.09.6-.21.88-.36.28-.15.55-.32.79-.5Z"/>
            <path class="cls-9" d="M33.55,50.08c2.02,1.65,4.47,2.78,6.89,3.74,1.97.79,4.51,2.07,7.09,3.27-2.32.71-4.61,1.29-6.45,1.6-.24.04,1,1.28,1.23,1.21,2.14-.63,4.31-1.4,6.44-2.25,2.33,1.05,4.64,1.94,6.54,2.25.24.04.98-1.21.74-1.25-1.8-.3-3.89-.82-6.06-1.49,3.58-1.48,7.03-3.16,10.01-4.76,3.24-1.74,5.67-4.2,7.27-7.49,1.48-3.04,2.52-6.39,2.68-9.77.21-4.67-1.38-9.26-3.85-13.19-.72-1.15-1.53-2.3-2.43-3.37.08-.3.09-.59.04-.86-.06-.32-.19-.63-.38-.91-.38-.57-.98-1.02-1.61-1.36-.63-.34-1.28-.55-1.77-.66-.24-.06-.45-.09-.59-.11-.07,0-.13-.01-.16-.02-.03,0-.05,0-.05,0,0,0,0,.02.02.05.02.03.04.08.07.14.06.12.16.3.27.51.23.42.55.98.92,1.52.18.27.39.53.61.78.11.12.22.24.35.34.12.11.24.21.37.3.26.18.54.32.85.4.23.06.48.08.75.07,1.72,2.01,3.13,4.34,4.2,6.67,1.37,2.98,2.1,6.23,2.02,9.5-.09,3.57-1.29,7.18-2.91,10.35-1.26,2.46-3.1,4.48-5.45,5.97-2.1,1.34-4.41,2.35-6.7,3.32-1.72.73-3.76,1.49-5.83,2.15-4.43-1.46-9.06-3.43-12.27-5.22-1.68-.93-3.2-2.07-4.45-3.52-1.25-1.44-2.16-3.15-2.88-4.9-1.38-3.32-2.25-6.75-2.04-10.36.25-4.2,1.92-8.22,4.26-11.71.6-.89,1.25-1.78,1.95-2.62.26.01.49-.01.72-.07.31-.08.58-.22.85-.4.13-.09.25-.19.37-.3.12-.11.24-.22.35-.34.22-.25.43-.51.61-.78.37-.54.69-1.1.92-1.52.12-.21.21-.39.27-.51.03-.06.06-.11.07-.14.01-.03.02-.05.02-.05h-.05s-.09.01-.16.02c-.14.02-.34.05-.59.11-.49.11-1.14.33-1.76.66-.62.34-1.23.8-1.61,1.36-.19.28-.32.59-.38.91-.05.27-.04.55.03.84-1.65,1.93-3.01,4.15-4.06,6.38-1.3,2.75-2.09,5.73-2.21,8.76-.14,3.49.83,6.83,2.16,10.03,1.07,2.57,2.6,4.92,4.78,6.7Z"/>
            <path class="cls-9" d="M59.48,56.42c.81-.14,1.55-.39,2.09-.62s.87-.42.87-.42c0,0-.34-.13-.87-.31-.53-.18-1.23-.4-1.97-.57-.74-.18-1.51-.31-2.22-.28-.36.01-.69.07-1.02.19-.33.12-.63.29-.97.54.22.73.86,1.19,1.63,1.4.77.22,1.65.2,2.45.06Z"/>
            <path class="cls-9" d="M55.5,53.8c.33-.06.63-.21.91-.41.55-.41.97-1.03,1.25-1.66.29-.64.45-1.29.53-1.78.04-.25.06-.45.08-.59.01-.14.02-.23.02-.23,0,0-.26.13-.63.37-.37.23-.87.56-1.36.95-.49.39-.96.85-1.29,1.37-.33.53-.54,1.13-.52,1.89.34.14.69.16,1.02.1Z"/>
            <path class="cls-9" d="M64.93,51.02c-.77.02-1.54.08-2.21.28-.67.2-1.23.55-1.59,1.2.46.61,1.11.89,1.86.93.74.03,1.56-.18,2.31-.51.75-.34,1.43-.79,1.91-1.18.24-.19.43-.37.57-.49.13-.13.2-.2.2-.2,0,0-.37,0-.95-.02-.57,0-1.33-.02-2.09,0Z"/>
            <path class="cls-9" d="M59.83,51.38c.73.04,1.32-.31,1.74-.83.42-.53.67-1.23.77-1.91.1-.68.07-1.34-.01-1.82-.04-.24-.08-.43-.12-.57-.04-.13-.06-.21-.06-.21,0,0-.05.04-.12.13-.08.08-.19.2-.33.35-.27.3-.64.72-1,1.21-.36.49-.71,1.05-.92,1.67-.2.62-.25,1.28.05,1.98Z"/>
            <path class="cls-9" d="M69.87,47.64c.08-.09.15-.18.22-.28l.11-.14.08-.11c.11-.15.21-.3.31-.44.19-.29.36-.56.49-.8.13-.24.24-.44.31-.58.07-.14.1-.23.1-.23,0,0-.34.1-.86.26-.52.16-1.21.4-1.87.71-.17.08-.33.16-.5.25-.18.1-.35.2-.51.3-.17.1-.33.2-.49.3-.15.1-.31.2-.44.31-.56.43-.98.93-1.15,1.66.62.46,1.34.53,2.08.3.74-.23,1.5-.78,2.11-1.5Z"/>
            <path class="cls-9" d="M65.41,44.59c-.19-.68-.47-1.29-.71-1.73-.12-.22-.22-.39-.3-.52-.08-.12-.13-.19-.13-.19,0,0-.03.07-.07.19-.05.12-.13.29-.21.5-.08.21-.17.46-.25.74-.08.27-.16.62-.18.82-.07.48-.15,1.06-.11,1.67.04.61.2,1.25.68,1.84.7-.16,1.16-.68,1.36-1.31.05-.16.09-.32.1-.49.01-.17.02-.34.01-.51-.01-.17-.04-.34-.07-.5-.04-.17-.08-.35-.13-.52Z"/>
            <path class="cls-9" d="M73.18,39.3c.04-.16.05-.25.05-.25,0,0-.31.16-.8.42-.48.26-1.11.63-1.71,1.05-.62.42-1.23.89-1.63,1.43-.09.14-.2.27-.28.42-.08.14-.15.29-.2.44-.1.31-.13.64-.06,1,.74.21,1.42.05,2.03-.34.15-.1.3-.21.44-.32.14-.12.29-.25.41-.4.25-.29.48-.61.68-.93.43-.65.68-1.36.86-1.88.09-.27.16-.49.2-.64Z"/>
            <path class="cls-9" d="M66.79,43.22c.29-.2.51-.46.65-.74.07-.14.13-.29.17-.45.04-.16.07-.32.07-.48,0-.67-.19-1.37-.49-1.99-.32-.63-.71-1.17-1.02-1.55-.16-.19-.29-.34-.4-.44-.1-.1-.17-.16-.17-.16,0,0-.02.07-.04.19-.03.12-.07.3-.1.51-.08.43-.12,1.01-.16,1.64-.01.31,0,.64.04.96.01.08.03.16.04.24,0,.08.02.16.04.24.03.16.07.32.12.47.2.62.59,1.18,1.25,1.56Z"/>
            <path class="cls-9" d="M71.54,34.71c-.12.13-.25.27-.36.42-.11.14-.23.29-.35.43-.23.29-.42.59-.56.89-.07.15-.13.31-.17.46-.05.16-.09.31-.11.47-.04.32,0,.65.13.99.77.07,1.4-.22,1.93-.72.13-.12.26-.26.37-.41.11-.15.21-.31.31-.48.19-.34.35-.7.48-1.07.07-.18.12-.37.16-.55.04-.18.08-.37.12-.54.07-.35.12-.68.14-.97.03-.57.02-.94.02-.94,0,0-.28.23-.68.6-.38.37-.94.87-1.44,1.41Z"/>
            <path class="cls-9" d="M68.78,37.13c.04-.15.07-.31.08-.47,0-.16-.02-.32-.05-.48-.06-.32-.18-.64-.33-.95-.04-.08-.08-.15-.12-.23-.05-.08-.1-.15-.15-.22-.1-.15-.21-.29-.32-.42-.22-.27-.45-.51-.68-.72-.11-.1-.23-.2-.34-.29-.11-.09-.22-.17-.32-.24-.4-.29-.69-.44-.69-.44,0,0,0,.27.04.69.02.1.02.22.03.34,0,.12.02.25.04.38.03.27.09.55.15.85.05.3.13.6.24.9.05.15.12.3.19.44.06.14.13.29.21.43.32.55.81,1.03,1.54,1.27.25-.25.41-.54.49-.84Z"/>
            <path class="cls-9" d="M70.15,30.86c-.08.33-.1.65-.05.97.02.16.08.31.13.47.05.16.13.31.23.46.76-.11,1.34-.53,1.71-1.15.19-.31.33-.66.45-1.03.1-.37.15-.77.19-1.16.02-.2.03-.39.03-.58,0-.19-.02-.37-.03-.55-.03-.36-.07-.69-.11-.97-.12-.56-.22-.91-.22-.91,0,0-.21.3-.5.75-.14.22-.31.49-.49.79-.18.3-.36.61-.53.94-.16.32-.34.66-.48.99-.14.33-.25.67-.31,1Z"/>
            <path class="cls-9" d="M68.69,30.76c-.14-.3-.34-.57-.57-.83-.11-.13-.24-.25-.36-.36-.13-.12-.27-.22-.41-.32-.57-.4-1.14-.69-1.62-.85-.47-.17-.78-.25-.78-.25,0,0,.07.26.22.64.07.19.14.42.24.66.05.12.11.25.17.37.06.13.11.26.18.39.13.26.29.53.47.79.16.26.36.51.59.73.47.44,1.03.79,1.79.86.1-.15.17-.3.22-.46.05-.16.06-.31.06-.47,0-.31-.07-.62-.2-.92Z"/>
            <path class="cls-9" d="M69.74,20.67s-.13.33-.3.84c-.18.51-.38,1.19-.57,1.9-.09.36-.15.72-.21,1.07-.06.36-.08.71-.06,1.04.02.16.03.33.06.48.03.16.08.31.14.46.06.14.14.28.25.42.09.13.2.26.34.38.36-.15.64-.36.87-.62.23-.26.37-.57.48-.91.05-.17.09-.35.12-.54.03-.19.05-.38.04-.57,0-.38-.04-.77-.1-1.16-.15-.75-.4-1.47-.64-1.97-.12-.25-.22-.46-.29-.61-.08-.14-.13-.22-.13-.22Z"/>
            <path class="cls-9" d="M67.46,26c-.07-.14-.16-.27-.27-.4-.21-.25-.47-.47-.76-.66-.29-.19-.61-.34-.93-.46-.16-.06-.32-.12-.48-.17-.16-.05-.32-.09-.47-.12-.31-.07-.59-.11-.84-.14-.24-.03-.44-.04-.59-.05-.15,0-.23,0-.23,0,0,0,.03.06.1.16.06.1.15.25.26.42.06.09.12.18.2.28.04.05.07.1.11.15.04.05.07.1.11.16.15.21.34.44.54.66.19.22.4.45.64.65.06.05.12.1.18.15.06.05.12.1.18.14.12.09.26.18.39.26.28.16.59.28.91.35.32.07.67.09,1.05.02.05-.16.08-.33.09-.49,0-.16-.02-.31-.06-.46-.04-.15-.09-.3-.17-.43Z"/>
            <path class="cls-9" d="M66.98,22.25c.61-.45.9-1.09.94-1.8.02-.35-.02-.72-.1-1.09-.08-.37-.22-.73-.36-1.09-.15-.35-.34-.67-.51-.98-.18-.3-.37-.56-.53-.78-.16-.22-.31-.4-.42-.52-.11-.12-.17-.18-.17-.18,0,0-.06.35-.12.88-.03.27-.06.58-.09.91-.01.17-.02.34-.03.51,0,.18-.02.36-.02.54,0,.72.02,1.47.22,2.1.09.32.23.61.43.86.19.25.43.47.76.63Z"/>
            <path class="cls-9" d="M64.46,20.99c-.53-.39-1.22-.62-1.9-.71-.34-.05-.68-.07-.99-.08-.32,0-.6.01-.85.03-.5.05-.82.12-.82.12,0,0,.04.05.13.14.09.09.21.21.36.36.15.15.34.31.54.49.2.18.44.36.68.53.24.18.51.35.79.5.27.15.57.28.88.36.61.18,1.28.2,1.99-.1.02-.35-.05-.66-.2-.94-.15-.27-.37-.5-.62-.7Z"/>
          </g>
          <polygon class="cls-9" points="53.58 15.98 54.49 14.56 53.89 12.99 55.47 13.45 56.73 12.36 56.79 14.06 58.18 14.96 56.64 15.55 56.24 17.2 55.22 15.86 53.58 15.98"/>
        </g>
        <text class="cls-8" transform="translate(33.38 35.78) scale(2.22 1)"><tspan class="cls-1" x="0" y="0">A</tspan><tspan class="cls-7" x="1.8" y="0">W</tspan><tspan x="4.71" y="0">ARDS</tspan></text>
      </g>
    </g>
  </g>
</svg>