<?xml version="1.0" encoding="UTF-8"?>
<svg id="Capa_2" data-name="Capa 2" xmlns="http://www.w3.org/2000/svg" viewBox="0 0 2416 2362">
  <defs>
    <style>
      .cls-1 {
        fill: #ff9262;
        opacity: .96;
      }

      .cls-1, .cls-2, .cls-3, .cls-4, .cls-5, .cls-6, .cls-7, .cls-8, .cls-9 {
        fill-rule: evenodd;
      }

      .cls-1, .cls-2, .cls-3, .cls-4, .cls-5, .cls-6, .cls-9 {
        isolation: isolate;
      }

      .cls-2 {
        fill: #ff986a;
      }

      .cls-2, .cls-3, .cls-9 {
        opacity: 1;
      }

      .cls-3 {
        fill: #ff986b;
      }

      .cls-4 {
        fill: #fe6d2d;
        opacity: .99;
      }

      .cls-5 {
        fill: #2b8591;
        opacity: .99;
      }

      .cls-6 {
        fill: #2b8491;
        opacity: 1;
      }

      .cls-7 {
        fill: #ff8c5a;
      }

      .cls-8 {
        fill: #ff6d2e;
      }

      .cls-9 {
        fill: #ff996c;
      }
    </style>
  </defs>
  <g id="Capa_1-2" data-name="Capa 1">
    <path class="cls-6" d="M1349,0h18c19.56,3.71,34.73,14.04,45.5,31,151.29,217.13,290.29,442.46,417,676,46.71,86.75,90.21,175.09,130.5,265-196.34,68.56-393.01,136.56-590,204-171.66-136.68-342.66-274.02-513-412,70.08-135.53,145.25-267.86,225.5-397,72.02-116.05,147.02-230.05,225-342,10.77-13.63,24.6-21.96,41.5-25Z"/>
    <path class="cls-4" d="M0,79v-1c25.44,19.59,50.77,39.43,76,59.5,260.21,209.05,520.54,417.88,781,626.5,170.34,137.98,341.34,275.32,513,412,196.99-67.44,393.66-135.44,590-204,73.17-24.89,146.34-49.89,219.5-75,1.72.11,1.89.61.5,1.5-278.83,161.58-557.5,323.41-836,485.5C895.98,948.98,447.98,513.98,0,79Z"/>
    <path class="cls-1" d="M63,256c-.84.34-1.17,1.01-1,2-4.67-4.82-9.01-9.99-13-15.5,5.69,3.19,10.36,7.69,14,13.5Z"/>
    <path class="cls-8" d="M63,256c16.03,15.03,31.36,30.7,46,47,2.27,3.94,5.27,7.27,9,10,6.67,6,13,12.33,19,19,2.27,3.94,5.27,7.27,9,10,16.7,15.7,32.7,32.03,48,49,2.27,3.94,5.27,7.27,9,10,6.67,6,13,12.33,19,19,2.27,3.94,5.27,7.27,9,10,16.7,15.7,32.7,32.03,48,49,2.27,3.94,5.27,7.27,9,10,6.67,6,13,12.33,19,19,2.27,3.94,5.27,7.27,9,10,16.7,15.7,32.7,32.03,48,49,2.27,3.94,5.27,7.27,9,10,6.67,6,13,12.33,19,19,2.27,3.94,5.27,7.27,9,10,16.7,15.7,32.7,32.03,48,49,1.93,3.6,4.6,6.6,8,9,7,6.33,13.67,13,20,20,2.27,3.94,5.27,7.27,9,10,16.7,15.7,32.7,32.03,48,49,1.93,3.6,4.6,6.6,8,9,7,6.33,13.67,13,20,20,2.27,3.94,5.27,7.27,9,10,25.67,25.67,51,51.67,76,78,2.27,3.94,5.27,7.27,9,10,6.67,6,13,12.33,19,19,2.27,3.94,5.27,7.27,9,10,16.7,15.7,32.7,32.03,48,49,2.27,3.94,5.27,7.27,9,10,6.67,6,13,12.33,19,19,2.27,3.94,5.27,7.27,9,10,6.67,6,13,12.33,19,19,2.27,3.94,5.27,7.27,9,10,6.67,6,13,12.33,19,19,2.27,3.94,5.27,7.27,9,10,16.7,15.7,32.7,32.03,48,49,2.27,3.94,5.27,7.27,9,10,6.67,6,13,12.33,19,19,2.27,3.94,5.27,7.27,9,10,16.7,15.7,32.7,32.03,48,49,2.27,3.94,5.27,7.27,9,10,6.67,6,13,12.33,19,19,2.27,3.94,5.27,7.27,9,10,16.7,15.7,32.7,32.03,48,49,2.27,3.94,5.27,7.27,9,10,6.67,6,13,12.33,19,19,2.27,3.94,5.27,7.27,9,10,16.7,15.7,32.7,32.03,48,49,2.27,3.94,5.27,7.27,9,10,16.7,15.7,32.7,32.03,48,49,1.93,3.6,4.6,6.6,8,9,7,6.33,13.67,13,20,20,2.27,3.94,5.27,7.27,9,10,16.7,15.7,32.7,32.03,48,49,1.67,3.67,4.33,6.33,8,8,6.64,6.97,13.31,13.97,20,21,2.27,3.94,5.27,7.27,9,10,13.49,12.66,26.49,25.83,39,39.5.67.67,1.33.67,2,0,350.71-243.01,701.71-485.51,1053-727.5,1.33,0,2,.67,2,2-356.81,322-713.98,643.67-1071.5,965C907.85,1301.67,484.68,780,62,258c-.17-.99.16-1.66,1-2Z"/>
    <path class="cls-9" d="M109,303c3.73,2.73,6.73,6.06,9,10-3.73-2.73-6.73-6.06-9-10Z"/>
    <path class="cls-3" d="M137,332c3.73,2.73,6.73,6.06,9,10-3.73-2.73-6.73-6.06-9-10Z"/>
    <path class="cls-9" d="M194,391c3.73,2.73,6.73,6.06,9,10-3.73-2.73-6.73-6.06-9-10Z"/>
    <path class="cls-3" d="M222,420c3.73,2.73,6.73,6.06,9,10-3.73-2.73-6.73-6.06-9-10Z"/>
    <path class="cls-9" d="M279,479c3.73,2.73,6.73,6.06,9,10-3.73-2.73-6.73-6.06-9-10Z"/>
    <path class="cls-3" d="M307,508c3.73,2.73,6.73,6.06,9,10-3.73-2.73-6.73-6.06-9-10Z"/>
    <path class="cls-9" d="M364,567c3.73,2.73,6.73,6.06,9,10-3.73-2.73-6.73-6.06-9-10Z"/>
    <path class="cls-9" d="M392,596c3.73,2.73,6.73,6.06,9,10-3.73-2.73-6.73-6.06-9-10Z"/>
    <path class="cls-2" d="M449,655c3.4,2.4,6.07,5.4,8,9-3.4-2.4-6.07-5.4-8-9Z"/>
    <path class="cls-9" d="M477,684c3.73,2.73,6.73,6.06,9,10-3.73-2.73-6.73-6.06-9-10Z"/>
    <path class="cls-2" d="M534,743c3.4,2.4,6.07,5.4,8,9-3.4-2.4-6.07-5.4-8-9Z"/>
    <path class="cls-9" d="M562,772c3.73,2.73,6.73,6.06,9,10-3.73-2.73-6.73-6.06-9-10Z"/>
    <path class="cls-7" d="M2403,858c0-1.33-.67-2-2-2,3.6-2.81,7.26-5.65,11-8.5,1.26-.98,2.59-1.32,4-1-3.99,4.31-8.32,8.14-13,11.5Z"/>
    <path class="cls-9" d="M647,860c3.73,2.73,6.73,6.06,9,10-3.73-2.73-6.73-6.06-9-10Z"/>
    <path class="cls-3" d="M675,889c3.73,2.73,6.73,6.06,9,10-3.73-2.73-6.73-6.06-9-10Z"/>
    <path class="cls-9" d="M732,948c3.73,2.73,6.73,6.06,9,10-3.73-2.73-6.73-6.06-9-10Z"/>
    <path class="cls-9" d="M760,977c3.73,2.73,6.73,6.06,9,10-3.73-2.73-6.73-6.06-9-10Z"/>
    <path class="cls-3" d="M788,1006c3.73,2.73,6.73,6.06,9,10-3.73-2.73-6.73-6.06-9-10Z"/>
    <path class="cls-3" d="M816,1035c3.73,2.73,6.73,6.06,9,10-3.73-2.73-6.73-6.06-9-10Z"/>
    <path class="cls-9" d="M873,1094c3.73,2.73,6.73,6.06,9,10-3.73-2.73-6.73-6.06-9-10Z"/>
    <path class="cls-3" d="M901,1123c3.73,2.73,6.73,6.06,9,10-3.73-2.73-6.73-6.06-9-10Z"/>
    <path class="cls-5" d="M1383,2362h-47c-185.59-9.99-345.59-78.49-480-205.5-148.95-146.77-233.45-324.94-253.5-534.5-7.77-81.45-2.77-162.12,15-242,15.78-74.17,37.28-146.51,64.5-217,31.71,38.38,63.05,77.04,94,116-24.87,71.15-41.7,144.15-50.5,219-9.95,170.1,35.38,323.44,136,460,83.83,109.69,191.66,185.52,323.5,227.5,198.06,54.05,379.72,20.72,545-100,132.3-103.66,216.13-238.16,251.5-403.5,16.35-79.77,17.68-159.77,4-240-4.71-24.14-9.71-48.14-15-72,34.17-30.83,68.33-61.67,102.5-92.5.95-.62,1.78-.45,2.5.5,18.83,62.51,32.17,126.17,40,191,17.48,212.11-34.85,404.78-157,578-82.05,112.06-186.22,196.89-312.5,254.5-84.03,36.43-171.7,56.59-263,60.5Z"/>
    <path class="cls-9" d="M958,1182c3.73,2.73,6.73,6.06,9,10-3.73-2.73-6.73-6.06-9-10Z"/>
    <path class="cls-3" d="M986,1211c3.73,2.73,6.73,6.06,9,10-3.73-2.73-6.73-6.06-9-10Z"/>
    <path class="cls-9" d="M1043,1270c3.73,2.73,6.73,6.06,9,10-3.73-2.73-6.73-6.06-9-10Z"/>
    <path class="cls-3" d="M1071,1299c3.73,2.73,6.73,6.06,9,10-3.73-2.73-6.73-6.06-9-10Z"/>
    <path class="cls-9" d="M1128,1358c3.73,2.73,6.73,6.06,9,10-3.73-2.73-6.73-6.06-9-10Z"/>
    <path class="cls-2" d="M1185,1417c3.4,2.4,6.07,5.4,8,9-3.4-2.4-6.07-5.4-8-9Z"/>
    <path class="cls-3" d="M1213,1446c3.73,2.73,6.73,6.06,9,10-3.73-2.73-6.73-6.06-9-10Z"/>
    <path class="cls-9" d="M1270,1505c3,2.33,5.67,5,8,8-3.67-1.67-6.33-4.33-8-8Z"/>
    <path class="cls-3" d="M1298,1534c3.73,2.73,6.73,6.06,9,10-3.73-2.73-6.73-6.06-9-10Z"/>
  </g>
</svg>