<?xml version="1.0" encoding="UTF-8"?>
<!DOCTYPE svg PUBLIC "-//W3C//DTD SVG 1.1//EN" "http://www.w3.org/Graphics/SVG/1.1/DTD/svg11.dtd">
<svg xmlns="http://www.w3.org/2000/svg" version="1.1" width="7440px" height="2362px" style="shape-rendering:geometricPrecision; text-rendering:geometricPrecision; image-rendering:optimizeQuality; fill-rule:evenodd; clip-rule:evenodd" xmlns:xlink="http://www.w3.org/1999/xlink">
<g><path style="opacity:0.998" fill="#2b8491" d="M 1348.5,-0.5 C 1354.5,-0.5 1360.5,-0.5 1366.5,-0.5C 1386.06,3.2115 1401.23,13.5448 1412,30.5C 1563.29,247.628 1702.29,472.962 1829,706.5C 1875.71,793.254 1919.21,881.588 1959.5,971.5C 1763.16,1040.06 1566.49,1108.06 1369.5,1175.5C 1197.84,1038.82 1026.84,901.485 856.5,763.5C 926.582,627.972 1001.75,495.639 1082,366.5C 1154.02,250.445 1229.02,136.445 1307,24.5C 1317.77,10.874 1331.6,2.54064 1348.5,-0.5 Z"/></g>
<g><path style="opacity:0.991" fill="#fe6d2d" d="M -0.5,78.5 C -0.5,78.1667 -0.5,77.8333 -0.5,77.5C 24.9391,97.0949 50.2725,116.928 75.5,137C 335.708,346.047 596.041,554.88 856.5,763.5C 1026.84,901.485 1197.84,1038.82 1369.5,1175.5C 1566.49,1108.06 1763.16,1040.06 1959.5,971.5C 2032.67,946.61 2105.84,921.61 2179,896.5C 2180.72,896.611 2180.89,897.111 2179.5,898C 1900.67,1059.58 1622,1221.41 1343.5,1383.5C 895.479,948.479 447.479,513.479 -0.5,78.5 Z"/></g>
<g><path style="opacity:0.965" fill="#ff9262" d="M 62.5,255.5 C 61.6618,255.842 61.3284,256.508 61.5,257.5C 56.8281,252.682 52.4948,247.515 48.5,242C 54.191,245.186 58.8576,249.686 62.5,255.5 Z"/></g>
<g><path style="opacity:1" fill="#ff6d2e" d="M 62.5,255.5 C 78.5309,270.53 93.8642,286.197 108.5,302.5C 110.766,306.436 113.766,309.769 117.5,312.5C 124.167,318.5 130.5,324.833 136.5,331.5C 138.766,335.436 141.766,338.769 145.5,341.5C 162.197,357.197 178.197,373.53 193.5,390.5C 195.766,394.436 198.766,397.769 202.5,400.5C 209.167,406.5 215.5,412.833 221.5,419.5C 223.766,423.436 226.766,426.769 230.5,429.5C 247.197,445.197 263.197,461.53 278.5,478.5C 280.766,482.436 283.766,485.769 287.5,488.5C 294.167,494.5 300.5,500.833 306.5,507.5C 308.766,511.436 311.766,514.769 315.5,517.5C 332.197,533.197 348.197,549.53 363.5,566.5C 365.766,570.436 368.766,573.769 372.5,576.5C 379.167,582.5 385.5,588.833 391.5,595.5C 393.766,599.436 396.766,602.769 400.5,605.5C 417.197,621.197 433.197,637.53 448.5,654.5C 450.43,658.1 453.097,661.1 456.5,663.5C 463.5,669.833 470.167,676.5 476.5,683.5C 478.766,687.436 481.766,690.769 485.5,693.5C 502.197,709.197 518.197,725.53 533.5,742.5C 535.43,746.1 538.097,749.1 541.5,751.5C 548.5,757.833 555.167,764.5 561.5,771.5C 563.766,775.436 566.766,778.769 570.5,781.5C 596.169,807.169 621.502,833.169 646.5,859.5C 648.766,863.436 651.766,866.769 655.5,869.5C 662.167,875.5 668.5,881.833 674.5,888.5C 676.766,892.436 679.766,895.769 683.5,898.5C 700.197,914.197 716.197,930.53 731.5,947.5C 733.766,951.436 736.766,954.769 740.5,957.5C 747.167,963.5 753.5,969.833 759.5,976.5C 761.766,980.436 764.766,983.769 768.5,986.5C 775.167,992.5 781.5,998.833 787.5,1005.5C 789.766,1009.44 792.766,1012.77 796.5,1015.5C 803.167,1021.5 809.5,1027.83 815.5,1034.5C 817.766,1038.44 820.766,1041.77 824.5,1044.5C 841.197,1060.2 857.197,1076.53 872.5,1093.5C 874.766,1097.44 877.766,1100.77 881.5,1103.5C 888.167,1109.5 894.5,1115.83 900.5,1122.5C 902.766,1126.44 905.766,1129.77 909.5,1132.5C 926.197,1148.2 942.197,1164.53 957.5,1181.5C 959.766,1185.44 962.766,1188.77 966.5,1191.5C 973.167,1197.5 979.5,1203.83 985.5,1210.5C 987.766,1214.44 990.766,1217.77 994.5,1220.5C 1011.2,1236.2 1027.2,1252.53 1042.5,1269.5C 1044.77,1273.44 1047.77,1276.77 1051.5,1279.5C 1058.17,1285.5 1064.5,1291.83 1070.5,1298.5C 1072.77,1302.44 1075.77,1305.77 1079.5,1308.5C 1096.2,1324.2 1112.2,1340.53 1127.5,1357.5C 1129.77,1361.44 1132.77,1364.77 1136.5,1367.5C 1153.2,1383.2 1169.2,1399.53 1184.5,1416.5C 1186.43,1420.1 1189.1,1423.1 1192.5,1425.5C 1199.5,1431.83 1206.17,1438.5 1212.5,1445.5C 1214.77,1449.44 1217.77,1452.77 1221.5,1455.5C 1238.2,1471.2 1254.2,1487.53 1269.5,1504.5C 1271.17,1508.17 1273.83,1510.83 1277.5,1512.5C 1284.14,1519.47 1290.81,1526.47 1297.5,1533.5C 1299.77,1537.44 1302.77,1540.77 1306.5,1543.5C 1319.99,1556.16 1332.99,1569.33 1345.5,1583C 1346.17,1583.67 1346.83,1583.67 1347.5,1583C 1698.21,1339.99 2049.21,1097.49 2400.5,855.5C 2401.83,855.5 2402.5,856.167 2402.5,857.5C 2045.69,1179.5 1688.52,1501.17 1331,1822.5C 907.346,1301.17 484.179,779.503 61.5,257.5C 61.3284,256.508 61.6618,255.842 62.5,255.5 Z"/></g>
<g><path style="opacity:0.996" fill="#ff996c" d="M 108.5,302.5 C 112.234,305.231 115.234,308.564 117.5,312.5C 113.766,309.769 110.766,306.436 108.5,302.5 Z"/></g>
<g><path style="opacity:0.996" fill="#ff986b" d="M 136.5,331.5 C 140.234,334.231 143.234,337.564 145.5,341.5C 141.766,338.769 138.766,335.436 136.5,331.5 Z"/></g>
<g><path style="opacity:0.996" fill="#ff996c" d="M 193.5,390.5 C 197.234,393.231 200.234,396.564 202.5,400.5C 198.766,397.769 195.766,394.436 193.5,390.5 Z"/></g>
<g><path style="opacity:0.996" fill="#ff986b" d="M 221.5,419.5 C 225.234,422.231 228.234,425.564 230.5,429.5C 226.766,426.769 223.766,423.436 221.5,419.5 Z"/></g>
<g><path style="opacity:0.996" fill="#ff996c" d="M 278.5,478.5 C 282.234,481.231 285.234,484.564 287.5,488.5C 283.766,485.769 280.766,482.436 278.5,478.5 Z"/></g>
<g><path style="opacity:0.996" fill="#ff986b" d="M 306.5,507.5 C 310.234,510.231 313.234,513.564 315.5,517.5C 311.766,514.769 308.766,511.436 306.5,507.5 Z"/></g>
<g><path style="opacity:0.996" fill="#ff996c" d="M 363.5,566.5 C 367.234,569.231 370.234,572.564 372.5,576.5C 368.766,573.769 365.766,570.436 363.5,566.5 Z"/></g>
<g><path style="opacity:0.996" fill="#ff996c" d="M 391.5,595.5 C 395.234,598.231 398.234,601.564 400.5,605.5C 396.766,602.769 393.766,599.436 391.5,595.5 Z"/></g>
<g><path style="opacity:0.996" fill="#ff986a" d="M 448.5,654.5 C 451.903,656.9 454.57,659.9 456.5,663.5C 453.097,661.1 450.43,658.1 448.5,654.5 Z"/></g>
<g><path style="opacity:0.996" fill="#ff996c" d="M 476.5,683.5 C 480.234,686.231 483.234,689.564 485.5,693.5C 481.766,690.769 478.766,687.436 476.5,683.5 Z"/></g>
<g><path style="opacity:0.996" fill="#ff986a" d="M 533.5,742.5 C 536.903,744.9 539.57,747.9 541.5,751.5C 538.097,749.1 535.43,746.1 533.5,742.5 Z"/></g>
<g><path style="opacity:0.996" fill="#ff996c" d="M 561.5,771.5 C 565.234,774.231 568.234,777.564 570.5,781.5C 566.766,778.769 563.766,775.436 561.5,771.5 Z"/></g>
<g><path style="opacity:1" fill="#ff8c5a" d="M 2402.5,857.5 C 2402.5,856.167 2401.83,855.5 2400.5,855.5C 2404.1,852.687 2407.76,849.853 2411.5,847C 2412.76,846.018 2414.09,845.685 2415.5,846C 2411.51,850.311 2407.18,854.144 2402.5,857.5 Z"/></g>
<g><path style="opacity:0.996" fill="#ff996c" d="M 646.5,859.5 C 650.234,862.231 653.234,865.564 655.5,869.5C 651.766,866.769 648.766,863.436 646.5,859.5 Z"/></g>
<g><path style="opacity:0.996" fill="#ff986b" d="M 674.5,888.5 C 678.234,891.231 681.234,894.564 683.5,898.5C 679.766,895.769 676.766,892.436 674.5,888.5 Z"/></g>
<g><path style="opacity:0.996" fill="#ff996c" d="M 731.5,947.5 C 735.234,950.231 738.234,953.564 740.5,957.5C 736.766,954.769 733.766,951.436 731.5,947.5 Z"/></g>
<g><path style="opacity:0.99" fill="#2b8591" d="M 3966.5,953.5 C 4007.54,951.296 4048.21,954.129 4088.5,962C 4158.26,976.759 4205.42,1017.59 4230,1084.5C 4242.93,1121.82 4251.26,1160.15 4255,1199.5C 4260.06,1251.37 4262.73,1303.37 4263,1355.5C 4264.1,1450.18 4263.43,1544.85 4261,1639.5C 4259.6,1686.89 4254.6,1733.89 4246,1780.5C 4239.13,1817.46 4225.8,1851.79 4206,1883.5C 4181.17,1918.29 4148,1941.46 4106.5,1953C 4058.54,1965.17 4009.87,1969.17 3960.5,1965C 3917.42,1963.15 3877.09,1951.82 3839.5,1931C 3806.04,1909.86 3781.54,1881.03 3766,1844.5C 3752.46,1812.03 3743.13,1778.36 3738,1743.5C 3729.64,1683.13 3725.31,1622.46 3725,1561.5C 3723.88,1472.82 3724.55,1384.15 3727,1295.5C 3728.61,1243.64 3734.61,1192.31 3745,1141.5C 3752.76,1104 3767.09,1069.33 3788,1037.5C 3812.17,1004.68 3843.67,981.847 3882.5,969C 3910.03,960.525 3938.03,955.359 3966.5,953.5 Z M 3978.5,1026.5 C 4008.22,1024.4 4037.22,1027.9 4065.5,1037C 4100.24,1051.26 4124.07,1076.1 4137,1111.5C 4148.67,1143.85 4156,1177.19 4159,1211.5C 4163.33,1256.73 4165.66,1302.06 4166,1347.5C 4166.87,1437.17 4166.54,1526.84 4165,1616.5C 4164.08,1659.74 4160.42,1702.74 4154,1745.5C 4149.75,1774.26 4141.08,1801.59 4128,1827.5C 4108.72,1861.08 4079.89,1881.24 4041.5,1888C 4009.03,1893.19 3976.7,1892.52 3944.5,1886C 3901.7,1875.2 3871.87,1849.37 3855,1808.5C 3841.83,1774.68 3833.5,1739.68 3830,1703.5C 3825.23,1658.29 3822.57,1612.96 3822,1567.5C 3821.12,1484.16 3821.45,1400.83 3823,1317.5C 3824.03,1270.52 3828.36,1223.85 3836,1177.5C 3840.94,1148.01 3850.27,1120.01 3864,1093.5C 3883.43,1059.85 3912.27,1039.02 3950.5,1031C 3959.94,1029.25 3969.27,1027.75 3978.5,1026.5 Z"/></g>
<g><path style="opacity:0.99" fill="#2b8591" d="M 5024.5,953.5 C 5044.84,953.333 5065.17,953.5 5085.5,954C 5128.26,955.106 5168.59,965.439 5206.5,985C 5240.19,1005.7 5265.03,1034.2 5281,1070.5C 5286.09,1082.78 5290.59,1095.28 5294.5,1108C 5294.09,1108.95 5293.43,1109.61 5292.5,1110C 5256.82,1119.64 5229.49,1140.14 5210.5,1171.5C 5205.33,1142.8 5196.16,1115.47 5183,1089.5C 5157.98,1049.22 5121.48,1028.39 5073.5,1027C 5042.7,1024.35 5012.7,1028.01 4983.5,1038C 4956.81,1048.69 4936.31,1066.53 4922,1091.5C 4907.01,1120.15 4897.01,1150.48 4892,1182.5C 4883.78,1236.85 4879.45,1291.51 4879,1346.5C 4877.01,1441.52 4877.67,1536.52 4881,1631.5C 4882.56,1671.14 4886.9,1710.48 4894,1749.5C 4899.03,1776.58 4908.03,1802.25 4921,1826.5C 4941.52,1860.32 4971.35,1880.82 5010.5,1888C 5039.83,1892.67 5069.17,1892.67 5098.5,1888C 5140.25,1880.22 5170.42,1857.39 5189,1819.5C 5192.65,1811.04 5196.15,1802.54 5199.5,1794C 5232.83,1793.5 5266.17,1793.33 5299.5,1793.5C 5291.64,1831.96 5275.81,1866.63 5252,1897.5C 5228,1924.46 5198.5,1942.96 5163.5,1953C 5115.2,1965.21 5066.2,1969.21 5016.5,1965C 4975.06,1963.07 4936.06,1952.41 4899.5,1933C 4864.03,1911.19 4838.19,1881.02 4822,1842.5C 4805.71,1802.01 4795.38,1760.01 4791,1716.5C 4785.62,1667.65 4782.62,1618.65 4782,1569.5C 4781.33,1496.83 4781.33,1424.17 4782,1351.5C 4782.36,1289.11 4787.36,1227.11 4797,1165.5C 4803.34,1126.47 4815.68,1089.47 4834,1054.5C 4866.18,1001.73 4913.01,970.228 4974.5,960C 4991.21,956.995 5007.88,954.829 5024.5,953.5 Z"/></g>
<g><path style="opacity:0.988" fill="#2b8591" d="M 2584.5,970.5 C 2660.18,970.057 2735.85,970.557 2811.5,972C 2851.51,974.057 2890.51,981.39 2928.5,994C 2991.01,1016.51 3030.51,1060.01 3047,1124.5C 3055.4,1161.69 3059.24,1199.35 3058.5,1237.5C 3059.22,1284.1 3054.39,1330.1 3044,1375.5C 3021.47,1464.36 2965.3,1518.2 2875.5,1537C 2849.13,1542.63 2822.46,1545.96 2795.5,1547C 2755.83,1547.5 2716.17,1547.67 2676.5,1547.5C 2676.5,1681.5 2676.5,1815.5 2676.5,1949.5C 2645.83,1949.5 2615.17,1949.5 2584.5,1949.5C 2584.5,1623.17 2584.5,1296.83 2584.5,970.5 Z M 2676.5,1046.5 C 2720.17,1046.33 2763.83,1046.5 2807.5,1047C 2840.5,1048.08 2871.83,1055.75 2901.5,1070C 2928.21,1085.39 2946.05,1107.89 2955,1137.5C 2964.21,1172.39 2968.04,1207.89 2966.5,1244C 2967.86,1285.09 2963.69,1325.59 2954,1365.5C 2939.41,1419.59 2904.91,1453.25 2850.5,1466.5C 2832.09,1470.92 2813.43,1473.42 2794.5,1474C 2755.17,1474.5 2715.83,1474.67 2676.5,1474.5C 2676.5,1331.83 2676.5,1189.17 2676.5,1046.5 Z"/></g>
<g><path style="opacity:0.989" fill="#2b8591" d="M 3137.5,970.5 C 3168.5,970.5 3199.5,970.5 3230.5,970.5C 3230.5,1115.83 3230.5,1261.17 3230.5,1406.5C 3331.5,1406.5 3432.5,1406.5 3533.5,1406.5C 3533.5,1261.17 3533.5,1115.83 3533.5,970.5C 3564.17,970.5 3594.83,970.5 3625.5,970.5C 3625.5,1296.83 3625.5,1623.17 3625.5,1949.5C 3594.83,1949.5 3564.17,1949.5 3533.5,1949.5C 3533.5,1792.83 3533.5,1636.17 3533.5,1479.5C 3432.5,1479.5 3331.5,1479.5 3230.5,1479.5C 3230.5,1636.17 3230.5,1792.83 3230.5,1949.5C 3199.5,1949.5 3168.5,1949.5 3137.5,1949.5C 3137.5,1623.17 3137.5,1296.83 3137.5,970.5 Z"/></g>
<g><path style="opacity:0.995" fill="#2b8591" d="M 4292.5,970.5 C 4446.17,970.5 4599.83,970.5 4753.5,970.5C 4753.5,994.833 4753.5,1019.17 4753.5,1043.5C 4691.17,1043.5 4628.83,1043.5 4566.5,1043.5C 4566.5,1345.5 4566.5,1647.5 4566.5,1949.5C 4536.17,1949.5 4505.83,1949.5 4475.5,1949.5C 4475.5,1647.5 4475.5,1345.5 4475.5,1043.5C 4414.5,1043.5 4353.5,1043.5 4292.5,1043.5C 4292.5,1019.17 4292.5,994.833 4292.5,970.5 Z"/></g>
<g><path style="opacity:0.992" fill="#2b8591" d="M 5581.5,970.5 C 5716.17,970.5 5850.83,970.5 5985.5,970.5C 5985.5,994.833 5985.5,1019.17 5985.5,1043.5C 5881.83,1043.5 5778.17,1043.5 5674.5,1043.5C 5674.5,1166.17 5674.5,1288.83 5674.5,1411.5C 5760.83,1411.5 5847.17,1411.5 5933.5,1411.5C 5930.91,1436.18 5928.24,1460.84 5925.5,1485.5C 5841.83,1485.5 5758.17,1485.5 5674.5,1485.5C 5674.5,1640.17 5674.5,1794.83 5674.5,1949.5C 5643.5,1949.5 5612.5,1949.5 5581.5,1949.5C 5581.5,1623.17 5581.5,1296.83 5581.5,970.5 Z"/></g>
<g><path style="opacity:0.99" fill="#2b8591" d="M 6054.5,970.5 C 6085.17,970.5 6115.83,970.5 6146.5,970.5C 6146.33,1201.5 6146.5,1432.5 6147,1663.5C 6147.68,1696.66 6150.35,1729.66 6155,1762.5C 6158.87,1793.11 6168.87,1821.44 6185,1847.5C 6204.15,1872.67 6229.65,1886.84 6261.5,1890C 6288.18,1893.26 6314.51,1891.59 6340.5,1885C 6370.83,1875.25 6392.33,1855.75 6405,1826.5C 6413.63,1806.27 6419.63,1785.27 6423,1763.5C 6428.65,1724.04 6431.65,1684.37 6432,1644.5C 6432.5,1419.83 6432.67,1195.17 6432.5,970.5C 6463.5,970.5 6494.5,970.5 6525.5,970.5C 6525.67,1215.5 6525.5,1460.5 6525,1705.5C 6524.63,1743.56 6520.63,1781.23 6513,1818.5C 6497.43,1894.4 6451.93,1940.9 6376.5,1958C 6315.59,1970.15 6254.93,1969.15 6194.5,1955C 6136.28,1938.45 6097.11,1901.62 6077,1844.5C 6067.81,1817.53 6061.81,1789.87 6059,1761.5C 6056.91,1741.88 6055.58,1722.22 6055,1702.5C 6054.5,1458.5 6054.33,1214.5 6054.5,970.5 Z"/></g>
<g><path style="opacity:0.99" fill="#2b8591" d="M 6634.5,970.5 C 6760.17,970.5 6885.83,970.5 7011.5,970.5C 7011.5,994.833 7011.5,1019.17 7011.5,1043.5C 6916.5,1043.5 6821.5,1043.5 6726.5,1043.5C 6726.5,1161.83 6726.5,1280.17 6726.5,1398.5C 6807.83,1398.5 6889.17,1398.5 6970.5,1398.5C 6968.55,1423.08 6966.22,1447.58 6963.5,1472C 6884.5,1472.5 6805.5,1472.67 6726.5,1472.5C 6726.5,1607.5 6726.5,1742.5 6726.5,1877.5C 6823.5,1877.5 6920.5,1877.5 7017.5,1877.5C 7017.5,1901.5 7017.5,1925.5 7017.5,1949.5C 6889.83,1949.5 6762.17,1949.5 6634.5,1949.5C 6634.5,1623.17 6634.5,1296.83 6634.5,970.5 Z"/></g>
<g><path style="opacity:0.997" fill="#2b8591" d="M 7439.5,1877.5 C 7439.5,1901.5 7439.5,1925.5 7439.5,1949.5C 7328.5,1949.5 7217.5,1949.5 7106.5,1949.5C 7106.5,1623.17 7106.5,1296.83 7106.5,970.5C 7137.17,970.5 7167.83,970.5 7198.5,970.5C 7198.5,1272.83 7198.5,1575.17 7198.5,1877.5C 7278.83,1877.5 7359.17,1877.5 7439.5,1877.5 Z"/></g>
<g><path style="opacity:0.996" fill="#ff996c" d="M 759.5,976.5 C 763.234,979.231 766.234,982.564 768.5,986.5C 764.766,983.769 761.766,980.436 759.5,976.5 Z"/></g>
<g><path style="opacity:0.996" fill="#ff986b" d="M 787.5,1005.5 C 791.234,1008.23 794.234,1011.56 796.5,1015.5C 792.766,1012.77 789.766,1009.44 787.5,1005.5 Z"/></g>
<g><path style="opacity:0.996" fill="#ff986b" d="M 815.5,1034.5 C 819.234,1037.23 822.234,1040.56 824.5,1044.5C 820.766,1041.77 817.766,1038.44 815.5,1034.5 Z"/></g>
<g><path style="opacity:0.996" fill="#ff996c" d="M 872.5,1093.5 C 876.234,1096.23 879.234,1099.56 881.5,1103.5C 877.766,1100.77 874.766,1097.44 872.5,1093.5 Z"/></g>
<g><path style="opacity:0.996" fill="#ff986b" d="M 900.5,1122.5 C 904.234,1125.23 907.234,1128.56 909.5,1132.5C 905.766,1129.77 902.766,1126.44 900.5,1122.5 Z"/></g>
<g><path style="opacity:0.99" fill="#fe6d2c" d="M 5351.5,1143.5 C 5374.13,1142.74 5396.47,1144.9 5418.5,1150C 5446.82,1157.65 5466.32,1175.15 5477,1202.5C 5484.14,1222.21 5488.48,1242.55 5490,1263.5C 5497.87,1342.42 5486.54,1418.42 5456,1491.5C 5436.08,1536.69 5412.08,1579.36 5384,1619.5C 5372.36,1635.97 5360.53,1652.31 5348.5,1668.5C 5400.16,1669.5 5451.83,1669.83 5503.5,1669.5C 5502.57,1696.17 5501.57,1722.84 5500.5,1749.5C 5409.5,1749.5 5318.5,1749.5 5227.5,1749.5C 5227.33,1723.5 5227.5,1697.5 5228,1671.5C 5272.91,1626.61 5310.91,1576.61 5342,1521.5C 5388.47,1433.53 5403.47,1340.53 5387,1242.5C 5383.31,1231.81 5375.81,1225.98 5364.5,1225C 5345.8,1222.68 5334.64,1230.85 5331,1249.5C 5328.9,1258.08 5327.24,1266.75 5326,1275.5C 5323.13,1300.11 5320.79,1324.78 5319,1349.5C 5318.78,1350.94 5318.28,1352.27 5317.5,1353.5C 5286.22,1348.84 5254.89,1344.51 5223.5,1340.5C 5224.22,1308.03 5226.72,1275.69 5231,1243.5C 5233.95,1223.64 5240.29,1204.97 5250,1187.5C 5265.98,1165.58 5287.48,1152.41 5314.5,1148C 5326.91,1145.86 5339.24,1144.36 5351.5,1143.5 Z"/></g>
<g><path style="opacity:0.993" fill="#2b8591" d="M 1382.5,2361.5 C 1366.83,2361.5 1351.17,2361.5 1335.5,2361.5C 1149.91,2351.51 989.912,2283.01 855.5,2156C 706.547,2009.23 622.047,1831.06 602,1621.5C 594.234,1540.05 599.234,1459.38 617,1379.5C 632.784,1305.33 654.284,1232.99 681.5,1162.5C 713.212,1200.88 744.546,1239.54 775.5,1278.5C 750.629,1349.65 733.796,1422.65 725,1497.5C 715.048,1667.6 760.381,1820.94 861,1957.5C 944.826,2067.19 1052.66,2143.02 1184.5,2185C 1382.56,2239.05 1564.22,2205.72 1729.5,2085C 1861.8,1981.34 1945.63,1846.84 1981,1681.5C 1997.35,1601.73 1998.68,1521.73 1985,1441.5C 1980.29,1417.36 1975.29,1393.36 1970,1369.5C 2004.17,1338.67 2038.33,1307.83 2072.5,1277C 2073.45,1276.38 2074.28,1276.55 2075,1277.5C 2093.83,1340.01 2107.17,1403.67 2115,1468.5C 2132.48,1680.61 2080.15,1873.28 1958,2046.5C 1875.95,2158.56 1771.78,2243.39 1645.5,2301C 1561.47,2337.43 1473.8,2357.59 1382.5,2361.5 Z"/></g>
<g><path style="opacity:0.996" fill="#ff996c" d="M 957.5,1181.5 C 961.234,1184.23 964.234,1187.56 966.5,1191.5C 962.766,1188.77 959.766,1185.44 957.5,1181.5 Z"/></g>
<g><path style="opacity:0.496" fill="#022f59" d="M 5134.5,1192.5 C 5135.24,1192.37 5135.91,1192.54 5136.5,1193C 5135,1194.5 5133.5,1196 5132,1197.5C 5131.51,1196.21 5131.34,1194.87 5131.5,1193.5C 5132.79,1193.74 5133.79,1193.4 5134.5,1192.5 Z"/></g>
<g><path style="opacity:0.996" fill="#ff986b" d="M 985.5,1210.5 C 989.234,1213.23 992.234,1216.56 994.5,1220.5C 990.766,1217.77 987.766,1214.44 985.5,1210.5 Z"/></g>
<g><path style="opacity:0.996" fill="#ff996c" d="M 1042.5,1269.5 C 1046.23,1272.23 1049.23,1275.56 1051.5,1279.5C 1047.77,1276.77 1044.77,1273.44 1042.5,1269.5 Z"/></g>
<g><path style="opacity:0.996" fill="#ff986b" d="M 1070.5,1298.5 C 1074.23,1301.23 1077.23,1304.56 1079.5,1308.5C 1075.77,1305.77 1072.77,1302.44 1070.5,1298.5 Z"/></g>
<g><path style="opacity:0.996" fill="#ff996c" d="M 1127.5,1357.5 C 1131.23,1360.23 1134.23,1363.56 1136.5,1367.5C 1132.77,1364.77 1129.77,1361.44 1127.5,1357.5 Z"/></g>
<g><path style="opacity:0.996" fill="#ff986a" d="M 1184.5,1416.5 C 1187.9,1418.9 1190.57,1421.9 1192.5,1425.5C 1189.1,1423.1 1186.43,1420.1 1184.5,1416.5 Z"/></g>
<g><path style="opacity:0.996" fill="#ff986b" d="M 1212.5,1445.5 C 1216.23,1448.23 1219.23,1451.56 1221.5,1455.5C 1217.77,1452.77 1214.77,1449.44 1212.5,1445.5 Z"/></g>
<g><path style="opacity:0.996" fill="#ff996c" d="M 1269.5,1504.5 C 1272.5,1506.83 1275.17,1509.5 1277.5,1512.5C 1273.83,1510.83 1271.17,1508.17 1269.5,1504.5 Z"/></g>
<g><path style="opacity:0.996" fill="#ff986b" d="M 1297.5,1533.5 C 1301.23,1536.23 1304.23,1539.56 1306.5,1543.5C 1302.77,1540.77 1299.77,1537.44 1297.5,1533.5 Z"/></g>
</svg>
